<?xml version="1.0" encoding="UTF-8"?>
<svg id="Layer_3" data-name="Layer 3" xmlns="http://www.w3.org/2000/svg" viewBox="0 0 320.59 251.82">
  <defs>
    <style>
      .cls-1 {
        fill: #09090a;
      }

      .cls-1, .cls-2, .cls-3, .cls-4, .cls-5, .cls-6, .cls-7, .cls-8, .cls-9, .cls-10, .cls-11, .cls-12, .cls-13, .cls-14, .cls-15, .cls-16, .cls-17, .cls-18, .cls-19, .cls-20, .cls-21, .cls-22, .cls-23, .cls-24 {
        stroke-width: 0px;
      }

      .cls-2 {
        fill: #bababa;
      }

      .cls-3 {
        fill: #080809;
      }

      .cls-4 {
        fill: #000021;
      }

      .cls-5 {
        fill: #272321;
      }

      .cls-6 {
        fill: #b2c4e9;
      }

      .cls-7 {
        fill: #20305b;
      }

      .cls-8 {
        fill: #6c788f;
      }

      .cls-9 {
        fill: #423528;
      }

      .cls-10 {
        fill: #273d77;
      }

      .cls-11 {
        fill: #325eb9;
      }

      .cls-12 {
        fill: #b1b1b1;
      }

      .cls-13 {
        fill: #f2d493;
      }

      .cls-14 {
        fill: #5b514c;
      }

      .cls-15 {
        fill: #463d36;
      }

      .cls-16 {
        fill: #243565;
      }

      .cls-17 {
        fill: #453a31;
      }

      .cls-18 {
        fill: #f1f1f1;
      }

      .cls-19 {
        fill: #090909;
      }

      .cls-20 {
        fill: #243566;
      }

      .cls-21 {
        fill: #fdfdfd;
      }

      .cls-22 {
        fill: #0a0a0a;
      }

      .cls-23 {
        fill: #080808;
      }

      .cls-24 {
        fill: #efefef;
      }
    </style>
  </defs>
  <path class="cls-23" d="M237.65,133.19c-.77,1.93-1.74,3.76-2.73,5.6-1.91,3.53-2.4,7.32.04,10.96,1.58,2.36,3.12,4.76,4.77,7.06,2.08,2.89,3.1,6.12,3.49,9.61.43,3.81-.71,7.1-3.27,9.88-.57.62-.76,1.12-.62,1.95,1.21,7.59-1.72,13.59-8.4,17.34-2.5,1.4-5.17,2.37-7.95,2.97-1.13.25-1.56.67-1.71,1.95-1.11,9.77-3.3,19.3-6.73,28.52-1.93,2.56-3.46,5.45-6.52,7.01-2.28,1.16-4.49,2.46-6.89,3.36-.58.22-1.22.25-1.81.14-5.45-.99-10.6-2.62-14.41-7-.09-.1-.19-.19-.27-.3-.5-.7-1.43-1.49-.68-2.27.61-.64,1.51.14,2.17.52,1.27.74,2.03,2.22,3.63,2.47,2.32,1.08,4.63,2.14,7.2,2.55,2.13.34,4.14.16,6.07-.83,1.62-.72,3.03-1.78,4.53-2.71,1.33-.82,2.17-1.98,2.77-3.4,3.47-8.24,5.26-16.92,6.76-25.68.06-.33.03-.68.09-1.01.2-1.13-.24-1.67-1.4-1.63-.4.01-.81-.02-1.22-.08-1.02-.15-1.81-.63-2.09-1.66-.29-1.04.04-1.87,1.07-2.34,2.02-.59,4.12-.79,6.2-1.04,4.05-.49,7.73-1.89,11.1-4.17,3.78-2.56,4.86-6.38,4.82-10.6-.02-2.11-1.13-3.78-3.04-4.97-3.88-2.42-8.23-3.13-12.61-3.48-6.3-.5-12.57-.17-18.64,2-4.31,1.54-7.71,4.11-10.23,7.92-1.34,2.03-2.69,4.05-3.81,6.22-.94,1.13-1.02,2.6-1.52,3.9-.1.19-.24.36-.4.5-1.63.56-1.99.34-1.84-1.22.15-1.63.77-3.15,1.2-4.71.51-1.87.22-2.19-1.64-2.51-2.79-.49-5.55-.84-8.4-.23-1.65.35-3.36-.15-5.04-.26-.51-.04-1.21-.1-1.21-.8,0-.68.59-1.29,1.17-1.17,2.18.44,4.15-.73,6.35-.62,2.13.11,4.36-.59,6.59-.49,2.39.34,4.28-.3,5.77-2.39,5.15-7.22,12.92-9.32,21.1-10.58,5.29-.82,10.5-.18,15.71.61,3.86.58,7.42,1.99,10.72,4.08.69.43,1.37,1.01,2.12.1,2.55-3.87,1.5-7.69-.39-11.34-1.33-2.57-3.04-4.95-4.76-7.3-1.79-2.45-3.04-5.1-3.48-8.12-.1-2.34.53-4.55,1.24-6.74.82-2.82,2.33-5.32,3.65-7.9,1.38-2.68,2.39-5.43,2.44-8.49,0-.68.21-1.33.48-1.96.95-1.99,1.03-4.21,1.66-5.86-.04.79-.63,1.72-1.5,2.51-2.54,1.09-3.58.65-3.98-1.96-.46-2.95-1.91-5.32-3.92-7.42-1.16-1.21-2.6-2.03-4.28-2.12-6.81-.38-13.4.39-19.36,4.08-1.84,1.14-3.67,2.3-5.46,3.53-1.68,1.16-2.97,1.13-3.79.04-.8-1.08-.57-2.69.79-3.79,4.22-3.4,8.49-6.75,13.68-8.62,6.61-2.81,13.31-3.47,20.17-.93,2.56.95,4.8,2.38,6.69,4.02-1.22-5.45-3.78-10.46-8.21-14.47-1.23-1.11-2.42-1.51-4.04-1.18-6.76,1.41-13.51,3.03-20.4,3.5-3.88.27-6.05,1.68-7.17,5.38-.62,2.05-2.08,3.78-3.58,5.38-5.15,4.69-11.21,7.54-18.05,8.61-9.51,1.49-18.06-1.26-26.03-6.28-1.8-1.13-3.19-2.71-4.72-4.14-1.71-1.65-3.34-3.38-4.72-5.31-.88-1.23-1.99-1.7-3.47-1.68-3.59.05-7.18,0-10.77.02-6.53.05-12.96-.91-19.38-1.96-1.72-.28-2.76.08-3.72,1.56-2.01,3.11-3.52,6.4-4.34,10.01-1.63,5.7-1.73,11.36.42,16.98.91,2.39,1.87,4.76,2.73,7.16.37,1.25-.16,2.19-.97,3.1-1.59,1.79-3.56,3.07-5.52,4.39-4.11,2.76-5.06,6.7-4.28,11.3.08.84.76.81,1.34.95,1.19.29,2.41.33,3.61.56,4.86.96,8.61,3.66,11.94,7.21,3.21,3.43,6.18,6.98,8.39,11.15.93,1.75,2.53,2.77,4.59,2.95,1.29.12,2.53.43,3.71.98,3.39,2.18,7.24,2.07,11.03,2.14,3.53.07,6.43,1.38,8.75,4.02.36.41.88.9.6,1.4-.37.65-1.11.38-1.66.16-2.44-.98-4.81-2.15-7.33-2.94-.71-.22-1.39-.59-2.15-.56-4.55.18-8.93-.84-13.34-1.71-1.7-.33-2.02.12-1.53,1.89.83,2.98,2.06,5.86,2.35,8.98.36,4.03,1.86,7.82,2.45,11.8.19,1.32.04,2.68.03,4.02-.01.88-.47,1.85-1.55,1.8-.99-.05-.85-1.05-.96-1.75-.57-3.46-.85-6.98-2.33-10.23-.87-1.86-1.54-3.86-1.58-5.85-.11-5.16-2.36-9.54-4.48-14-2.49-5.23-6.32-9.43-10.42-13.39-2.53-2.44-5.7-3.64-9.18-3.88-5.48-.38-10.91-.49-16.26,1.31-3.39,1.14-6.22,2.95-8.52,5.63-2.14,2.5-2.25,6.05-.53,8.89,2.5,4.13,6.39,6.31,10.72,7.95,4.9,1.85,10.01,2.27,15.18,2.3,1.34,0,2.74-.22,3.89.76,1.33,2,.73,3.33-1.66,3.53-2.03.17-4.06.04-6.1.06-1.09.01-1.63.4-1.46,1.6,1.01,7.22.71,14.63,3.04,21.68,1.44,4.35,3.53,8.09,8.37,9.41.86.23,1.72.38,2.61.34,3.77.26,7.42-.34,10.97-1.62,2.8-1.01,4.86-2.87,6.25-5.49.82-.91.81-2.13,1.21-3.2.3-.8.73-1.59,1.69-1.48.92.11.95,1.05,1.09,1.76.26,1.32-.21,2.55-.67,3.74-1.87,4.8-5.5,7.6-10.39,8.79-3.07.75-6.19,1.42-9.37,1.29-4.79-.19-9.01-1.72-12.11-5.6l.03.04c-3.17-4.88-4.3-10.44-5.08-16.05-.49-3.52-.52-7.1-.92-10.65-.07-.61-.17-1.2-.27-1.8-.78-4.34-.83-4.17-5.1-5.37-5.89-1.65-11.14-4.39-14.71-9.7-2.89-4.29-2.38-10.11,1.04-14.02,4.11-4.69,9.53-6.44,15.34-7.51,1.32-.24,2.63-.59,4.01-.49,1.31.1,1.75-.62,1.73-1.89-.02-1.76-.14-3.52.09-5.27.58-4.42,3.48-7.18,6.86-9.59.66-.47,1.4-.83,1.99-1.38.46-.43,1.31-.82.93-1.6-.36-.74-1.14-.53-1.81-.31-2.17.71-4.41.61-6.63.53-3.94-.16-7.76-.83-11.26-2.84-1.65-.95-2.65-2.71-4.49-3.41-.4-.15-.68-.72-.41-1.22.29-.55.83-.35,1.27-.26,1.75.34,3.05,1.75,4.82,2.04.57.28,1.12.59,1.72.81,4.2.59,8.31,1.9,12.65,1.18,1.32-.22,1.61-.5,1.17-1.9-1.16-3.63-1.58-7.37-1.11-11.21.3-2.41.34-4.86.72-7.27.7-4.4,2.19-8.5,4.61-12.27,1.06-1.66.97-1.81-.93-2.21-4.44-.93-8.92-1.66-13.41-2.28-2.88-.4-5.24,1.13-7.34,2.86-2.54,2.1-4.47,4.7-5.72,7.78-.61,1.06-.94,2.71-2.61,2.19-1.8-.56-.76-2.13-.7-3.28.03-.58.23-1.17.44-1.74,1.73-4.2,4.68-7.35,8.62-9.9-4.93-1.96-9.76-3.89-14.6-5.79-1.75-.68-2.85-2.71-2.28-4.45.33-1.01,1.15-1.3,2.11-1.16,5.77.82,11.15-.6,16.39-2.82,7.28-3.08,14.63-6.02,21.15-10.66,2.1-1.5,3.38-2.96,2.78-5.6-.56-2.36.42-4.64.39-6.97,0-.46.23-.99.79-1.03.7-.05.86.55.96,1.08.19,1.04.03,2.18.93,2.99,1.23,2.75,1.47,5.59.64,8.49-.44,1.53-1.72,2.36-2.91,3.27-5.64,4.3-11.97,7.34-18.47,10.07-4.73,1.99-9.42,4.14-14.56,4.94-.65.1-1.3.22-1.52.19,1.84.37,3.69,1.91,5.94,2.39,3.09,1.13,6.24,2.07,9.51,2.57,10.1,1.22,19.94,3.9,30.03,5.14,4.97.61,9.96,1.06,14.98,1.06,11.65,0,23.3.06,34.95-.03,3.94-.03,7.82.76,11.76.5.81-.05,1.63.07,2.42-.2.46-.14.95-.16,1.42-.2,5.96-.13,11.87-.97,17.8-1.33,9.18-.56,18.14-2.38,27.09-4.12,7.3-1.42,14.67-2.65,21.84-4.69,2.68-.76,5.16-2.05,7.63-3.23-10-3.27-20.27-6.03-29.25-11.93-2.51-1.65-5.41-2.52-7.92-4.14-2.91-1.87-2.96-2.41-1.68-5.59.95-2.35.71-4.93.99-7.4.96-8.43-.24-16.75-1.18-25.08-.05-.47-.07-.95-.05-1.42.12-.7-.02-1.69.96-1.76,1.05-.08,1.13.92,1.4,1.68,2.8,7.77,2.98,15.86,2.54,23.93-.12,2.18-.07,4.48-.69,6.71-.44,1.61-.19,3.49-.07,5.2.11,1.47,1.66,2.31,3.03,2.65,1.96.48,3.56,1.59,5.24,2.55,2.4,1.38,4.76,2.82,7.4,3.71,6.28,2.43,12.58,4.76,19.04,6.68,2.19.65,4.38,1.35,6.71,1.33.89,0,1.68.33,2.58.84-.87.92-.95,2.23-1.94,3-2.1.38-3.92,1.44-5.75,2.43-1.34.72-1.3,1.08.15,1.8,6.05,2.99,10.57,7.47,13.15,13.73,1.64,3.98,1.98,8.14,1.47,12.47-.48,4.09-2.13,7.62-4.23,11.03-2.25,3.65-5.36,6.38-9.07,8.48-2.18,1.23-4.38,2.42-6.75,3.22-3,1.01-6.05,1.11-9.19.53-2.88-.53-2.9-.39-3.78,2.56Z"/>
  <path class="cls-19" d="M105.82,51.71c-1.82-.91-.86-2.88-1.71-4.25.08,2.66-1.37,5.03-1.18,7.67-.6-1.21-.41-2.53-.4-3.8.04-9.34-.55-18.7.44-28.02.23-2.22.6-4.43,1.1-6.61,1.96-8.49,6.69-12.79,15.39-13.74,8.14-.89,16.08-.19,23.64,3.34,5.15,2.41,10.49,4.38,15.92,6.11,3.46,1.1,6.77.98,10.11-.4,4.21-1.73,8.05-4.17,12.14-6.13,2.69-1.29,5.32-2.69,8.05-3.87,13.02-5.61,25.96.73,29.14,14.56,2.58,11.23,3.1,22.66,1.91,34.14-.12,1.15-.03,2.35-.36,3.43-.68,2.23.4,3.11,2.26,3.89,4.56,1.92,8.58,4.86,13.01,7.03-2.6-.21-4.59-1.86-6.8-2.95-2.08-1.03-3.87-2.49-6.34-2.87-1.46-.23-2.73-1.64-2.8-3.34-.13-3.01-.62-6.18.12-8.99,1.01-3.85.46-7.62.61-11.41.1-2.46-.67-4.93-.78-7.35-.14-2.97-2.03-5.34-2.04-8.24,0-.47-.19-1.09-.79-.93-.69.19-.3.92-.41,1.41-1.5-.74-1.1-2.13-1.14-3.36,1.37-2.61,1.03-4.36-1.08-6.58-1.29-1.36-2.45-2.83-3.78-4.16-.7-.7-1.21-.66-1.8.04-1.86-.17-3.54-.78-4.93-2.07,0-1.16-.86-1.38-1.73-1.63-3.1-.92-6.15-.56-9.2.26-3.47.93-6.83,2.11-10.03,3.8-3.89,2.05-7.92,3.82-11.76,5.95-5.42,3-10.66,2.59-16.06-.05-2.65-1.29-5.49-2.32-8.55-1.24-1.01.22-1.85-.28-2.69-.7-5.42-2.7-11.11-4.21-17.22-3.94-2.83.13-5.66-.21-8.48.52-4.9,1.27-8.08,4.19-9.39,9.1-.97,4.5-1.64,9.05-1.71,13.64-.09,6.28-.01,12.56-.03,18.84,0,.99.17,2.05-.63,2.88Z"/>
  <path class="cls-1" d="M189.65,233.48c-1.02-.05-1.78-.61-2.41-1.34-.84-.99-1.89-1.62-3.29-2.02.56,1.9,1.99,3.09,3.26,4.09,3.54,2.77,7.78,4.13,12.16,4.94,1.52.28,2.93-.55,4.22-1.15,2.29-1.06,4.4-2.51,6.56-3.82.9-.55,1.42-1.42,1.85-2.36.54-1.19,1.28-2.22,2.53-2.76-1.54,5.16-6.04,7.15-10.22,9.47-.53.29-1.12.47-1.68.71-1.72.74-3.5.71-5.31.39-10.66-1.59-16.1-7.91-18.06-16.47-.33-1.44-.42-2.96-.38-4.44.25-11.08,1.25-22.05,5.17-32.54.52-1.4.38-1.75-1.18-1.95-3.88-.49-7.76-.37-11.56.18-10.14,1.45-19.4-.87-28-6.1-3.54-2.15-7.28-3.12-11.34-3.37-3.52-.22-6.94-1.18-10.39-1.84-2.13-.4-2.06-.42-1.49,1.6,2.17,7.69,3.76,15.51,5.02,23.39.53,3.3.28,6.63-.61,9.87-1.07,3.92-3.25,7-7.03,8.71-5.82,2.65-11.88,3.78-18.19,2.17-3.07-.78-5.81-2.23-7.41-5.2,1.39.52,1.98,2.02,3.22,2.69,3.88,2.07,7.82,3.04,12.37,2.15,3.13-.61,6.33-.73,9.31-2.09,4.18-1.9,6.08-5.51,7.28-9.61.27-.93-.05-2.48-.78-2.65-1.16-.26-1.05,1.22-1.37,2.04-.33.85-.12,1.94-1.11,2.5-.72-1.22.04-2.37.21-3.53.63-4.42.08-8.74-.91-13.04-.25-1.08-.86-2.18-.13-3.32,1.42,2.29,1.51,4.96,2.09,7.48.27,1.17.3,2.4.44,3.6.04.32-.06.74.34.86.51.16.74-.27.88-.63.62-1.59.39-3.31.23-4.89-.24-2.38-.66-4.77-1.46-7.07-.96-2.78-.54-5.83-1.59-8.62-.68-1.82-1.27-3.68-1.73-5.59-.4-1.64.29-2.17,1.59-1.74,3.34,1.12,6.93.6,10.25,1.8.61.22,1.44-.17,2.17-.27,2.96-.4,5.16,1.74,7.82,2.38,1.47.35,2.85,1.08,4.82,1.86-2.82-3.48-5.78-5.38-9.81-5.12-2.49.16-4.92-.49-7.41-.51-1.22-.01-2.44-1.21-3.65-1.87.45-.47,1.03-.47,1.62-.43,3.31,1.07,6.8,1,10.19,1.49,2.51.37,4.79,1.29,7.01,2.52,5.5,3.05,11.02,6.06,17.47,6.67,1.35.13,2.69.15,4.04.16,1.15.04,2.29.08,3.4-.29,3.06-.17,6.09-.74,9.17-.56.99.09,1.99-.06,2.98.02.74.06,1.66-.09,1.92.97-4.72.02-9.34.79-13.96,1.63,3.04.31,5.96,1.38,9.09.31,1.37-.47,3.01.72,4.62.66.46-.02.92.24,1.38.25,1.73.03,2.12.97,1.61,2.42-.69,1.97-1.28,3.95-1.57,6.08.69.37,1.15-.26,1.71-.29.66.9.25,1.84.02,2.73-2.07,7.84-2.63,15.85-2.76,23.91-.08,5.16,1.8,9.5,5.61,12.99.53.49,1.26.86,1.17,1.77Z"/>
  <path class="cls-19" d="M307.21,124.21c.22,7.84-4.7,10.69-13.35,9.48-1.86-.26-2.58.05-3.06,1.68-.32,1.1-.72,2.19-1.2,3.23-.72,1.56-2.01,1.93-3.26.82-1.12-.99-2.38-1.47-3.78-1.83-1.84-.47-2.54-1.71-1.65-3.35,2.06-3.82,3.76-7.79,5.31-11.84.87-2.27,2.78-2.46,4.44-.61.95,1.06,1.92,1.67,3.37,1.21,1.01-.32,1.33-1.07,1.34-2.03.01-1.53-.8-2.57-2.11-3.2-1-.48-2.07-.48-3.18-.3-2.57.41-3.46-.55-2.92-3.01.95-4.38,1.54-4.81,6.05-4.32,1.07.12,2.15.29,3.2.53,6.93,1.6,10.77,6.43,10.79,13.54Z"/>
  <path class="cls-19" d="M37.49,77.27c1.16.15,2.31.22,3.44.44,7.71,1.55,10.35,4.39,10.19,13.46-.06,3.21-2.33,5.42-4.81,7.18-1.17.83-1.32,1.44-.54,2.55.46.65.8,1.42,1.07,2.18.44,1.25.11,2.15-1.17,2.82-5.55,2.95-5.55,2.99-8.52-2.57-1.24-2.33-2.37-4.71-3.87-6.9-1.38-2.02-.75-3.64,1.6-4.32.97-.28,2-.36,3-.51,1.51-.23,2.01-1.26,1.97-2.62-.05-1.37-1-1.81-2.2-1.89-1.54-.09-2.92.27-4.13,1.33-1.65,1.44-2.67,1.28-3.72-.59-3.06-5.41-2.94-8.07,4.48-10.1,1.03-.28,2.14-.32,3.21-.47Z"/>
  <path class="cls-22" d="M68.77,95.52c.23.97-.34,1.83-.35,2.76,0,.77-.27,1.76.86,1.96.91.16,1.22-.62,1.51-1.32.12-.3.31-.57.47-.85.36.34.42.77.4,1.23-.61,3.74-.99,7.48-.35,11.28.72,4.26,2.61,7.75,6.11,10.36.81.6,2,.99,1.97,2.34-2.21.02-3.69-2.03-5.82-2.18-.23.39-.05.63.16.76,3.38,2.11,6.14,5.3,10.4,5.88,4.03.54,8.05.72,12.07-.09.32-.06.69-.2.97-.1,1.06.36,1.81.93.58,1.96-1.39,1.16-2.82,2.3-4.28,3.38-3.43,2.54-5.21,5.85-5.15,10.17.07,4.64,0,4.62-4.51,5.52-4.34.86-8.75,1.61-12.5,4.17-4.52,3.09-7.72,6.99-6.95,12.91.5,3.83,3.11,6.46,5.89,8.65,3.41,2.67,7.32,4.66,11.66,5.47,2.46.46,3.81,1.69,3.97,4.26.18,2.88.7,5.73.91,8.62.42,5.84,1.27,11.65,3.36,17.2.5,1.32,1.81,2.24,1.77,3.79-3.56-4.18-4.28-9.41-5.22-14.52-.92-5-.71-10.13-1.5-15.16-.32-2.04-1.07-2.86-3.13-3.35-6.52-1.54-12.4-4.29-16.38-10.09-3.07-4.48-2.94-10.11.53-14.31,2.61-3.15,5.85-5.43,9.83-6.55,3.39-.95,6.8-1.9,10.34-2.04.97-.04,1.39-.35,1.19-1.33-.01-.07,0-.14-.01-.2-.85-7.15,2.03-12.36,8.26-15.82.29-.16.59-.35.83-.58.4-.39,1.32-.61.89-1.35-.31-.54-.98-.03-1.49.05-7.78,1.2-15.15.54-21.5-4.72-4.58-3.79-7-8.71-7.41-14.61-.28-4.01.15-7.99.89-11.93.11-.59.24-1.2.73-1.63Z"/>
  <path class="cls-22" d="M280.14,153.84c-3.23-.04-5.91-2.63-5.91-5.73,0-2.66,2.45-5.33,4.85-5.28,2.89.06,6.88,4,6.84,6.76-.03,2.33-2.69,4.28-5.78,4.24Z"/>
  <path class="cls-22" d="M50.88,122.98c-3.2-.02-5.2-1.75-5.56-4.48-.34-2.55,1.35-5.9,3.45-5.98,2.43-.1,4.74.89,6.44,2.81,1.17,1.32,1.59,2.9.79,4.52-1.11,2.24-3.15,3.03-5.12,3.13Z"/>
  <path class="cls-22" d="M237.65,133.19c.26-2.83.87-3.53,3.51-2.95,4.74,1.06,9.12.01,13.26-2.03,5.65-2.79,10.08-6.83,13.13-12.57,3.29-6.21,3.67-12.57,2.04-19.08-.84-3.38-2.98-6.3-5.34-8.96-2.51-2.82-5.64-4.73-8.89-6.49-.65-.35-1.58-.73-.35-1.51,2.05-1.29,4.09-2.66,6.67-2.66-2.11,1.02-4.22,2.05-6.61,3.21,1.53.89,2.8,1.59,4.02,2.35,15.36,9.57,16.55,30.86,2.32,42.08-3.48,2.75-7.32,4.87-11.6,6.14-2.86.85-5.81,1-8.63.19-1.86-.54-2.57.08-3.08,1.62-.08.24-.29.44-.44.65Z"/>
  <path class="cls-2" d="M197.33,239.61c1.78-.03,3.57.25,5.31-.39-1.68,1.38-3.49.96-5.31.39Z"/>
  <path class="cls-11" d="M165.27,181.31c-5.05.32-9.81-.8-14.33-2.97-2.74-1.32-5.45-2.71-8.1-4.21-2.98-1.69-6.2-2.25-9.53-2.45-2.3-.14-4.57-.39-6.75-1.21-1.71-1.89-2.38-4.39-3.77-6.47-4.76-7.16-10.83-12.56-19.3-14.94-2.79-.78-5.38-2.16-8.37-2.34-1.3-.08-2.7.79-3.93-.25-.91-5,.21-9.2,4.7-12.11,1.81-1.17,3.63-2.32,5.13-3.9.73-.76,1.33-1.53,1.08-2.67.14-1.28,1.18-1.24,2.06-1.34,1.06-.12,2.08.24,3.11.42,1.39.52,2.84.64,4.31.83,4.37.56,8.17,2.19,10.21,6.48.47.98,1.07,1.86,1.7,2.73.83,2.51,2.28,4.42,4.99,5.11,1.95.5,3.13-.51,2.67-2.47-.77-3.29-1.74-6.53-4.12-9.1-.53-.57-.75-1.11-.17-1.76,4.78-2.48,5.65-6.55,4.54-11.36-.34-1.45.48-1.89,1.55-2.38,3.46-1.58,6.87-3.23,9.52-6.09.92-1,1.47-2.12,1.39-3.48-.07-1.13-.62-1.45-1.61-.79-.23.15-.42.34-.62.53-3.23,2.88-6.94,4.69-11.08,6.11-6.6,2.27-13.31,3.62-20.2,4.34-2.24.23-4.46.25-6.45-1.09-.81-1.12-.02-1.73.76-2.32,2.12-1.6,4.46-2.85,6.81-4.03,6.77-3.39,13.92-5.72,21.35-7.05,3.84-.69,7.83-.39,11.72-1.01.55-.09,1.06.14,1.52.47,7.27,7.04,16.07,10.47,26.09,10.44,8.38-.02,15.66-3.3,21.95-8.79,5.08-1.92,10.37-2.02,15.69-1.8.55.02,1.28.05,1.32.92-4.95,2-9.23,5.09-13.32,8.45-1.06.87-1.89,2-.83,3.31,1.06,1.31,2.15.46,3.16-.32,6.51-5.05,13.79-7.62,22.12-7.98,6.59-.28,10.87,5.2,11.62,10.2.38,2.52.78,2.75,3.3,1.79,1.64,1.05.45,2.45.46,3.71-.02.07-.05.13-.05.2-.07,6.78-4.07,12.15-6.49,18.09-.28.77-.69,1.33-1.61.89-1.85-.88-3.74-.68-5.69-.42-1.28.17-2.67.46-3.83-.55-.54-1.73.1-3.46.06-5.21-.06-2.5-1.08-4.32-2.89-5.97-4.9-4.45-12.92-2.93-16.83.38-3.08,2.61-3.81,7.9-1.62,11.3.63.97,1.41,1.81,2.27,2.58,2.32,2.07,2.32,2.09-.11,3.97-1.61,1.03-3.1,2.2-4.03,3.91-.37.67-.6,1.42,0,2.08.62.69,1.34.45,2.04.09,5.98-3.07,12.45-4.36,19-5.46,3.68-.62,7.45,0,11.08-1,.33-.09.66.08.91.34.75,4.99,4.17,8.56,6.77,12.55,2.01,3.08,3.44,6.27,3.33,10-.05,1.57-.43,3.08-1.48,4.33-.87.18-1.34-.5-1.94-.91-4.03-2.74-8.04-5.47-12.84-6.78-2.86-.78-5.7-1.05-8.61-.41-6.59,1.46-13.33,2.32-19.73,4.59-1.09.38-2.21.72-3.12,1.43-3.99,3.1-8.66,5.33-12.02,9.23-.69.8-1.61.54-2.39.87-3.1.17-6.2.33-9.3.5-1.05.35-2.16-.02-3.22.22Z"/>
  <path class="cls-9" d="M215.22,16.75c.03,1.28.33,2.5.82,3.67.5,4.96,1.07,9.91,1.48,14.87.19,2.35.2,4.74.09,7.1-.15,3.3-.51,6.58-.75,9.87-.09,1.16-.24,2.26-1.06,3.19-1.03,1.18-.75,2.26.48,3.08,1.34.89,2.67,1.8,4.21,2.39,2.85,1.1,5.39,2.82,8,4.37,8.12,4.8,17.16,7.2,26.03,10.06.48.16.97.32,1.44.47-8.12,4.97-17.39,5.67-26.31,7.69-6.51,1.47-13.09,2.48-19.63,3.74-2.77.53-5.6.79-8.41,1.07-5.49.55-10.99,1.06-16.49,1.53-1.62.14-3.25.08-4.87.11-2.43-.5-4.88-.04-6.88-.22-.7.09-.3.46-.45.23-.05-.08,0-.13.15-.14,2-.06,4.01-.3,6,.13-2.85.77-5.76.34-8.63.23-.99-.04-2-.23-3.01-.23-12.11-.01-24.23-.02-36.34-.03-8.92,0-17.73-.98-26.48-2.72-6.46-1.28-12.92-2.62-19.48-3.39-.31-.04-.61-.24-.92-.36-3.01-1.16-6.17-1.74-9.29-2.49-2.64-.46-4.71-2.31-7.51-2.96,11.38-1.78,21.26-6.79,31-12.09,2.06-1.12,3.9-2.67,5.87-3.97,1.85-1.23,2.32-3.1,2.33-5.09,0-1.74-.24-3.48-.78-5.16,0-7.64-.15-15.29.07-22.93.13-4.34.53-8.71,1.93-12.89,1.77,1.81,2.3,3.83,1.95,6.44-.42,3.12-.36,6.33.28,9.48,1.45,7.1,3.32,14.06,6.83,20.48,1.6,2.93,3.59,5.54,6.04,7.82.53.49,1.46.85,1.14,1.9-.98.53-1.85.02-2.72-.31-2.22-.83-4.37-1.85-6.64-2.53-.67-.2-1.58-.59-1.93.38-.28.76.45,1.2,1.03,1.56,2.05,1.25,4.3,1.99,6.63,2.48,9.55,2,19.19,3.27,28.94,3.9,8.4.54,16.8.47,25.18.23,7.15-.21,14.31-.84,21.27-2.93,3.87-1.17,8.02-1.47,11.41-3.99.16-.12.36-.19.53-.3.73-.48,1.76-.98,1.2-2.01-.55-1-1.63-.57-2.35-.12-3.15,1.99-6.7,2.88-10.23,3.85-.71.19-1.41.53-2.17.21-.5-1.15.52-1.51,1.11-2.05,4.23-3.88,8.31-8.02,10.05-13.58,2.52-8.04,5.36-16.05,4.91-24.75-.19-3.7.66-7.38,1.92-10.91.33-.28.69-.18.86.11,1.04,1.7,2.36,3.3,2.16,5.5Z"/>
  <path class="cls-11" d="M189.65,233.48c-7.41-5.48-8.03-13.2-7.18-21.46.69-6.71,1.27-13.42,3.14-19.94,0,0-.04-.02-.04-.02.38-1.38.7-2.78,1.3-4.09,1.27-3.08,3.21-5.75,5.25-8.34,4.53-5.73,11.06-7.35,17.79-8.16,6.56-.79,13.14-.41,19.45,1.83,3.3,1.17,6.66,2.61,6.83,6.85.17,4.37-.95,8.34-4.75,11.08-4.24,3.07-9.06,4.45-14.22,4.85-1.21.09-2.42.27-3.63.41-1.02.52-2.06.49-3.15.23-1.91-.45-3.83-.85-5.81-.86-2.92.22-4,1.84-3.17,4.77.34.76.95,1.31,1.47,1.93,3.06,3.63,5.8,7.54,5.82,12.44.02,4.3-.23,8.67-1.53,12.86-.85,2.74-1.98,5.33-4.19,7.3-3.17,1.96-6.37,1.02-9.53.04-1.34-.41-2.58-1.14-3.87-1.72Z"/>
  <path class="cls-11" d="M119.97,188.78c.48,3.19,1.52,6.26,1.79,9.51.3,3.54.03,6.98-.96,10.38-2.79,5.65-8.18,6.52-13.57,7.31-1.25.18-2.56.02-3.84.02-3.38-1.63-5.86-4.19-6.95-7.74-1.34-4.36-1.86-8.86-.88-13.41.55-2.59,1.74-4.79,3.87-6.47,1.33-1.05,2.53-2.24,3.2-3.87,1.06-2.56.25-4.23-2.43-4.85-.72-.17-1.47-.22-2.13-.61-1.8-.87-3.73-.49-5.6-.51-6.33-.06-12.34-1.27-17.94-4.37-2.96-1.63-5.13-3.96-6.81-6.79-1.53-2.57-1.01-6.44,1.1-8.93,2.34-2.74,5.24-4.54,8.71-5.67,6.28-2.06,12.63-1.83,19-.92,3.87.55,6.62,3.14,9.26,5.85,4.41,4.52,7.69,9.72,10.25,15.47,1.31,2.94,2.25,5.91,2.44,9.14.13,2.23.74,4.38,1.49,6.48Z"/>
  <path class="cls-20" d="M258.41,122.55c-3.79,2.82-7.9,4.95-12.66,5.46-1.38.15-2.82-.16-4.21-.41-1.45-.26-1.22-1.48-1.05-2.44.48-2.72,1.17-5.41,1.61-8.14,1.83-11.3-.78-21.29-8.89-29.61-.23-.23-.43-.5-.84-.97,4.14-.82,8.13-1.36,11.97-2.43,3.72-1.04,7.28-1.92,10.91.13,5.03,2.84,9.05,6.61,11.23,12.09.25.62.53,1.22.79,1.84.27.28.24.58.05.88-.96.16-1.85-.29-2.79-.36-8.95-.73-14.14,8.29-13.28,14.49.15,1.07.23,2.16.48,3.21.69,2.95,1.97,5.37,5.46,5.65.47.04.95.13,1.22.6Z"/>
  <path class="cls-20" d="M146.08,100.53c-11.93.41-23.46,2.56-34.2,8.01-2.41,1.22-4.67,2.72-6.98,4.12-.63.38-1.36.77-.71,1.71-.45.3-.79.11-1.1-.25-.84-1.61-1.75-2.97-3.98-2.56-1.33.25-1.31-.94-1.18-1.78.33-2.15.21-4.37.97-6.46.54-4.6,3.01-8.31,5.49-12.02.31-.46.73-.51,1.25-.4,10.83,2.33,21.82,2.52,32.83,2.33.94-.02,1.75.14,2.31.96,1.55,2.3,3.52,4.25,5.31,6.35Z"/>
  <path class="cls-13" d="M196,92.18c-1.47,3.63-2.91,6.71-5.77,8.9-16.08,12.26-36.29,5.62-45.35-7.13-.07-.1-.06-.25-.13-.59,16.98-.47,33.96,1.07,51.26-1.18Z"/>
  <path class="cls-20" d="M71.23,99.28c0-.4.02-.8.03-1.2,2.08-5.45,5.98-9.09,11.38-11.06,1.58-.58,3.3.32,4.94.56,3.87.57,7.7,1.34,11.55,2,1.42.25,2.02.63.95,2.13-3.96,5.52-5.21,11.86-5.72,18.51-.36,4.7-.28,9.27,1.3,13.76.47,1.33-.67,1.18-1.4,1.34-3.46.76-6.85.07-10.22-.59-1.16-.23-2.49.15-3.49-.8.14-.75.72-1.17,1.31-1.46,1.98-.97,3.05-2.83,4.41-4.39,1.17-1.34,1.22-2.96,1.11-4.6-.34-5.19-1.92-9.8-6.24-13.09-2.01-1.53-4.19-2.04-6.67-1.26-1.03.33-2.12,1.09-3.25.16Z"/>
  <path class="cls-20" d="M211.13,101.3c-2.91-.82-5.87-.43-8.79-.18-2.75.23-5.48.7-8.22,1.06,2.22-2.35,3.76-5.14,4.77-8.15.59-1.74,1.68-2.3,3.25-2.41,4.92-.35,9.76-1.24,14.6-2.11,3.12-.56,6.22-1.22,9.32-1.89,1.44-.31,2.47.04,3.63,1.07,5.07,4.51,7.85,10.18,9.09,16.74-8.09-7.3-17.09-8.24-26.87-4.29-.24.1-.52.11-.78.16Z"/>
  <path class="cls-11" d="M71.23,99.28c.6-.08,1.21-.08,1.78-.25,5.45-1.57,9.31,0,12.17,4.96,2.03,3.54,2.95,7.34,2.76,11.43-.07,1.56-.99,2.6-1.81,3.75-1.46,2.06-3.39,3.56-5.58,4.76-.39-.21-.78-.43-1.17-.64-.47-.89-1.4-1.25-2.15-1.78-4.47-3.11-6.33-7.6-6.76-12.79-.27-3.17-.06-6.34.75-9.45Z"/>
  <path class="cls-11" d="M258.41,122.55c-5.1.1-6.54-2.68-7.42-7.29-1.15-5.96.68-10.76,5.11-14.73,2.68-2.4,8.55-3.27,11.19-1.63,1.1,1.48.76,3.27.87,4.88.31,4.52-.71,8.78-3.36,12.55h0c-1.15,2.21-2.94,3.85-4.93,5.29-.48.31-.97.62-1.45.93Z"/>
  <path class="cls-20" d="M203.06,235.15c2.34-3.73,3.96-7.68,4.68-12.11,1.32-7.99.23-15.11-6-20.85-.44-.41-.74-.96-.76-1.61-.4-2.88.35-4.09,3.27-5.32,2.18-.12,4.28.39,6.36.88,1,.23,1.97.38,2.99.34-.72.62-1.14,1.35-.66,2.3.43.83,1.2.97,2.06.99,2.84.07,3.07.13,2.62,2.93-1.25,7.86-2.72,15.67-5.66,23.12-.12.31-.31.61-.38.94-1,4.67-4.59,6.71-8.53,8.39Z"/>
  <path class="cls-20" d="M98.07,179.03c.61,0,1.22-.04,1.82,0,3.12.22,4.49,2.44,3.41,5.35-.66,1.79-1.85,3.19-3.33,4.24-3.05,2.18-3.98,5.33-4.28,8.76-.29,3.31.19,6.59.91,9.82.89,3.95,3.92,6.32,6.78,8.79-5.12,0-9.17-2.89-11.05-8.23-1.63-4.65-2.64-9.45-2.84-14.42-.14-3.29-.54-6.57-1.01-9.84-.19-1.3.06-1.73,1.36-1.68,2.23.07,4.46.03,6.69.06.85.01,1.62-.09,2.12-.89.55-.89-.28-1.34-.6-1.96Z"/>
  <path class="cls-20" d="M177.79,180.59c1.18-.27,1.83-1.21,2.67-1.97,6.97-6.27,14.56-11.32,24.16-12.63,3.53-.48,7.02-1.28,10.5-2.05,5.13-1.14,9.78.31,14.21,2.64,3.22,1.69,6.39,3.51,9.11,5.98-.5,1.33-1.03,1.48-2.29.53-4.29-3.23-9.38-4.35-14.59-4.99-6.92-.85-13.7-.29-20.4,1.79-4.88,1.52-9,3.99-12.03,8.13-1.61,2.2-3.47,3.69-6.4,3-1.59-.85-3.31-.12-4.94-.43Z"/>
  <path class="cls-20" d="M91.19,146.46c9.57-.61,17.66,3.13,24.86,8.9,4.92,3.94,8.3,9.17,10.51,15.11-.54,0-1.08-.02-1.62-.03-1.11-.27-2.2-.68-3.33-.77-2.54-.2-4.28-1.49-5.39-3.67-2.85-5.65-7.17-10.09-11.84-14.18-3.27-2.86-7.46-3.62-11.66-4.06-.89-.09-1.66-.11-1.54-1.3Z"/>
  <path class="cls-20" d="M220.05,138.3c1.37.93,2.88.49,4.29.27,1.85-.28,3.66-.5,5.28.58.81.54,1.05-.05,1.48-.41-.57,2.29-1.28,4.55-1.26,6.94-6.65,1.27-13.57.72-20.09,2.81-3.75,1.2-7.8,1.62-11.07,4.12-.77.59-1.57.42-2.23-.14-.74-.62-.93-1.45-.53-2.38.95-2.22,2.67-3.66,4.71-4.8.81,1.55,1.94,1.79,3.51,1.04,3.29-1.57,6.79-2.21,10.42-2.02,1.68.09,2.72-.25,3.08-2.26.24-1.4.98-2.9,2.41-3.75Z"/>
  <path class="cls-16" d="M98.89,103.31c-.42,2.11.21,4.33-.73,6.41-.24.54-.31,1.6.94,1.44,2.55-.32,3.53.32,4.26,2.83-1.02.14-1.78-.54-2.65-.84-.44-.15-.9-.43-1.29.05-.39.47-.31,1.01-.06,1.52.37.78,1.09,1.17,1.8,1.56,2,1.11,4.22,1.42,6.42,1.71,1.85.24,3.09.91,2.9,3.04-.03.33.06.68.17,1,.53,1.63.55,2.92-1.67,3.16-1.21.13-1.12,1.36-1.53,2.16-1.79.07-3.69-1.23-5.35.43-1.57-3.72-3.58-7.35-4.09-11.36-.55-4.36-1.08-8.87.88-13.12Z"/>
  <path class="cls-22" d="M264.79,116.33c1.47-3.41,3.02-6.77,3.08-10.61.04-2.31-.08-4.58-.58-6.83,0-.27,0-.55-.01-.82,1.27,1.45.85,3.34,1.18,5.01.79,3.99-.69,7.71-1.88,11.42-.27.85-.91,1.49-1.78,1.83Z"/>
  <path class="cls-15" d="M74.92,80.98c3.37.06,6.51,1.17,9.69,2.09.04.01.06.09.08.13-.16.09-.32.18-.48.26-3.25-.28-6.29-1.33-9.3-2.49Z"/>
  <path class="cls-7" d="M237.64,120.46c-.23-1.23.42-2.56-.46-3.71.61-.95,1.21-1.9,2.14-3.34-.43,2.77-.58,5.01-1.68,7.05Z"/>
  <path class="cls-22" d="M259.86,121.62c1.64-1.76,3.29-3.53,4.93-5.29-.68,2.67-2.68,4.1-4.93,5.29Z"/>
  <path class="cls-17" d="M179.07,89.96h-6.41c2.54-.21,5.08-.91,7.6-.01-.4,0-.79,0-1.19.01Z"/>
  <path class="cls-1" d="M186.88,187.97c-.24,1.42-.58,2.82-1.3,4.09-.04-1.51.36-2.89,1.3-4.09Z"/>
  <path class="cls-14" d="M212.42,11.02c-1.07,5.35-1.84,10.7-1.77,16.21.04,3.04-.34,6.2-1.6,9.08-1.57,3.6-1.68,7.61-3.28,11.22-2.44,5.48-6.16,9.91-10.73,13.7-.36.3-.66.67-.98,1.01-.89,1.36-2.4,1.46-3.76,1.7-4.47.79-8.99,1.31-13.51,1.39-8.39.13-16.79.13-25.18,0-6.57-.1-13.08-1.02-19.59-1.79-1.42-.17-2.85-.1-4.25-.29-1.3-.17-2.77-.01-3.64-1.36-6.46-5.14-9.72-12.25-12.1-19.86-1.92-6.12-3.43-12.32-2.94-18.83.05-.6,0-1.23.16-1.8.41-1.47.41-2.82-.93-3.84-.6-.46-.39-1.1-.49-1.67,1.5-6.15,5.99-9.12,12.72-9.67,8.42-.69,16.63.22,24.16,4.5.4.23.9.27,1.35.39.79-.15,1.45.24,2.13.52,3.5,1.46,7.14,2.51,10.73,3.7,3.54,1.18,7.01.91,10.52-.37,3.77-1.38,7.13-3.57,10.72-5.29,3.96-1.9,7.79-4.07,11.87-5.73,3.34-1.36,6.73-1.19,10.15-.47.46.1.92.25,1.21.67l4.91,2.08c2.13.95,3.69,2.38,4.12,4.79Z"/>
  <path class="cls-23" d="M203.39,4.16c-2.74-.2-5.4-1.07-8.23-.51-1.62.32-3.16.83-4.6,1.52-4.75,2.29-9.47,4.67-14.14,7.12-2.28,1.19-4.57,2.33-6.98,3.26-3.75,1.46-7.5,1.49-11.28.15-4.06-1.45-8.31-2.43-12.11-4.57.31-.75.94-1.03,1.65-.86,2.4.55,4.9.59,7.17,1.87,2.48,1.39,5.29,2.34,8.08,2.33,2.31-.01,4.65-.92,6.81-2.02,4.83-2.45,9.69-4.86,14.54-7.27,4.09-2.03,8.49-3.16,12.97-3.69,1.85-.22,3.89.29,5.68,1.07.41.18,2.23.59.42,1.61Z"/>
  <path class="cls-23" d="M212.42,11.02c-.97-1.94-2.62-3.3-4.12-4.79.11-.5-.24-1.2.35-1.46.61-.27.88.45,1.28.77,2.12,1.65,3.39,4.13,5.59,5.74,1.11.81.79,4.57-.3,5.46-.83-1.96-1.51-3.99-2.8-5.72Z"/>
  <path class="cls-23" d="M163.4,183.08c-.5-.13-1.42.23-1.28-.73.12-.8.97-.46,1.52-.48.57-.02,1.43-.05,1.3.77-.12.75-1,.31-1.53.45Z"/>
  <path class="cls-8" d="M165.27,181.31c1.04-.57,2.14-.17,3.22-.22-1.04.53-2.13.43-3.22.22Z"/>
  <path class="cls-21" d="M295.01,113.89c1.87.49,3.71.98,5.29,2.24,3.11,2.48,4.57,8.23,2.94,11.85-.52,1.16-1.46,1.8-2.6,2.08-2.72.66-5.45,1.12-8.07-.49-1.1-.68-2.09-.3-2.84.7-.9,1.2-1.67,2.5-2.08,3.93-.39,1.36-1,1.18-2.05.77-1.37-.53-.64-1.2-.28-1.84,1.28-2.25,2.24-4.63,3.12-7.05.23-.63.31-1.02,1.22-.56,3.76,1.93,7.34,1,8.66-2.11,1.48-3.51-.31-7.32-4.13-8.81-.05-.02-.08-.11-.12-.16-.02-.77.41-.74.94-.54Z"/>
  <path class="cls-12" d="M295.01,113.89c-.32.17-.77.11-.94.54-1.03-.18-2.07-.37-3.1-.55,1.37-.67,2.71-.52,4.04.02Z"/>
  <path class="cls-21" d="M36.76,95.31c.75-.15,1.4-.27,2.05-.41,3.03-.68,4.68-3.05,4.43-6.34-.21-2.77-2.06-4.53-5.09-4.82-1.65-.16-3.24.06-4.77.73-.57.25-1.17.84-1.62-.24-.39-.92-.53-1.65.55-2.19.92-.46,1.85-.84,2.86-1.02,3.25-.59,6.33,0,9.3,1.34,1.38.62,2.22,1.71,2.66,3.16,1.62,5.29.6,8.03-4.11,10.96-2.15,1.34-2.38,2.27-1.11,4.5.13.23.34.45.41.7.17.66,1.4,1.28.18,2.01-1.28.77-1.45-.53-1.86-1.15-.62-.96-1.08-2.03-1.62-3.05-.73-1.37-1.47-2.72-2.26-4.17Z"/>
  <path class="cls-18" d="M280.32,150.5c-1.49-.18-2.55-.81-2.62-2.34-.05-1.03.64-1.59,1.68-1.58.98.01,3.07,1.91,2.93,2.73-.19,1.16-1.28.93-1.99,1.19Z"/>
  <path class="cls-24" d="M50.66,119.62c-1.35-.05-2-.71-1.91-1.93.05-.67.04-1.78,1.08-1.54,1.18.27,2.85.46,2.98,1.98.11,1.25-1.29,1.29-2.15,1.49Z"/>
  <path class="cls-23" d="M107.45,127.36c-.78-1.71,0-2.72,1.65-2.77,1.59-.05,1.23-.68,1.25-1.82.04-3.42-1.73-4.46-4.81-4.56-1.87-.06-3.67-.78-5.31-1.78-.95-.58-1.76-1.23-1.73-2.51.04-1.65.78-2.12,2.22-1.35.88.47,1.9.7,2.64,1.42.2.29.48.4.82.36,3.17,1.26,6.4.57,9.62.3,7-.6,13.55-2.99,20.17-5.09,3.03-.96,5.31-3.17,7.66-5.2.61-.52,1.08-1.33,2.05-.89,1.04.47.78,1.42.74,2.29-.06,1.66-.76,2.95-1.99,4.05-2.76,2.47-5.97,4.2-9.34,5.61-1.2.5-1.3.97-1.11,2.21.93,5.88.59,8.64-5,11.35-.83.79-2.45.71-2.77,1.77-.29.96.79,1.92,1.14,2.94.79,2.34.1,3.54-2.05,3.45-.74-.42-1.19-1.06-1.5-1.84-1.94-4.91-6.03-6.63-10.84-7.21-1.2-.14-2.45.07-3.5-.74Z"/>
  <path class="cls-3" d="M158.26,143.14c3.93-.37,7.31,1.27,10.06,4.27,2.71,2.96,5.04,6.22,6.57,9.96,1.63,3.97.85,7.33-2.41,10.05-8.85,7.38-22.55,3.2-26.88-3.85-2.1-3.42-2.92-7.31-2.27-11.33.7-4.35,4.37-7.64,9.23-8.59,1.8-.35,3.62-.52,5.71-.5Z"/>
  <path class="cls-23" d="M220.05,138.3c-.46,1.9-2.34,3.16-2.18,5.43.07,1-1.27,1.21-2.27,1.14-4.26-.28-8.29.46-12.16,2.32-1.83.88-2.65.22-2.8-1.9.59-.52,1.18-1.05,1.77-1.56-.24-.61-.8-.77-1.22-1.1-3.08-2.42-4.84-5.42-4.25-9.47.58-3.94,2.92-6.54,6.55-7.8,4.32-1.5,8.6-1.94,12.81.8,4.1,2.67,4.79,6.39,4.09,10.76-.08.46-.22.92-.33,1.38Z"/>
  <path class="cls-20" d="M123.29,137.14c1.96-.38,2.3-1.56,1.61-3.25-.1-.25-.23-.48-.31-.74-.33-1.13-1.92-2.33-1.31-3.06.7-.82,2.42-.78,3.69-1.12-.05.19-.19.5-.12.56,2.95,2.52,3.71,6.12,4.77,9.57.33,1.07.44,2.07-.49,2.99-.94.93-1.9.73-2.98.37-2.62-.89-4.49-2.42-4.87-5.33Z"/>
  <path class="cls-23" d="M124.11,61.9c2.83,1.17,5.87.71,8.8,1.15,14.79,2.19,29.69,1.9,44.56,1.58,5.57-.12,11.22-.44,16.58-2.39,4.06-1.19,8.33-1.81,11.95-4.26.38-.26.86-.38,1.29-.57.99-.43,1.95-.35,2.46.64.55,1.06.12,1.99-.93,2.55-3.02,1.62-5.91,3.46-9.45,3.99-3.32.5-6.54,1.63-9.85,2.23-3.04.56-6.13.86-9.21,1.14-8.64.79-17.32.68-25.96.33-9.2-.37-18.43-.86-27.49-2.94-4.33-.99-8.84-1.22-12.84-3.42-.41-.23-.89-.38-1.25-.67-.7-.56-1.36-1.2-.84-2.23.51-1.02,1.41-.97,2.28-.66,2.41.88,4.79,1.83,7.19,2.76.88.34,1.73.78,2.71.77Z"/>
  <path class="cls-10" d="M204.25,195.26c-2.08,1.17-3.47,2.76-3.27,5.32-1.01-2.81.23-4.83,3.27-5.32Z"/>
  <path class="cls-23" d="M184.31,28.14c-1.92-.87-3.37-.01-4.72,1.27-2.6,2.47-4.95,5.21-7.8,7.41-.32.25-.6.55-.92.8-4.19,3.21-5.57,3.21-9.88.21-2.42-1.68-4.59-3.84-7.77-4.16-.78-.08-1.36-.75-1.26-1.6.11-.91.81-1.37,1.7-1.49,1.7-.23,3.18.45,4.64,1.2,2.1.51,3.64,1.96,5.31,3.19,1.9,1.39,2.65,1.4,4.47-.1,1.82-1.5,3.62-3.03,5.24-4.76.59-.63,1.16-1.33,2.09-1.53,1.53-1.27,2.85-2.82,4.72-3.67,2.45-1.11,4.84-.66,6.2,1.23.19,1.53-.54,2.14-2.01,2Z"/>
  <path class="cls-9" d="M175.41,28.59c-2.18,2.57-4.71,4.76-7.27,6.93-1.51,1.28-2.99,1.47-4.66.04-1.62-1.38-3.44-2.52-5.17-3.77,4.88.9,8.91-1.44,13-3.48,1.48-.74,2.81-.89,4.11.28Z"/>
  <path class="cls-5" d="M184.31,28.14c1.16-.17,1.92-.76,2.01-2,.5,1.76-.17,2.43-2.01,2Z"/>
  <path class="cls-4" d="M121.24,126.54c-3.8,0-6.84-1.88-7.71-4.76-.56-1.85-.09-2.52,1.78-2.57,3.85-.09,7.64-.6,11.35-1.65,1.21-.34,1.64-.19,2.02,1.22,1.47,5.37-1.45,7.51-7.44,7.75Z"/>
  <path class="cls-11" d="M146.87,157.07c-1.44-5.65,2.1-10.22,7.91-10.22.54,0,1.08.05,1.62.02,2.94-.2,5.99-.32,8.26,1.82,3.4,3.21,6.33,6.83,7.41,11.57-1.13,1.56-2.79,2.32-4.5,2.99-3.67,1.43-7.45,1.96-11.34,1.12-4.28-.93-7.55-3.19-9.36-7.29Z"/>
  <path class="cls-20" d="M146.87,157.07c2.48,3.28,5.27,6.14,9.57,6.83,5.17.83,10-.04,14.4-2.98.38-.26.81-.44,1.22-.66.54,2.76-1.17,4.25-3.16,5.55-6.03,3.92-19.94,2.22-22.04-8.74Z"/>
  <path class="cls-4" d="M208.11,141.18c-2.43.48-4.58-.62-6.41-2.73-2.06-2.37-2.08-5.85.13-8.06,3.21-3.21,8.83-3.32,12.08-1.59,3.23,1.73,4.04,3.87,3.22,7.26-.76,3.15-2.98,4.93-6.41,5.11-.74.04-1.49,0-2.63,0Z"/>
  <path class="cls-6" d="M157.04,148.06c1.76-.06,3.35.52,4.8,1.43.95.6,1.45,1.49.84,2.59-.55,1-1.6,1.19-2.47.71-2.96-1.63-5.42-.85-7.77,1.23-.83.73-1.88.93-2.7-.07-.76-.94-.51-1.91.28-2.73,1.91-1.99,4.25-3.05,7.01-3.16Z"/>
</svg>