<?xml version="1.0" encoding="utf-8"?>
<!-- Generator: Adobe Illustrator 28.2.0, SVG Export Plug-In . SVG Version: 6.00 Build 0)  -->
<svg version="1.1" id="Layer_1" xmlns="http://www.w3.org/2000/svg" xmlns:xlink="http://www.w3.org/1999/xlink" x="0px" y="0px"
	 viewBox="0 0 190 195" style="enable-background:new 0 0 190 195;" xml:space="preserve">
<style type="text/css">
	.st0{fill:#1E0000;}
	.st1{fill:#3372D0;}
	.st2{fill:#1E0101;}
	.st3{fill:#C4BCBC;}
	.st4{fill:#291319;}
	.st5{fill:#EFEDED;}
	.st6{fill:#2A7AB9;}
	.st7{fill:#65D1FE;}
	.st8{fill:#490803;}
	.st9{fill:#60231B;}
	.st10{fill:#FEF9E5;}
	.st11{fill:#F5F4FE;}
	.st12{fill:#3371D0;}
	.st13{fill:#64D0FD;}
	.st14{fill:#3371CF;}
	.st15{fill:#64CFFD;}
	.st16{fill:#480804;}
	.st17{fill:#326FCB;}
	.st18{fill:#3473CF;}
	.st19{fill:#1F050A;}
	.st20{fill:#3471CA;}
	.st21{fill:#3570CA;}
	.st22{fill:#3675CD;}
	.st23{fill:#22162A;}
	.st24{fill:#265785;}
	.st25{fill:#221629;}
	.st26{fill:#6AC7F4;}
	.st27{fill:#2D4880;}
	.st28{fill:#32568C;}
	.st29{fill:#4585B9;}
	.st30{fill:#262339;}
	.st31{fill:#344351;}
	.st32{fill:#335F9D;}
	.st33{fill:#3E2525;}
	.st34{fill:#27315A;}
	.st35{fill:#230E11;}
	.st36{fill:#4B2726;}
	.st37{fill:#1E0204;}
	.st38{fill:#1E0306;}
	.st39{fill:#1F0509;}
	.st40{fill:#1F0407;}
	.st41{fill:#1F0507;}
	.st42{fill:#251D2E;}
	.st43{fill:#1F0101;}
	.st44{fill:#1E0305;}
	.st45{fill:#231E37;}
	.st46{fill:#241F38;}
	.st47{fill:#64D1FE;}
</style>
<path class="st0" d="M155.37,141.91c0.21,0.36,0.49,0.66,0.91,0.72c1.97,0.26,3.62,1.52,4.51,2.92c1.85,2.9,4.13,5.75,4.31,9.44
	c0.17,3.7-0.82,7.03-3.58,9.66c-1.04,1-1.86,2.33-3.5,2.52c-1.18-0.03-0.97-0.77-0.78-1.5c0.82-0.92,1.93-1.53,2.72-2.49
	c0.2-0.24,0.46-0.45,0.64-0.71c0.2-0.28,0.6-0.53,0.45-0.91c-0.15-0.39-0.61-0.31-0.95-0.32c-0.91-0.04-1.83,0-2.74-0.02
	c-0.61-0.01-1.2-0.07-1.59-0.64c-0.26-1.18-0.02-1.59,1.1-1.66c1.15-0.07,2.3-0.02,3.45-0.02c0.71-0.14,1.48,0.38,2.15-0.2
	c0.93-2.48,0.64-4.86-0.63-7.14c-0.41-0.73-0.93-1.42-1.2-2.2c-0.82-2.38-2.68-3.66-4.77-4.78c-2.1-1.13-4.07-2.54-6.47-3.05
	c-0.43-0.09-0.85-0.21-1.29-0.21c-2.4-0.02-4.81,0.34-7.16,0.25c-4.3-0.15-7.54,1.91-10.74,4.19c-3.01,2.15-2.98,2.34-1.81,5.86
	c0.54,1.63,1.14,3.24,1.45,4.94c0.02,0.19-0.01,0.38-0.1,0.55c-1.65,1.02-3.55,1.4-5.31,2.13c-1.47,0.61-1.57,0.75-1.11,2.31
	c0.35,1.17,0.98,2.22,1.75,3.12c1.6,1.86,3.03,3.95,5.67,4.56c0.88,0.2,1.72,0.25,2.6,0.06c0.54-0.12,1.09-0.29,1.66-0.22
	c0.52,0.07,0.9,0.34,1.05,0.85c0.15,0.53-0.16,0.82-0.6,1.02c-3.8,1.35-7.33,0.46-9.95-2.61c-0.63-0.74-1.09-0.68-2-0.43
	c-2.38,0.66-4.86,1.01-7.35,0.98c-7.15-0.09-14.3,0.07-21.44-0.62c-1.57-0.15-3.15,0.21-4.73,0.45c-5.53,0.83-10.63,3.12-16.01,4.45
	c-1.27,0.31-2.4,1.08-3.79,1.02c-0.6-0.03-0.83-0.18-0.99-0.73c-0.46-1.61-1.01-3.2-1.46-4.82c-0.18-0.63-0.48-0.82-1.1-0.73
	c-3.09,0.45-6.08,1.03-8.93,2.53c-1.88,0.99-4.15,1.1-6.29,1.33c-3.01,0.34-6.06,0.01-9.08,0.32c-0.98,0.1-1.99-0.18-2.94-0.49
	c-1.59-0.51-3.24-0.64-4.86-0.39c-2.05,0.32-3.62-0.52-4.95-1.85c-0.99-1-2.04-1.92-3.16-2.74c-0.75-0.55-1.21-1.23-1.55-2.07
	c-1.51-3.76-1.18-7.58-0.53-11.45c1.29-7.65,5.88-12.69,12.58-16.05c1.8-0.91,3.84-0.58,5.78-0.52c0.43,0.01,0.83,0.29,1.13,0.63
	c1.92,2.18,4.62,3.43,6.58,5.55c0.29,0.32,0.62,0.31,0.98,0.21c0.92-0.27,1.84-0.53,2.67-1.05c-0.39-0.57-0.97-0.67-1.56-0.75
	c-6.01-0.84-9.38-6.71-7.17-12.38c1.46-3.73,3.9-6.86,6.07-10.15c3.47-5.26,8.05-9.6,12.05-14.42c2.91-3.51,6.36-6.23,10.09-8.8
	c2.3-1.58,4.72-2.57,7.32-3.32c0.43-0.13,0.7-0.22,0.34-0.68c-1.17-1.53-1.18-3.34-1.24-5.14c-0.01-0.32,0.1-0.69-0.29-0.82
	c-1.34-0.45-1.61-1.89-2.5-2.75c-0.38-0.36-0.64-0.45-1.07-0.46c-2.93-0.06-5.79-0.46-8.03-2.53c-1.71-1.57-3.17-3.38-3.93-5.65
	c-0.93-2.8-0.53-5.3,1.78-7.28c0.63-0.54,0.75-0.86,0.28-1.63c-1.04-1.72-1.23-3.67-0.59-5.55c0.65-1.9,0.66-3.84,0.71-5.78
	c0.07-2.75-0.35-5.47,0.08-8.25c0.67-4.35,2.88-7.85,5.68-11.01c3.33-3.76,7.31-6.77,11.67-9.27c0.81-0.46,1.67-0.78,2.55-1.02
	c0.66-0.18,0.87-0.51,0.85-1.19c-0.04-1.88-0.03-3.76-0.01-5.64c0.02-1.96,0.46-2.53,2.36-2.99c2.52-0.61,5.05-1.19,7.59-1.76
	c1.3-0.29,1.73,0.04,1.9,1.39c0.23,1.86,0.44,3.73,0.67,5.59c0.15,1.19,0.71,1.76,2.03,1.87c4.51,0.36,8.91,1.28,13.07,3.11
	c4.02,1.77,7.05,4.78,9.25,8.44c2.13,3.54,4.01,7.29,4.8,11.43c0.33,1.72,0.47,3.48,0.71,5.38c1.7-1.11,3.59-1.15,5.49-1.27
	c3.15-0.21,5.54,1.17,7.41,3.45c2.98,3.64,3.87,7.78,2.06,12.22c-0.99,2.42-2.43,4.63-5.03,5.69c-0.58,0.23-0.71,0.63-0.62,1.13
	c0.7,4.03-0.56,7.89-1.16,11.78c-0.27,1.74-0.93,3.56-2.12,5.03c-0.46,0.57-0.44,0.98,0.36,1.21c1.03,0.3,2.04,0.67,3.07,0.98
	c0.68,0.2,1.22,0.6,1.7,1.09c3.67,3.81,7.65,7.29,10.74,11.68c2.95,4.2,6.16,8.23,9.54,12.13c2.02,2.33,4.19,4.49,6.22,6.8
	c0.7,0.8,1.75,1.15,2.47,2.01c1.67,1.98,2.44,4.19,2.28,6.74c-0.1,1.54-0.92,2.76-2.1,3.63c-2.37,1.75-4.78,3.45-7.24,5.07
	c-1.48,0.98-3.23,1.24-4.98,1.38c-0.44,0.03-0.87,0.12-1.3,0.18c-0.41,0.19-0.63,0.62-1.01,0.83c-0.07,0.01-0.13,0.04-0.15,0.12
	c-0.01,0.05,0.02,0.07,0.06,0.07C155.26,141.82,155.31,141.86,155.37,141.91z"/>
<path class="st1" d="M135.45,170.94c0.24-0.4,0.63-0.78,0.18-1.28c-0.37-0.42-0.85-0.43-1.32-0.28c-3.25,1-5.71-0.22-7.87-2.62
	c-1.4-1.56-2.73-3.14-3.43-5.13c-0.61-1.75-0.43-2.04,1.3-2.68c1.76-0.64,3.52-1.29,5.28-1.93c0.14,1.26-0.18,2.5-0.09,3.76
	c0.06,0.76,0.06,1.52,0.35,2.23c0.58,1.48,2.1,1.91,3.36,0.97c4.62-3.47,9.92-5.19,15.56-6.03c3.17-0.47,6.35-0.61,9.54-0.47
	c1.59,0.07,3.19,0.3,4.41,1.52c-0.61,0.84-1.4-0.06-2.07,0.21c-1.38-0.23-2.77-0.1-4.16-0.08c-0.96,0.01-1.1,0.63-0.43,1.54
	c1.49,0.36,3.01,0.1,4.51,0.29c0.41,0.05,0.99-0.08,1.16,0.38c0.15,0.4-0.39,0.63-0.61,0.95c-0.97,1.39-2.22,2.48-3.62,3.41
	c-0.17,0.14-0.36,0.25-0.49,0.43c-0.51,0.38-0.77,1.04-1.39,1.3c-3.64,1.73-7.52,2.41-11.5,2.42c-1.67,0-3.34,0-5.01,0.02
	c-1.03,0.01-1.8,0.26-2.11,1.33C136.49,171.1,135.97,171.02,135.45,170.94z"/>
<path class="st2" d="M157.01,165.91c0.16-0.08,0.32-0.15,0.49-0.23c-0.24,0.64-0.26,1.19,0.52,1.47c-0.06,0.38-0.54,0.21-0.67,0.5
	c-0.41,0.19-0.4,0.75-0.8,0.95c-3.76,2-7.88,2.38-12.03,2.53c-1.64,0.06-3.25,0.26-4.87,0.45c-0.9,0.11-1.83,0.16-2.65-0.4
	c-0.24-1.17,0.01-1.54,1.2-1.6c1.9-0.09,3.81-0.13,5.72-0.12c3.55,0.03,7.09-0.31,10.36-1.95c0.45-0.23,0.99-0.27,1.49-0.4
	C156.4,166.93,156.49,166.2,157.01,165.91z"/>
<path class="st3" d="M155.13,141.48c0.48-0.1,0.55-0.86,1.17-0.73c-0.31,0.38-0.63,0.77-0.94,1.15l-0.09,0.02l-0.09-0.02
	C154.92,141.8,154.98,141.65,155.13,141.48z"/>
<path class="st4" d="M156.56,168.61c0.25-0.34,0.07-1.02,0.8-0.95C157.2,168.07,157.15,168.57,156.56,168.61z"/>
<path class="st5" d="M156.92,102.21c-0.33-0.11-0.55-0.25-0.51-0.65C156.74,101.66,156.96,101.8,156.92,102.21z"/>
<path class="st6" d="M88.89,106.95c4.04-1.38,8.09-2.73,12.26-3.73c2.67-0.64,5.25-1.61,7.78-2.71c0.46,1.45,0.86,2.92,1.41,4.32
	c0.34,0.87,0.07,1.05-0.72,1.24c-4.23,1.04-7.89,3.05-10.63,6.5c-5.41,6.82-5.55,13.83-1.3,21.42c0.93,1.67,2.05,3.24,3.22,4.76
	c3.33,4.29,7.78,5.63,12.98,4.86c2.76-0.41,5.52-0.96,7.97-2.41c0.69-0.41,0.74,0.19,0.89,0.53c0.71,1.57,1.19,3.23,1.66,4.86
	c0.73,2.54,1.7,4.99,2.49,7.5c0.33,1.05,0.24,1.53-0.96,1.84c-8.7,2.25-17.28,4.9-26,7.08c-0.83,0.21-1.14,0.09-1.48-0.72
	c-2.75-6.68-5.35-13.43-8.41-19.98c-0.83-1.77-1.71-3.52-2.39-5.36c-0.57-1.52-0.47-2.12,0.77-3.08c4.7-3.65,4.02-8.7,0.75-12.86
	c-1.7-2.16-3.97-3.63-6.61-4.33c-2.85-0.77-5.46,0.04-7.67,1.94c-1.39,1.19-1.43,2.82-0.98,4.43c0.95,3.44,2.58,6.62,4.1,9.82
	c2.8,5.88,5.25,11.9,7.36,18.06c1.47,4.3,3.41,8.43,5.21,12.61c0.41,0.95,0.31,1.36-0.74,1.68c-5.73,1.74-11.24,4.14-16.99,5.83
	c-1.61,0.47-1.63,0.52-2.18-1.07c-0.82-2.38-1.57-4.78-2.38-7.16c-0.23-0.69,0-0.92,0.63-0.76c3.16,0.8,5.76-0.67,8.39-2.05
	c0.64-0.34,1.21-0.79,1.62-1.4c0.62-0.93,1.18-1.9,1.85-2.8c1.42-1.91,1.41-4.02,0.92-6.19c-1.07-4.67-4.32-7.5-8.36-9.6
	c-0.74-0.39-1.64-0.33-2.4-0.72c-0.48-0.25-0.6-0.47-0.24-0.89c0.1-0.12,0.2-0.25,0.3-0.38c3.19-4.21,2.02-9.32-2.61-12
	c-3.46-2-7-1.54-10.57-0.66c-0.96,0.24-1.24,0.03-1.47-0.83c-0.47-1.73-0.98-3.46-1.59-5.15c-0.29-0.81-0.01-1.05,0.68-1.27
	c3.87-1.26,7.74-2.54,11.61-3.83c2.46-0.82,4.9-1.71,7.37-2.51c0.7-0.23,0.83-0.5,0.6-1.19c-0.63-1.95-1.03-3.95-0.58-6.01
	c0.66-3.03,3.77-4.97,6.8-4.42c2.08,0.38,3.56,1.47,4.72,3.14c0.36,0.52,0.82,0.97,1.24,1.45c0.38,0.51,0.67,1.07,0.79,1.69
	C88.09,107.05,88.38,107.16,88.89,106.95z"/>
<path class="st7" d="M125.8,55.95c1.31,0.97,2.34,2.23,3.45,3.41c0.66,0.57,1.16,1.33,2.03,1.63c0.42,0.15,0.86,0.28,1.25-0.05
	c0.4-0.33,0.36-0.79,0.22-1.22c-0.88-2.73,0.16-4.85,2.14-6.63c1.25-1.12,2.71-1.65,4.42-1.19c3.57,2.59,5.52,8.96,1.87,13.96
	c-0.84,1.15-1.95,1.88-3.38,2.03c-1.07,0.11-1.43,0.57-1.17,1.69c0.85,3.68-0.19,7.27-0.63,10.9c-0.51,4.22-2.58,7.5-5.69,10.33
	c-1.62,1.47-3.27,2.64-5.41,3.08c-0.27,0.06-0.55,0.13-0.8,0.24c-3.43,1.51-7.1,1.73-10.75,2.04c-0.07,0.03-0.15,0.06-0.23,0.06
	c-1.54,0.07-1.51,0.07-1.18-1.46c0.19-0.85,0.29-1.72,0.4-2.59c0.09-0.73-0.1-1.34-0.66-1.82c-0.3-0.51-0.57-1.05-0.91-1.54
	c-0.31-0.44-0.8-0.55-1.28-0.29c-0.51,0.27-0.53,0.75-0.37,1.25c0.01,0.04,0.03,0.07,0.04,0.11c0.35,0.87,1.12,1.68,0.71,2.69
	c-0.6,1.47-1.58,2.67-2.94,3.52c-3.66,2.29-8.97-0.11-9.54-4.14c-0.29-2,0.3-3.3,2.13-4.21c0.7-0.35,1.65-0.53,1.22-1.65
	c-0.29-0.75-1.26-0.83-2.3-0.25c-0.24,0.14-0.48,0.28-0.72,0.42c-3.63,2.15-3.99,4.17-3.17,8.04c0.11,0.52,0.53,0.87,0.82,1.31
	c0.14,0.22,0.61,0.53,0,0.79c-3.96-0.98-7.85-2.13-11.22-4.56c-1.89-1.37-2.04-3.4-2.17-5.45c-0.04-0.56,0.41-0.55,0.82-0.63
	c2.37-0.5,4.13-1.75,5.16-4.02c1.26-2.78-0.57-6.01-3.6-6.23c-0.44-0.03-0.88-0.05-1.27-0.28c-0.45-0.34-1.26,0.27-1.46-0.41
	c-0.19-0.62,0.42-1.09,0.81-1.5c1.27-1.31,2.43-2.72,3.71-4.03c0.48-0.49,1.03-0.87,1.66-1.13c0.92-0.38,1.86-0.69,2.57-1.45
	c0.24-0.25,0.55-0.3,0.87-0.11c5.14,1.91,10.39,2.76,15.85,1.7c1.67-0.32,3.44-0.37,4.98-1c1.79-0.74,3.28-2.07,4.71-3.44
	c1.72-1.64,3.03-3.57,4.29-5.55C122.39,57.03,123.9,56.09,125.8,55.95z"/>
<path class="st7" d="M137.83,125.65c-1.04-3.93-2.11-7.85-3.12-11.79c-0.48-1.88-1.52-3.51-2.25-5.27c-0.35-0.85-0.7-1.68-0.88-2.59
	c-0.13-0.66-0.41-1.3-0.99-1.73c-0.17-0.14-0.38-0.07-0.57-0.13c-0.49-0.14-1.04-0.47-1.45,0.04c-0.43,0.53-0.15,1.14,0.08,1.69
	c0.28,0.66,0.66,1.28,0.94,1.94c1.71,4.53,2.14,9.2,1.67,14.01c-0.42,4.43-2.49,8.02-5.21,11.34c-1.01,1.23-2.05,2.45-3.24,3.52
	c-0.59,0.14-0.59-0.37-0.7-0.69c-0.18-0.52-0.41-1-0.71-1.45c-1.8-5.49-3.61-10.97-5.29-16.5c-0.51-1.68-1.07-3.34-1.41-5.06
	c-0.14-0.7-0.42-1.28-1.07-1.63c0.61-0.79,0.18-1.56-0.03-2.34c-0.12-0.42-0.41-0.77-0.45-1.22c0.55-0.73,0.38-1.49,0.12-2.27
	c-0.16-0.49-0.31-0.98-0.46-1.47c2.02-1.08,3.65-2.68,5.48-4.01c2.08-1.51,4.59-1.99,6.93-2.85c1.85-0.68,3.59-1.51,5.18-2.69
	c1.35-1,2.97-1.51,4.4-2.39c0.82-0.51,1.82-0.52,2.79-0.34c0.16,0.08,0.33,0.16,0.49,0.25c0.69,1.65,2.37,2.29,3.54,3.45
	c2.25,2.23,4.57,4.4,6.79,6.66c2.86,3.69,5.72,7.38,8.58,11.07c2.07,3.38,3.8,6.85,4.25,10.91c0.31,2.82-0.31,5.3-1.68,7.66
	c-1.22,2.1-2.94,3.18-5.54,2.9c-5.47-0.59-10.11-2.99-14.36-6.3C138.78,127.66,138.13,126.77,137.83,125.65z"/>
<path class="st8" d="M105.68,24.15c4.23,0.7,8.41,1.62,11.8,4.46c2.48,2.08,4.63,4.48,5.98,7.48c0.39,0.88,0.74,1.76,1.51,2.41
	c0.36,0.31,0.74,0.62,0.45,1.22c-0.08,0.17,0.04,0.47,0.14,0.68c0.82,1.71,1,3.58,1.49,5.37c0.45,1.64,0.15,3.3,0.46,4.92
	c0.07,0.39,0.1,0.79,0.17,1.18c0.31,1.59-0.2,2.14-1.79,1.66c-1.75-0.52-3.35-1.45-5-2.23c-1.02-0.48-1.93-0.87-3.24-0.64
	c-1.72,0.31-3.57,0.31-5.35-0.1c-2.01-0.47-4.05-0.24-6.08-0.26c-4.66-0.04-9.29,0.24-13.92,0.86c-2.1,0.28-4.13,0.78-6.2,1.11
	c-3.9,0.62-7.55,2.11-11.36,3.03c-1.81,0.44-3.32,1.54-4.92,2.43c-0.38,0.21-0.73,0.59-1.19,0.38c-0.51-0.23-0.4-0.75-0.36-1.17
	c0.38-4.24,0.05-8.52,0.76-12.73c0.34-2,1.15-3.88,2.64-5.36c0.17-0.17,0.37-0.32,0.49-0.52c0.94-1.65,2.44-2.81,3.65-4.21
	c2.22-2.54,5.09-4.17,7.73-6.12c1.27-0.94,2.72-1.68,4.4-1.69c-0.02,0.64-0.58,0.69-0.99,0.87c-2.51,1.16-4.33,2.95-5.26,5.6
	c-0.24,0.69-0.41,1.37-0.4,2.1c0.01,1.48,0.08,2.96-0.01,4.43c-0.16,2.69,1.35,4.34,3.41,5.61c2.15,1.33,4.67,1.92,7.08,2.03
	c3.81,0.18,7.62-0.45,10.71-3.04c1.93-1.62,3.5-3.62,4.87-5.71c0.86-1.31,0.97-2.95,0.89-4.52c-0.11-2.36-0.4-4.68-1.17-6.94
	C106.74,25.78,105.83,25.17,105.68,24.15z"/>
<path class="st7" d="M66.06,159.86c-0.83-0.08-1.41,0.04-0.92,1.08c-0.26,0.75-0.93,0.55-1.41,0.49c-1.54-0.2-3.07-0.51-4.44-1.3
	c-1.1-0.64-1.46-0.57-2.12,0.55c-1.26,2.12-3.1,3.54-5.1,4.93c-2.06,1.43-4.17,1.78-6.54,1.63c-2.16-0.13-4.31-0.33-6.39-0.9
	c-3.07-0.84-4.8-3.15-5.97-5.93c-1.05-2.48-0.82-5.08-0.61-7.67c0.03-0.31,0.1-0.63,0.1-0.95c0.03-0.65,0.16-1.28,0.4-1.89
	c0.48-0.6,0.26-1.35,0.41-2.02c0.1-0.46,0.19-0.92,0.44-1.32c0.16-0.24,0.37-0.45,0.51-0.71c0.64-0.95,1.25-1.93,1.74-2.97
	c0.68-2.55,4.94-4.21,7.35-3.07c2.34,1.93,5.04,3.46,6.72,6.16c0.58,0.93,0.89,1.93,1.28,2.93c0.42,0.48,0.36,1.48,1.2,1.45
	c0.81-0.03,1.11-0.86,1.37-1.5c1.04-2.59,3.07-4.19,5.36-5.55c0.24-0.14,0.47-0.31,0.77-0.17c0.39,0.26,0.55,0.68,0.69,1.1
	c1.58,4.74,3.32,9.41,4.95,14.13C66.01,158.83,66.26,159.31,66.06,159.86z"/>
<path class="st9" d="M105.68,24.15c1.69,1.51,2.15,3.58,2.48,5.67c0.4,2.48,0.72,4.97-0.07,7.43c-0.12,0.38-0.19,0.81-0.42,1.1
	c-2.23,2.77-4.11,5.91-7.58,7.41c-1.96,0.85-3.99,1.22-6.11,1.45c-2.95,0.31-5.62-0.52-8.3-1.48c-2.59-0.93-5.19-3.51-4.73-6.81
	c0.11-0.78,0.05-1.6,0.01-2.39c-0.26-4.9,2.05-8.09,6.49-9.89c0.18-0.07,0.32-0.22,0.48-0.34c0.16-0.08,0.31-0.17,0.47-0.25
	c1.91-1.17,4.08-1.4,6.22-1.78c1.68-0.29,3.38-0.11,5.06-0.36C101.7,23.42,103.68,24.01,105.68,24.15z"/>
<path class="st7" d="M162.73,158.99c-3-1.59-6.26-1.37-9.46-1.17c-4.78,0.29-9.49,1.11-13.94,2.98c-2.13,0.89-4.11,2.12-5.96,3.51
	c-1.35,1.01-3.39,0.5-3.83-1.18c-0.54-2.02-0.64-4.08,0.07-6.11c0.01-0.14,0.01-0.27,0.02-0.41c-0.17-3.25,0.36-6.26,2.71-8.74
	c3.22-3.4,7.02-5.74,11.67-6.57c1.37-0.24,2.77-0.1,4.15-0.3c1.78,0.14,3.46,0.71,4.95,1.62c1.96,1.21,4.15,2.05,5.89,3.62
	c0.67,0.6,1.22,1.22,1.5,2.1c0.32,0.99,0.87,1.88,1.43,2.76C163.51,153.6,163.73,156.23,162.73,158.99z"/>
<path class="st10" d="M101.86,66.79c-3,0.01-5.91-0.61-8.66-1.66c-4.18-1.6-6.77-4.76-7.88-9.1c-0.21-0.83-0.09-1.34,0.93-1.66
	c3.39-1.08,6.9-1.31,10.38-1.67c4.61-0.47,9.25-0.56,13.87-0.27c1.91,0.12,3.81,0.33,5.73,0.31c0.63-0.01,0.84,0.24,0.86,0.82
	c0.15,4.7-0.12,8.16-4.77,11.04c-2.21,1.37-4.89,1.65-7.47,1.97C103.85,66.69,102.85,66.72,101.86,66.79z"/>
<path class="st11" d="M66.06,159.86c-1.81-5.13-3.62-10.25-5.43-15.38c-0.16-0.45-0.36-0.88-0.54-1.32
	c-0.24-0.16-0.15-0.41-0.19-0.62c-0.29-0.93-0.52-1.89-1-2.75c-0.07-0.06-0.13-0.13-0.18-0.22c-0.11-0.22,0.04-0.46-0.04-0.68
	c-0.43-1.41-0.87-2.81-1.3-4.22c-0.89-1.06-0.94-2.37-1.04-3.65c-0.02-0.12-0.04-0.24-0.07-0.35c-0.69-2.69-0.72-2.79,2-3.46
	c2.42-0.59,4.9-1.37,7.41-0.43c3.96,1.49,6.64,6.34,3.73,10.11c-0.7,0.91-1.1,2.04-2.08,2.75c-0.28,0.2-0.61,0.5-0.5,0.89
	c0.13,0.46,0.62,0.4,1,0.47c2.2,0.39,4.42,0.72,6.39,1.87c2.92,1.72,4.31,4.47,5.07,7.64c0.81,3.36-1.29,5.63-3.08,7.91
	c-1.12,1.43-3.07,1.78-4.8,1.84C69.64,160.31,67.81,160.44,66.06,159.86z"/>
<path class="st1" d="M34.17,146.54c-0.32,0.76-0.49,1.54-0.47,2.37c0.01,0.37,0.11,0.81-0.42,0.95c-0.21-0.16-0.14-0.39-0.15-0.6
	c-0.13-0.96-0.57-0.87-1.13-0.32c-0.6,1.01-0.77,2.16-1.03,3.27c-0.09,0.4-0.08,0.84,0.4,0.99c0.5,0.16,0.68-0.25,0.87-0.6
	c0.18-0.33,0.18-0.81,0.69-0.87c-0.27,1.82-0.38,3.67-0.18,5.48c0.42,3.77,2.03,6.91,5.66,8.53c1.97,0.88,4.18,1.01,6.32,1.11
	c4.55,0.2,4.54,0.13,8.42-2.36c1.65-1.06,2.89-2.48,3.81-4.2c0.6-1.13,1.15-1.21,2.32-0.6c1.82,0.96,3.7,1.78,5.85,1.24
	c0.88,1.54,1.11,3.3,1.73,4.93c0.18,0.46-0.1,0.52-0.46,0.59c-1.68,0.35-3.39,1.13-5.03,1c-3.72-0.28-6.91,1.51-10.34,2.26
	c-2.34,0.51-4.52,0.29-6.78,0.27c-1.75-0.01-3.49-0.18-5.22-0.48c-0.41-0.18-0.86-0.1-1.29-0.19c-0.48-0.1-0.69-0.28-0.86-0.79
	c-0.48-1.41-1.77-2.05-2.95-2.78c-0.2-0.13-0.47-0.05-0.64,0.17c-0.19,0.26-0.13,0.54,0.03,0.78c0.38,0.57,0.96,0.95,1.47,1.39
	c0.27,0.23,0.67,0.46,0.56,0.84c-0.13,0.45-0.61,0.16-0.93,0.24c-0.12,0.03-0.23,0.05-0.34,0.09c-0.88,0.06-1.67-0.18-2.32-0.77
	c-1.65-1.49-3.53-2.82-4.85-4.57c-1.37-1.8-1.79-4.2-1.33-6.42c0.65-3.18,1.04-6.48,2.56-9.43c2.13-4.14,5.28-7.27,9.55-9.2
	c2.04-0.92,4.64-0.47,5.81,0.92c-1.18,0.06-2.38-0.14-3.55,0.21c-1.66,0.5-2.99,1.38-3.59,3.1c-0.8-0.93-1.19-0.92-1.93,0.05
	c-0.44,0.58-0.75,1.23-0.99,1.9C33.01,145.9,33.84,146.09,34.17,146.54z"/>
<path class="st11" d="M113.15,107.77c1.04,0.72,0.87,1.94,1.21,2.94c0.17,0.49-0.52,0.14-0.65,0.43c-0.21,0.48-0.7,0.48-1.09,0.64
	c-3.21,1.29-5.94,3.23-8.11,5.95c-4.56,5.72-1.22,15.46,5.97,17.56c3.41,1,6.85,1.07,10.13-0.65c0.31-0.16,0.63-0.37,1.01-0.22
	c0.79,0.54,0.61,1.54,1.06,2.24c0.47,0.32,0.61,0.73,0.32,1.24c-0.63,0-1.12,0.38-1.65,0.65c-3,1.57-6.15,2.69-9.58,2.73
	c-3.13,0.04-5.91-0.86-8.05-3.28c-3.31-3.74-6.15-7.77-6.31-12.98c-0.15-5.18,1.34-9.76,5.82-12.94c2.81-1.99,5.95-3.19,9.25-4.05
	C112.71,107.96,112.93,107.86,113.15,107.77z"/>
<path class="st11" d="M93.64,166.88c-0.16-0.06-0.43,0-0.32-0.33c0.38-1.15-0.01-2.18-0.45-3.23c-2.29-5.52-4.79-10.97-6.68-16.65
	c-1.77-5.31-4.08-10.39-6.36-15.49c-1.07-2.4-2.19-4.78-3.28-7.17c-1.28-2.82-0.59-4.25,2.4-5.02c2.99-0.76,6.9,1.03,8.97,4.14
	c0.53,0.79,1.04,1.6,1.52,2.43c1.4,2.46,0.17,4.61-1.78,6.13c-0.4,0.31-0.87,0.56-1.32,0.8c-1.57,0.79-1.89,1.38-1.22,3.05
	c1.49,3.74,2.95,7.48,4.79,11.08c2.63,5.13,4.3,10.65,6.39,16c0.42,1.07,0.61,2.22,1.38,3.14c0.15,0.08,0.16,0.18,0.04,0.29
	C96.42,166.65,94.96,166.43,93.64,166.88z"/>
<path class="st1" d="M137.83,125.65c3.11,4.58,7.95,6.43,12.88,8.13c1.41,0.48,2.91,0.62,4.36,0.64c1.96,0.03,3.28-1.2,4.27-2.84
	c2.26-3.73,2.06-7.63,0.71-11.52c-0.82-2.36-2.02-4.59-3.05-6.87c1.05,0.76,1.8,1.8,2.53,2.83c1.71,2.42,3.97,4.34,5.93,6.53
	c1.64,1.84,2.51,3.92,2.33,6.4c-0.24,0.2-0.32-0.1-0.47-0.16c-0.17-0.25-0.33-0.49-0.5-0.74c-1.18-0.32-1.51-0.04-1.4,1.2
	c0.85,1.78,0.24,3.32-0.84,4.76c-2.32,3.08-5.72,4.22-9.2,3.14c-1.08-0.33-1.87-1.02-2.66-1.77c-0.47-0.45-1.05-0.91-1.65-0.26
	c-0.61,0.65-0.23,1.23,0.3,1.75c0.36,0.35,0.83,0.61,1.04,1.21c-1.65-0.06-3.04-0.75-4.4-1.45c-1.35-0.7-2.72-1.33-4.14-1.88
	c-1.34-0.52-2.43-1.36-3.33-2.45c-0.6-0.72-0.96-1.67-1.97-2.01c-0.3-0.1-0.32-0.43-0.34-0.71
	C138.09,128.26,137.96,126.95,137.83,125.65z"/>
<path class="st1" d="M123,137.89c-0.11-0.41-0.21-0.83-0.32-1.24c0.71-1.36,1.95-2.28,2.91-3.43c2.5-3.01,4.65-6.2,5.19-10.16
	c0.55-4,0.58-8.01-0.47-11.95c-0.31-1.15-0.62-2.3-0.94-3.45c0.09-0.09,0.19-0.09,0.29-0.01c1.44,3.32,3.02,6.55,3.92,10.11
	c0.9,3.55,1.97,7.06,2.68,10.66c0.44,2.27,0.2,4.5-0.42,6.7c-0.2,0.69-0.68,1.07-1.35,1.22c-3.29,0.73-6.47,1.78-9.4,3.48
	c-0.47,0.27-0.74,0.15-0.91-0.33C123.96,138.82,123.6,138.27,123,137.89z"/>
<path class="st8" d="M68.28,63.07c-0.33-1.47,0.54-2.29,1.67-3.08c3.76-2.6,8.11-3.58,12.41-4.7c0.48-0.13,0.65-0.09,0.81,0.45
	c0.42,1.43,0.43,2.65-0.53,4c-2.12,2.99-3.88,6.2-4.41,9.91c-0.14,0.99-0.53,1.17-1.4,0.65c-2.16-1.27-4.55-2.18-6.48-3.78
	C69.34,65.69,67.85,64.92,68.28,63.07z"/>
<path class="st1" d="M81.41,97.78c-0.79-0.01-1.56-0.18-2.37-0.09c-5.41,0.62-8.38,5.32-6.55,10.55c0.38,1.08,0.17,1.58-0.9,1.92
	c-3.08,0.99-6.07,2.22-9.14,3.21c-2.11,0.68-4.18,1.49-6.58,2.24c0.88-1.01,1.65-1.73,2.21-2.58c2.64-4.01,6.23-7.09,9.78-10.23
	c1.7-1.5,3.08-3.38,4.99-4.62c2.24-1.45,4.6-2.72,6.96-3.96c1.73-0.9,3.56-0.42,5.23,0.19c1.67,0.61,3.21,1.58,4.81,2.39
	c-0.51,0.54-1.11,0.25-1.67,0.15c-1.97-0.35-3.92-0.48-5.85,0.21C81.98,97.3,81.52,97.27,81.41,97.78z"/>
<path class="st8" d="M93.64,166.88c1.31-0.46,2.66-0.75,4.03-0.98c0.41-0.18,0.87,0.06,1.27-0.18c2.94,0.13,5.59-1.16,8.36-1.82
	c3.48-0.83,6.86-2.04,10.35-2.83c1.02-0.23,1.63,0.09,2.15,0.78c0.53,0.71,1.29,1.33,1.27,2.36c-0.01,0.31,0.29,0.46,0.55,0.58
	c0.61,0.29,1,0.75,0.78,1.42c-0.22,0.71-0.87,0.69-1.49,0.69c-3.38-0.01-6.75,0.01-10.13-0.02c-1.99-0.01-3.97-0.03-5.97-0.18
	c-2.13-0.15-4.29,0.12-6.44,0.18C96.8,166.94,95.22,166.59,93.64,166.88z"/>
<path class="st8" d="M99.68,23.91c-1.29,0.83-2.8,0.49-4.19,0.61c-2.45,0.22-4.74,0.99-7.1,1.53c0.73-0.95,0.63-2.11,0.7-3.19
	c0.11-1.67,0.08-3.36,0.01-5.03c-0.04-0.94,0.32-1.39,1.19-1.58c2.16-0.48,4.32-0.98,6.56-1.49c0.04,2.75,0.59,5.34,0.94,7.96
	C97.92,23.77,98.76,23.97,99.68,23.91z"/>
<path class="st7" d="M81.41,97.78c-0.21-0.21-0.82-0.35-0.02-0.67c2.35-0.93,4.74-0.91,7.17-0.42c0.42,0.08,0.87,0.08,1.3,0.12
	c4.52,1.06,9.03,2.19,14.01,2.73c-3.7,1.28-7.07,2.47-10.56,3.3c-1.16,0.27-2.43,1.13-3.39,0.84c-0.94-0.29-1.46-1.75-2.42-2.48
	c-0.54-0.41-1-0.91-1.5-1.37C84.69,98.63,83.18,97.91,81.41,97.78z"/>
<path class="st12" d="M91.23,66.6c-2.01,1.59-4.81,2.01-6.28,4.43c-0.76,1.25-2.11,2.05-2.93,3.3c-0.11,0.16-0.29,0.29-0.23,0.54
	c0.35,0.38,0.96-0.09,1.29,0.36c-0.87,0.08-1.78-0.07-2.56,0.46c-0.62,0.42-0.84,0.11-0.93-0.48c-0.15-1.04,0.08-2.06,0.19-3.09
	c0.44-4.12,2.12-7.74,4.39-11.13c0.25-0.38,0.54-0.98,0.98-0.14C86.52,63.46,88.82,65.09,91.23,66.6z"/>
<path class="st7" d="M75.23,80.08c-2.96-0.08-5.53-0.94-7.26-3.55c-0.65-0.99-1.47-1.85-1.88-3.02c-0.45-1.3-0.5-2.55,0.02-3.82
	c0.33-0.52,0.86-0.55,1.38-0.5c1.49,0.16,2.85,0.56,3.96,1.69c1.62,1.65,3.3,3.22,4.18,5.44c0.39,0.97,0.68,1.95,0.59,3.01
	C76.17,79.93,75.94,80.34,75.23,80.08z"/>
<path class="st12" d="M54.62,129.74c-0.57,1.94-1.38,3.81-1.11,5.93c0.09,0.7-1.31,1.13-1.98,0.63c-1.11-0.83-1.87-1.95-2.46-3.19
	c-0.1-0.22-0.15-0.46-0.28-0.66c-0.3-0.48-0.89-0.46-1.28-0.41c-0.39,0.05-0.19,0.61-0.14,0.93c0.17,1.03,0.87,1.78,1.49,2.55
	c0.5,0.63,0.93,1.29,1.2,2.05c0.06,0.28,0.13,0.57-0.32,0.56c-2.56-1.93-3.7-4.8-2.83-7.79c1.1-3.79,3.3-7.03,5.67-10.4
	c0.37,1.22,0.68,2.24,0.99,3.25c-0.86,0.6-1.33,1.44-1.61,2.44c-0.55,1.92-0.81,3.86-0.69,6.04c0.69-0.42,0.81-1.06,1.18-1.48
	C53.08,129.5,53.74,129.11,54.62,129.74z"/>
<path class="st1" d="M148.15,141c-1.48,0.22-2.96,0.47-4.44,0.67c-3.15,0.42-5.72,2.1-8.28,3.79c-1.64,1.09-2.89,2.6-4.08,4.16
	c-1.06,1.38-0.99,3.08-1.4,4.64c-0.2,0.76-0.22,1.57-0.32,2.36c-0.78-2.47-1.56-4.94-2.37-7.4c-0.19-0.57-0.08-0.96,0.31-1.4
	c3.1-3.59,7.16-5.51,11.6-6.8c1.93,0.66,3.84-0.18,5.76-0.06C146,141.02,147.07,140.77,148.15,141z"/>
<path class="st1" d="M137.6,91.75c-2.71,0.14-4.89,1.63-7,3.03c-2.26,1.5-4.66,2.64-7.22,3.33c-2.82,0.77-5.14,2.22-7.34,4.03
	c-0.96,0.79-1.82,1.83-3.23,1.88c-0.73-1.55-1.28-3.16-1.75-4.81c-0.16-0.55-0.11-0.82,0.66-0.79c3.78,0.15,7.44-0.64,11.03-1.75
	c2.88-0.89,5.89-1.49,8.31-3.49c0.34-0.28,0.75-0.5,1-0.84c1.08-1.49,2.51-1.47,4.06-1.02C136.62,91.47,137.11,91.61,137.6,91.75z"
	/>
<path class="st1" d="M139.31,51.91c-2.51,0.01-4.38,1.09-5.77,3.21c-0.87,1.33-0.92,2.68-0.6,4.12c0.17,0.76,0.7,1.59-0.26,2.13
	c-0.9,0.5-1.7-0.04-2.41-0.56c-0.48-0.35-0.79-0.88-1.02-1.45c0.88,0.67,1.6-0.07,2.22-0.42c0.41-0.23,0.04-1.02-0.14-1.54
	c-0.44-1.27-0.89-2.54-1.34-3.81c-0.23-0.67-0.11-1.24,0.47-1.7C132.59,50.16,137.15,50.17,139.31,51.91z"/>
<path class="st12" d="M75.23,80.08c0.64-0.02,0.73-0.39,0.71-0.95c-0.08-2.27-1.14-4.11-2.54-5.78c-0.77-0.91-1.61-1.78-2.52-2.54
	c-1.38-1.16-2.99-1.58-4.77-1.11c0.23-0.82,0.94-1.25,1.5-1.79c0.43-0.42,0.79-0.13,1.16,0.12c2.65,1.77,5.45,3.27,8.33,4.62
	c0.47,0.22,0.51,0.56,0.48,0.97c-0.08,1.33,0.12,2.59,0.58,3.86C78.75,79.07,77.17,80.42,75.23,80.08z"/>
<path class="st13" d="M139.98,139.06c-0.56,0.09-1.12,0.19-1.69,0.28c-2.8,0.37-5.53,1.04-8.16,2.09c-1.19,0.47-2.33,1.01-3.34,1.81
	c-0.27,0.21-0.53,0.5-0.95,0.36c-0.16-0.53-0.29-1.08-0.5-1.59c-0.22-0.53-0.02-0.81,0.41-1.06c3.05-1.81,6.21-3.35,9.86-3.19
	c1.45,0.07,2.89,0.55,4.33,0.84C140.13,138.75,140.13,138.9,139.98,139.06z"/>
<path class="st14" d="M59.91,142.54c0.22,0.16,0.16,0.4,0.19,0.62c-0.39,0.28-0.75,0.6-1.17,0.82c-2.21,1.21-3.77,2.96-4.74,5.3
	c-0.28,0.67-0.64,1.63-1.63,1.5c-1.05-0.14-0.86-1.17-1.06-1.89c0.42,0.4,0.87,0.79,1.46,0.38c0.55-0.38,0.48-0.95,0.29-1.52
	c-0.08-0.23-0.16-0.45-0.24-0.68c-0.79-2.22-0.78-2.21,1.36-3.11C56.15,143.22,58.05,142.97,59.91,142.54z"/>
<path class="st15" d="M54.62,129.74c-1.48-0.36-2.06,0.65-2.6,1.72c-0.13,0.26-0.07,0.76-0.48,0.72c-0.43-0.04-0.71-0.49-0.69-0.88
	c0.12-2.46,0.27-4.94,1.41-7.19c0.23-0.45,0.5-1.16,1.31-0.91c0.41,1.35,0.78,2.72,1.23,4.06
	C55.11,128.14,55.08,128.94,54.62,129.74z"/>
<path class="st14" d="M95.35,96.41c-0.21-0.99-1.22-1.52-1.32-2.63c-0.21-2.37-0.44-4.67,1.62-6.46c0.61-0.54,1.24-0.98,2.07-1.05
	c-2.29,2.38-2.61,5.52-0.87,8.8c0.22,0.42,0.48,0.82,0.73,1.23c-0.06,0.63-0.46,0.4-0.8,0.31C96.3,96.55,95.79,96.74,95.35,96.41z"
	/>
<path class="st14" d="M125.85,143.61c3.67-2.83,7.83-4.2,12.45-4.26c-2.35,0.62-4.48,1.79-6.76,2.6c-1.67,0.59-2.9,1.91-4.19,3.09
	c-0.29,0.26-0.43,0.67-0.9,0.83C126.14,145.13,125.95,144.38,125.85,143.61z"/>
<path class="st16" d="M125.8,55.95c-1.72,0.51-3.18,1.54-4.74,2.37c0.19-0.63,0.78-1.1,0.71-1.86c-0.05-0.54-0.24-0.93-0.76-1.08
	c-0.5-0.15-0.83,0.15-1.09,0.54c-0.27,0.41-0.37,0.94-0.94,1.37c0.2-1.35,0.26-2.54,0.1-3.69c-0.12-0.93,0.27-0.89,0.8-0.61
	C121.83,54.02,124.07,54.48,125.8,55.95z"/>
<path class="st17" d="M139.2,133.32c2.11,2.98,5.48,3.7,8.63,5.43c-1.36,0.13-2.34,0.23-3.35-0.33c-1.42-0.79-2.98-1.32-4.43-2.09
	C138.82,135.67,138.5,134.87,139.2,133.32z"/>
<path class="st18" d="M148.42,102.11c-1.75-1.41-3.48-2.85-5-4.53c-1.3-1.44-2.75-2.76-4.39-3.83c-0.64-0.42-1.12-0.9-0.95-1.75
	c1.22,0.15,1.61,1.34,2.42,2c1.82,1.47,3.68,2.91,5.29,4.62C146.81,99.69,147.8,100.76,148.42,102.11z"/>
<path class="st19" d="M34.1,169.27c0.37-0.1,0.73-0.2,1.25-0.34c-0.69-0.57-1.31-1.05-1.9-1.58c-0.49-0.44-0.96-0.96-0.43-1.64
	c0.54-0.69,1.18-0.4,1.65,0.07c0.93,0.94,2.56,1.31,2.57,3.05c0,0.33,0.36,0.23,0.57,0.3c0.41,0.13,0.83,0.26,1.24,0.38
	C37.4,169.43,35.75,169.35,34.1,169.27z"/>
<path class="st20" d="M111.69,90.36c0.89,0.22,1.19,0.77,1.01,1.67c-0.28,1.33-0.18,2.74-0.9,4.05c0.56,0.03,1.06,0.06,1.56,0.09
	c-0.96,0.38-1.95,0.13-3.12,0.18C111.57,94.45,112.45,92.58,111.69,90.36z"/>
<path class="st21" d="M56.34,131.01c0.35,1.22,0.7,2.44,1.04,3.65c-0.61,0.12-1.11,0.61-1.79,0.6
	C55.25,133.73,55.88,132.38,56.34,131.01z"/>
<path class="st22" d="M129.66,107.64c-0.1,0-0.19,0.01-0.29,0.01c-0.5-0.72-0.83-1.53-1.15-2.34c-0.21-0.54-0.39-1.08,0.16-1.52
	c0.51-0.41,1.03-0.32,1.52,0.07c0.21,0.17,0.56,0.09,0.7,0.39c-1.87-0.01-2.24,0.56-1.44,2.19
	C129.35,106.83,129.49,107.24,129.66,107.64z"/>
<path class="st23" d="M156.06,160.66c-0.55-0.09-0.72-0.48-0.64-0.95c0.08-0.43,0.43-0.7,0.86-0.71c1.46-0.01,2.93-0.18,4.37,0.2
	c-1.22,0.01-2.43,0-3.65,0.02C155.82,159.24,155.68,159.46,156.06,160.66z"/>
<path class="st24" d="M88.89,106.95c-0.49,0.36-0.82,0.31-1.02-0.33c-0.19-0.63-0.45-1.23-0.68-1.84c0.59,0.33,0.79,0.94,0.94,1.52
	C88.25,106.74,88.41,106.99,88.89,106.95z"/>
<path class="st25" d="M165.42,129.24c-0.37-0.49-0.36-0.98,0.11-1.36c0.45-0.37,0.93-0.4,1.29,0.17
	C165.93,127.96,165.43,128.31,165.42,129.24z"/>
<path class="st26" d="M58.68,138.88c0.25,0.18,0.19,0.44,0.18,0.69c-0.79,0.14-1.59,0.17-2.38-0.02l-0.1,0l-0.1-0.02
	c-0.09-0.27,0.09-0.32,0.29-0.34c0.61-0.09,1.25,0.17,1.85-0.14C58.5,139,58.59,138.94,58.68,138.88z"/>
<path class="st27" d="M169.87,129.43c0.17,0.67,0.25,1.35-0.42,2.04C169.42,130.66,169.59,130.05,169.87,129.43z"/>
<path class="st28" d="M49.75,138.13c0.23-0.12,0.27-0.34,0.32-0.56c0.28,0.37,0.57,0.73,0.92,1.19
	C50.37,138.79,50.04,138.5,49.75,138.13z"/>
<path class="st29" d="M56.48,139.55c0.79,0.01,1.59,0.01,2.38,0.02c0.05,0.06,0.06,0.13,0.04,0.21
	C58.09,139.76,57.25,140.03,56.48,139.55z"/>
<path class="st29" d="M58.41,139.05c-0.61,0.49-1.3,0.26-1.96,0.23c-0.07-0.1-0.04-0.16,0.07-0.19
	C57.15,139.08,57.78,139.06,58.41,139.05z"/>
<path class="st30" d="M56.52,139.09c-0.03,0.06-0.05,0.13-0.07,0.19c-0.06,0.08-0.12,0.17-0.18,0.25c-0.32-0.01-0.61-0.05-0.77-0.39
	C55.84,138.98,56.18,139.04,56.52,139.09z"/>
<path class="st31" d="M139.98,139.06c-0.01-0.15-0.02-0.3-0.03-0.44c0.4-0.05,0.73,0.12,1.07,0.35
	C140.66,139.13,140.32,139.12,139.98,139.06z"/>
<path class="st32" d="M96.77,96.62c0.28-0.06,0.62,0.01,0.8-0.31c0.16,0.1,0.42,0.27,0.3,0.39C97.52,97.05,97.13,96.8,96.77,96.62z"
	/>
<path class="st33" d="M155.13,141.48c0.02,0.14,0.04,0.28,0.06,0.42c-0.32-0.04-0.68-0.24-0.61-0.51
	C154.65,141.12,154.94,141.44,155.13,141.48z"/>
<path class="st34" d="M167.32,128.78c0.16,0.05,0.31,0.11,0.47,0.16c-0.01,0.18-0.02,0.37-0.04,0.55
	C167.4,129.39,167.39,129.07,167.32,128.78z"/>
<path class="st35" d="M107.35,98.25c0.12,0.08,0.2,0.13,0.28,0.18c-0.13,0.08-0.26,0.18-0.4,0.24c-0.04,0.02-0.13-0.05-0.19-0.08
	C107.14,98.49,107.23,98.38,107.35,98.25z"/>
<path class="st36" d="M98.94,165.72c-0.38,0.38-0.83,0.2-1.27,0.18c-0.02-0.05-0.02-0.1,0-0.15
	C98.09,165.74,98.52,165.73,98.94,165.72z"/>
<path class="st37" d="M137.14,163.6c0.71,0,1.17,0.27,1.28,0.84c0.1,0.53-0.24,0.93-0.75,1.08c-1.62,0.48-3.18,1.05-4.2,2.54
	c-0.19,0.28-0.55,0.34-0.87,0.17c-0.4-0.21-0.56-0.56-0.49-1c0.14-0.83,0.62-1.47,1.22-2.01C134.43,164.2,135.9,164.01,137.14,163.6
	z"/>
<path class="st38" d="M146.41,161.67c-0.04,0.61-0.47,0.91-1,1.03c-1.33,0.29-2.64,0.59-3.87,1.21c-0.46,0.23-0.96,0.17-1.26-0.33
	c-0.32-0.54-0.14-1.05,0.33-1.36c1.47-0.97,3.14-1.33,4.86-1.47C145.98,160.7,146.33,161.11,146.41,161.67z"/>
<path class="st39" d="M151.96,159.37c0.72,0.01,1.51,0.01,1.55,0.92c0.04,0.84-0.66,1.07-1.4,1.13c-0.75,0.06-1.5,0.18-2.25,0.23
	c-0.58,0.04-1.05-0.2-1.13-0.81c-0.08-0.61,0.34-0.98,0.89-1.09C150.38,159.57,151.17,159.49,151.96,159.37z"/>
<path class="st4" d="M157.01,165.91c-0.39,0.42-0.41,1.23-1.23,1.2C156.24,166.77,156.26,165.96,157.01,165.91z"/>
<path class="st0" d="M126.55,80.12c-1.01,0.05-2-0.16-2.96-0.39c-1.39-0.33-2.85-0.93-3-2.52c-0.17-1.83,0.1-3.73,1.86-4.89
	c2.78-1.82,7.07-0.51,8.4,2.52c0.92,2.1-0.72,4.86-3.11,5.21C127.35,80.1,126.95,80.09,126.55,80.12z"/>
<path class="st0" d="M121.61,134.41c-4.79,2.73-9.59,2.62-14.19-0.29c-5.67-3.59-7.47-12.86-2.09-17.83
	c2.48-2.29,5.05-4.28,8.37-5.15c0.69-0.02,0.94,0.38,1.1,0.99c1.75,6.85,4.07,13.53,6.22,20.25
	C121.24,133.05,121.73,133.65,121.61,134.41z"/>
<path class="st40" d="M33.44,149.39c-0.05,0.16-0.1,0.32-0.15,0.48c-0.11,0.63-0.23,1.25-0.34,1.88c-0.16,0.4-0.3,0.81-0.47,1.21
	c-0.23,0.53-0.62,0.86-1.22,0.68c-0.53-0.16-0.79-0.61-0.66-1.12c0.34-1.29,0.38-2.69,1.24-3.82
	C32.67,148.23,33.2,148.48,33.44,149.39z"/>
<path class="st41" d="M33.2,145.04c0.15-0.94,0.72-1.66,1.24-2.41c0.33-0.48,0.88-0.59,1.38-0.56c0.62,0.04,0.39,0.68,0.54,1.05
	c-0.43,1.05-1.12,1.95-1.7,2.91C33.48,146.38,33.26,146.23,33.2,145.04z"/>
<path class="st42" d="M33.2,145.04c0.08,0.93,0.7,1.07,1.47,0.99c0.02,0.35-0.31,0.37-0.5,0.51C33.3,146.4,32.72,146.06,33.2,145.04
	z"/>
<path class="st0" d="M73.7,150.9c0.05,1.95-1.46,3.06-3.55,3.72c-1.8,0.57-2.11,0.25-2.82-1.53c-0.82-2.08-1.72-4.12-2.58-6.19
	c-0.21-0.51-0.51-1.09,0.03-1.55c0.51-0.43,1.06-0.87,1.83-0.64c2.33,0.68,4.43,1.8,6.24,3.42C73.63,148.82,73.62,149.85,73.7,150.9
	z"/>
<path class="st43" d="M65.15,132.79c-0.03,1.26-1.18,2.86-2.39,3.33c-0.54,0.21-0.91-0.01-1.21-0.46c-0.87-1.3-1.36-2.78-1.85-4.24
	c-0.31-0.95,0.49-1.75,1.46-1.55c1.01,0.21,1.99,0.57,2.9,1.07C64.78,131.33,65.17,131.95,65.15,132.79z"/>
<path class="st44" d="M32,157.79c0.12,1.07,0.38,2.1,0.67,3.13c0.19,0.65,0.33,1.44-0.55,1.7c-0.85,0.25-1.18-0.42-1.37-1.11
	c-0.31-1.14-0.78-2.26-0.65-3.48C30.71,156.81,31.12,156.76,32,157.79z"/>
<path class="st45" d="M32,157.79c-0.73-0.7-1.36-0.62-1.89,0.24c-0.08-0.68,0.24-1.11,0.89-1.17
	C31.59,156.81,31.98,157.14,32,157.79z"/>
<path class="st46" d="M33.44,149.39c-0.35-0.65-0.91-0.84-1.6-0.7c0.28-0.47,0.69-0.59,1.18-0.37
	C33.48,148.53,33.55,148.93,33.44,149.39z"/>
<path class="st43" d="M81.49,121.9c1.42,0.57,3.05,1.59,3.97,3.38c0.64,1.25-0.39,3.43-1.67,3.95c-0.61,0.24-1.03-0.04-1.25-0.58
	c-0.73-1.82-1.72-3.5-2.56-5.26C79.52,122.43,79.98,121.81,81.49,121.9z"/>
<path class="st47" d="M60.17,112.58c3.21-3.79,6.2-7.51,10.29-10.3C70.62,106.92,63.42,112.22,60.17,112.58z"/>
</svg>
