<?xml version="1.0" encoding="UTF-8"?>
<svg id="Layer_1" data-name="Layer 1" xmlns="http://www.w3.org/2000/svg" viewBox="0 0 320.59 235.8">
  <defs>
    <style>
      .cls-1 {
        fill: #343c4f;
      }

      .cls-1, .cls-2, .cls-3, .cls-4, .cls-5, .cls-6, .cls-7, .cls-8, .cls-9, .cls-10, .cls-11, .cls-12, .cls-13, .cls-14, .cls-15, .cls-16, .cls-17, .cls-18, .cls-19, .cls-20, .cls-21, .cls-22, .cls-23, .cls-24, .cls-25, .cls-26, .cls-27, .cls-28, .cls-29, .cls-30, .cls-31, .cls-32, .cls-33, .cls-34, .cls-35, .cls-36, .cls-37, .cls-38, .cls-39, .cls-40, .cls-41, .cls-42, .cls-43, .cls-44, .cls-45, .cls-46, .cls-47 {
        stroke-width: 0px;
      }

      .cls-2 {
        fill: #5e6e90;
      }

      .cls-3 {
        fill: #020204;
      }

      .cls-4 {
        fill: #6381b9;
      }

      .cls-5 {
        fill: #04070d;
      }

      .cls-6 {
        fill: #000002;
      }

      .cls-7 {
        fill: #020407;
      }

      .cls-8 {
        fill: #222;
      }

      .cls-9 {
        fill: #434f67;
      }

      .cls-10 {
        fill: #6788c8;
      }

      .cls-11 {
        fill: #000021;
      }

      .cls-12 {
        fill: #020307;
      }

      .cls-13 {
        fill: #8fa9dc;
      }

      .cls-14 {
        fill: #e3e3e3;
      }

      .cls-15 {
        fill: #020304;
      }

      .cls-16 {
        fill: #464b62;
      }

      .cls-17 {
        fill: #243465;
      }

      .cls-18 {
        fill: #5d6d8f;
      }

      .cls-19 {
        fill: #6485c2;
      }

      .cls-20 {
        fill: #0a0907;
      }

      .cls-21 {
        fill: #384258;
      }

      .cls-22 {
        fill: #423528;
      }

      .cls-23 {
        fill: #030508;
      }

      .cls-24 {
        fill: #325eb9;
      }

      .cls-25 {
        fill: #020406;
      }

      .cls-26 {
        fill: #f2d493;
      }

      .cls-27 {
        fill: #5b514c;
      }

      .cls-28 {
        fill: #020306;
      }

      .cls-29 {
        fill: #243565;
      }

      .cls-30 {
        fill: #9cb3e1;
      }

      .cls-31 {
        fill: #b3c5ea;
      }

      .cls-32 {
        fill: #0b0b0b;
      }

      .cls-33 {
        fill: #030407;
      }

      .cls-34 {
        fill: #090909;
      }

      .cls-35 {
        fill: #243566;
      }

      .cls-36 {
        fill: #030405;
      }

      .cls-37 {
        fill: #fdfdfd;
      }

      .cls-38 {
        fill: #030507;
      }

      .cls-39 {
        fill: #020305;
      }

      .cls-40 {
        fill: #0a0a0a;
      }

      .cls-41 {
        fill: #010204;
      }

      .cls-42 {
        fill: #6a6562;
      }

      .cls-43 {
        fill: #030509;
      }

      .cls-44 {
        fill: #1b1009;
      }

      .cls-45 {
        fill: #f2f2f2;
      }

      .cls-46 {
        fill: #080808;
      }

      .cls-47 {
        fill: #596a8c;
      }
    </style>
  </defs>
  <path class="cls-46" d="M30.88,118.92c11.12-5.48,21.2-12.65,31.45-19.52,2.77-1.86,4.93-4.61,7.42-6.9,1.05-.97.95-2.07.66-3.26-2.62-10.73-3.52-21.66-4.25-32.66-1.1-16.65,11.54-29.53,24.62-32.73,8.82-2.16,17.79-2.21,26.76-1.66,8,.49,15.7-.08,22.95-3.89,3.48-1.83,6.69-3.99,9.51-6.7,3.51-3.37,7.52-6.04,11.79-8.32,5.73-3.05,11.87-3.97,18.22-2.72,6.68,1.31,11.13,6.01,14.95,11.1,5.13,6.83,9.61,14.12,13.5,21.75,1.88,3.69,2.78,7.61,3.25,11.66,1.02,8.81,1.06,8.53,9.88,9.89,10.98,1.69,22.04,2.31,33.1,3.01,2.47.16,4.9-.12,7.32-.6,1.35-.27,2.78-.64,3.6.89.87,1.62-.1,2.89-1.29,3.71-5.92,4.09-10.86,9.39-16.95,13.28-6.2,3.96-12.22,8.22-19.15,10.88-1.77.68-2.27,1.27-.48,2.78,1.78,1.5,3.25,2.18,5.81,1.7,9.03-1.71,17.87-.56,26.34,3.05,11.21,4.78,16.43,14.08,18.88,25.38,1.37,6.3,1.57,12.57-.97,18.71-2.94,7.1-8,12.06-15.01,15.03-1.55.66-2.37,1.59-2.9,3.17-2.54,7.51-7.07,13.82-12.35,19.62-1,1.09-1.4,1.87-.38,3.22,5.66,7.52,10.04,15.85,14.95,23.85,3.32,5.41,6.75,10.74,10.44,15.9,1.78,2.49,3.38,5.07,4.49,7.93,1.29,3.31.71,6.4-1.43,8.18-2.01,1.68-4.64,1.53-7.83-.16-4.14-2.2-6.59-5.93-9.19-9.59-6.55-9.25-12.98-18.59-18.88-28.27-1.04-1.7-1.91-2.17-3.11-.23-3.52,5.69-8.86,9.5-14.08,13.38-10.13,7.52-20.34,14.92-32.3,19.39-.55.2-1.12.34-1.68.5-6.35,2.33-12.94,2.95-19.63,2.83-.83-.58-.31-.97.23-1.26.97-.53,2.06-.68,3.13-.87,4.62-.84,9.07-2.21,13.35-4.13,2.2-1.4,4.66-2.16,7.1-3,3.69-.44,6.68-2.63,9.96-4.08,5.27-2.33,9.71-6.03,14.66-8.88,4.9-2.83,8.31-7.37,12.68-10.79.88-.69.47-1.49.31-2.3.25-1.9,1.53-3.16,2.8-4.4,1.31-1.29,1.76-2.63.67-4.28-1.13-1.7-2.54-1.2-4.04-.66-7.24,2.6-14.62,3.93-22.39,2.99-3.59-.44-7.25-.41-10.81-1.24-1.12-.26-1.79.08-2.01,1.26-.11.57-.26,1.18-1.01,1.28-.74-.5-.65-1.31-.77-2.05-.14-.87-.33-1.86-1.4-1.76-1.03.1-.67,1.16-.8,1.86-.22,1.2.58,2.77-1.2,3.43-.83-.91-.73-2.06-.62-3.11.27-2.42-.64-4.01-2.86-4.97-.84-.36-1.54-1.01-2.31-1.51-2.58-1.83-4.5-4.31-6.46-6.72-1.38-1.7-2.89-2.75-5.16-2.45-.66.09-1.35-.03-1.9-.51.23-1.96,2.09-.72,3.08-1.63-.29-1.22-1.2-1.69-2.42-1.85-.95-.13-2.03.16-2.77-.76,2.12-1.98,2.11-1.98.58-5.08-1.19-2.42-2.44-4.8-3.43-7.32-3.43-8.76-2.95-17.48.02-26.22.19-.56.47-1.09.52-1.68.18-1.02,1.01-1.7,1.4-2.61.31-.72,1.07-1.38.33-2.26-.09-.22-.12-.45-.09-.68,5.02-6.11,9.14-13.01,15.51-17.96.46-.37.89-.79,1.42-1.08,1-.46,1.77-1.28,2.78-1.73,12.77-7.32,26.29-9.76,41.11-6.06-1.61-1.71-2.75-3.36-3.99-4.94-1.19-1.51-2.59-1.78-4.49-1.38-7.76,1.61-14.92,4.94-22.31,7.61-3.27,1.18-6.63,2.02-10,2.85-1.69-.13-2.39,1.25-3.37,2.22-1.59-1.18-3.31-1-5.08-.54-13.48,3.52-27.15,6.3-40.63,9.85-5.05,1.33-10.21,2.34-15.37,3.23-2.11.36-2.78,1.18-2.24,3.15-.51,1.05-1.2.48-1.56,0-1.25-1.63-2.51-1.31-3.87-.22-10.08,1.67-20.08,3.69-30.08,5.73-1.9.39-3.08,1.47-3.86,3.25-2.61,5.9-3.11,12.21-3.93,18.48-.25,1.95.05,4.07-1.36,5.76-1.01-1.64-2.41-2.78-4.25-3.4-.46-1.05-.42-2.15-.27-3.23.41-3.08.75-6.18,1.11-9.27.56-4.8-.09-5.97-4.72-7.75-1.72-1.04-3.54-.57-5.34-.36-2.72.32-5.45.5-8.19.39-1.37-.82-2.89-.73-4.4-.88-5.08-.48-10.22-.48-15.22-1.72-3.5-.87-5.14-4.01-3.78-7.32Z"/>
  <path class="cls-34" d="M302.73,102.92c3.9,0,7.22.54,10.43,1.72,3.67,1.35,6.13,3.89,6.98,7.75,1.94,8.79-2.43,19.8-14.29,19.42-1.43-.05-1.74.51-1.77,1.71-.04,1.52-.21,3.03-.28,4.55-.09,1.86-1.02,2.94-2.88,2.7-2.26-.29-4.51-.72-6.7-1.3-1.41-.38-1.76-1.68-1.74-3.05.04-3.82.65-7.58,1.27-11.33.12-.75.29-1.49.44-2.24q1.15-5.86,6.84-4.46c.72.17,1.51.08,2.27.08,1.27-.01,2.13-.62,2.28-1.91.16-1.31-.39-2.31-1.64-2.85-1.72-.74-3.26-.17-4.85.59-2.3,1.1-3.74.27-4.13-2.25-.31-2.03-.18-4.06.15-6.07.34-2.09,2.43-3.33,5.33-3.28.93.02,1.85.16,2.3.21Z"/>
  <path class="cls-34" d="M31,82.11c-.09,3.2-1.21,6.99-3.77,10.2-.96,1.21-1,2.03-.31,3.33,2.81,5.27,2.77,5.29-2.77,7.72-6.27,2.75-6.93,2.56-9.93-3.71-1.31-2.74-2.36-5.61-3.42-8.46-.82-2.23-.03-3.64,2.25-3.67,2-.03,3.02-.83,3.32-2.69.29-1.81-.23-3.41-1.75-4.47-1.62-1.13-3.07-.29-4.38.74-.52.41-.94.97-1.37,1.48-2.14,2.57-3.75,2.49-5.42-.47-1.2-2.13-2.11-4.42-3.24-6.6-.54-1.04-.03-1.8.44-2.58,2.69-4.52,7.13-6.05,11.94-6.73,10.15-1.44,18.57,5.49,18.39,15.91Z"/>
  <path class="cls-40" d="M30.88,118.92c0,4.89,1.19,6.6,5.9,7.33,2.33.36,4.88.3,7.14.6,3.29.43,6.6.32,9.86.85.2.03.32.53.47.81-.4,1.15-1.5,1.54-2.4,2.11-4.63,2.91-8,6.87-10.06,11.94-2.98,5.7-2.26,11.71-1.47,17.72.07.51.46.64.94.6.86.36.9,1.18,1.04,1.91,1.14,5.96,4.26,10.77,8.57,14.91.25.24.44.51.58.82.05.24.05.48-.01.72-1.39,1.45-.87,2.6.52,3.68.99.77,2.07,1.33,3.27,1.68,5.26,2.84,10.89,4.04,16.83,3.65,3.31-.22,6.57-.71,8.92-3.47.48-.31,1-.37,1.55-.24,3.44,2.2,4.84,5.94,6.79,9.23.86,1.47,2.01,2.97,1.59,4.91-.24.17-.47.17-.7-.02-1.48-4.09-4.01-7.58-6.38-11.17-.49-.74-.81-1.69-2.09-.81-6.28,4.29-13.15,3.8-20.02,2.04-17.28-4.43-27.05-20.08-24.58-38.66,1.13-8.48,5.27-14.81,12.22-19.52.82-.55,1.65-1.1,2.91-1.94-4.72-.38-9-.26-13.18-1.09-2.6-.52-5.36-.5-7.73-1.94-.25-.89-.9-1.55-1.37-2.31-.88-1.42-.98-2.77.35-3.99.08-.29.25-.42.56-.33Z"/>
  <path class="cls-40" d="M300.38,156.42c-5.57-.11-8.9-3.04-8.47-7.46.46-4.79,5.14-7.4,9.45-5.26,2.99,1.49,5.24,6.58,4.31,9.78-.58,2.01-2.35,3-5.29,2.94Z"/>
  <path class="cls-32" d="M90.19,198.65c.21-.02.42-.03.64-.05,1.22,1.71,1.39,3.77,1.73,5.73,1.25,7.14,4.5,12.97,10.69,17.01,1.49.98,3.02,1.84,4.73,2.35,4.89,2.66,10.19,3.53,15.66,3.65,3.68.08,7.04,1.87,10.67,2.05,7.59.38,14.78,3.72,22.51,3.02,1.67.01,3.34.22,4.99-.24.67-.15,1.36-.21,2.05-.22,1.32.02,2.65.06,3.97-.1.28,0,.52.09.73.28,6.44.02,12.82-.38,18.99-2.47.3-.1.66,0,1,0-3.4,2.21-7.33,2.39-11.16,2.84-15.43,1.81-30.89,1.94-46.26-.35-9.04-1.35-17.79-4.07-26.02-8.14-7.53-3.72-12.09-9.84-13.66-18.12-.46-2.4-.83-4.82-1.24-7.23Z"/>
  <path class="cls-32" d="M28.63,115.65c-3.59.02-6-2.44-5.97-6.09.02-3.27,1.65-4.78,5.16-4.79,3.6-.01,6.03,2.14,6.08,5.38.05,3.31-2.03,5.49-5.27,5.5Z"/>
  <path class="cls-8" d="M30.32,119.24c-.6,1.71-.8,3.29.86,4.64.31.25.12,1.09.17,1.66-1.45-.6-1.9-2.11-2.61-3.25-.91-1.46.15-2.49,1.59-3.05Z"/>
  <path class="cls-27" d="M72.54,77.2c-.9-2.66-1.01-5.47-1.24-8.22-.53-6.38-1.6-12.82-.48-19.18,1.86-10.65,10.96-20.34,23.04-22.41,8.16-1.39,16.34-.91,24.52-.99,3.88-.04,7.8.48,11.64-.29,9.23-1.85,17.25-5.98,24.19-12.46,5.77-5.39,12.45-9.43,20.7-9.44,5.16,0,9.79,1.64,13.06,5.99.45.6.95,1.17,1.43,1.76.58.69,1.19,1.35,2.04,1.71,4.26,6.37,8.48,12.77,12.26,19.44.24.42.29.95.43,1.42-.78,1.47-.91,3.06-.83,4.68.25,5.03-.51,9.95-1.62,14.82-.96,4.21-3.02,7.75-5.92,11.02-5.52,6.23-12.46,9.81-20.18,12.57-15.91,5.68-32.22,9.54-48.94,11.75-2.84.37-5.73.64-8.58.64-8.02,0-16.05.5-24.07-.38-6.8-.74-12.83-2.86-17.24-8.43-1.21-1.53-2.8-2.69-4.23-4.01Z"/>
  <path class="cls-24" d="M166.01,129.56c.67.55.13,1.09-.05,1.59-3.9,10.56-3.51,20.86,1.79,30.88,1.26,2.38,2.47,4.78,3.75,7.27-1.12.77-2.54,0-3.6.78-.66.86-1.67.66-2.55.85-8.96,1.92-15.96,6.37-18.3,15.71-2.31,9.22.31,17.16,7.75,23.31.77.64,1.72,1.11,1.84,2.28-.22,1.21-1.24,1.52-2.18,1.89-7.36,2.92-14.85,4.95-22.94,4.59-7.17-.32-14.37.16-21.5-1.1-4.2-.74-8.29-1.71-11.7-4.48-.67-.3-1.17-.78-1.43-1.48-.42-1.51-.95-2.99-1.44-4.48-.89-3.18-1.14-6.49-2.07-9.66-.75-2.53-1.81-4.92-3.37-7.06-1.12-1.67-2.05-3.45-3.26-5.06-5.06-6.71-9.06-13.94-11.2-22.13-.76-2.9-.82-5.81-.42-8.75.08-.33.17-.66.35-.94.67-1.09,1.42-2.33,2.82-2.17,1.24.15.73,1.71,1.31,2.49,1.41,1.43,2.34.88,2.91-.75.32-.93.46-1.93.7-2.9.87-2.22,1.97-4.33,3.31-6.3,8.4-9.05,20.23-11.44,31.44-6.35,1.54.7,3.02,1.51,4.48,2.36.8.47,1.69,1.02,2.58.31.92-.75.75-1.83.46-2.82-.37-1.26-1.19-2.23-2.22-3.01-5.43-4.12-11.28-7.13-18.36-6.8-.57-.12-1.3-.15-1.38-.85-.1-.89.67-1.3,1.32-1.67,4.18-2.34,8.69-3.53,13.47-3.69,2.91,1.21,4.82,3.9,7.69,5.18.67.39,1.34.77,2,1.17,9.03,4.78,18.65,6,28.67,4.66,2.44-.33,4.67-1.41,6.94-2.3.76-.3,1.45-.92,2.37-.56Z"/>
  <path class="cls-22" d="M72.54,77.2c2.74.21,3.96,2.54,5.38,4.25,4.02,4.84,9.39,6.63,15.27,7.41,7.49.99,15.03.52,22.54.47,10.65-.07,21.05-2.16,31.46-4.23,12.31-2.44,24.27-6.17,35.65-11.23,10.89-4.84,18.17-13.18,19.3-25.83.33-3.71.42-7.41.43-11.12,0-1.14-.02-2.28,1.56-2.4,2.64,3.75,2.9,8.17,3.54,12.49.39,2.58.8,5.13,1.84,7.58.99,2.32,2.75,3.54,5.03,3.71,7.81.59,15.46,2.43,23.32,2.77,5.69.25,11.44.45,17.28,1.64-2.22,1.96-4.32,3.95-6.55,5.78-10.02,8.21-21.15,14.48-33.49,18.44-7.4,2.37-14.42,5.79-21.85,8.02-16,4.79-32.31,8.34-48.56,12.16-14.18,3.33-28.37,6.72-42.67,9.47-10.25,1.98-20.39,4.59-30.72,6.05-11.55,1.64-23.18,2.18-34.78.16-.57-.1-1.12-.36-2.13-.7,2.13-1.22,4.02-2.21,5.8-3.35,8.89-5.67,18.1-10.87,26.44-17.38,2.72-2.12,5.03-4.77,7.43-7.27,1.3-1.35,1.15-3.05.76-4.78-.9-4.02-2.09-7.99-2.29-12.14Z"/>
  <path class="cls-35" d="M98.39,212.37c4.57,3.68,10.12,4.32,15.64,5.01,7.74.97,15.52.58,23.28.45,6.51-.11,12.45-2.75,18.44-5,.46-.17.57-.59.6-1.02,1.17-.72,1.92.39,2.87.66,10.8,4.79,23.02,1.76,29.45-7.28,2.31-3.25,3.31-6.97,4.03-10.8.15-.81.03-1.71.77-2.33,1.1-.95-.47-3.06,1.24-3.45,1.11-.26,2.43.53,3.68.69,10.87,1.42,21.68,2.1,32.09-2.53,1.22-.54,2.72-1,3.56.63.81,1.56,2.31,3.13.43,4.98-1.56,1.54-3.23,3.02-3.92,5.21-1.49,3.01-4.3,4.76-6.81,6.67-6.93,5.27-13.9,10.51-21.38,14.98-2.96,1.77-6.08,3.28-9.41,4.26-2.4.99-4.79,1.99-7.19,2.98-5.15,2.03-10.54,3.04-16.04,3.26-6.08.24-12.15.8-18.25.59-12.82-.44-25.46-1.83-37.57-6.41-5.34-2.02-10.56-4.19-14.35-8.73-.67-.81-1.73-1.49-1.16-2.82Z"/>
  <path class="cls-44" d="M167.54,145.6c-.13-8.78,3.4-16.25,7.63-23.41,6.98-11.82,17.93-18.26,30.96-20.88,8.92-1.8,17.92-1.4,26.26,3.42,5.39,3.12,11.4,5.19,15.88,9.76,5.47,5.57,8.37,12.55,9.59,19.99,2.2,13.48-2.37,25.15-11.04,35.39-.98,1.16-1.92,2.35-2.96,3.45-1.93,2.02-2.44,4.83-.74,7.01,5.52,7.08,9.55,15.09,14.27,22.66,4.15,6.65,8.33,13.26,12.83,19.68,1.23,1.76,2.04,3.85,2.87,5.86.33.81.42,1.89-.33,2.64-.9.89-1.73.07-2.53-.3-3.05-1.39-4.89-4.09-6.77-6.64-9.6-13.04-18.35-26.66-26.81-40.46-1.43-2.33-2.72-2.8-5.31-1.68-11.6,5.04-23.63,4.87-35.7,2.16-6.12-1.38-10.7-5.15-14.78-10.01-5.3-6.3-9.41-13.12-12.04-20.87-.87-2.57-1.43-5.2-1.26-7.78Z"/>
  <path class="cls-26" d="M183.15,106.62c-4.7,4.49-9.43,8.96-12.54,14.8-.71,1.33-2.13,1.87-3.11,2.9-3.16,3.08-7.24,4.4-11.34,5.26-7.92,1.66-15.66.34-23.11-2.6-4.12-1.62-7.79-4.07-11.16-6.95-.45-.39-.85-.82-1.21-1.3-1.02-1.35-.71-2.09.96-2.42,4.81-.96,9.61-1.96,14.38-3.08,10.01-2.36,19.97-4.97,30.02-7.17,4.77-1.04,9.42-2.57,14.24-3.39.98-.17,1.95-.77,2.76.29.92,1.19,1.09,2.41.11,3.67Z"/>
  <path class="cls-35" d="M51.3,179.24c-.03-.16-.04-.33-.04-.5,5.36-.7,8.29-4.91,11.59-8.38,3.61-3.79,3.65-8.61,2.44-13.37-1.12-4.42-3.65-8.19-6.6-11.59-2.83-3.27-6.76-4.31-10.94-4.55-1.08-.06-2.22.19-3.18-.57.03-1.7,1.56-2.29,2.53-3.21,5.12-4.87,11.07-8.15,18.22-8.93.92-.1,1.84-.33,2.64.37,4.19.38,6.07,3.08,5.47,7.31-.64,4.48-1.51,8.95-1.4,13.51.79,1.72.29,3.53.11,5.22-.87,8.16,2.24,15.24,5.67,22.26.59,1.21,1.34,2.35,1.97,3.54,1.13,2.1.87,2.88-1.26,4.07-3.81,2.12-7.9,2.18-12.07,1.63-5.12-.68-9.79-2.55-14.03-5.47-.49-.34-.94-.72-1.13-1.32Z"/>
  <path class="cls-24" d="M170.09,174.2c3.92-.97,6.52.85,8.64,3.93,1.39,2.01,3.2,3.66,5.03,5.28,2.2,3.71,1.69,7.63.12,11.2-2.73,6.2-10.57,12.99-19.43,12.26-4.29-.35-8.16-2.05-11.83-4.23-2.46-2.29-3.13-5.39-3.41-8.48-1.17-13.09,9.93-20.77,19.95-20.31.35.02.65.14.92.36Z"/>
  <path class="cls-35" d="M262.61,141.74c.52-9.29-2.75-17.47-7.33-25.3-2.83-4.84-7.17-7.94-11.86-10.68-1.31-.76-2.64-1.58-4.07-2.03-4.02-1.27-4.65-4.79-5.61-8.11-.09-.31.26-.75.41-1.13,1.89-1.13,4.06-1.18,6.11-1.17,9.16.05,17.86,1.83,25.08,7.94,2.21,1.87,4.66,3.73,5.2,6.93-1.29,5.4-2.63,10.79-4.07,16.15-1.34,4.97-2.14,10.04-2.74,15.14-.1.85.14,1.95-1.13,2.23Z"/>
  <path class="cls-29" d="M118.72,121.94c-4.96.32-9.68,1.52-14.05,3.95-.35.19-.9.37-.73.81.09.23.74.23,1.13.34-.26,1.31-1.37,1.06-2.2,1.08-7.13.13-12.92,3.08-17.65,8.3-2.59,3.73-4.19,7.88-5.18,12.28-.66,1.85.51,4-.93,5.73-.9-.68-.32-1.73-.67-2.63-1.53.26-2.28,1.34-2.82,2.65-.64-.66-.63-1.34-.03-2.02,1.13-3.13.99-6.45,1.43-9.68.72-5.27,1.53-10.49,3.74-15.41.71-1.59,1.72-2.58,3.5-2.92,9.67-1.86,19.34-3.77,28.99-5.74.92-.19,1.64.05,2.44.27,1.4.6,2.73,1.28,3.02,2.99Z"/>
  <path class="cls-24" d="M262.61,141.74c.66-4.19,1.07-8.44,2.03-12.57,1.65-7.06,3.1-14.19,5.57-21.03,1.27.1,1.55,1.21,1.94,2.08,3.01,6.72,4.62,13.73,3.69,21.11-.66,5.19-3.15,9.54-6.82,13.23-.53.53-1.09,1.07-1.94,1.03-1.51.88-3.02,1.76-4.98,2.91.19-2.54.35-4.65.51-6.75Z"/>
  <path class="cls-35" d="M152.75,202.21c2.73,1.04,5.28,2.45,8.12,3.29,6.07,1.79,11.32.18,16.1-3.46,6.21-4.73,8.83-10.86,6.79-18.64.15.07.3.15.46.21,4.81,1.7,5.98,5.28,5.16,9.91.11,4.98-1.67,9.2-5.31,12.57-7.18,6.64-17.38,7.65-25.76,2.62-2.28-1.37-4.07-3.25-5.67-5.33-.15-.41-.15-.8.12-1.16Z"/>
  <path class="cls-41" d="M152.89,203.15c3.68,4,7.93,6.74,13.47,7.82,7.89,1.54,20.65-3.38,22.51-15.51.1-.66.33-1.3.5-1.94,1.05-1.36.25-2.95.54-4.39.14-.69-.59-2.02.82-1.9,1.05.09,2.52.19,2.68,1.79.1,1,.05,2.03.06,3.04-.39,9.25-4.27,16.45-12.7,20.68-7.2,3.62-14.57,3.81-21.89.15-2.22-2.26-5.43-3.24-7.49-5.75-.79-.96-1.46-1.88-1.11-3.13.41-1.47,1.17-2.3,2.61-.85Z"/>
  <path class="cls-39" d="M75.6,152.42c.01.67.02,1.35.03,2.02-.79,9.28,3.14,17.11,7.67,24.74,1.25,2.1,2.66,4.1,4,6.14.53,1.18-.2,1.27-1.04,1.14-1.32-.2-2.44-.91-3.56-1.58-.51,0-1.02,0-1.52,0-4.42,3-9.41,3.58-14.47,2.89-4.05-.55-8.06-1.52-11.95-2.89-2.1-.12-3.49-1.49-4.63-2.98-.98-1.28-.51-2.34,1.18-2.66,4.25,2.6,8.58,5.05,13.59,5.86,4.53.73,8.99,1.03,13.3-1.2,1.75-.91,2.11-1.61.96-3.4-3.31-5.14-5.65-10.75-7.13-16.67-1.2-4.81-.82-9.67.01-14.5,3.46-.27,3.51-.23,3.57,3.09Z"/>
  <path class="cls-39" d="M98.39,212.37c2.01,3.34,4.76,5.96,8.26,7.58,10.34,4.78,21.05,8.08,32.56,8.75,6.07.35,12.11,1.13,18.2.86,8.83-.4,17.73-.31,26.33-2.88.63-.19,1.34-.13,2.02-.19-.11,1.28-1.24.83-1.93,1.15-4.61,2.09-9.53,3.01-14.44,4.02-.3.06-.56.31-.84.48h-.51c-1.29.68-2.78-.19-4.06.51h-2.03c-1.64.69-3.44-.21-5.08.5-5.13.36-9.99-.9-14.95-2-3.43-.76-7.17-.5-10.54-1.61-6.9-2.28-14.51-.66-21.17-4.04-.9-.45-1.92-.68-2.61-1.49-4.43-2.56-7.99-6.17-11.6-9.71-1.08-1.06-1.41-2.36.18-3.4.55-.36.95-.08,1.25.41.08.58.43.92.97,1.07Z"/>
  <path class="cls-12" d="M152.89,203.15c-.7-.24-1.54-.73-1.92.31-.38,1.03-.4,2.11.38,3.09,1.4,1.77,3.37,2.76,5.26,3.81,1.1.61,1.9,1.33,2.27,2.52-.84-.36-1.68-.72-2.52-1.08-12.39-7.63-13.4-23.39-6.76-32.3,4.54-6.09,10.89-8.81,18.29-9.42,2.09.33,4.66-.79,5.92,2.01.19.42.85.71.51,1.27-.3.5-.9.28-1.38.34-.96.13-2.03-.36-2.87.49-2.99.32-5.97.49-8.84,1.65-10.75,4.36-14.9,17.07-8.5,26.36.05.31.1.62.14.93Z"/>
  <path class="cls-25" d="M267.07,145.58c5.2-4.76,8.48-10.55,8.42-17.69-.06-6.98-1.64-13.68-5.28-19.76-3.6-6.38-9.24-10.01-16.09-12.13-6.56-2.03-13.2-2.41-19.96-1.5-.73-.02-1.23-.46-1.74-.93-1.24-1.16-.56-1.96.64-2,3.61-.12,7.25-.65,10.82.35,1.09.31,2.02.52,3.13-.05,1.68-.87,3.38.01,4.8.69,3.56,1.7,6.99,3.69,10.44,5.6,1.72.95,2.99,2.74,5.32,2.53.73-.07,1.31.76,1.71,1.39,2.95,4.67,6.03,9.34,7.36,14.77,2.05,8.37,1.35,16.49-3.27,24-1.14,1.85-2,3.96-3.87,5.25-.82.56-2.12,1.93-2.45-.51Z"/>
  <path class="cls-20" d="M183.15,106.62c.74-3.61.11-4.43-3.44-3.59-12.25,2.88-24.45,5.97-36.7,8.9-6.49,1.55-13.02,2.93-19.54,4.39-1.04.23-2.09.47-3.53.8,5.31,5.45,11.27,8.99,18.26,10.87,10.27,2.76,20.08,1.94,29.29-3.68.02.21.03.43.05.64-1.67,2.09-3.87,3.66-6.33,4.36-9.37,2.65-18.84,3.69-28.41.74-1.86-.57-3.42-1.86-5.4-2.06-.63-.16-1.2-.43-1.62-.95-.92-3.09-3.01-5.28-5.5-7.17-.16-.48-.23-1.01-.48-1.42-.94-1.49-.26-2.16,1.18-2.45,5.34-1.09,10.72-2.07,16.03-3.28,5.41-1.23,10.75-2.73,16.15-4.04,8.89-2.15,17.81-4.2,26.7-6.35,1.8-.44,3.29-.26,4.45,1.29.62.68.51,1.35,0,2.03-.39.32-.77.65-1.16.97Z"/>
  <path class="cls-17" d="M186.93,101.1c10.09-2.21,19.24-7.21,29.18-9.86,1.54-.41,3.09-.79,4.63-1.22,1.01-.28,1.98.02,2.58.69,2.1,2.37,4.07,4.86,6.36,7.64-2.77.23-4.61-1.2-6.75-1.45-9.82-1.17-19.36-.52-28.46,3.67-2.52,1.16-5.03,2.34-7.54,3.52-.92-.99-.88-1.99,0-2.98Z"/>
  <path class="cls-33" d="M127.41,127.98c.56-.74,1.17-.39,1.8-.1,10.58,4.78,21.31,3.63,32.05.7,2.36-.64,3.94-2.85,6.29-3.64.55-.13,1.75-.88,1.08.53-.67,1.43-1.28,3.02-2.62,4.08-6.64,4.12-13.94,4.8-21.45,3.87-6.02-.75-11.99-1.9-17.15-5.45Z"/>
  <path class="cls-39" d="M67.96,128.5c-8.03.39-14.81,3.61-20.56,9.14-.9.86-1.76,1.77-2.64,2.65-.37,1.58-1.09,2.96-2.28,4.08-1.22-.32-.95-1.29-.94-2.15.9-4.25,3.91-7.12,6.84-9.91,1.66-1.58,3.89-2.56,5.86-3.8,3.83-.34,7.67-.71,11.5-.99.83-.06,1.97-.43,2.21.98Z"/>
  <path class="cls-7" d="M192.95,223.5c2.93-2.03,6.43-2.92,9.4-4.91,9.54-6.4,19.2-12.62,27.57-20.57.18-.17.41-.29.62-.43,1.03.15,1.87.57.7,1.53-4.9,3.98-8.84,9.08-14.47,12.22-4.55,2.54-8.57,5.96-13.39,8.09-3.08,1.36-6.07,2.92-9.1,4.39-.51.24-.98.19-1.34-.31Z"/>
  <path class="cls-23" d="M120.29,119.87c3.35,1.23,5.4,3.45,5.5,7.17-2.79-1.1-4.8-3.27-7.06-5.1-1.01-1-2.02-2-3.02-2.99-.59-1.56.84-.98,1.39-1.28.6-.32,1.32-.58,1.63.37.28.85.8,1.44,1.57,1.83Z"/>
  <path class="cls-15" d="M186.93,101.1c0,.99,0,1.99,0,2.98-.98.34-1.41,1.61-2.62,1.56,0-.68,0-1.35,0-2.03-.92-2.7,1.17-2.28,2.62-2.51Z"/>
  <path class="cls-42" d="M191.45,13.68c-1.41.3-1.59-.86-2.04-1.71,1.04.14,1.58.87,2.04,1.71Z"/>
  <path class="cls-37" d="M303.26,107.14c3.15.08,5.54.56,7.89,1.29,3.31,1.03,4.96,3.36,5.17,6.74.42,6.71-3.04,13.89-12.57,12.15-2.14-.39-3.2.72-3.53,2.66-.27,1.58-.38,3.18-.56,4.78-.08.72.1,1.64-1.16,1.37-.93-.2-1.89-.3-1.74-1.65.41-3.69.84-7.38,1.65-11.01.23-1.05.72-1.15,1.6-.88,1.15.35,2.34.3,3.52.18,3.93-.38,6.19-2.63,6.33-6.26.14-3.6-2.18-6.56-5.81-7.19-1.23-.21-2.52-.06-3.78-.03-.47.01-1.05.33-1.14-.47-.07-.6-.06-1.22.78-1.32,1.34-.15,2.68-.29,3.35-.36Z"/>
  <path class="cls-37" d="M26.8,81.57c-.46,3.2-.85,7.1-4.64,9.48-1.2.75-1.31,1.92-.82,3.14.28.7.72,1.34,1.09,2,1.58,2.84,1.55,2.77-1.42,4-1.05.43-1.52.18-2.03-.67-1.28-2.11-2.07-4.44-3.03-6.69-.55-1.3.43-1.37,1.1-1.78,3.93-2.48,4.89-7.99,2.13-12.1-2.56-3.79-7.08-4.37-11.16-1.57-.6.41-1.12,2.3-2.3.72-.99-1.32-2.23-2.77-.34-4.39,3.37-2.89,7.33-3.76,11.62-3.19,6.05.81,9.8,4.85,9.82,11.07Z"/>
  <path class="cls-24" d="M42.61,144.27c.36-1.52,1.24-2.76,2.16-3.98,11.16-.77,15.92,3.91,20.68,15.16,1.91,4.51,1.99,9.33-.8,13.56-2.21,3.34-5.14,6.19-8.31,8.66-1.39,1.08-3.24,1.37-5.07,1.08-5.18-4.33-8.54-9.74-9.73-16.43-.09-.49-.28-.96-.43-1.43-.41-.28-.58-.7-.67-1.16-.18-2.39-.08-4.78-.07-7.18.71-2.77.17-5.88,2.25-8.27Z"/>
  <path class="cls-34" d="M97.42,211.29c-1.12-.52-1.55.43-1.88,1.07-.36.7.34,1.24.83,1.67,3.45,3.03,6.93,6.03,10.39,9.05.31.27.55.61.83.91-5.4-1.49-9.21-5.11-12.12-9.63-3.05-4.75-3.68-10.34-4.65-15.77-1.91-5.04-4.71-9.56-8.13-13.71,1.31,0,2.46.54,3.62,1.04.69.3.91,0,.98-.61,1.29,1.35,2.17,2.97,3.03,4.61,2.71,5.49,3.28,11.69,5.67,17.29.63,1.3,1.18,2.64,1.42,4.08Z"/>
  <path class="cls-34" d="M54.76,184.88c3.27.31,6.5.83,9.65,1.78,4.66,1.41,9.15.44,13.64-.81,1.05-.29,2.09-.65,3.14-.97-.43,1.95-2.04,2.6-3.64,3.03-8,2.16-15.62,1.21-22.78-3.03Z"/>
  <path class="cls-43" d="M42.61,144.27c-.52,2.7-1.04,5.4-1.56,8.1-.45,2.54-.43,5.08-.01,7.62.02.29.04.59.07.88-.04.33-.07.67-.11,1-.9-.68-1.06-.65-1.64-4.29-.75-4.74-.68-9.48,1.14-14.04.23-.58.47-1.06,1.05-1.32.83.44.19,1.64,1.07,2.05Z"/>
  <path class="cls-45" d="M298.69,147.59c1.36-.02,2.83,1.88,2.85,3.57.02,1.04-.65,1.12-1.33.99-1.67-.31-3.82-.06-4.07-2.49-.17-1.7,1.16-2.02,2.55-2.07Z"/>
  <path class="cls-46" d="M156.87,233.13c1.61-1.03,3.39-.28,5.08-.5-1.61,1.03-3.39.28-5.08.5Z"/>
  <path class="cls-46" d="M163.98,232.63c1.25-1.01,2.72-.28,4.06-.51-1.25,1.01-2.72.29-4.06.51Z"/>
  <path class="cls-14" d="M29.6,110.25c-.01.71-.38,1.08-1.08,1.08-.87,0-1.44-.41-1.59-1.28-.14-.83.41-1.01,1.06-1,.81.01,1.51.2,1.62,1.2Z"/>
  <path class="cls-22" d="M112.18,42.17c1.95-1.05,3.71-.84,5.18.85,2.89,3.32,6.83,4.81,10.76,6.37,1.08.43,1.45-.13,1.68-.87,1.45-4.7,4.95-5.96,9.31-5.31,2.9.43,3.92-.97,4.42-3.39.36-1.73.68-3.48,1.23-5.14,1.08-3.25,2.97-5.82,6.5-6.77-1.51,5.88-.57,11.86-.79,17.8-.09,2.4-.43,4.7-1.64,6.81-1.04,1.82-2.49,2.66-4.64,2.05-1.46-.42-2.96-.69-4.46-.93-2.26-.35-4.4-.07-6.21,1.44-2.08,1.73-4.1,1.56-6.22.03-4.39-3.16-8.68-6.43-12.17-10.61-.85-1.01-2.04-1.47-2.95-2.33Z"/>
  <path class="cls-46" d="M112.18,42.17c1.42-.21,2.4.43,3.24,1.51,3.68,4.71,8.45,8.17,13.29,11.55,1.17.81,2.5.96,3.51-.05,3.28-3.27,7.08-2.5,10.91-1.61,3.83.89,5.03.16,6.12-3.62.72-2.49.51-5.02.53-7.54.03-3.3.08-6.59-.04-9.89-.06-1.78.25-3.32,1.52-4.61,1.78-.25,3.14.2,3.04,2.29-.3,6.24.52,12.51-.48,18.72-.38,2.36-1.15,4.57-2.58,6.53-1.82,2.51-4.05,3.37-7.07,2.69-1.56-.36-3.13-.65-4.71-.89-1.75-.27-3.08.15-4.46,1.15-3.41,2.48-5.27,2.53-8.77.22-5.17-3.4-9.94-7.27-13.94-12.02-1.19-1.41-1.79-2.92-.11-4.44Z"/>
  <path class="cls-28" d="M84.72,136.1c4.63-5.48,10.56-8.29,17.7-8.64.9-.04,1.86.23,2.66-.42,7.41-.5,13.42,2.75,18.97,7.15,1.26,1,2.33,2.24,2.32,4.03,0,1.08.23,2.22-.95,2.95-1.18.73-2.11.1-3.04-.48-2.65-1.69-5.45-3.09-8.45-3.98-9.72-2.88-18.14-.32-25.56,6.26-.5.45-.99.91-1.49,1.36-1.45-.22-.81-1.08-.51-1.78q1.42-3.34-1.51-5.36c-.43-.3-.42-.68-.14-1.08Z"/>
  <path class="cls-12" d="M120.31,167.22c-.03,8.4-5.45,14.18-13.29,14.16-8-.02-14.2-5.93-14.15-13.49.05-8.01,6.18-14.05,14.22-14.02,7.18.03,13.25,6.15,13.22,13.34Z"/>
  <path class="cls-46" d="M84.72,136.1c.01.08,0,.21.04.24q3.97,2.22,1.77,6.96c-.23.49-.04.77.35,1.02-1.07,2.01-2.14,4.03-3.2,6.04-.85,1.38-2.17,1.6-3.45.97-1.32-.65-.88-1.95-.6-3.07.78-4.44,2.47-8.49,5.09-12.16Z"/>
  <path class="cls-5" d="M96,207.21c-3.28-5.31-4.06-11.43-5.67-17.29,2.46,2.92,3.64,6.42,4.38,10.08.49,2.39.87,4.8,1.29,7.21Z"/>
  <path class="cls-5" d="M79.63,148.25c.11,3.14.51,3.35,4.04,2.1-.15.97-.25,1.96-.46,2.92-.54,2.39-2.04,2.8-4.09,1.15.11-2.06-.4-4.17.5-6.16Z"/>
  <path class="cls-46" d="M103.31,97.08c-6.56-.32-14.15-.7-21.73-1.07-1.39-.07-2.71-.5-2.71-2.04,0-1.54,1.34-2.19,2.7-2.02,7.48.95,15.01.29,22.52.78,4.32.28,8.77-.27,13.08-.94,9.64-1.51,19.33-2.73,28.87-4.9,15.58-3.55,31.01-7.56,45.59-14.21,5.12-2.33,10.12-5.11,13.52-9.93.62-.88,1.58-.98,2.52-.67,1.16.37,1.09,1.41,1.01,2.33-.2,2.28-1.95,3.54-3.5,4.77-6.15,4.86-13.07,8.37-20.43,11.03-15.98,5.78-32.35,10.21-49.09,13.04-10.36,1.75-20.73,3.74-32.34,3.84Z"/>
  <path class="cls-46" d="M174.62,143.49c-.22-9.63,3.26-17.58,10.11-24.45,6.03-6.04,12.61-10.75,20.88-13.2,7.8-2.31,15.14-1.33,22.39,1.85,2.7,1.18,5.39,2.39,8.03,3.69,7.7,3.76,10.91,10.95,13.77,18.34,1.9,4.89,2.99,9.94,3.16,15.25.15,4.86-1.23,9.17-3.54,13.26-2.79,4.93-6.04,9.68-10.19,13.44-4.29,3.89-9.56,6.36-15.46,7.51-10.41,2.02-20.45,1.61-29.96-3.51-9.33-5.02-15.25-12.74-18.23-22.91-.91-3.1-.87-6.15-.96-9.27Z"/>
  <path class="cls-31" d="M166.52,181.79c-3.08,1.39-6.05,2.9-7.67,6.12-2.9,1.08-4.24.33-4.55-2.54,1.37-4.57,4.85-6.79,9.09-8.14,1.5-.34,3.04-.54,3.89,1.11.65,1.26.64,2.57-.77,3.47Z"/>
  <path class="cls-30" d="M166.52,181.79c1.15-3.38.44-4.42-3.12-4.57,1.32-.86,2.72-.76,4.04-.12,1.02.5,1.24,1.53,1.11,2.59-.15,1.18-.67,2.06-2.02,2.1Z"/>
  <path class="cls-13" d="M154.31,185.36c.59,2.51,2.44,2.75,4.55,2.54-.74,1.37-1.87,1.84-3.25,1.11-1.48-.78-2.04-2.02-1.29-3.65Z"/>
  <path class="cls-40" d="M41.04,159.99c-.82-2.54-.84-5.08.01-7.62,0,2.54,0,5.08-.01,7.62Z"/>
  <path class="cls-11" d="M100.49,175.22c-1.91-2.11-2.92-4.37-3.21-7.4-.52-5.41,5.99-11.2,12.34-9.34,3.24.21,6.54,3.93,7.13,7.56.63,3.87-1.6,8.62-5.02,10.55-3.12,1.76-8.1,1.65-11.24-1.36Z"/>
  <path class="cls-6" d="M100.49,175.22c2.54,1.02,4.99,2.47,7.89,1.86,4.89-1.04,7.22-3.88,7.83-9.39.34-3.07-2.08-6.85-5.51-8.63-.36-.19-.71-.39-1.07-.58.79-.99,1.58-.28,2.23.11,3.18,1.93,5.68,4.44,6.74,8.16.33,1.16.1,2.21-.33,3.19-2.98,6.87-9.78,10.89-16.91,6.72-.48-.28-1.34-.5-.87-1.44Z"/>
  <path class="cls-10" d="M248.28,147.3c.25,3.13-1.4,5.66-2.6,8.35-6.75,15.19-19.92,20.93-35.31,20.24-11.24-.51-20.21-5.57-26.51-15.04-.7-1.05-1.38-2.14-1.61-3.42-1.45-9.47,1.32-17.66,7.55-24.79.64-.73,1.44-1.16,2.42-1.22,3.57.29,3.78.69,2.65,4-1.41,4.12-2.27,8.34-1.5,12.71,1.37,7.78,6.15,12.48,13.48,15.01,9.8,3.37,20.59.01,26.56-8.45,4.52-6.41,4.25-12.86-.81-18.82-.98-1.16-2-2.29-3.07-3.38-.36-.36-.71-.84-.47-1.35.24-.51.83-.53,1.34-.49,3.1.27,6,1.03,8.31,3.3,1.75,1.72,3.43,3.51,5.25,5.15,2.9,1.96,3.79,4.97,4.31,8.18Z"/>
  <path class="cls-38" d="M243.74,139.74c-1.28-1.23-2.68-2.35-3.81-3.7-2.74-3.29-6.3-4.63-10.75-4.8,2.34,2.19,4.29,4.38,5.89,6.87,2.9,4.54,3.06,9.24.68,13.98-7.44,14.79-25.61,16.73-36.94,7.3-6.32-5.25-7.3-12.44-5.71-20.13.31-1.48.58-3.05,1.29-4.36,1.29-2.38.24-2.91-1.89-2.89-2.56.11-4.76-.85-6.77-2.32-.73-.53-1.63-.99-1.44-2.16-.86-2.49,1.16-2.88,2.66-3.64,1.01-.61,1.95-.05,2.89.2,3.51.95,7.03,1.52,10.67.79,2.22-.44,4.53.24,6.73-.47,2.95-.25,5.92-.32,8.86-.71,5.47.34,10.99-.46,16.44.82,4.23.99,7.96,2.79,11.19,5.65.52.56.95,1.21,1.5,1.77.18.17.33.37.48.57.18.32.42.62.54.97.23.72.72,1.34.78,2.13.23,1.08.36,2.16.12,3.26-.8,1.65-2.1,1.3-3.43.86Z"/>
  <path class="cls-2" d="M243.85,130.99c-6.14-5.47-13.57-6.81-21.46-6.68-2.02.03-4.05.05-6.07.08.09-1.14.98-.95,1.68-.95,1.82.01,3.64-.14,5.42.07-.84-.21-1.65-.03-2.46-.09-5.61-.5-11.12.05-16.56,1.42-.32.15.18.45-.02.18.96-.6,1.93-.91,2.89,0-6.84.89-13.68,1.72-20.31-1.14-.25-.68.17-1.08.56-1.54,5.7-6.76,13.07-10.85,21.48-13.08,5.44-1.45,10.72-.25,15.83,1.75,2.04.8,4.03,1.72,6.08,2.53,7.89,3.1,12.23,9.19,14.46,17.08.09.31.31.59.47.88.14.49.49,1.08-.5,1.01h-.02c-.46-.54-.94-1.05-1.47-1.5Z"/>
  <path class="cls-18" d="M184.29,127.53c2.13,2.6,5.24,3.39,8.2,4.47-3.31.59-4.2,3.68-5.67,5.93-2.79,4.26-4.54,8.96-4.09,14.27.15,1.72-.31,3.49-.49,5.23-4.81-9.19-4.82-18.44-.32-27.72.47-.97.71-2.41,2.37-2.19Z"/>
  <path class="cls-47" d="M243.74,139.74c1.14-.01,2.37.24,3.04-1.08.48-.17.01-1.3.99-.97.67,3.18,1.25,6.36.51,9.61-.7-1.6-1.45-3.18-2.08-4.81-.49-1.25-1.47-1.99-2.46-2.76Z"/>
  <path class="cls-21" d="M247.77,137.69c-.33.32-.66.64-.99.97-.01-1.18-.02-2.36-.03-3.54.17-.17.34-.17.51,0,.14.86.74,1.64.5,2.58Z"/>
  <path class="cls-1" d="M247.26,135.11c-.17,0-.34,0-.51,0-.29-.53-.59-1.06-.88-1.59.15-.34,0-.82.47-1.02.57.78.79,1.68.93,2.62Z"/>
  <path class="cls-9" d="M246.34,132.49c-.16.34-.31.68-.47,1.02-.18-.34-.36-.68-.53-1.02.17-.34.33-.67.5-1.01.17.34.34.67.5,1.01Z"/>
  <path class="cls-16" d="M201.58,156.44c-6.04-6.04-5.75-13.04-3.11-20.4.68-1.88,1.72-3.03,4-3.15,4.96-.27,9.91-.74,14.84-1.35,5.16-.64,8.56,2.06,11.77,5.51,7.56,8.12,3.11,15.23-2.89,20.04-.59.47-1.21.91-1.82,1.36-.41,1.19-1.5,1.58-2.49,1.92-6.73,2.26-13.08,1.22-19.09-2.4-.59-.35-1.08-.8-1.22-1.53Z"/>
  <path class="cls-36" d="M201.58,156.44c7.24,4.74,14.78,6.13,22.8,2.01,1.63.63.18,1.09-.16,1.35-3.18,2.46-6.97,3.54-10.85,3.65-4.38.13-8.68-.76-12.36-3.49-.27-.2-.55-.4-.81-.6-1.16-.88-1.64-2.21-.97-3.35.68-1.16,1.45.75,2.35.42Z"/>
  <path class="cls-19" d="M207.26,125.02c-1.01-.05-2.01-.1-3.02-.15,4.01-1.91,8.26-2.68,12.64-2.28,1.5.14,3.01.22,4.51.33,1.12.68,2.44-.15,3.57.5-1.25.97-2.69.25-4.03.47-1.52.25-3.15-.41-4.6.5-3.01.4-6.02.65-9.06.63Z"/>
  <path class="cls-9" d="M243.85,130.99c.86.13,1.35.63,1.47,1.49-.7-.29-1.2-.78-1.47-1.49Z"/>
  <path class="cls-4" d="M224.96,123.42c-1.19-.18-2.49.47-3.57-.5,1.19.17,2.49-.44,3.57.5Z"/>
  <path class="cls-3" d="M208.33,146.77c2.69.22,4.65-1.46,6.82-2.5,2.2-1.06,4.68-1.64,5.88-4.34.63-1.42,2.49-1.69,4.04-.88,1.61.84,2.65,2.18,2.32,4.08-.3,1.7-1.52,2.63-3.23,2.68-4.6.14-8.06,3.17-12.11,4.72-.4.15-.67.72-.94,1.13-1.44,2.18-3.37,3-5.28,2.25-2.1-.82-1.96-2.59-1.69-4.26.38-2.34,1.94-3.22,4.19-2.87Z"/>
</svg>