<svg id="svg" version="1.1" xmlns="http://www.w3.org/2000/svg" xmlns:xlink="http://www.w3.org/1999/xlink" width="400" height="400" viewBox="0, 0, 400,400"><g id="svgg"><path id="path0" d="M190.573 0.483 C 190.014 0.519,188.184 0.637,186.506 0.745 C 143.995 3.490,102.633 20.328,70.333 48.042 C -28.424 132.772,-21.681 287.011,84.085 362.634 C 86.635 364.458,86.450 364.452,86.590 362.708 C 86.974 357.915,87.126 356.379,87.453 353.974 C 96.079 290.578,155.197 246.783,218.299 257.043 C 267.539 265.050,305.802 304.402,312.547 353.974 C 312.874 356.379,313.026 357.915,313.410 362.708 C 313.550 364.452,313.365 364.458,315.915 362.634 C 423.930 285.403,428.194 126.882,324.492 43.790 C 292.976 18.537,256.179 4.214,213.863 0.726 C 211.530 0.534,192.812 0.338,190.573 0.483 M119.538 56.291 C 130.277 57.685,140.744 63.503,147.126 71.627 C 147.765 72.440,148.308 73.128,148.332 73.156 C 148.356 73.184,148.866 72.846,149.465 72.405 C 179.181 50.540,220.819 50.540,250.535 72.405 C 251.134 72.846,251.644 73.184,251.668 73.156 C 251.692 73.128,252.237 72.440,252.877 71.627 C 269.296 50.786,302.290 50.862,319.209 71.779 C 341.115 98.861,322.981 139.875,288.355 141.561 L 285.860 141.682 285.741 145.194 C 284.392 185.212,254.506 219.411,214.840 226.327 C 163.715 235.242,115.997 196.751,114.259 145.194 L 114.140 141.682 111.645 141.561 C 85.182 140.272,66.092 114.588,72.391 88.747 C 77.563 67.529,97.958 53.489,119.538 56.291 M113.226 379.842 C 113.444 380.060,116.266 381.353,116.266 381.236 C 116.266 381.136,113.380 379.667,113.183 379.667 C 113.110 379.667,113.129 379.746,113.226 379.842 M285.166 380.418 C 284.378 380.821,283.734 381.189,283.734 381.236 C 283.734 381.353,286.556 380.060,286.774 379.842 C 287.117 379.501,286.594 379.688,285.166 380.418 " stroke="none" fill="currentColor" fill-rule="evenodd"></path></g></svg>