<?xml version="1.0" encoding="utf-8"?>
<!-- Generator: Adobe Illustrator 28.2.0, SVG Export Plug-In . SVG Version: 6.00 Build 0)  -->
<svg version="1.1" id="Layer_1" xmlns="http://www.w3.org/2000/svg" xmlns:xlink="http://www.w3.org/1999/xlink" x="0px" y="0px"
	 viewBox="0 0 189.14 258.7" style="enable-background:new 0 0 189.14 258.7;" xml:space="preserve">
<path d="M92.55,109.44c18.84,0,37.67,0,56.51,0c0.88,0,1.76,0,2.63-0.09c0.7-0.07,1,0.22,1.05,0.86c0.02,0.23-0.01,0.47-0.01,0.71
	c0.02,7.29,0.01,14.57,0.05,21.86c0.06,10.2-0.46,20.37-1.4,30.52c-0.68,7.39-2.52,14.58-4.32,21.76
	c-1.51,6.04-3.95,11.65-7.56,16.74c-0.79,1.11-1.43,2.32-2.22,3.43c-0.78,1.11-1.55,2.26-2.49,3.23
	c-5.95,6.07-12.74,10.65-21.16,12.74c-4.87,1.21-9.77,1.61-14.72,2.11c-7.33,0.73-14.54,0.18-21.73-1.2
	c-2.21-0.42-4.44-0.73-6.67-1.03c-5.44-0.74-10.42-2.85-15.03-5.65c-8.95-5.45-15.23-13.24-18.95-23.03
	c-0.67-1.75-0.87-3.68-1.36-5.51c-0.8-2.96-0.64-5.98-0.71-8.99c-0.51-22.09-1.01-44.18-1.52-66.26c0-0.18,0-0.36-0.02-0.53
	c-0.13-2.08-0.13-2.08,2.05-2.08c19.19,0,38.38,0,57.57,0C92.55,109.17,92.55,109.31,92.55,109.44z M85.38,171.03
	c0.4,17.16,0.8,34,1.2,51.07c3.1,0.01,6.07,0.23,9-0.02c2.77-0.24,5.53-0.46,8.32-0.45c1.71,0.01,3.41-0.15,5.1-0.74
	c-0.22-16.48-0.44-32.9-0.67-49.41c13.54,0,26.84,0,40.29,0c1.07-5.21,1.73-10.56,1.85-16.13c-14.16-0.22-28.15-0.45-42.34-0.67
	c-0.2-14.68-0.4-29.21-0.6-43.71c-2.3-0.43-22.26-0.41-23.6,0.02c0.35,14.39,0.7,28.81,1.05,43.38c-16.6-0.1-33.01-0.5-49.54-0.59
	c0.1,5.85,0.12,11.45,0.46,17.24C52.47,171.03,68.86,171.03,85.38,171.03z M35.34,152.25c16.11,0.23,32.01,0.45,48.1,0.68
	c-0.35-14.19-0.69-28.13-1.03-42.23c-16.08,0-31.97,0-48.04,0C34.7,124.55,35.02,138.32,35.34,152.25z M84.9,221.79
	c0.33-2.55-0.89-47.76-1.3-49.02c-3.87-0.43-46.39-0.43-47.75,0.02c0.04,4.83-0.03,9.69,0.92,14.48c0.35,1.74,0.68,3.51,1.33,5.14
	c3.56,8.97,9.33,16.21,17.5,21.35c4.42,2.78,9.19,4.9,14.44,5.71c3.98,0.62,7.94,1.32,11.92,1.96
	C82.94,221.59,83.93,221.67,84.9,221.79z M150.47,153.85c1.49-14.36,0.45-28.6,0.73-42.95c-14.16,0-28.1,0-42.02,0
	c-0.31,2.83,0.31,41.1,0.7,42.38C123.33,153.47,136.82,153.66,150.47,153.85z M148.22,172.91c-12.78,0-25.48,0-38.39,0
	c0.22,15.88,0.44,31.67,0.66,47.67c0.74-0.18,1.31-0.27,1.86-0.45c1.74-0.57,3.47-1.21,5.22-1.76c7.04-2.21,12.29-6.94,17.21-12.15
	c0.48-0.51,0.85-1.14,1.24-1.73c1.2-1.83,2.39-3.67,3.59-5.51c2.14-3.3,3.89-6.8,4.94-10.59c1.3-4.68,2.39-9.41,3.56-14.12
	C148.2,173.87,148.17,173.45,148.22,172.91z"/>
<path d="M124.58,56.17c-1.4,1.21-2.49,2.18-3.62,3.11c-0.51,0.42-1.09,1.28-1.75,0.46c-0.56-0.69,0.32-1.14,0.77-1.54
	c1.19-1.07,2.4-2.11,3.66-3.1c0.56-0.44,0.85-0.91,0.87-1.63c0.03-0.99,0.18-1.98,0.29-3.11c-0.81,0.07-1.51,0.22-2.18,0.17
	c-1.53-0.13-3.11-0.15-4.55-0.6c-1.28-0.41-2.34-0.4-3.53,0.16c-1.87,0.88-3.8,1.66-5.7,2.48c-0.33,0.14-0.64,0.36-0.98,0.4
	c-0.24,0.03-0.62-0.13-0.72-0.32c-0.1-0.19-0.04-0.63,0.13-0.78c0.34-0.31,0.76-0.55,1.19-0.74c1.56-0.71,3.14-1.38,4.72-2.07
	c0.42-0.18,0.83-0.39,1.45-0.68c-3.29-2.8-4.09-6.53-4.53-10.54c-1.48,0.66-2.81,1.29-4.16,1.86c-2.98,1.26-6.06,1.65-9.21,0.8
	c-1.41-0.38-2.75-1.05-4.27-1.64c0.03,0.43,0.01,0.87,0.09,1.29c0.1,0.56,0.2,1.16-0.51,1.28c-0.71,0.12-0.85-0.55-0.95-1.05
	c-0.16-0.75-0.2-1.53-0.32-2.28c-0.05-0.33-0.1-0.73-0.31-0.95c-0.79-0.87-1.64-1.68-2.39-2.43c-2.31,2.17-4.57,4.26-6.76,6.41
	c-0.36,0.36-0.59,1.01-0.61,1.54c-0.07,1.83-0.02,3.67-0.02,5.51c0,0.41,0.05,0.85-0.06,1.24c-0.08,0.29-0.4,0.51-0.61,0.75
	c-0.26-0.26-0.7-0.5-0.73-0.79c-0.1-0.88-0.05-1.77-0.05-2.66c0-1.3,0-2.59,0-3.95c-1.63,0.38-3.09,0.94-4.58,1.01
	c-1.5,0.07-3.07-0.19-4.53-0.6c-1.46-0.41-2.82-1.2-4.23-1.82c-2.48,2.73-5.01,5.51-7.62,8.38c0.41,0.16,0.82,0.33,1.25,0.48
	c2.23,0.79,4.46,1.58,6.69,2.38c0.33,0.12,0.67,0.25,0.97,0.43c0.47,0.27,0.98,0.61,0.63,1.25c-0.31,0.59-0.8,0.26-1.24,0.1
	c-3.01-1.06-6.03-2.11-9.04-3.18c-0.59-0.21-1.09-0.24-1.64,0.19c-2.14,1.66-4.5,2.83-7.65,2.96c0.58,0.45,0.85,0.7,1.15,0.89
	c2.58,1.57,5.18,3.1,7.74,4.7c0.75,0.47,1.42,1.07,2.05,1.68c0.18,0.17,0.23,0.73,0.09,0.91c-0.15,0.19-0.6,0.15-0.92,0.18
	c-0.1,0.01-0.21-0.1-0.31-0.16c-1.79-1.14-3.57-2.3-5.37-3.43c-2.01-1.26-4.03-2.49-6.04-3.74c-0.4-0.25-0.77-0.55-1.13-0.85
	c-0.62-0.51-1.22-1.04-1.95-1.67c-1.48,3.25-3.94,5.25-6.67,6.98c-3.47,2.2-7.16,2.22-10.92,0.93c-0.72-0.24-1.4-0.66-2.02-1.1
	c-2.86-2.01-3.64-5.87-1.83-8.84c0.12-0.2,0.26-0.4,0.43-0.57c0.39-0.4,0.87-0.74,1.39-0.31c0.5,0.41,0.1,0.8-0.17,1.21
	c-1.76,2.6-1.67,6.18,1.99,7.88c3.05,1.42,6.18,1.59,9.27,0.12c2.05-0.98,3.8-2.39,5.36-4.05c0.96-1.02,1.53-2.23,1.86-3.59
	c0.09-0.36,0.36-0.84,0.64-0.92c0.25-0.07,0.74,0.26,0.95,0.54c0.74,0.98,1.75,1.36,2.89,1.56c2.87,0.49,5.4-0.35,7.67-2.05
	c2.81-2.1,5.41-4.43,7.65-7.13c0.98-1.19,1.88-2.44,2.84-3.64c0.73-0.91,0.88-0.86,1.83-0.12c4.17,3.25,8.72,3.42,12.38,1.04
	c2.85-1.86,5.18-4.31,7.41-6.85c0.23-0.27,0.43-0.57,0.66-0.84c0.88-1.02,1.3-0.98,1.96,0.16c2.8,4.87,9.12,7.34,14.63,5.65
	c1.41-0.43,2.75-1.09,4.1-1.68c0.87-0.38,1.69-0.86,2.56-1.23c1.23-0.53,1.64-0.21,1.46,1.15c-0.38,2.82,0.33,5.43,1.75,7.82
	c1.99,3.36,7.06,5.02,10.99,3.75c0.64-0.21,1.31-0.86,1.98-0.26c0.68,0.61,0.06,1.33-0.1,1.97c-0.65,2.52-0.64,5.05,0.02,7.56
	c1.89,7.14,8.32,8.53,13.37,6.41c0.33-0.14,0.62-0.37,0.96-0.46c0.42-0.12,0.87-0.13,1.31-0.19c0.04,0.43,0.17,0.88,0.12,1.3
	c-0.15,1.11-0.45,2.21-0.55,3.32c-0.32,3.82,0.98,5.26,4.81,5.27c1.17,0,2.36-0.2,3.5-0.47c0.51-0.12,0.93-0.63,1.39-0.97
	c0.27-0.21,0.49-0.48,0.77-0.66c1.23-0.74,1.8-1.93,1.51-3.26c-0.31-1.44-1.22-2.3-2.59-2.45c-0.18-0.02-0.36-0.01-0.53-0.04
	c-0.63-0.12-1.14-0.42-1.16-1.13c-0.02-0.59,0.71-1.12,1.46-0.88c1.1,0.35,2.06,0.33,3-0.4c1.12-0.87,1.92-1.94,2.19-3.34
	c0.96-5.11-1.04-10.46-6.72-13.44c-0.47-0.24-0.96-0.42-1.73-0.76c-0.2,0.3-0.36,0.75-0.68,0.96c-0.47,0.32-1.03,0.61-1.59,0.69
	c-0.74,0.11-1.44-0.16-1.7-0.96c-0.26-0.77,0.03-1.47,0.69-1.85c0.65-0.37,1.41-0.54,2.15-0.81c0.2-1.07-0.21-2.01-0.86-2.77
	c-4.1-4.78-8.75-8.83-14.89-10.8c-0.71-0.23-1.47-0.3-2.48-0.49c0.3,0.77,0.52,1.28,0.69,1.81c0.52,1.54,0.1,2.7-1.1,3.12
	c-1.19,0.41-2.7-0.32-3.1-1.67c-0.2-0.69-0.11-1.5,0.02-2.23c0.1-0.55,0.49-1.05,0.82-1.7c-0.57-0.51-1.1-1.06-1.7-1.52
	c-3.93-2.99-8.24-5.17-13.2-5.75c-3.17-0.37-6.37-0.58-9.56-0.74c-2.16-0.11-4.24,0.38-6.08,1.61c-0.39,0.26-0.74,0.57-1.13,0.88
	c0.41,0.73,0.84,1.37,1.15,2.07c0.38,0.85,0.47,1.75-0.26,2.48c-0.69,0.69-1.56,0.79-2.47,0.45c-0.96-0.36-1.57-1.13-1.47-2.19
	c0.07-0.87,0.39-1.71,0.66-2.81c-0.48-0.33-1.06-0.84-1.71-1.17c-7.69-3.92-15.34-3.97-22.92,0.29c-1.41,0.79-2.61,1.83-3.31,3.48
	c0.45,0.37,1,0.67,1.33,1.13c0.54,0.74,1.11,1.54,1.37,2.41c0.3,0.96-0.15,1.88-0.96,2.5c-0.85,0.65-1.84,0.85-2.85,0.45
	c-0.94-0.37-1.33-1.18-1.31-2.13c0.03-1.11,0.17-2.23,0.28-3.54c-4.56-1.78-9.16-3.41-14.19-1.75c-4.31,1.42-7.24,4.3-8.9,8.62
	c0.57,0.36,1.06,0.67,1.54,0.99c1.05,0.71,1.93,1.58,2.36,2.81c0.6,1.72-0.11,3.4-1.65,3.99c-1.59,0.61-3.45-0.2-4.04-1.9
	c-0.28-0.81-0.28-1.74-0.33-2.62c-0.03-0.64,0.06-1.29,0.1-2c-1.43-0.58-2.71-0.2-3.58,0.79c-1.28,1.45-2.44,3.04-3.42,4.72
	c-0.77,1.31-0.66,2.86-0.28,4.34c0.13,0.51,0.29,1.03,0.32,1.55c0.01,0.2-0.28,0.5-0.51,0.61c-0.14,0.07-0.5-0.06-0.61-0.22
	c-0.23-0.33-0.42-0.72-0.52-1.11c-0.55-1.99-0.6-3.97,0.26-5.91c0.12-0.27,0.21-0.54,0.35-0.89c-0.5-0.59-1.05-1.14-1.45-1.78
	c-0.26-0.41-0.52-1.06-0.37-1.42c0.15-0.35,0.82-0.54,1.29-0.67c0.39-0.1,0.83-0.04,1.24,0c1.27,0.12,2.4-0.05,3.47-0.92
	c1.21-0.98,2.77-0.89,4.26-0.78c0.16-0.28,0.29-0.47,0.39-0.68c3.49-7.62,10.51-11.09,18.67-9.16c2.07,0.49,4.08,1.21,6.22,1.86
	c0.13-0.16,0.34-0.36,0.48-0.6c0.96-1.64,2.35-2.8,4-3.68c4.32-2.31,8.89-3.55,13.84-3.09c0.58,0.05,1.17,0.07,1.85,0.11
	c0.69-2.37,1.36-4.7,2.05-7.01c0.24-0.79,0.48-1.6,0.87-2.32c0.52-0.97,1.43-0.93,1.84,0.11c0.38,0.99,0.56,2.05,0.82,3.08
	c0.49,1.95,1.01,3.89,1.44,5.86c0.16,0.75,0.12,1.54,0.18,2.52c0.93,0.56,2.08,1.26,3.31,2c0.32-0.21,0.67-0.42,1-0.66
	c1.94-1.39,4.11-2.14,6.47-2.17c4.45-0.05,8.88,0.26,13.24,1.22c4.86,1.07,9,3.53,12.75,6.73c0.42,0.36,0.98,0.77,1.47,0.77
	c3.22-0.05,6.11,1.09,8.66,2.81c1.98,1.33,3.9,1.41,6.05,1.09c2.63-0.4,5.28-0.75,7.91-1.12c0.23-0.03,0.48-0.13,0.7-0.09
	c0.38,0.08,0.96,0.16,1.06,0.39c0.15,0.36,0.09,0.96-0.14,1.28c-0.5,0.72-1.12,1.38-1.76,1.99c-1.1,1.07-2.27,2.09-3.38,3.15
	c-0.29,0.28-0.52,0.63-0.87,1.06c1.35,1.58,2.29,3.32,2.3,5.43c0.59,0.29,1.13,0.53,1.65,0.8c4.35,2.31,7.17,5.72,7.82,10.74
	c0.49,3.8-0.2,7.1-3.7,9.23c0.45,1.1,1.08,2.09,1.23,3.15c0.15,1-0.2,2.07-0.36,3.32c0.99,0.18,2.13,0.39,3.27,0.59
	c0.64,0.11,1.31,0.14,1.92,0.33c0.34,0.11,0.87,0.56,0.82,0.72c-0.1,0.38-0.44,0.79-0.79,1c-0.39,0.23-0.9,0.25-1.37,0.33
	c-7.29,1.27-14.57,2.57-21.87,3.8c-5.37,0.91-10.75,1.74-16.13,2.6c-0.29,0.05-0.61,0.12-0.87,0.04c-0.24-0.08-0.55-0.32-0.59-0.54
	c-0.04-0.21,0.16-0.62,0.36-0.7c0.48-0.21,1.02-0.31,1.54-0.4c7.36-1.21,14.72-2.41,22.08-3.62c0.7-0.11,1.39-0.27,2.43-0.48
	c-0.81-0.25-1.29-0.39-1.77-0.54c-2.31-0.72-3.44-2.07-3.64-4.48c-0.07-0.82,0.04-1.65,0.07-2.48c0.03-0.58,0.08-1.16,0.13-1.9
	c-3.66,1.19-7.15,1.38-10.42-0.61C126.72,63.3,125.29,60.18,124.58,56.17z M140.48,33.98c1.63,1.42,2.94,2.55,4.31,3.75
	c1.52-1.83,3.42-3.04,5.09-5.08C146.61,33.11,143.78,33.52,140.48,33.98z M86,11.51c-0.1-0.03-0.19-0.05-0.29-0.08
	c-0.36,1.18-0.74,2.36-1.08,3.54c-0.33,1.17-0.61,2.35-0.93,3.6c1.56,0.45,2.87,0.83,4.35,1.25C87.33,16.86,86.67,14.19,86,11.51z
	 M37.62,35.49c0.08,1.46,0,2.58,0.23,3.63c0.22,1.02,1.34,1.49,2.21,1.12c0.79-0.33,1.1-1.28,0.65-2.25
	C40.16,36.84,39.24,36.09,37.62,35.49z M62.81,27.85c-0.1,1.01-0.26,1.81-0.23,2.61c0.03,0.78,0.64,1.08,1.37,0.8
	c0.7-0.27,1-0.94,0.72-1.74C64.4,28.77,63.87,28.25,62.81,27.85z M127.48,33.24c0.28-1.16-0.22-1.86-0.83-2.6
	C125.55,32.25,125.73,32.82,127.48,33.24z M92.9,24.94c-0.66,0.78-0.83,1.43-0.34,2.05c0.33,0.41,0.81,0.38,1.29-0.25
	C93.58,26.22,93.28,25.65,92.9,24.94z M152.25,74.04c1.16-0.22,1.99-0.37,3.19-0.6C154.14,73,153.22,72.64,152.25,74.04z
	 M29.88,36.67c-0.62,0.04-0.95,0.06-1.41,0.09C29.14,37.44,29.14,37.44,29.88,36.67z"/>
<path d="M108.92,70.9c-0.19,0.87-0.37,1.67-0.53,2.48c-0.35,1.77-1.04,3.39-2.05,4.88c-0.47,0.68-0.98,1.36-1.32,2.11
	c-0.83,1.85-2.29,2.97-4.04,3.81c-7.41,3.55-14.63,2.96-21.8-0.83c-3.74-1.98-5.97-4.91-6.82-8.98c-0.19-0.92-0.42-1.78-1.35-2.37
	c-0.45-0.28-0.59-1.04-1.05-1.91c-0.15-0.06-0.71-0.25-1.23-0.51c-3.25-1.57-4.48-5.42-2.75-8.56c0.03-0.05,0.05-0.11,0.09-0.15
	c3.83-5.87,6.62-6.2,11.52-4.68c0.27-0.39,0.57-0.81,0.86-1.23c1.23-1.81,2.81-3.29,4.81-4.08c1.74-0.69,2.43-1.94,2.77-3.57
	c0.57-2.68,0.56-2.64,3.28-2.78c1.65-0.08,3.29-0.25,4.93-0.46c1.42-0.18,1.78,0.05,1.97,1.51c0.16,1.23,0.21,2.48,0.46,3.7
	c0.1,0.52,0.45,1.16,0.89,1.41c3.04,1.73,5.09,4.35,6.72,7.34c1.36-0.3,2.67-0.61,4-0.86c0.58-0.11,1.18-0.13,1.77-0.1
	c3.5,0.18,5.69,2.21,6.18,5.69c0.59,4.13-1.14,6.72-5.21,7.76C110.37,70.66,109.73,70.75,108.92,70.9z M107.07,71.78
	c-0.62,0-1.16,0.07-1.66-0.01c-1.22-0.2-2.45-0.39-3.63-0.74c-0.81-0.23-1.56-0.78-1.49-1.76c0.07-0.99,0.91-1.42,1.73-1.54
	c1.22-0.18,2.46-0.16,3.7-0.2c0.44-0.01,0.88,0.07,1.37,0.12c-0.11-1.57-0.67-2.8-1.73-3.73c-0.85-0.75-1.9-0.42-2.91-0.3
	c-0.33,0.04-0.79-0.24-1.05-0.52c-2.08-2.21-4.75-3.28-7.62-3.92c-3.73-0.82-7.25-0.21-10.62,1.56c-0.04,1.03,0.47,1.68,1.04,2.28
	c1.6,1.69,3.6,2.61,5.9,2.3c1.92-0.26,3.82-0.79,5.65-1.42c0.75-0.26,1.37-1.05,1.93-1.7c0.32-0.37,0.55-0.92,1.05-0.56
	c0.26,0.19,0.44,0.97,0.27,1.2c-0.58,0.79-1.21,1.68-2.03,2.12c-2.49,1.32-5.2,2.02-8.04,1.85c-2.98-0.18-5.26-1.64-6.84-4.18
	c-0.21-0.33-0.38-0.69-0.64-1.15c-0.72,0.52-1.4,0.9-1.94,1.42c-0.74,0.72-1.53,0.81-2.44,0.51c-0.37-0.12-0.74-0.25-1.2-0.4
	c-0.73,1.35-1.61,2.51-2.12,4.22c0.81-0.31,1.32-0.56,1.87-0.7c0.8-0.21,1.61-0.45,2.42-0.46c0.45-0.01,1.04,0.3,1.33,0.66
	c0.5,0.61,0.21,1.98-0.48,2.5c-1.14,0.84-2.31,1.64-3.51,2.4c-0.58,0.37-1.24,0.61-1.9,0.93c0.43,2.17,0.93,4.18,2.12,5.91
	c0.52,0.76,1.2,1.48,1.94,2.03c2.21,1.62,4.67,2.8,7.28,3.62c5.62,1.77,11,1.07,16.15-1.66c0.85-0.45,1.63-1.19,2.22-1.96
	c0.86-1.12,1.52-2.4,2.26-3.61C106.38,75.36,106.97,73.73,107.07,71.78z M71.69,68.72c0.15-0.53,0.26-0.98,0.4-1.42
	c0.69-2.16,1.62-4.27,3.26-5.8c1.19-1.1,1.48-2.27,1.62-3.64c-2.53-1.48-4.95-1.36-6.9,0.47c-1.02,0.96-1.94,2.07-2.7,3.25
	c-1.22,1.88-1.01,3.64,0.41,5.38C68.74,68.13,69.97,68.71,71.69,68.72z M109.06,69.32c1.59-0.14,2.99-0.46,4.07-1.42
	c0.63-0.56,1.23-1.33,1.45-2.12c0.51-1.75,0.27-3.5-0.66-5.12c-0.52-0.91-1.25-1.61-2.27-1.85c-2.37-0.56-4.64-0.26-6.77,0.83
	c0.02,1.56-0.05,1.63,0.87,2.48c1.88,1.73,2.83,3.87,3.06,6.38C108.85,68.73,108.95,68.95,109.06,69.32z"/>
<path d="M100.55,98.88c-0.21,0.13-0.42,0.24-0.59,0.39c-3.39,2.95-8.44,2.15-11.28,0.25c-2.58-1.72-3.21-4.2-1.79-6.94
	c2.08-4.03,6.65-5.76,10.88-4.14c0.88,0.34,1.75,0.71,2.72,1.11c0.6-1.51,2.02-1.94,3.43-2.36c2.43-0.71,4.81-0.37,7.16,0.39
	c0.55,0.18,1.1,0.38,1.62,0.56c2.22-2.95,5.31-3.44,8.6-3.32c2.28,0.08,4.39,0.84,6.39,1.87c2.52-2.97,8.94-3.81,14.06-0.85
	c1.67-1.29,3.68-1.89,5.82-2.14c4.47-0.52,8.24,2.29,8.99,6.69c0.56,3.33-1.05,5.92-4.35,6.65c-3.7,0.83-7.4,0.63-11.06-0.39
	c-0.38-0.11-0.81-0.23-1.19-0.16c-2.42,0.47-4.83,0.28-7.24-0.05c-1.1-0.15-2.02-0.09-2.92,0.76c-0.66,0.63-1.59,1.03-2.47,1.33
	c-3.66,1.25-7.41,1.41-11.2,0.69c-1.73-1.2-3.44-0.46-5.22-0.06c-2.07,0.47-4.19,0.77-6.31,0.95
	C103.18,100.24,101.63,100.3,100.55,98.88z M115.88,97.64c3.78,0.87,7.26,0.63,10.71-0.39c1.86-0.55,3.42-1.62,3.83-3.56
	c0.46-2.17-0.83-3.76-2.47-4.97c-3.02-2.23-6.44-2.9-10.11-2.16c-0.85,0.17-1.7,0.55-2.45,1c-0.49,0.29-0.8,0.87-1.23,1.36
	c0.66,0.54,1.13,0.9,1.57,1.29C118.52,92.66,118.63,94.74,115.88,97.64z M101.28,90.17c2.86,2.59,1.67,5.23-0.11,8.06
	c1.2,0.16,2.17,0.41,3.14,0.39c3.09-0.07,6.11-0.65,9.03-1.7c0.72-0.26,1.42-0.61,2.04-1.05c1.2-0.84,1.41-1.82,0.63-3.06
	c-0.4-0.64-0.95-1.22-1.53-1.71c-1.76-1.48-3.84-2.29-6.1-2.67C105.81,88.01,103.47,88.52,101.28,90.17z M93.88,89.61
	c-2.75-0.32-4.52,1.46-5.78,3.92c-0.92,1.8-0.5,3.32,1.11,4.52c1.63,1.22,3.5,1.68,5.5,1.64c2.92-0.05,5.5-1.92,6.51-4.66
	c0.61-1.66,0.29-2.85-1.16-3.87C98.31,89.96,96.36,89.38,93.88,89.61z M131.78,94.99c2.34,0.09,4.46,0.25,6.57,0.21
	c0.98-0.02,2-0.32,2.91-0.71c2.5-1.08,3.1-3.54,1.44-5.68c-0.46-0.6-1.04-1.15-1.67-1.56c-3.27-2.12-6.76-2.31-10.35-0.94
	c-0.6,0.23-1.07,0.77-1.69,1.22C131.19,89.56,132.5,91.71,131.78,94.99z M143.06,86.73c2.75,3.87,2.74,4.93-0.03,8.81
	c0.55,0.1,1.04,0.22,1.54,0.28c2.48,0.3,4.95,0.38,7.39-0.25c2.12-0.54,3.18-1.81,3.18-3.91c0-2.64-1.16-4.76-3.56-5.87
	C148.68,84.44,145.88,85.16,143.06,86.73z"/>
<path d="M75.35,89.88c3.38-2.49,7.06-2.91,10.94-2.21c0.65,0.12,1.72,0.12,1.56,1.06c-0.17,1.01-1.13,0.51-1.77,0.4
	c-2.5-0.47-4.98-0.46-7.33,0.56c-1.06,0.46-2.11,1.14-2.9,1.97c-1.54,1.62-1.28,3.4,0.55,4.68c1.78,1.25,3.83,1.84,5.96,2.17
	c0.82,0.13,1.66,0.14,2.46,0.32c0.32,0.07,0.57,0.45,0.85,0.68c-0.29,0.24-0.56,0.67-0.86,0.69c-0.76,0.04-1.55-0.01-2.29-0.19
	c-1.77-0.44-3.6-0.79-5.26-1.51c-3.72-1.6-4.51-3.6-3.13-7.44c-3.54-2.17-7.27-3.66-11.54-2.8c-1.13,0.23-2.23,0.77-3.27,1.31
	c-1.17,0.6-1.57,1.71-1.54,2.99c0.09,3.37,2.27,5.84,5.61,6.31c2.39,0.34,4.72,0.09,6.99-0.77c0.57-0.22,1.34-0.83,1.7-0.01
	c0.41,0.93-0.59,1.14-1.21,1.38c-2.71,1.06-5.52,1.35-8.37,0.75c-3.37-0.71-5.6-3.16-6.05-6.6c-0.11-0.88-0.1-1.77-0.15-2.79
	c-2.6-1.76-5.46-2.94-8.73-2.58c-3.35,0.37-4.74,1.94-4.85,5.61c-0.03,1.12,0.48,2.05,1.29,2.83c1.22,1.16,2.69,1.8,4.33,1.77
	c1.7-0.04,3.4-0.33,5.09-0.55c0.41-0.05,0.79-0.28,1.2-0.3c0.23-0.01,0.6,0.18,0.69,0.37c0.09,0.2,0,0.61-0.16,0.77
	c-0.24,0.24-0.6,0.37-0.93,0.48c-2.29,0.76-4.64,0.94-7.02,0.61c-2.29-0.32-4.05-1.57-5.34-3.34c-2.48,0.1-4.85,0.24-7.21,0.26
	c-1.05,0.01-2.14-0.13-3.15-0.39c-1.85-0.49-2.8-1.7-2.82-3.61c-0.01-1.05,0.12-2.14,0.39-3.15c0.76-2.81,2.68-4.09,5.58-3.78
	c2.33,0.25,4.49,1.03,6.47,2.29c0.44,0.28,0.88,0.57,1.3,0.85c5.03-3.93,9.83-2.14,14.66,0.45c1.54-1.36,3.28-2.27,5.32-2.65
	c3.28-0.61,6.36,0.03,9.33,1.37C72.94,88.62,74.08,89.24,75.35,89.88z M41.66,90.36c-1.65-1.53-3.68-2.4-5.9-2.89
	c-3.24-0.71-5.26,0.03-5.61,4.54c-0.01,0.12-0.01,0.24,0,0.36c0.03,1.57,0.54,2.3,2.09,2.63c2.99,0.63,5.96,0.23,8.85-0.09
	C41.29,93.28,41.47,91.88,41.66,90.36z"/>
<path d="M46.34,237.03c0.46,0.16,0.76,0.3,1.08,0.37c3.41,0.83,5.89,2.91,7.79,5.77c0.74,1.11,1.1,2.35,1.13,3.69
	c0.04,2.29-0.9,4.06-3.02,4.99c-3.28,1.43-6.68,1.91-10.23,1.07c-2.31-0.55-3.8-1.8-4.09-4.26c-0.64-5.34-1.62-10.65-1.43-16.07
	c0.07-1.95,0.51-3.74,1.63-5.35c2.43-3.48,7.07-4.21,10.04-1.4c0.69,0.65,1.46,1.23,2.05,1.95c1.96,2.38,1.61,4.95-0.91,6.72
	C49.13,235.39,47.79,236.14,46.34,237.03z M39.81,239.21c0.07,0.68,0.14,1.38,0.21,2.08c0.28,2.79,0.56,5.57,0.87,8.36
	c0.04,0.31,0.26,0.7,0.51,0.86c0.59,0.37,1.23,0.72,1.89,0.91c2.9,0.83,5.75,0.41,8.53-0.53c2.87-0.97,3.83-3.5,2.49-6.28
	c-2-4.13-6.6-6.53-11.15-5.82C42.12,238.95,41.07,239.05,39.81,239.21z M39.68,237.84c3.58-1.21,6.9-2.39,9.8-4.49
	c1.83-1.32,2.08-2.94,0.62-4.66c-0.64-0.76-1.43-1.4-2.21-2.02c-1.65-1.32-3.53-1.43-5.3-0.44c-1.8,1-3.24,2.38-2.91,4.78
	c0.09,0.64,0.01,1.3,0.01,1.94C39.68,234.52,39.68,236.1,39.68,237.84z"/>
<path d="M27.01,72.45c0.84,0.19,1.68,0.4,2.53,0.58c5.84,1.25,11.66,2.65,17.54,3.68c4.24,0.75,8.57,1,12.86,1.5
	c2.7,0.31,5.4,0.66,8.1,1c0.18,0.02,0.39,0,0.52,0.09c0.22,0.16,0.57,0.45,0.53,0.59c-0.09,0.29-0.35,0.63-0.62,0.72
	c-0.37,0.12-0.82,0.05-1.23,0.01c-5.18-0.54-10.37-0.96-15.53-1.67c-3.74-0.51-7.44-1.37-11.15-2.13
	c-5.68-1.17-11.35-2.37-17.02-3.6c-1.15-0.25-2.27-0.65-3.4-1.01c-0.51-0.16-1.08-0.39-0.97-1.07c0.11-0.7,0.71-0.65,1.26-0.66
	c7.1-0.02,14.21-0.03,21.31-0.07c6.87-0.04,13.73-0.1,20.6-0.16c0.24,0,0.5-0.08,0.7,0.01c0.29,0.12,0.54,0.36,0.81,0.55
	c-0.24,0.28-0.43,0.71-0.73,0.81c-0.49,0.16-1.05,0.14-1.58,0.15c-4.68,0.06-9.35,0.11-14.03,0.15c-6.33,0.04-12.67,0.06-19,0.1
	c-0.49,0-0.99,0.08-1.48,0.12C27.02,72.25,27.02,72.35,27.01,72.45z"/>
<path d="M147.1,247.62c0-0.7,0.08-1.1-0.01-1.45c-1.03-4.05-0.95-8.22-1.36-12.34c-0.22-2.24-0.42-4.48-1.43-6.55
	c-0.14-0.29-0.11-0.9,0.09-1.08c0.46-0.41,0.93-0.05,1.14,0.39c0.36,0.74,0.76,1.5,0.9,2.3c0.38,2.15,0.79,4.32,0.91,6.49
	c0.22,3.67,0.47,7.32,1.25,10.92c0.12,0.57,0.21,1.18,0.17,1.76c-0.08,1.29-1.02,1.82-2.09,1.1c-0.77-0.51-1.42-1.25-2.01-1.97
	c-3.06-3.74-5.36-7.94-7.16-12.41c-0.6-1.48-1.19-2.97-1.81-4.44c-0.24-0.57-0.57-1.11-1.01-1.93c-0.81,1.47-0.95,2.75-1.06,4.01
	c-0.27,3.01-0.47,6.02-0.67,9.03c-0.17,2.6-0.27,5.2-0.41,7.8c-0.02,0.29,0.02,0.62-0.11,0.87c-0.11,0.22-0.41,0.48-0.62,0.48
	c-0.21,0-0.56-0.27-0.61-0.47c-0.12-0.45-0.13-0.94-0.1-1.4c0.35-5.55,0.67-11.11,1.09-16.65c0.1-1.28,0.49-2.55,0.85-3.79
	c0.2-0.68,0.61-1.33,1.45-1.39c0.82-0.06,1.31,0.49,1.66,1.13c0.48,0.88,0.91,1.8,1.31,2.72c1.09,2.49,2.12,5.02,3.23,7.5
	c1.37,3.04,3.31,5.73,5.36,8.34C146.29,246.87,146.6,247.12,147.1,247.62z"/>
<path d="M107.58,251.67c0.2-1.06,0.35-1.73,0.45-2.4c0.35-2.16,0.62-4.34,1.05-6.48c0.18-0.91,0.6-1.81,1.1-2.59
	c1.02-1.59,2.39-1.54,3.28,0.12c0.53,0.98,0.87,2.07,1.24,3.13c0.44,1.29,0.8,2.6,1.22,3.9c0.15,0.45,0.34,0.89,0.56,1.3
	c0.33,0.6,0.52,1.47,1.39,1.43c0.94-0.05,1.2-0.95,1.36-1.67c0.34-1.49,0.69-3.02,0.75-4.54c0.14-3.61,0.14-7.22,0.16-10.84
	c0-0.58-0.22-1.15-0.31-1.73c-0.08-0.56-0.04-1.13,0.62-1.28c0.68-0.16,0.94,0.33,1.06,0.9c0.05,0.23,0.09,0.47,0.08,0.7
	c-0.13,4.97-0.21,9.94-0.43,14.91c-0.05,1.14-0.47,2.34-0.98,3.38c-1.13,2.32-3.35,2.39-4.62,0.13c-0.66-1.17-1.1-2.49-1.55-3.76
	c-0.5-1.39-0.89-2.82-1.37-4.22c-0.16-0.48-0.46-0.9-0.75-1.44c-0.96,0.73-1.23,1.67-1.4,2.56c-0.41,2.15-0.69,4.32-1.03,6.48
	c-0.11,0.7-0.15,1.45-0.44,2.07c-0.25,0.53-0.75,1.12-1.27,1.31c-0.74,0.28-1.37-0.29-1.74-0.93c-0.39-0.66-0.8-1.36-0.94-2.09
	c-0.59-2.95-1.17-5.92-1.6-8.9c-0.3-2.11-0.36-4.25-0.5-6.37c-0.03-0.41-0.03-0.84,0.09-1.22c0.07-0.21,0.41-0.47,0.63-0.47
	c0.23,0,0.55,0.25,0.65,0.47c0.13,0.31,0.07,0.69,0.11,1.04c0.49,4.35,0.95,8.7,1.5,13.04
	C106.12,248.94,106.51,250.24,107.58,251.67z"/>
<path d="M67.99,238.64c1.75,2.63,3.39,5.15,5.09,7.63c0.99,1.44,1.8,3.09,3.71,3.61c0.19,0.05,0.44,0.69,0.35,0.83
	c-0.2,0.29-0.7,0.65-0.93,0.57c-0.65-0.22-1.35-0.54-1.81-1.03c-0.9-0.93-1.71-1.96-2.45-3.02c-1.35-1.94-2.61-3.94-3.92-5.91
	c-0.81-1.23-1.74-2.07-3.36-1.22c-0.55,0.28-1.25,0.25-2.04,0.39c0.12,3.06-0.43,6.12,0.43,9.14c0.08,0.29-0.2,0.67-0.31,1.02
	c-0.35-0.15-0.88-0.2-1.01-0.46c-0.28-0.56-0.5-1.23-0.5-1.86c0.01-3.78-0.21-7.59,0.22-11.33c0.46-4.02,2.51-7.34,6.11-9.52
	c1.36-0.82,2.81-1.26,4.38-1.19c1.89,0.08,2.92,1.07,3.14,2.95c0.21,1.88-0.31,3.59-1.63,4.88c-1.42,1.4-3.05,2.59-4.6,3.87
	C68.58,238.24,68.28,238.43,67.99,238.64z M62.92,237.88c0.96,0,1.79,0.05,2.6-0.02c0.51-0.04,1.08-0.16,1.48-0.44
	c1.55-1.08,3.13-2.14,4.52-3.41c0.83-0.77,1.56-1.83,1.91-2.9c0.81-2.47-0.3-3.63-2.86-3.22c-0.23,0.04-0.47,0.08-0.69,0.15
	C65.91,229.28,62.86,234.23,62.92,237.88z"/>
<path d="M81.48,241.5c0.31-2.32,0.62-4.9,1.03-7.46c0.14-0.86,0.53-1.68,0.87-2.5c0.5-1.2,1.7-1.9,2.91-1.62
	c1.97,0.46,3.84,1.21,5.44,2.49c1.33,1.06,2.26,2.44,2.69,4.08c0.86,3.32,0.97,6.67,0.05,9.99c-0.55,1.99-1.65,3.65-3.34,4.89
	c-1.72,1.26-3.48,1.28-5.31,0.26c-2.03-1.13-3.36-2.81-3.78-5.09C81.76,244.97,81.68,243.38,81.48,241.5z M82.94,241.55
	c0.21,1.84,0.29,3.32,0.56,4.76c0.35,1.85,1.47,3.19,3.13,4.07c1.27,0.67,2.48,0.64,3.65-0.24c1.43-1.07,2.31-2.51,2.8-4.2
	c0.62-2.2,0.54-4.44,0.38-6.69c-0.27-3.72-2.19-6.12-5.68-7.35c-1.94-0.68-3.3-0.07-3.68,1.94C83.59,236.5,83.28,239.2,82.94,241.55
	z"/>
<path d="M123.5,73.25c-0.35,0-0.77,0.06-1.17-0.02c-0.24-0.05-0.56-0.32-0.59-0.53c-0.03-0.22,0.17-0.61,0.38-0.7
	c0.36-0.17,0.79-0.22,1.2-0.25c4.77-0.42,9.54-0.82,14.31-1.22c0.47-0.04,0.96-0.08,1.41,0.03c0.28,0.07,0.63,0.4,0.67,0.66
	c0.03,0.2-0.35,0.51-0.61,0.68c-0.18,0.11-0.46,0.06-0.69,0.08C133.47,72.39,128.52,72.81,123.5,73.25z"/>
<path d="M59.53,123.48c7.35-4.48,10.27-5.3,13.86-3.87c0.05,0.19,0.18,0.42,0.17,0.64c-0.13,5.26-0.26,10.53-0.43,15.79
	c-0.04,1.29-0.2,2.57-0.33,3.86c-0.08,0.79-0.69,1.07-1.32,1.25c-1.83,0.53-3.7,0.91-5.6,0.62c-1.93-0.29-3.83-0.74-5.75-1.04
	c-0.79-0.12-1.67-0.23-2.4-0.01c-3.1,0.95-6.28,1.12-9.48,1.07c-1.95-0.03-2.36-0.41-2.62-2.34c-0.02-0.18-0.05-0.35-0.06-0.53
	c-0.15-5.85-0.32-11.71-0.44-17.56c-0.03-1.68,0.36-2.08,2.06-2.2c4.33-0.3,8.4,0.3,11.58,3.68C59,123.08,59.29,123.27,59.53,123.48
	z M46.76,120.69c-0.38,2.65,0.12,17.49,0.64,19.46c3.69,0.28,7.35,0.13,10.95-1.31c-0.16-4.71-0.3-9.37-0.5-14.03
	c-0.02-0.46-0.31-1-0.64-1.34C54.29,120.55,50.64,120.37,46.76,120.69z M71.99,120.66c-4.07-0.67-7.18,1.21-10.14,3.06
	c0,5.37,0,10.56,0,15.82c3.24,0.79,6.33,1.27,9.45,0.02c0.23-3.16,0.55-6.22,0.66-9.28C72.07,127.15,71.99,124.02,71.99,120.66z
	 M59.96,138.34c0.11-0.02,0.21-0.05,0.32-0.07c0-4.32,0-8.65,0-13.05c-1.22,0.17-0.92,1.02-0.9,1.63c0.09,3.47,0.22,6.94,0.35,10.42
	C59.74,137.63,59.88,137.98,59.96,138.34z"/>
<path d="M66.57,182.08c1.09-0.89,2.1-1.8,3.2-2.59c2.64-1.9,5.72-2.45,8.86-2.8c0.88-0.1,1.19,0.36,1.17,1.14
	c-0.09,3.72-0.16,7.45-0.31,11.17c-0.09,2.18-0.36,4.36-0.49,6.54c-0.13,2.11-0.82,2.92-2.97,2.82c-3.4-0.15-6.68-0.89-9.57-2.82
	c-1.46-0.97-1.45-0.98-2.85,0.16c-1.71,1.39-3.54,2.59-5.71,3.13c-0.85,0.21-1.75,0.32-2.62,0.31c-1.59-0.03-1.93-0.37-2.16-1.95
	c-0.4-2.69-0.78-5.38-1.15-8.08c-0.47-3.4-0.91-6.8-1.36-10.2c-0.08-0.59-0.15-1.18-0.14-1.77c0.02-1.05,0.31-1.43,1.35-1.46
	c4.3-0.12,8.38,0.69,11.85,3.4C64.72,179.92,65.56,181.02,66.57,182.08z M54.65,197.61c0.87,0,1.53,0.11,2.14-0.02
	c2.51-0.52,4.68-1.78,6.41-3.6c0.95-1,1.81-2.28,1.43-3.9c-0.12-0.52-0.13-1.06-0.2-1.59c-0.27-2.11-0.66-4.22-0.76-6.34
	c-0.05-0.97-0.36-1.53-1.06-2.05c-2.05-1.53-4.39-2.31-6.87-2.7c-1.21-0.19-2.43-0.46-3.9-0.04
	C52.77,184.1,53.7,190.76,54.65,197.61z M68.35,194.86c2.7,1.64,7.26,2.43,9.07,1.5c0.16-5.91,1.43-11.81,0.68-17.93
	c-3.79-0.01-6.88,1.43-9.36,3.74C68.6,186.58,68.48,190.71,68.35,194.86z M67.26,184.61c-0.72-0.15-1.26-0.26-1.74-0.36
	c0.21,2.97,0.4,5.89,0.63,8.81c0.02,0.19,0.29,0.37,0.7,0.86C67,190.61,67.12,187.69,67.26,184.61z"/>
<path d="M131.57,142.14c-3.02,1.87-6.41,2.98-10.08,3.25c-0.77,0.06-1.54,0.06-2.31,0.07c-1.32,0.01-1.5-0.14-1.6-1.52
	c-0.09-1.18-0.14-2.37-0.21-3.55c-0.32-5.91-1.04-11.81-0.79-17.75c0.02-0.41,0-0.83,0.02-1.24c0.08-1.7,0.33-1.97,2-1.96
	c5.21,0.04,9.63,1.74,12.79,6.08c0.1,0.14,0.22,0.27,0.42,0.51c0.38-0.33,0.71-0.63,1.06-0.91c1.25-0.99,2.45-2.06,3.77-2.94
	c2.81-1.85,5.93-1.81,9.09-1.25c0.74,0.13,1.12,0.57,0.96,1.4c-0.15,0.81-0.24,1.63-0.28,2.46c-0.24,5.27-0.5,10.53-0.65,15.8
	c-0.05,1.66-0.57,3.09-1.4,4.44c-0.21,0.35-0.72,0.67-1.13,0.7c-0.93,0.08-1.97,0.22-2.81-0.08
	C137.51,144.61,134.63,143.37,131.57,142.14z M119.07,143.91c3.6,0.21,6.74-0.63,9.81-1.96c1-0.43,1.43-1.02,1.42-2.13
	c-0.02-4.14,0.06-8.28,0.07-12.41c0-0.44-0.15-0.95-0.42-1.3c-2.93-3.84-6.96-5.2-11.75-5.16
	C117.6,128.66,118.8,136.16,119.07,143.91z M143.87,144c0.84-7.14,1.2-14.33,1.07-21.52c-3.95-1.09-7.08,0.27-9.94,2.69
	c-0.5,0.43-0.62,0.89-0.61,1.54c0.04,4.56,0.03,9.12,0.03,13.68c0,0.46,0,0.91,0,1.34c2.06,0.83,3.98,1.62,5.91,2.37
	C141.46,144.54,142.62,144.57,143.87,144z M132.69,140.66c0.45-2.26,0.38-11.38-0.04-12.87c-0.86,0.07-0.79,0.7-0.79,1.3
	c-0.02,3.26-0.04,6.51-0.05,9.77c0,0.35-0.09,0.75,0.04,1.05C131.97,140.18,132.33,140.36,132.69,140.66z"/>
<path d="M128.22,181.44c2.62-2.49,5.51-4.18,8.77-5.24c0.62-0.2,1.25-0.39,1.89-0.5c1.19-0.19,1.53,0.1,1.53,1.28
	c0,5.8,0.19,11.61-0.38,17.4c-0.22,2.24-0.45,2.54-2.64,2.63c-2.35,0.1-4.61-0.19-6.7-1.35c-0.4-0.22-0.77-0.5-1.29-0.85
	c-0.4,0.37-0.86,0.81-1.32,1.25c-2.06,1.95-4.49,3.27-7.16,4.16c-0.55,0.18-1.15,0.29-1.73,0.34c-0.69,0.06-1.11-0.31-1.2-1.02
	c-0.03-0.23-0.05-0.47-0.05-0.71c0.08-5.77-1.02-11.44-1.55-17.15c-0.12-1.24-0.2-2.48-0.2-3.72c0.01-1.48,0.58-2.11,2.05-2.02
	c1.1,0.07,2.3,0.25,3.24,0.77c1.9,1.05,3.67,2.36,5.47,3.59C127.36,180.59,127.72,180.99,128.22,181.44z M117.46,177.2
	c0.77,7.57,1.48,14.63,2.21,21.82c2.64-0.72,4.94-1.98,7.01-3.7c0.8-0.67,1.18-1.39,1.07-2.44c-0.32-3.3-0.57-6.6-0.91-9.89
	c-0.05-0.48-0.33-1.02-0.68-1.36c-1.63-1.57-3.45-2.9-5.57-3.72C119.75,177.58,118.81,177.49,117.46,177.2z M138.75,177.29
	c-3.29,0.73-6.06,2.27-8.59,4.37c0.9,0.96,0.9,0.96,0.92,2.22c0.03,3.02,0.09,6.04,0.09,9.06c0,0.88,0.32,1.48,1.12,1.82
	c1.95,0.83,3.96,0.93,6.08,0.62C139.02,189.33,139.17,183.44,138.75,177.29z M129.59,182.76c-1.03,0.27-1.17,0.79-1.08,1.54
	c0.25,2.28,0.43,4.57,0.66,6.85c0.03,0.27,0.2,0.52,0.42,1.06C129.59,188.88,129.59,185.89,129.59,182.76z"/>
<path d="M89.39,82.03c-0.82-0.28-1.71-0.44-2.46-0.85c-2.26-1.26-2.6-3.76-0.85-5.67c1.8-1.96,4.39-2.47,6.77-1.34
	c2.32,1.1,2.91,3.62,1.27,5.58C92.91,81.2,91.3,81.85,89.39,82.03z M90.16,75.17c-0.34,0.1-1.04,0.21-1.67,0.5
	c-0.96,0.44-1.53,1.52-1.38,2.45c0.17,1.06,0.88,1.73,1.87,1.86c0.84,0.11,1.77,0.03,2.57-0.25c1.16-0.4,2.06-2,1.86-2.94
	c-0.18-0.86-1.29-1.51-2.71-1.58C90.65,75.21,90.59,75.2,90.16,75.17z"/>
</svg>
