<?xml version="1.0" encoding="utf-8"?>
<!-- Generator: Adobe Illustrator 28.2.0, SVG Export Plug-In . SVG Version: 6.00 Build 0)  -->
<svg version="1.1" id="Layer_1" xmlns="http://www.w3.org/2000/svg" xmlns:xlink="http://www.w3.org/1999/xlink" x="0px" y="0px"
	 viewBox="0 0 232.77 195" style="enable-background:new 0 0 232.77 195;" xml:space="preserve">
<path d="M146.44,92.02c-3.7,1.19-7.18,1.64-10.66,0.58c-1.43-0.44-2.89-1.08-4.05-2c-2.15-1.69-1.95-4.19,0.35-5.71
	c0.86-0.57,1.87-1.01,2.87-1.21c3.48-0.72,6.99-0.96,10.5-0.2c0.65,0.14,1.3,0.33,1.9,0.59c2.59,1.15,3.13,2.83,1.69,5.24
	c-0.34,0.56-0.72,1.09-1.14,1.71c4.49-0.03,9.27-2.98,11.01-6.95c2.84-6.48,2.03-12.66-1.95-18.43c-1.34-1.94-3.3-3.15-5.48-3.97
	c-4.81-1.81-9.7-1.85-14.59-0.4c-2.74,0.81-3.13,1.63-2.52,4.38c0.23,1.02,0.51,2.06,0.52,3.09c0,0.67-0.3,1.52-0.77,1.93
	c-0.29,0.24-1.24-0.09-1.77-0.39c-1.08-0.6-2.02-1.46-3.13-2c-2.64-1.29-5.35-2.45-8.24-3.76c-0.3,0.86-0.53,1.44-0.7,2.03
	c-2.2,7.76-8.88,12.83-16.97,12.72c-1.89-0.03-3.81-0.32-5.64-0.78c-4.21-1.07-6.63-3.9-7.43-8.15c-0.16-0.83-0.33-1.66-0.58-2.84
	c-5.28,2.22-10.1,4.71-13.99,8.76c-0.63,0.66-1.07,1.79-2.25,1.35c-1.23-0.46-2.04-1.38-2.07-2.81c-0.01-0.38-0.06-0.76-0.09-1.14
	c-0.33-3.92-0.33-3.92-4.3-4.52c-10.51-1.59-18.58,5.99-18.16,17.09c0.05,1.23,0.18,2.48,0.45,3.68c0.9,3.9,3.27,6.4,7.26,7.17
	c1.58,0.31,3.21,0.39,4.81,0.59c0.63,0.08,1.26,0.18,1.82,0.26c0.46,1.51-0.36,2.02-1.4,2.04c-7.04,0.16-13.51-2.02-15.01-10.44
	c-0.75-4.25-0.31-8.38,1.31-12.34c3.01-7.36,10.24-11.53,18.13-10.54c1.49,0.19,2.97,0.49,4.63,0.77
	c1.13-6.16,1.64-12.38,6.13-17.26c4.32-4.69,9.76-7.18,16.02-8.68c0.06-1.54,0.09-3.05,0.18-4.55c0.2-3.34,1.3-5.05,4.51-5.75
	c3.33-0.72,6.77-1.04,10.18-1.29c1.85-0.14,2.74,0.78,3.18,3c0.54,2.69,0.87,5.43,1.31,8.27c0.79,0.29,1.59,0.56,2.37,0.88
	c0.53,0.21,1.32,0.34,1.5,0.73c1,2.23,3.26,2.8,5.03,3.99c4.11,2.79,7.32,6.36,9.74,10.67c0.55,0.98,1.12,1.96,1.74,3.03
	c4.75-2.4,9.64-3.05,14.77-2.3c9,1.31,14.03,6.71,15.33,16.23c0.22,1.59,0.15,3.25-0.04,4.85c-0.76,6.28-3.88,10.85-9.91,13.2
	c-0.53,0.21-1.07,0.41-1.6,0.62c-0.52,0.2-1.05,0.38-1.71,0.63c0.12,2.43,0.24,4.77,0.35,7.06c0.22,0.18,0.36,0.39,0.51,0.39
	c7.99,0.43,15.98,0.82,23.96,1.27c1.45,0.08,2.47-0.38,3.48-1.47c1-1.09,2.31-1.94,3.6-2.69c0.38-0.22,1.16,0.23,1.76,0.37
	c-0.14,0.59-0.11,1.33-0.46,1.74c-0.91,1.03-2,1.91-3.43,3.23c1.51,0.7,2.55,1.07,3.46,1.66c0.48,0.31,0.73,0.98,1.09,1.49
	c-0.63,0.28-1.32,0.88-1.87,0.77c-1.45-0.3-2.84-0.92-4.83-1.61c0.36,1.69,0.62,2.92,0.87,4.15c0.21,1.04,1.26,2.5-0.19,3
	c-1.78,0.61-1.75-1.37-2.07-2.39c-0.55-1.8-0.81-3.68-1.21-5.64c-8.22-0.46-16.54-0.92-24.74-1.37c-2.21,5.52-2.21,5.52-7.31,8.71
	c-2.09,1.31-4.2,2.59-6.47,3.99c0.25,0.58,0.45,1.19,0.76,1.73c1.95,3.45,3.06,7.19,3.69,11.06c0.28,1.76,1.05,2.69,2.74,3.13
	c1.47,0.38,2.87,1.02,4.31,1.5c0.84,0.28,1.84,0.51,1.46,1.65c-0.36,1.08-1.41,0.82-2.21,0.6c-1.55-0.43-3.06-0.99-4.92-1.61
	c0.23,1.61,0.54,2.97,0.57,4.34c0.02,0.63-0.49,1.27-0.76,1.91c-0.56-0.4-1.28-0.68-1.63-1.21c-0.51-0.76-0.75-1.7-1.24-2.9
	c-1,0.53-1.8,0.93-2.58,1.38c-0.8,0.46-1.64,1.37-2.5,0.35c-0.98-1.18,0.18-1.95,0.92-2.58c1.22-1.04,2.57-1.93,4.07-3.03
	c-0.81-5.29-1.94-10.61-5.09-15.17c-6.72,1.54-13.15,3.37-19.7,4.41c-6.56,1.04-13.24,1.29-19.99,1.9c0,3.76,0,7.8,0,11.72
	c1.63,0.85,3,1.5,4.3,2.28c0.89,0.54,2.56,0.9,1.73,2.37c-0.7,1.25-1.84,0.18-2.75-0.22c-0.67-0.29-1.34-0.6-2.35-1.05
	c0,1.26,0.12,2.21-0.04,3.11c-0.1,0.55-0.63,1.03-0.96,1.54c-0.5-0.34-1.09-0.6-1.47-1.04c-0.35-0.41-0.47-1.02-0.84-1.89
	c-0.9,0.44-1.7,0.83-2.5,1.24c-0.7,0.36-1.46,0.77-2.05-0.03c-0.67-0.91-0.08-1.64,0.63-2.19c1.2-0.94,2.44-1.81,3.98-2.94
	c-0.15-4.26-0.3-8.8-0.46-13.41c-4.09-0.5-7.86-0.88-11.6-1.46c-2.25-0.35-4.5-0.84-6.67-1.54c-3.43-1.1-6.44-2.88-8.23-6.51
	c-1.39,0.12-2.79,0.23-4.19,0.36c-4.36,0.42-8.73,0.79-13.08,1.31c-1.69,0.2-3.33,0.78-4.99,1.17c-1.55,0.36-2.47,1.12-2.54,2.89
	c-0.05,1.41-0.42,2.83-0.84,4.19c-0.15,0.5-0.85,1.2-1.28,1.19c-0.96-0.02-1.09-0.89-0.95-1.71c0.27-1.66,0.57-3.32,0.94-5.46
	c-1.76,0.64-3.04,1.2-4.38,1.54c-0.51,0.13-1.14-0.23-1.72-0.37c0.23-0.56,0.31-1.41,0.72-1.63c1.32-0.72,2.77-1.21,4.63-1.98
	c-1.14-0.89-2.06-1.61-2.98-2.33c-0.6-0.47-1.3-0.86-1.74-1.45c-0.26-0.36-0.32-1.2-0.07-1.52c0.23-0.3,1.12-0.43,1.48-0.23
	c0.99,0.55,1.96,1.22,2.74,2.03c2.35,2.44,4.82,3.06,8.16,1.82c2.34-0.87,5.06-0.75,7.61-1.03c3.96-0.43,7.92-0.83,12.21-1.27
	c-0.34-4.93,1.46-9.06,4.11-12.75c-0.26-0.37-0.33-0.58-0.47-0.65c-3.94-2.01-4.55-4.62-1.65-7.9c3.56-4.03,8.27-5.64,13.52-5.82
	c2.44-0.08,3.74,1.63,4.75,3.53c1.02,1.91,0.14,3.54-1.11,4.95c-2.49,2.82-5.7,4.54-9.36,5.09c-2.15,0.32-3.35,1.38-4.4,3.11
	c-1.87,3.08-3.2,6.25-3.03,9.95c0.11,2.29,0.91,4.18,2.93,5.22c2.18,1.12,4.46,2.33,6.83,2.77c13.89,2.61,27.81,3.21,41.68-0.23
	c2.03-0.5,4.09-0.93,6.15-1.3c7.07-1.28,13.39-4.25,19.23-8.37c2.08-1.47,3.1-3.26,3.46-5.88
	C147.54,99.35,147.43,95.84,146.44,92.02z M92.48,66.44c-0.27,6.51,2.28,9.62,8.32,10.24c1.78,0.18,3.63,0.23,5.39-0.06
	c5.64-0.93,9.42-4.27,11.46-9.55c0.83-2.16,0.1-3.41-2.11-3.6C107.69,62.8,99.98,63.43,92.48,66.44z M95.5,40.5
	c4.89,0,9.5,0,14.32,0c-0.48-2.9-0.91-5.47-1.4-8.45c-3.56,0.47-6.76,0.82-9.92,1.35c-1.91,0.32-2.99,1.58-2.99,3.6
	C95.5,38.21,95.5,39.42,95.5,40.5z"/>
<path d="M104.3,112.85c-4.71,0.08-8.53-3.37-7.31-9.02c1.71-7.87,10.01-10.73,15.96-7.38c3.26,1.84,4.34,4.72,3.04,8.22
	C114.27,109.3,109.19,112.86,104.3,112.85z M105.66,109.82c3.02-0.19,5.82-2.28,7.77-5.36c1.71-2.71,0.44-5.12-2.56-6.28
	c-2.53-0.98-8.15,0.83-10.18,3.74c-1.18,1.7-1.62,3.45-0.61,5.35C101.09,109.15,102.75,109.91,105.66,109.82z"/>
<path d="M95.5,40.5c0-1.08,0-2.29,0-3.5c0.01-2.02,1.08-3.28,2.99-3.6c3.16-0.53,6.36-0.87,9.92-1.35c0.49,2.97,0.92,5.55,1.4,8.45
	C105,40.5,100.39,40.5,95.5,40.5z"/>
</svg>
