<?xml version="1.0" encoding="utf-8"?>
<!-- Generator: Adobe Illustrator 28.2.0, SVG Export Plug-In . SVG Version: 6.00 Build 0)  -->
<svg version="1.1" id="Layer_1" xmlns="http://www.w3.org/2000/svg" xmlns:xlink="http://www.w3.org/1999/xlink" x="0px" y="0px"
	 viewBox="0 0 190 195" style="enable-background:new 0 0 190 195;" xml:space="preserve">
<path d="M72.62,145c-0.51,0.65-0.97,1.34-1.53,1.93c-1.49,1.57-3.36,2.32-5.52,2.53c-2.28,0.22-4.5,0.04-6.68-0.61
	c-1.51-0.45-2.82-1.25-3.76-2.55c-1.14-1.57-1.15-3.48,0.37-4.63c2.06-1.56,2.29-3.88,3.25-6.12c-0.68,0-1.18,0-1.68,0
	c-2.78,0.01-5.56,0-8.34,0.06c-0.81,0.02-1.64,0.11-2.42,0.33c-3.36,0.93-6.71,1.92-10.06,2.87c-0.4,0.11-0.82,0.19-1.23,0.19
	c-1.39,0.01-2.56,0.36-3.7,1.32c-1.4,1.19-3.21,1.13-4.93,0.69c-4.12-1.05-6.74-5.63-5.63-9.74c0.72-2.67,3.03-4.48,5.84-4.62
	c0.47-0.02,0.97-0.02,1.4-0.17c4.48-1.62,9.08-2.6,14.03-2.73c-0.04-0.65-0.08-1.26-0.12-1.82c-3.35-0.58-6.55-1.13-9.75-1.67
	c-0.34-0.06-0.71-0.01-1.06,0.03c-5.66,0.62-9.83-5.05-7.59-10.3c0.48-1.11,1.33-1.88,2.42-2.22c1.86-0.58,3.75-1.08,5.66-1.42
	c2.33-0.41,4.69-0.65,7.04-0.9c1.17-0.12,2.36-0.12,3.54-0.16c0.69-0.02,1.39,0,2.44,0c-0.49-0.55-0.72-0.84-0.99-1.11
	c-2.38-2.38-2.94-5.18-1.92-8.33c0.19-0.58,0.33-1.03-0.06-1.64c-0.22-0.34-0.19-1.13,0.06-1.44c0.6-0.73,0.85-1.53,1.03-2.4
	c0.05-0.23,0.11-0.49,0.25-0.66c1.59-2,1.41-4.37,1.38-6.86c-1.19-0.48-2.37-0.18-3.51,0.28c-1.58,0.63-2.81,1.76-3.77,3.15
	c-0.98,1.42-0.87,2.9-0.07,4.36c0.74,1.35,1.87,2.27,3.21,2.98c0.49,0.26,1.27,0.49,0.86,1.26c-0.39,0.73-1.04,0.3-1.55,0.04
	c-1.68-0.85-3.05-2.05-3.91-3.75c-1.09-2.16-0.97-4.24,0.55-6.16c2.21-2.78,5.01-4.3,8.74-3.77c2.03-5.47,5.6-9.31,11.47-10.85
	c-0.09-1.11-0.19-2.16-0.24-3.2c-0.06-1.37,0.17-1.71,1.55-1.82c1.29-0.1,2.6-0.01,3.9-0.03c0.95-0.02,1.89-0.11,2.84-0.12
	c1.08-0.01,1.42,0.23,1.49,1.31c0.09,1.23,0.02,2.47,0.02,3.42c1.63,1.24,2.98,2.26,4.49,3.41c0.5-2.17,1.85-3.68,3.35-5.16
	c1.23-1.22,2.59-1.81,4.3-1.68c0.59,0.04,1.18,0.01,1.94,0.01c2.4-5.04,5.79-9.25,11.35-11.43c-0.07-1.3-0.15-2.59-0.19-3.88
	c-0.05-1.5,0.03-1.7,1.43-1.96c2.5-0.46,5.02-0.85,7.54-1.18c1.32-0.17,1.73,0.2,1.81,1.54c0.1,1.54,0.08,3.08,0.12,4.62
	c0.01,0.35,0.05,0.71,0.09,1.27c2.44,0.74,4.94,1.64,6.67,3.68c1.67,1.97,3.13,4.13,4.8,6.36c2.93-0.34,6.19-0.8,8.23,2.79
	c1.03-0.38,2.01-0.76,3.01-1.09c1.31-0.43,1.72-0.31,2.37,0.8c0.81,1.38,1.56,2.79,2.29,4.21c0.15,0.28,0.09,0.68,0.14,1.17
	c0.5,0,1.02-0.05,1.53,0.01c1.76,0.19,3.54,0.31,5.27,0.65c2.67,0.53,4.57,2.13,5.77,4.57c0.08,0.16,0.18,0.3,0.28,0.45
	c0.03,0.04,0.09,0.07,0.25,0.18c2.57-0.98,5.21-1.05,7.8,0.26c1.59,0.8,2.85,1.93,3.62,3.54c1.01,2.12,1.05,4.34,0.62,6.6
	c-0.45,2.37-2.24,3.67-4.11,5.04c2.13,2.67,3.18,5.39,0.16,8.47c0.83,0.13,1.37,0.27,1.92,0.3c3.75,0.2,7.39,0.93,10.98,2
	c1.93,0.57,3.91,0.98,5.88,1.35c1.64,0.31,2.67,1.15,3.1,2.77c0.23,0.86,0.61,1.69,0.7,2.56c0.3,2.82-1.17,4.71-3.41,6.16
	c-0.83,0.54-1.62,1.17-2.5,1.61c-0.61,0.31-1.35,0.48-2.04,0.51c-1.42,0.05-2.84-0.02-4.26-0.08c-1.29-0.05-2.59-0.16-3.98-0.24
	c-0.23,1.24-0.45,2.37-0.7,3.68c1.32,0.22,2.61,0.34,3.85,0.66c1.59,0.41,3.19,0.88,4.71,1.5c2.36,0.95,4.66,2.04,6.97,3.09
	c1.61,0.73,3.22,1.48,4.81,2.27c1.85,0.92,2.54,2.63,2.69,4.51c0.06,0.72-0.36,1.65-0.86,2.22c-2,2.27-4.45,3.69-7.61,3.42
	c-0.53-0.04-1.16,0.01-1.55-0.27c-1.16-0.82-2.49-0.57-3.73-0.86c-4.37-1.02-8.88-1.5-13.07-3.23c-0.86-0.35-1.63-0.53-2.54-0.18
	c-0.65,0.25-1.37,0.32-2.38,0.54c0.62,0.4,1.04,0.66,1.44,0.94c1.99,1.38,3.97,2.77,5.98,4.13c2.5,1.7,1.94,3.97,0.57,6.17
	c-1.71,2.76-6.56,3.94-9.58,2.68c-0.42-0.18-0.9-0.33-1.35-0.31c-2.36,0.1-4.59-0.46-6.77-1.24c-1.95-0.69-3.88-1.44-6.2-2.3
	c-0.13,0.2-0.33,0.64-0.65,0.97c-1.73,1.84-3.88,2.9-6.36,3.25c-1.84,0.27-3.5-0.17-4.98-1.38c-0.81-0.67-1.78-1.14-2.66-1.73
	c-1.22-0.82-2.52-1.55-3.6-2.52c-2.76-2.5-5.44-5.1-8.12-7.69c-0.85-0.82-1.64-1.71-2.38-2.63c-0.39-0.47-0.78-0.69-1.37-0.52
	c-0.11,0.03-0.23,0.07-0.35,0.07c-1.83-0.02-2.73,0.99-3.51,2.6c-0.8,1.67-2.09,3.13-3.26,4.6c-1.55,1.94-3.22,3.79-4.82,5.69
	c-0.18,0.22-0.42,0.56-0.37,0.77c0.39,1.45-0.7,2.04-1.57,2.68c-2.88,2.08-5.95,2.48-9.2,0.88c-1.78-0.88-3.27-2.14-4.51-3.67
	C73.41,147.75,72.87,146.47,72.62,145z M78.26,122.83c-0.82-4.3-0.12-8.39,0.68-12.46c0.08-0.4,0.15-0.83,0.34-1.18
	c0.11-0.21,0.53-0.46,0.67-0.4c0.26,0.13,0.58,0.47,0.58,0.72c-0.01,0.64-0.17,1.29-0.29,1.93c-0.69,3.62-1.27,7.24-0.56,10.93
	c0.27,1.41,0.62,2.78,1.58,3.91c1.12,1.33,1.08,1.3,0.06,2.77c-1.25,1.8-2.53,3.59-3.58,5.5c-1.26,2.28-1.88,4.8-2.2,7.22
	c2.19,0.3,4.22,0.58,6.24,0.84c3.03,0.39,5.59,1.52,6.93,4.54c0.22-0.16,0.39-0.24,0.5-0.36c2.08-2.35,4.16-4.7,6.23-7.05
	c0.82-0.93,1.18-2.07,1.74-3.41c-0.8,0.16-1.25,0.24-1.7,0.34c-0.52,0.12-1.03,0.28-1.55,0.39c-1.77,0.37-2.34-0.18-1.94-1.97
	c0.24-1.07,0.64-2.11,0.94-3.06c-1.99-0.8-3.91-1.54-5.81-2.34c-0.52-0.22-1.24-0.55-0.88-1.28c0.37-0.75,1-0.3,1.52-0.05
	c0.37,0.18,0.72,0.43,1.11,0.55c1.46,0.46,2.92,0.95,4.41,1.29c0.42,0.1,1.07-0.12,1.41-0.43c1.58-1.44,3.47-1.86,5.46-1.53
	c1.96,0.33,3.86,0.97,6.16,1.57c1.69-1.38,3.62-3.1,5.37-5.04c2.27-2.51,3.07-5.41,2.3-8.73c-0.29-1.27-0.53-2.55-0.79-3.82
	c-0.1-0.48-0.19-1.08,0.42-1.14c0.3-0.03,0.75,0.43,0.98,0.77c0.22,0.33,0.27,0.78,0.33,1.19c0.36,2.21,0.69,4.42,1.07,6.84
	c2.08,0.57,4.29,1.17,6.49,1.78c0.45-4.43,1.84-8.23,6.11-10.46c-0.16-0.24-0.29-0.5-0.48-0.7c-2.51-2.59-5-5.22-7.57-7.75
	c-3.18-3.14-7.03-5.17-11.2-6.69c-1.59-0.58-3.02-0.59-4.59,0.11c-4.82,2.15-9.86,2.15-14.97,1.39c-0.83-0.12-1.81-0.02-2.57,0.32
	c-2.82,1.24-5.56,2.63-8.03,4.52c-5.35,4.11-9.58,9.15-12.76,15.07c-0.34,0.63-0.56,1.33-0.88,2.1c3.98-0.21,6.03,1.29,7.81,5.6
	C75.13,124.91,76.45,123.63,78.26,122.83z M171.32,110.86c-0.41,1.51-0.61,1.56-1.83,0.51c-0.44-0.39-0.89-0.81-1.41-1.06
	c-5.25-2.53-10.77-4.26-16.49-5.36c-0.4-0.08-0.83-0.01-1.24-0.08c-1.25-0.22-2.29,0.14-3.32,0.87c-1.89,1.34-3.89,2.5-6.18,3.03
	c-3.18,0.74-6.37,1.35-9.66,1.19c-0.39-0.02-0.78,0-1.4,0c0.45,0.89,0.65,1.59,1.48,1.92c1.36,0.54,1.92,1.69,2.1,3.06
	c0.42,3.21-1.45,7.01-4.25,8.62c-1.21,0.7-2.48,1.09-3.9,0.6c-1.4-0.48-2.81-0.9-4.22-1.33c-1.2-0.37-2.38-0.85-3.73-0.8
	c0.1,0.23,0.12,0.36,0.19,0.43c0.16,0.17,0.34,0.33,0.53,0.47c5.72,4.12,9.22,9.92,12.2,16.11c0.23,0.48,0.54,1.01,0.51,1.49
	c-0.04,0.72,0.3,1.06,0.77,1.45c0.9,0.75,1.54,1.72,1.48,2.91c-0.06,1.14,0.52,1.61,1.43,1.93c2.24,0.78,4.45,1.63,6.72,2.29
	c1.22,0.35,2.54,0.37,3.85,0.55c0.56-2.07,1.64-3.54,3.33-4.43c1.63-0.86,3.34-1.56,5.08-2.35c-1.81-1.7-3.99-2.77-6.1-3.95
	c-1.43-0.8-2.87-1.36-4.55-1.08c-0.46,0.08-0.95,0.01-1.42-0.05c-1.79-0.24-2.36-1.2-1.65-2.85c0.18-0.42,0.46-0.84,0.79-1.16
	c3.34-3.15,8.97-3.1,11.13,0.82c1.11,0.37,2.13,0.65,3.11,1.05c3.95,1.63,8.09,2.18,12.32,2.34c0.75,0.03,1.29-0.1,1.81-0.77
	c1.71-2.22,4.12-3.3,6.81-3.83c0.37-0.07,0.74-0.12,1.1-0.17c0.03-0.13,0.05-0.26,0.08-0.39c-1.3-0.65-2.58-1.35-3.91-1.93
	c-2.06-0.9-4.27-1.52-6.21-2.61c-2.97-1.65-6.09-2.53-9.43-2.88c-1-0.11-1.81-0.18-2.52,0.71c-0.2,0.25-0.81,0.19-1.23,0.27
	c0-0.44-0.07-0.88,0.01-1.3c0.18-0.98,0.67-1.96,0.61-2.91c-0.25-4.3-1.12-8.44-3.6-12.09c-0.2-0.29-0.45-0.6-0.5-0.92
	c-0.05-0.36,0.13-0.74,0.2-1.11c0.35,0.1,0.8,0.11,1.04,0.33c0.6,0.56,1.07,1.26,1.66,1.85c2.12,2.11,3.51,4.6,3.96,7.58
	c0.03,0.22,0.16,0.43,0.3,0.81c2.52,0.12,5.05,0.26,7.58,0.35c0.32,0.01,0.66-0.19,0.97-0.34c0.58-0.28,1.15-0.57,1.72-0.88
	c0.98-0.54,2.04-0.99,2.91-1.68C171.91,114.84,172.25,112.66,171.32,110.86z M60.94,131.94c0.49-0.3,0.88-0.56,1.29-0.78
	c1.73-0.93,3.6-1.14,5.51-1c0.28,0.02,0.52,0.49,0.79,0.75c-0.25,0.21-0.48,0.53-0.76,0.6c-0.51,0.12-1.06,0.05-1.59,0.1
	c-1.61,0.17-3.17,0.46-4.36,1.72c-1.7,1.79-2.07,4.14-2.93,6.34c1.94,0.14,3.64,0.36,5.34,0.38c2.68,0.02,5.17,0.53,7.17,2.47
	c1.37-0.8,1.85-2.08,2.23-3.39c0.45-1.53,0.72-3.12,1.22-4.63c0.89-2.66,0.72-5.35,0.55-8.18c-1.3,0.3-2.54,0.08-3.56,1.02
	c-0.33,0.3-1,0.33-1.52,0.32c-1.67-0.01-3.12-0.66-4.32-1.8c-1.53-1.45-2.4-3.14-2.09-5.36c0.24-1.69,0.83-3.19,1.74-4.61
	c1.46-2.29,2.9-4.58,4.41-6.96c-0.97-0.67-1.96-0.66-3.01-0.3c-3.27,1.13-6.62,1.2-10,0.6c-1.98-0.35-3.94-0.82-5.91-1.21
	c-0.43-0.08-1-0.2-1.33-0.01c-1.73,1.04-3.44,2.16-4.31,4.09c-1.33,2.94-2.23,5.96-2.07,9.27c0.12,2.5,1.15,4.5,2.61,6.35
	C53.42,125.14,57.6,127.13,60.94,131.94z M79.98,82.41c0.06-0.23,0.05-0.53,0.19-0.7c1.49-1.76,3.47-2.63,5.69-2.98
	c1.59-0.25,2.33,0.73,1.73,2.28c-0.24,0.63-0.62,1.34-1.15,1.72c-1.94,1.42-4.03,2.49-7.08,1.42c1.43,1.9,1,3.67,0.97,5.41
	c-0.02,1.64,0.77,2.85,2.09,3.69c2.59,1.64,5.61,2.11,8.48,2.98c0.11,0.03,0.23,0.02,0.35,0.02c1.16,0.06,2.32,0.14,3.49,0.19
	c0.99,0.04,2,0.14,2.98,0.03c3.87-0.44,7.42-1.96,10.96-3.46c2.43-1.03,3.99-2.89,5.1-5.2c0.64-1.33,0.89-2.75,0.41-4.15
	c-0.7-2-0.79-4.04-0.86-6.12c-0.08-2.3-0.56-4.4-2.8-5.73c-1.14-0.68-2.11-1.66-3.41-2.7c-0.26,3.14-2.27,4.45-4.56,5.49
	c-1.02,0.46-2.07,0.9-3.14,1.21c-3.69,1.08-7.08,0.41-9.93-2.16c-1-0.9-1.63-2.2-2.44-3.34C81.9,72.86,78.99,77.41,79.98,82.41z
	 M44.07,91.12c1.61,0.37,3.06,0.64,4.46,1.06c0.74,0.22,1.39,0.69,1.22,1.69c-0.19,1.12-0.58,1.64-1.68,1.74
	c-1,0.09-2.01,0.05-3.01-0.01c-1.48-0.08-1.92,0.18-2.2,1.59c-0.44,2.25,0.06,4.29,1.79,5.84c0.91,0.82,2,1.48,3.09,2.04
	c3.04,1.57,6.38,2.13,9.7,2.73c3.98,0.72,7.78,0.11,11.47-1.41c0.59-0.25,1.29-0.49,1.68-0.95c1.63-1.96,3.03-4.07,3.1-6.87
	c-0.97-0.16-1.89-0.31-2.82-0.46c-1.72-0.29-3.11-1.08-4.01-2.64c-0.57-0.99-0.38-1.56,0.72-1.8c0.5-0.11,1.06-0.09,1.58,0
	c1.49,0.25,2.82,0.88,4.01,1.8c0.34,0.27,0.71,0.5,1.19,0.85c0.11-0.79,0.24-1.37,0.27-1.95c0.05-0.95-0.02-1.9,0.09-2.84
	c0.03-0.29,0.49-0.52,0.75-0.78c0.22,0.24,0.49,0.46,0.64,0.74c0.1,0.19,0.03,0.46,0.05,0.7c0.1,1.75,0.2,3.51,0.31,5.26
	c1.78-0.13,3.78-2.28,3.63-3.98c-0.02-0.17-0.06-0.36-0.16-0.5c-1.18-1.6-1.11-3.42-1.02-5.29c0.06-1.12-0.03-2.27-1.33-2.83
	c-1.35-0.58-2.64-1.02-3.97,0.14c-0.59,0.52-1.07,1.01-1.35,1.77c-0.45,1.24-0.99,1.27-1.82,0.2c-0.38-0.49-0.76-0.99-1.19-1.55
	c-0.36,0.32-0.58,0.51-0.8,0.7c-3.37,3.01-7.2,4.45-11.76,3.5c-2.85-0.6-4.87-2.07-5.6-5.01c-0.1-0.39-0.22-0.78-0.35-1.24
	c-1.69,0.53-2.99,1.54-4.23,2.63c-0.17,0.15-0.42,0.38-0.4,0.56c0.11,1.01-0.7,1.59-1.06,2.37C44.7,89.65,44.39,90.4,44.07,91.12z
	 M146.29,91.74c-0.4,0.19-0.75,0.39-1.13,0.54c-1.53,0.59-3.11,0.74-4.7,0.32c-0.34-0.09-0.6-0.48-0.9-0.74
	c0.29-0.32,0.52-0.81,0.88-0.93c0.95-0.31,1.96-0.42,2.93-0.68c0.84-0.22,1.77-0.37,2.11-1.57c-0.45-0.54-0.9-1.15-1.42-1.69
	c-0.73-0.76-1.39-1.49-1.86-2.51c-0.69-1.51-2.04-2.36-3.99-2.28c-0.23,4.1-1.91,7.07-6.1,8.18c-3.95,1.05-7.34,0.16-10.39-2.79
	c-0.97,0.94-1.88,1.85-2.82,2.74c-1.38,1.31-1.48,2.97-1.05,4.61c0.31,1.14,1.07,2.16,1.61,3.2c2.45-0.46,4.53-1.17,6.18-2.89
	c0.24-0.25,0.9-0.37,1.22-0.23c0.54,0.23,0.69,0.86,0.36,1.37c-0.92,1.44-1.72,3-3.32,3.85c-0.77,0.41-1.54,0.83-2.36,1.28
	c1.72,1.81,3.42,3.53,5.05,5.32c0.82,0.89,1.62,1.45,2.95,1.56c4.33,0.34,8.49-0.31,12.59-1.6c0.34-0.11,0.67-0.26,0.97-0.44
	c1.87-1.14,3.74-2.28,5.58-3.45c0.55-0.35,1.06-0.76,1.52-1.22c1.24-1.23,1.44-2.45,0.73-4.05c-0.59-1.33-1.48-2.25-2.95-2.08
	C147.39,94.23,146.85,93.02,146.29,91.74z M128.96,139.93c-3.27-7.07-7.37-13.16-14-17.37c-1.82,3.51-4.87,5.9-7.71,8.45
	c0,0.97,0.13,1.93-0.03,2.83c-0.23,1.26-1.75,0.64-2.62,1.54c2.04,1.83,3.98,3.65,5.99,5.37c2.03,1.74,3.5,4.09,5.71,5.55
	C118.82,140.68,123.7,140.18,128.96,139.93z M29.83,108.11c3.49,3.03,3.79,6.76,3.36,10.9c2.86,0.44,5.7,0.87,8.49,1.3
	c0.37-1.85,0.58-3.49,1.06-5.05c0.5-1.63,1.06-3.3,1.97-4.72c0.85-1.33,2.19-2.35,3.58-3.78C41.92,106.41,36.01,107.27,29.83,108.11
	z M44.77,128.53c-0.4-0.57-0.93-1.14-1.25-1.82c-0.48-0.98-1.21-1.38-2.25-1.37c-0.59,0.01-1.2-0.09-1.76,0.02
	c-3.07,0.59-6.12,1.21-9.18,1.86c-0.36,0.08-0.68,0.33-1.13,0.56c2.9,2.69,4.29,5.88,4.18,9.84c3.58-0.18,6.84-1.09,10.12-2.72
	c-1.31-0.94-1.13-2.02-0.58-3.09C43.49,130.71,44.13,129.65,44.77,128.53z M105.62,68.38c-0.29-0.18-0.48-0.32-0.69-0.42
	c-0.27-0.13-0.54-0.24-0.82-0.33c-3.65-1.15-7.35-1.14-11.04-0.3c-1.08,0.24-2.11,0.76-3.12,1.25c-1.01,0.48-1.22,0.99-0.84,1.99
	c0.23,0.59,0.56,1.2,1,1.65c1.37,1.38,3.02,2.23,4.98,2.51c3.13,0.44,5.8-0.8,8.41-2.25C105.02,71.61,105.76,70.29,105.62,68.38z
	 M143.02,81.06c0.36,1.53,0.35,3.21,1.56,4.27c1.99,1.75,2.82,4.03,3.39,6.46c0.21,0.89,0.61,1.5,1.49,1.75
	c4.02-2,5.4-6.09,3.41-9.95C151.26,80.45,146.24,78.88,143.02,81.06z M52.44,82.29c-0.14,3.01,1.02,4.93,3.62,5.58
	c4.7,1.19,8.12,0.53,11.83-3.64c-0.9-0.9-2.02-1.41-3.21-1.75c-3.04-0.88-6.17-1.15-9.31-1C54.36,81.54,53.37,82.03,52.44,82.29z
	 M31.86,136.04c-0.19-2.47-1.18-4.83-3.21-6.66c-2.18-1.97-4.29-1.33-5.04,1.49c-0.4,1.48-0.73,2.98-1.04,4.47
	c-0.05,0.26,0.07,0.58,0.18,0.84c0.9,2.18,3.47,3.73,5.86,3.56C30.67,139.6,31.84,138.35,31.86,136.04z M79.38,68.2
	c-1.89-0.49-3.42-0.29-4.64,1.18c-0.3,0.36-0.68,0.66-1,1.01c-1.92,2.11-2.49,4.64-2.23,7.4c0.1,1.03,0.69,1.71,1.67,2.09
	c1.54,0.59,3.1,0.61,4.69,0.4c0.45-1.63,0.9-3.21,1.31-4.8c0.05-0.2-0.01-0.47-0.11-0.67c-0.63-1.25-0.42-2.53-0.19-3.82
	C79.04,70.07,79.2,69.15,79.38,68.2z M63.07,148.15c1.41-0.13,2.36-0.16,3.29-0.31c1.12-0.18,2.11-0.63,3.01-1.38
	c0.83-0.69,0.9-1.46,0.72-2.36c-0.18-0.97-0.95-1.32-1.76-1.54c-1.02-0.27-2.06-0.48-3.1-0.69c-2.09-0.43-4.22-0.66-6.33-0.32
	c-0.82,0.13-1.67,0.6-2.33,1.13c-0.92,0.74-1.03,1.8-0.24,2.67c0.7,0.76,1.57,1.51,2.52,1.85
	C60.34,147.73,61.94,147.91,63.07,148.15z M115.09,78.39c3.04,1.04,7.04-1.86,6.45-5.98c-0.12-0.87-0.38-1.74-0.68-2.56
	c-1.04-2.82-3.72-3.87-6.48-2.65C113.63,71.03,114.26,74.71,115.09,78.39z M136.57,82.04c-5.11-0.17-9.44,1.39-13.36,4.72
	c1.08,0.75,1.97,1.54,3,2.02c1.72,0.81,3.56,0.68,5.37,0.18C135.07,88,136.6,85.95,136.57,82.04z M83.3,151.43
	c0.92-0.32,1.96-0.47,2.74-1c1.29-0.87,1.41-1.89,0.31-2.95c-1.09-1.05-2.39-1.9-3.67-2.73c-1.33-0.87-2.82-0.77-4.29-0.33
	c-1.94,0.58-2.43,1.81-1.33,3.5C78.5,150.13,80.66,151.07,83.3,151.43z M24.6,111.96c0,0.69-0.07,1.4,0.01,2.09
	c0.3,2.42,2.42,4.51,4.78,4.79c1.62,0.19,2.42-0.37,2.5-1.95c0.1-2.03-0.27-4-1.29-5.79c-0.91-1.58-1.99-1.86-3.53-0.92
	C26.22,110.7,25.45,111.34,24.6,111.96z M126.54,122.84c3.37-0.7,6-4.6,5.35-7.86c-0.06-0.29-0.15-0.58-0.28-0.83
	c-0.4-0.75-0.92-1.09-1.86-0.86c-2.47,0.61-5.24,3.97-5.33,6.62c-0.03,0.98-0.03,1.9,1.26,2.16
	C126.02,122.14,126.27,122.59,126.54,122.84z M122.21,148.55c1.68-0.09,3.53-0.43,5.19-1.43c0.93-0.56,1.7-1.29,2.01-2.37
	c0.39-1.38-0.25-2.4-1.68-2.48c-0.74-0.04-1.51,0.18-2.23,0.39c-0.61,0.18-1.13,0.63-1.83,0.21c-0.19-0.11-0.59-0.03-0.81,0.1
	c-1.18,0.72-2.22,1.59-2.7,2.94C119.54,147.64,120.17,148.53,122.21,148.55z M172.16,139.78c1.98-0.23,3.75-1.07,5.29-2.44
	c0.4-0.35,0.72-0.73,0.46-1.37c-0.25-0.62-0.71-0.76-1.26-0.74c-2.32,0.07-4.38,0.83-6.05,2.47c-0.92,0.91-0.65,1.71,0.6,1.99
	C171.49,139.76,171.79,139.75,172.16,139.78z M152.52,149.65c0.73-0.54,1.38-0.94,1.93-1.45c0.52-0.48,1.09-1.16,0.64-1.84
	c-0.3-0.46-1.03-0.8-1.6-0.87c-2.26-0.28-4.15,0.63-5.73,2.18c-0.26,0.25-0.36,0.66-0.6,1.11c1.2,0.39,2.26,0.37,3.26,0.08
	C151.3,148.6,152.02,148.57,152.52,149.65z M70.18,126.2c1.01,0.03,1.42-0.32,1.38-1.14c-0.09-1.85-2.93-4.26-4.74-4.02
	c-1.01,0.13-1.45,0.78-1.16,1.72C66.2,124.54,68.32,126.15,70.18,126.2z M115.31,91.56c-1.89,0.36-2.28,1.98-2.8,3.46
	c-0.08,0.22,0.19,0.73,0.43,0.86c1.46,0.82,2.97,1.57,4.58,2.41c-0.45-1.27-0.95-2.32-1.2-3.43
	C116.07,93.75,116.27,92.51,115.31,91.56z M80.36,127.78c-0.69-1.2-1.29-2.25-1.94-3.38c-0.57,0.36-1.06,0.66-1.49,0.92
	c0.13,2.16,0.25,4.18,0.4,6.59C78.48,130.35,79.4,129.09,80.36,127.78z M116.12,85.73c0.65-1.83,1.32-3.75,2.03-5.74
	c-1.04,0.07-2.07,0.14-3.2,0.22C115.35,82.13,115.74,83.95,116.12,85.73z M123.21,150.14c4.31,0.44,8.72-2.86,7.93-5.87
	C130.15,148.37,126.82,149.2,123.21,150.14z M77.86,82.06c-1.85-0.2-3.56-0.38-5.4-0.57c0.14,0.75,0.25,1.35,0.4,2.1
	c1.7-1.06,3.3-0.99,5.01-0.26C77.86,82.79,77.86,82.47,77.86,82.06z M167.87,108.01c-0.01,0.13-0.03,0.25-0.04,0.38
	c0.83,0.51,1.66,1.02,2.63,1.61c0.1-0.54,0.17-0.91,0.25-1.38C169.68,108.39,168.77,108.2,167.87,108.01z M114.56,89.79
	c0.07,0.08,0.13,0.16,0.2,0.23c0.29-0.17,0.69-0.28,0.83-0.53c0.19-0.34,0.21-0.79,0.26-1.19c0.04-0.33,0.01-0.67,0.01-1.01
	c-0.06-0.01-0.12-0.01-0.19-0.02C115.31,88.11,114.94,88.95,114.56,89.79z"/>
<path d="M96.12,96.28c-2.82-0.22-4.6-1.34-5.47-3.61c-0.64-1.69-0.13-3.32,1.35-4.35c2.13-1.47,5.41-1.58,7.54-0.08
	c2.34,1.65,3.29,5.27-0.24,7.22C98.38,95.97,97.19,96.01,96.12,96.28z M96.03,94.59c0.42,0,0.78,0.02,1.13,0
	c1.54-0.12,2.76-1.1,2.93-2.36c0.16-1.17-0.79-2.62-2.1-3.15c-1.7-0.68-3.36-0.5-4.94,0.37c-1.21,0.67-1.5,1.76-0.86,3.01
	C93,94.04,94.32,94.77,96.03,94.59z"/>
<path d="M109.37,82.58c-1.08-0.21-2.53-0.43-3.94-0.81c-1.12-0.3-1.59-1.05-1.54-2.06c0.05-0.9,0.57-1.51,1.75-1.65
	c2.17-0.27,4.19,0.33,6.03,1.48c0.63,0.4,1.09,1.1,0.74,1.8c-0.24,0.49-0.89,0.83-1.43,1.1C110.63,82.61,110.17,82.52,109.37,82.58z
	"/>
<path d="M57.4,106.26c-0.62-0.2-1.76-0.39-2.71-0.93c-2.02-1.14-2.22-3.63-0.54-5.24c1.82-1.75,4.05-2.18,6.31-1.03
	c1.03,0.53,2,1.27,2.81,2.09c1.26,1.28,1.08,2.52-0.37,3.57C61.4,105.8,59.67,106.11,57.4,106.26z M62.64,102.8
	c-0.28-0.38-0.46-0.68-0.71-0.92c-0.34-0.33-0.7-0.63-1.09-0.9c-1.84-1.29-3.73-1.38-5.4,0.37c-1.2,1.26-1.05,2.38,0.57,3.04
	C57.96,105.18,61.01,104.49,62.64,102.8z"/>
<path d="M131.9,102.98c0.03-1.79,0.86-3.08,2.51-3.72c2.78-1.08,5.39-0.54,7.64,1.32c1.81,1.5,1.66,3.38-0.25,4.74
	c-1.81,1.29-3.92,1.71-6.05,1.71C133.48,107.03,131.87,105.18,131.9,102.98z M136.55,105.43c1.57-0.09,3.19-0.38,4.55-1.44
	c0.86-0.67,0.88-1.28,0.18-2.1c-1.23-1.43-4.18-2.03-5.87-1.18c-1.25,0.63-2.07,1.92-1.87,2.94
	C133.77,104.76,134.83,105.4,136.55,105.43z"/>
</svg>
