<?xml version="1.0" encoding="utf-8"?>
<!-- Generator: Adobe Illustrator 28.2.0, SVG Export Plug-In . SVG Version: 6.00 Build 0)  -->
<svg version="1.1" id="Layer_1" xmlns="http://www.w3.org/2000/svg" xmlns:xlink="http://www.w3.org/1999/xlink" x="0px" y="0px"
	 viewBox="0 0 190 195" style="enable-background:new 0 0 190 195;" xml:space="preserve">
<path d="M86.82,101.79c0.45,2.75-0.27,5.27-1.49,7.71c-1.66,3.33-3.86,6.24-6.68,8.67c-1.66,1.43-3.39,2.78-5.04,4.23
	c-0.79,0.7-1.48,0.92-2.19,0.03c-3.36,1.61-6.83,2.2-10.43,2.16c-0.61-0.01-1.23,0.26-1.84,0.39c-1.39,0.3-2.77,0.59-4.16,0.87
	c-0.41,0.08-0.83,0.07-1.23,0.15c-2.06,0.41-2.48,0.87-2.43,2.98c0.05,2.19,0.26,4.38,0.32,6.57c0.24,8.23,0.44,16.46,0.66,24.69
	c0.02,0.58,0.06,1.16,0.09,1.89c1.32-0.45,1.7,0.46,2.18,1.3c1.02,1.8,2.07,3.58,3.12,5.36c0.14,0.23,0.36,0.41,0.77,0.51
	c-0.24-1.21-0.52-2.41-0.7-3.63c-0.1-0.71-0.53-1.66,0.36-2.07c0.88-0.4,1.14,0.6,1.55,1.12c0.9,1.13,1.94,2.05,3.58,2.59
	c-0.19-0.6-0.31-1.01-0.45-1.42c-0.96-2.67-1.94-5.34-2.87-8.02c-0.22-0.64-0.65-1.56,0.29-1.84c1.02-0.31,0.91,0.75,1.14,1.38
	c1.13,3.11,2.29,6.21,3.44,9.32c0.28,0.75,0.99,1.55,0.2,2.28c-0.74,0.68-1.58,0.12-2.31-0.23c-0.95-0.46-1.86-0.98-3.08-1.63
	c0.15,0.85,0.3,1.5,0.39,2.16c0.12,1,0.24,2,0.29,3c0.03,0.53-0.03,1.22-0.71,1.22c-0.43,0-0.85-0.46-1.27-0.73
	c-0.09-0.06-0.13-0.2-0.19-0.3c-1.61-2.76-3.22-5.52-4.84-8.27c-0.16-0.28-0.41-0.51-0.87-1.08c-0.05,1.42-0.06,2.45-0.12,3.49
	c-0.03,0.53-0.08,1.07-0.24,1.57c-0.06,0.2-0.44,0.45-0.65,0.43c-0.22-0.02-0.52-0.3-0.59-0.53c-0.1-0.32-0.03-0.7-0.03-1.05
	c-0.12-11.02,0.05-22.04-0.74-33.04c-0.14-1.89-0.2-3.79-0.2-5.68c0-2.01,0.65-2.92,2.61-3.48c1.36-0.39,2.78-0.55,4.35-0.85
	c-0.34-0.36-0.64-0.6-0.85-0.91c-0.39-0.58-1.07-1.21-1.03-1.78c0.16-2.28-0.56-4.56,0.36-6.87c2.42-6.12,6.05-11.23,11.51-14.98
	c1.98-1.36,4.13-2.3,6.49-2.75c0.51-0.1,1.01-0.24,1.75-0.43c-4.12-3.85-2.09-7.34,0.46-10.88c-0.81-0.25-1.54-0.42-2.23-0.71
	c-1.78-0.75-2.19-2.1-1.09-3.7c0.36-0.52,0.87-0.96,1.37-1.37c0.45-0.36,0.99-0.62,1.49-0.93c0-1.69,0-3.34,0-5.06
	c-0.84-0.02-0.95,0.61-1.25,1.08c-0.19,0.29-0.57,0.46-0.86,0.68c-0.2-0.31-0.54-0.61-0.58-0.95c-0.13-1.09-0.15-2.2-0.22-3.37
	c-0.24-0.05-0.47-0.14-0.68-0.13c-2.7,0.19-5.1,1.1-6.96,3.12c-4.9,5.35-1.88,10.48,2.69,12.59c1.36,0.63,2.76,0.6,4.15,0.1
	c0.33-0.12,0.64-0.37,0.98-0.41c0.3-0.04,0.78,0.03,0.89,0.22c0.12,0.22,0,0.68-0.18,0.91c-0.2,0.26-0.57,0.42-0.89,0.56
	c-1.29,0.53-2.63,0.72-4,0.47c-6.59-1.22-9.64-8.58-5.85-14.07c1.7-2.46,4.04-3.97,6.91-4.65c1.03-0.24,2.1-0.32,3.31-0.49
	c0.14-0.68,0.3-1.42,0.43-2.16c0.43-2.59,1.27-5.04,2.36-7.43c2.19-4.82,5.83-7.97,10.89-9.48c1.36-0.4,2.73-0.74,4.26-1.15
	c-0.13-1.28-0.26-2.5-0.38-3.73c-0.19-1.86-0.08-2.09,1.74-2.7c2.19-0.74,4.39-1.43,6.6-2.09c1.54-0.46,1.89-0.19,2.01,1.44
	c0.11,1.48,0.18,2.96,0.3,4.43c0.05,0.57,0.17,1.14,0.28,1.86c0.82,0,1.51-0.01,2.21,0c2.01,0.03,4.03-0.06,6.02,0.13
	c6.63,0.64,12.64,5.93,14.25,12.41c0.26,1.03,0.56,2.05,0.87,3.19c0.45-0.11,0.82-0.19,1.19-0.31c2.13-0.69,4.28-0.86,6.48-0.39
	c3.38,0.73,5.43,2.96,5.59,6.41c0.09,1.94-0.06,3.91-0.27,5.84c-0.25,2.3-1.55,3.95-3.68,4.84c-1.3,0.54-2.67,0.94-3.95,1.39
	c-0.12,0.75-0.06,1.58-0.4,2.18c-0.32,0.57-1.05,0.9-1.73,1.44c0.18,0.61,0.34,1.29,0.6,1.93c0.79,1.91,0.61,3.83,0.08,5.75
	c-0.36,1.29-1.36,2.03-2.41,2.73c-2.64,1.77-5.26,3.57-8.09,5.49c0.63-0.05,1.1-0.05,1.57-0.13c1.84-0.29,3.66-0.26,5.47,0.2
	c3.28,0.83,5.41,3.25,5.8,6.63c0.34,2.97-0.2,5.77-1.67,8.39c-1.74,3.1-4.12,5.65-6.8,7.91c-2.81,2.36-5.68,4.66-8.6,6.89
	c-0.79,0.61-1.5,1.24-2.2,1.94c-0.72,0.72-1.72,1.21-2.68,1.62c-0.74,0.32-1.6,0.35-2.47,0.53c-0.03,0.23-0.09,0.46-0.09,0.68
	c0.34,10.32-0.27,20.6-1.28,30.87c-0.2,2-0.32,4.01-0.48,6.02c-0.1,1.25-0.26,1.43-1.49,1.48c-5.62,0.2-11.24,0.35-16.86,0.6
	c-5.38,0.25-10.76,0.7-16.14,0.89c-4.97,0.18-9.95,0.14-14.92,0.16c-0.64,0-1.68,0.25-1.61-0.81c0.05-0.86,0.99-0.66,1.61-0.63
	c8.78,0.4,17.52-0.35,26.27-0.88c3.9-0.24,7.81-0.32,11.71-0.47c2.9-0.11,5.8-0.23,8.7-0.35c0.35-0.01,0.69-0.05,1.14-0.09
	c1.44-12.46,2.18-24.9,1.96-37.48c-0.9-0.18-1.64-0.33-2.38-0.46c-2.29-0.4-4.48-1.1-6.54-2.19c-0.57-0.3-1.12-0.66-1.64-1.06
	c-2.94-2.25-3.01-5.29-0.9-7.52c0.19-0.2,0.32-0.44,0.59-0.84c-0.47-0.05-0.74-0.09-1.01-0.11c-2.83-0.24-5.66-0.49-8.5-0.7
	c-2.18-0.16-4.37-0.28-6.56-0.42c-0.3-0.02-0.62,0.06-0.88-0.05c-0.29-0.12-0.51-0.39-0.76-0.6c0.26-0.26,0.5-0.74,0.77-0.75
	c1.42-0.06,2.85-0.08,4.26,0.03c4.31,0.31,8.62,0.68,12.92,1.05c0.4,0.03,0.78,0.2,1.21,0.31c4.23-7.44,9.76-13.74,16.89-18.64
	c-8.57,0.83-17.05,1.06-25.35-1.55c0.45-1.54,0.44-1.53,1.88-1c0.66,0.24,1.35,0.46,2.04,0.59c6.28,1.13,12.6,1.33,18.93,0.63
	c2.78-0.31,5.49-0.97,7.88-2.53c2.72-1.77,5.44-3.56,8.15-5.34c0.79-0.52,1.14-1.3,1.36-2.2c0.55-2.29-0.25-4.29-1.1-6.24
	c-1.51,0-2.93,0.05-4.35-0.01c-1.96-0.09-3.91-0.35-5.66-1.33c-2.04-1.14-2.26-3.04-0.56-4.66c0.3-0.28,0.63-0.54,0.99-0.74
	c2.79-1.53,5.68-1.93,8.72-0.83c0.35,0.13,0.71,0.22,1.21,0.38c-0.13-2.63-0.83-4.8-2.48-6.66c-1.17,1.13-1.43,1.14-1.97-0.04
	c-0.37-0.8-0.95-1.27-1.62-1.8c-2.02-1.58-4.47-2.11-6.79-2.95c-0.36-0.13-0.76-0.13-1.12-0.18c-2.4,6.91-5.47,10.34-12.34,10.37
	c-2.64,0.01-4.96-1-7.07-2.53c-3-2.18-4.23-5.26-4.35-9.05c-3.7,1.4-7.03,2.86-10.14,4.85c-1.4,0.9-2.07,2.01-1.91,3.67
	c0.13,1.31-0.26,2.68,0.29,3.94c1.71-0.08,3.3-0.21,4.9-0.2c0.99,0.01,2,0.17,2.97,0.41c0.6,0.14,1.27,0.42,1.27,1.35
	c-0.31,0.25-0.94,0.53-0.94,0.81c-0.02,1.99-1.56,2.55-2.94,3.14c-1.56,0.67-3.23,1.1-4.68,1.58c-0.2,0.54-0.24,1.21-0.57,1.44
	c-1.39,0.93-1.97,2.35-2.41,3.81c-0.78,2.56,1.43,5.68,4.12,5.9C82.28,96.67,85.21,98.22,86.82,101.79z M112.88,129.61
	c0.24-0.09,0.43-0.12,0.56-0.23c2.64-2.1,5.33-4.15,7.9-6.33c2.45-2.07,4.62-4.41,6.23-7.23c1.27-2.23,1.81-4.61,1.61-7.17
	c-0.25-3.19-2.04-5.32-5.2-5.87c-4.41-0.76-8.49,0.27-12.15,2.77c-5.71,3.9-10.15,9.03-13.87,14.81c-0.19,0.3-0.26,0.68-0.46,1.24
	c2.79-0.68,5.28-0.32,7.76,0.37C109.23,123.08,112.29,125.08,112.88,129.61z M56.61,115.28c0.09,0.09,0.18,0.18,0.27,0.28
	c0.31-0.12,0.63-0.25,0.95-0.37c4.4-1.67,8.82-1.33,13.22-0.03c0.86,0.25,1.96,0.54,1.44,1.93c-0.04,0.12,0.11,0.31,0.19,0.46
	c0.41,0.82,0.83,1.64,1.28,2.51c4.67-3.33,8.63-7.36,10.79-12.93c0.21-0.55,0.4-1.12,0.53-1.69c0.65-2.74-0.23-4.96-2.67-6.34
	c-0.91-0.51-2.05-1.17-2.96-1.01c-1.49,0.26-2.83-0.37-4.24-0.21c-2.75,0.31-5.4,1.01-7.58,2.74c-2.08,1.65-4.11,3.39-5.92,5.33
	C59.4,108.61,57.95,111.93,56.61,115.28z M90.13,65.22c-0.13,3.65,1.04,6.44,3.88,8.49c3.99,2.87,9.41,2.82,12.85-0.19
	c0.52-0.46,0.96-1.03,1.34-1.62c0.41-0.63,0.71-1.34,1.04-2.02c0.55-1.14,1.57-2.1,1.41-3.65C103.94,63.98,97.2,63.19,90.13,65.22z
	 M93.61,128.82c0.63,1.19,1.63,1.91,2.73,2.48c2.87,1.51,5.94,2.31,9.18,2.4c0.82,0.02,1.65-0.1,2.46-0.26
	c1.82-0.36,2.95-1.48,3.22-3.32c0.27-1.86-0.55-3.33-1.91-4.53c-0.16-0.14-0.48-0.3-0.62-0.23c-1.02,0.49-1.53-0.35-2.17-0.79
	c-2.91-2.01-6.46-1.99-9.24,0.12C95.78,125.81,94.6,127.2,93.61,128.82z M128.31,80.67c1.75-0.57,3.18-0.98,4.56-1.5
	c1.53-0.58,2.72-1.67,2.9-3.31c0.25-2.22,0.35-4.48,0.24-6.71c-0.1-2.1-1.45-3.43-3.42-4.1c-2.03-0.69-4.08-0.66-6.11-0.06
	c-2.41,0.71-2.92,2.96-1.1,4.72c2.16,2.09,3.03,4.59,2.54,7.57c-0.1,0.58-0.23,1.18-0.18,1.76
	C127.8,79.56,128.09,80.05,128.31,80.67z M61.87,123.24c2.35-0.14,4.63-0.52,6.82-1.29c0.88-0.31,1.76-0.74,2.52-1.27
	c1.15-0.79,1.19-1.65,0.01-2.36c-1.41-0.84-2.95-1.48-4.49-2.07c-2.61-1.01-5.15-0.5-7.52,0.78c-0.81,0.44-1.58,1.08-2.15,1.8
	c-1.35,1.69-0.89,3.2,1.16,3.81C59.39,122.99,60.65,123.05,61.87,123.24z"/>
<path d="M91.91,139.02c1.68,1.32,3.03,3.04,5.35,3.29c0.24,0.03,0.63,0.44,0.62,0.66c-0.01,0.25-0.41,0.68-0.63,0.67
	c-0.69-0.02-1.45-0.07-2.04-0.37c-0.94-0.47-1.79-1.15-2.66-1.75c-0.42-0.3-0.82-0.63-1.46-1.13c0.58,2.47,1.07,4.65,1.6,6.81
	c0.12,0.48,0.32,0.97-0.27,1.21c-0.67,0.27-0.95-0.27-1.16-0.77c-0.12-0.27-0.17-0.57-0.24-0.85c-0.81-3.03-1.61-6.05-2.42-9.08
	c-0.03-0.11-0.07-0.23-0.1-0.34c-0.77-2.87,0.77-5.08,3.72-5.36c1.21-0.12,1.91,0.4,2.1,1.63c0.16,1.02,0.08,2.02-0.55,2.89
	C93.19,137.33,92.59,138.12,91.91,139.02z M92.77,133.61c-2.92,0-3.96,2.3-2.15,4.43C91.7,136.72,93.3,135.72,92.77,133.61z"/>
<path d="M67.52,158.2c-1.19,0.18-1.02,0.87-0.86,1.49c0.38,1.49,0.79,2.97,1.19,4.45c0.06,0.23,0.16,0.44,0.23,0.67
	c0.16,0.51,0.11,1.03-0.48,1.1c-0.29,0.03-0.68-0.34-0.92-0.61c-0.18-0.2-0.2-0.55-0.29-0.83c-0.57-1.79-1.2-3.56-1.68-5.38
	c-0.28-1.06-0.3-2.19-0.47-3.29c-0.2-1.28-0.47-2.55-0.66-3.84c-0.08-0.52-0.1-1.07,0-1.58c0.05-0.29,0.36-0.67,0.63-0.74
	c0.26-0.06,0.66,0.16,0.89,0.38c0.25,0.23,0.39,0.59,0.54,0.9c1.27,2.66,2.54,5.32,3.81,7.98c0.38,0.8,0.83,1.56,1.14,2.38
	c0.11,0.3-0.09,0.72-0.15,1.09c-0.37-0.08-0.88-0.04-1.07-0.27c-0.4-0.49-0.66-1.11-0.92-1.7C68.1,159.68,67.81,158.93,67.52,158.2z
	 M65.68,154.72c0.05,0.74-0.03,1.52,0.77,2.23C66.7,155.89,66.19,155.31,65.68,154.72z"/>
<path d="M72.28,169.95c-0.68,0.04-1.06-0.49-0.78-0.94c0.18-0.29,0.46-0.53,0.74-0.74c3.95-3,7.84-6.09,11.88-8.96
	c2.15-1.53,4.55-2.71,6.87-3.99c0.32-0.18,1.05-0.17,1.21,0.04c0.43,0.57-0.1,0.94-0.55,1.24c-0.15,0.1-0.31,0.18-0.47,0.25
	c-4.55,1.99-8.31,5.15-12.21,8.12c-1.88,1.43-3.74,2.88-5.62,4.31C72.98,169.57,72.56,169.78,72.28,169.95z"/>
<path d="M79.12,152.95c-0.23-2.29-0.48-4.58-0.68-6.87c-0.06-0.65-0.49-1.69,0.45-1.82c1.1-0.16,0.92,1.02,1.01,1.71
	c0.43,3.04,0.81,6.1,1.19,9.15c0.04,0.29,0.05,0.6-0.01,0.88c-0.16,0.71-0.74,0.91-1.34,0.47c-0.28-0.21-0.53-0.47-0.75-0.75
	c-1.26-1.64-2.51-3.29-3.74-4.95c-0.77-1.05-1.48-2.14-2.23-3.2c-0.36-0.51-1.11-1.05-0.36-1.63c0.73-0.56,1.18,0.27,1.54,0.75
	c0.82,1.08,1.56,2.22,2.34,3.34c0.72,1.05,1.45,2.09,2.17,3.14C78.84,153.09,78.98,153.02,79.12,152.95z"/>
<path d="M82.32,139.56c0.66,1.44,1.21,2.66,1.82,3.98c0.52-0.24,0.92-0.5,1.36-0.6c0.34-0.08,0.88-0.1,1.07,0.1
	c0.43,0.46,0.04,0.88-0.36,1.16c-0.43,0.3-0.9,0.54-1.54,0.92c0.58,1.35,1.15,2.66,1.78,4.12c0.63-0.47,1.01-0.87,1.47-1.06
	c0.3-0.13,0.73,0.04,1.1,0.07c-0.05,0.32-0.08,0.65-0.16,0.96c-0.02,0.09-0.17,0.15-0.25,0.24c-1.81,1.89-2.87,1.78-3.96-0.6
	c-1.28-2.79-2.44-5.65-3.59-8.5c-0.46-1.14-0.18-1.72,0.98-2.26c0.69-0.32,1.43-0.57,2.18-0.7c0.27-0.05,0.62,0.36,0.93,0.57
	c-0.19,0.26-0.33,0.63-0.59,0.76C83.92,139.04,83.24,139.23,82.32,139.56z"/>
<path d="M68.95,148.51c0.16-0.26,0.35-0.77,0.5-0.76c0.33,0.02,0.86,0.24,0.94,0.5c1.31,3.97,3.45,7.53,5.38,11.19
	c0.13,0.25,0.24,0.58,0.19,0.84c-0.05,0.24-0.29,0.51-0.51,0.62c-0.15,0.07-0.44-0.07-0.63-0.18c-0.14-0.08-0.24-0.26-0.32-0.41
	c-1.66-3.34-3.32-6.68-4.96-10.03C69.27,149.76,69.16,149.16,68.95,148.51z"/>
<path d="M99.07,101.17c-2.98,0.08-4.38-0.97-5.52-3.76c-1.18-2.87-0.46-5.18,1.67-7.22c0.47-0.45,0.94-0.9,1.44-1.32
	c0.72-0.6,1.58-0.79,2.5-0.65c3.33,0.52,5.95,3.05,6.62,6.36c0.59,2.89-0.88,5.35-3.74,6.12
	C101.08,100.97,100.07,101.02,99.07,101.17z M95.75,94.51c0.02,2.25,1.13,4.12,2.75,4.7c1.79,0.64,3.1-0.27,4.25-1.45
	c1.55-1.6,1.69-3.6,0.45-5.12c-1.43-1.75-3.73-2.24-5.56-1.15C96.46,92.18,95.62,93.11,95.75,94.51z"/>
</svg>
