<?xml version="1.0" encoding="utf-8"?>
<!-- Generator: Adobe Illustrator 28.2.0, SVG Export Plug-In . SVG Version: 6.00 Build 0)  -->
<svg version="1.1" id="Layer_1" xmlns="http://www.w3.org/2000/svg" xmlns:xlink="http://www.w3.org/1999/xlink" x="0px" y="0px"
	 viewBox="0 0 232.77 195" style="enable-background:new 0 0 232.77 195;" xml:space="preserve">
<path d="M189.42,104.76c-3.61-4.75-8.29-6.43-13.49-4.89c-0.62,0.18-1.24,0.42-1.82,0.71c-2.38,1.2-3.42,3.1-2.8,5.7
	c0.42,1.76,1.02,3.56,1.93,5.12c1.56,2.71,3.4,5.27,5.17,7.86c0.97,1.42,2.06,2.75,3.08,4.13c5.93,8.06,2.06,16.8-3.56,20.84
	c-3.93,2.82-8.39,4.1-13.15,4.3c-2.72,0.11-5.44-0.08-8.17-0.15c-0.7-0.02-1.41-0.09-2.29-0.14c0.12,0.54,0.19,0.97,0.3,1.39
	c0.48,1.89,1.12,3.76,1.39,5.68c0.21,1.43,0.08,2.96-0.15,4.4c-0.36,2.3-1.87,3.61-4.1,4.14c-2.07,0.5-4.13,0.31-6.16-0.17
	c-3.3-0.79-6.42-2.06-9.38-3.72c-1.79-1-3.24-2.38-4.31-4.14c-0.3-0.5-0.65-0.98-1.03-1.53c-3.04,0.17-6.05,0.33-9.06,0.5
	c-0.35,0.02-0.71,0.07-1.06,0.11c-1.51,0.15-3.15-0.02-4.5,0.52c-1.37,0.55-2.48,1.78-3.68,2.73c-0.65,0.52-1.27,1.07-1.87,1.64
	c-3.91,3.73-8.61,5.82-13.92,6.52c-1.99,0.27-4.01,0.43-6.01,0.36c-3.48-0.11-5.52-2.08-6.08-5.55c-0.44-2.73,0.01-5.33,1.23-7.77
	c1.81-3.62,4.09-6.94,6.85-9.9c1.94-2.09,4.41-3.37,7.06-4.32c0.88-0.31,1.3-0.72,1.02-1.79c-0.36,0.08-0.69,0.13-0.99,0.24
	c-5.61,2.01-11.41,3.15-17.31,3.76c-1.92,0.2-3.93,0.11-5.82-0.26c-3.3-0.64-5.01-3.41-4.52-6.76c0.34-2.31,1.46-4.24,2.92-5.99
	c3.54-4.24,7.86-7.36,13.21-8.9c2.72-0.78,5.48-1.39,8.36-2.11c-1.44-1.59-3.05-3.06-4.28-4.79c-1.22-1.72-2.05-3.71-3.19-5.83
	c-0.56,0-1.32,0.02-2.08,0c-3.88-0.13-7.09-1.68-9.62-4.63c-0.65-0.76-1.27-1.56-1.9-2.35c-1.8-2.24-2.28-4.79-1.66-7.53
	c0.28-1.26,0.64-2.57,1.28-3.67c3.14-5.34,7.61-9.01,13.73-10.42c1.19-0.27,2.47-0.21,3.7-0.28c0.58-0.03,1.15-0.01,1.8-0.01
	c0.19-0.95,0.38-1.81,0.54-2.67c0.5-2.62,1.62-4.94,3.32-6.98c2.63-3.17,5.62-5.92,9.12-8.11c0.5-0.31,0.99-0.63,1.69-1.07
	c-0.37-1.36-0.73-2.71-1.12-4.06c-0.11-0.4-0.33-0.76-0.46-1.15c-0.41-1.2-0.24-1.6,1.05-1.88c2.37-0.52,4.75-0.97,7.14-1.41
	c1.51-0.27,3.04-0.49,4.57-0.67c1.3-0.16,1.5,0.05,1.8,1.33c0.4,1.72,0.85,3.43,1.25,5c0.29,0.16,0.38,0.25,0.49,0.27
	c5.93,1.18,10.52,4.41,14.04,9.25c1.46,2.01,2.89,4.05,4.33,6.07c0.34,0.47,0.67,0.94,1.02,1.43c3.5-2.71,7.4-3.21,11.51-2.46
	c6.96,1.28,11.47,8.74,9.44,15.55c-0.67,2.25-1.58,4.4-3.6,5.76c-1.16,0.78-2.51,1.25-3.95,1.94c0.55,2.23,0.58,4.63,0.36,7.05
	c-0.41,4.39-2.4,7.88-5.85,10.55c-1.63,1.26-3.36,2.39-5.2,3.7c0.45,0.07,0.79,0.18,1.14,0.18c7.29,0,13.62,2.81,19.44,6.89
	c1.47,1.03,2.7,2.48,3.81,3.92c1.71,2.2,1.9,4.8,1.36,7.46c-0.46,2.26-1.79,3.92-3.96,4.65c-1.83,0.62-3.76,1.1-5.68,1.28
	c-4.02,0.38-8.05,0.16-12.03-0.56c-0.34-0.06-0.69-0.05-1.21-0.09c0.25,0.49,0.41,0.85,0.61,1.19c1.11,1.82,2.21,3.65,3.38,5.43
	c0.29,0.45,0.8,1.03,1.25,1.06c5.78,0.47,11.59,1.08,17.27-0.78c4.37-1.43,8.02-3.83,10.14-8.08c2.05-4.12,2.09-8.23-0.37-12.2
	c-1.03-1.66-2.28-3.17-3.38-4.78c-1.94-2.83-3.98-5.61-5.72-8.56c-0.98-1.65-1.65-3.56-2.11-5.43c-0.87-3.58,0.59-6.28,3.96-7.78
	c4.49-2,10.42-1.71,14.52,2.36c0.75,0.75,1.52,1.48,2.32,2.26c1.76-0.8,3.52-1.24,5.38-0.68c0.62,0.19,1.24,0.4,1.82,0.7
	c1.51,0.79,1.69,1.26,1.25,3.14c0.56,0.33,1.21,0.62,1.75,1.05c0.26,0.2,0.31,0.66,0.46,1c-0.36,0.09-0.78,0.33-1.06,0.23
	c-0.77-0.28-1.48-0.72-2.37-1.16c-0.4,0.48-0.8,0.96-1.31,1.56c0.47,0.26,0.8,0.46,1.14,0.64c0.45,0.23,0.94,0.54,0.58,1.05
	c-0.18,0.25-0.81,0.3-1.22,0.25c-0.45-0.05-0.88-0.32-1.29-0.48c-1.63,1.26-1.88,1.27-3.56,0.11c-0.53-0.37-1.06-0.77-1.52-1.22
	C189.29,108.41,188.19,106.84,189.42,104.76z M132.69,154.07c0.88,1.94,2.27,3.44,4.12,4.5c2.95,1.69,6.07,2.94,9.38,3.71
	c1.68,0.39,3.4,0.51,5.11,0.14c1.74-0.37,2.91-1.36,3.15-3.16c0.15-1.16,0.27-2.37,0.13-3.53c-0.44-3.69-1.67-7.14-3.6-10.32
	c-0.98-1.62-2.03-3.2-3.02-4.82c-0.27-0.44-0.54-0.94-0.61-1.44c-0.22-1.56,0.33-2.03,1.9-1.76c1.58,0.27,3.15,0.57,4.74,0.7
	c3.84,0.31,7.69,0.5,11.48-0.49c3.95-1.03,5.51-3.31,4.93-7.34c-0.14-0.97-0.46-2.02-1.03-2.79c-1.01-1.37-2.09-2.79-3.45-3.77
	c-6.2-4.49-13.04-7.18-20.86-6.81c-1.02,0.05-2.1-0.23-3.05,0.02c-3.03,0.81-6.01,1.8-9.01,2.72c-4.98,1.53-10.06,2.19-15.26,1.72
	c-1.06-0.1-2.13-0.1-3.19-0.16c-4.91-0.3-9.78-0.93-14.52-2.3c-0.55-0.16-1.17-0.21-1.74-0.13c-3.64,0.49-7.23,1.23-10.71,2.46
	c-4.66,1.64-8.42,4.53-11.52,8.32c-1.21,1.48-2.15,3.12-2.38,5.08c-0.31,2.68,0.95,4.52,3.56,5.08c0.92,0.2,1.89,0.34,2.82,0.28
	c2.18-0.14,4.37-0.32,6.53-0.68c4.74-0.77,9.44-1.71,13.89-3.6c1.64-0.7,1.98-0.49,2.01,1.27c0,0.24,0.01,0.47,0,0.71
	c-0.07,1.93-0.21,2.1-2.05,2.79c-2.52,0.93-4.89,2.14-6.74,4.16c-2.53,2.77-4.63,5.86-6.35,9.18c-1.12,2.16-1.5,4.48-1.2,6.9
	c0.36,2.87,1.87,4.39,4.78,4.5c1.76,0.07,3.55-0.09,5.31-0.32c3.93-0.51,7.66-1.67,10.85-4.09c2.44-1.85,4.75-3.88,7.26-5.96
	c-1.48-0.9-1.18-2.26-0.94-3.61c0.3-1.7,1.08-3.12,2.42-4.23c1-0.83,1.97-1.72,3.05-2.44c2.68-1.79,5.61-2.31,8.61-1.01
	c2.39,1.03,4.22,2.83,5.64,5c0.63,0.97,0.91,2.07,0.5,3.22C133.36,152.56,133.01,153.29,132.69,154.07z M156.07,92.13
	c2.02-0.08,3.65-0.85,4.82-2.38c1.75-2.29,2.64-4.93,2.31-7.82c-0.65-5.69-4.59-9.51-10.27-10.01c-2.45-0.21-4.86,0.12-7.07,1.28
	c-1.42,0.74-1.61,1.41-1.07,2.9c0.16,0.44,0.34,0.89,0.46,1.34c0.18,0.73,0.62,1.55-0.1,2.17c-0.84,0.71-1.53-0.09-2.23-0.45
	c-2.16-1.09-4.29-2.25-6.5-3.25c-0.93-0.42-2-0.52-3.23-0.81c0.08,0.93,0.12,1.56,0.19,2.2c0.27,2.6-0.41,4.92-1.93,7.03
	c-1.63,2.25-3.8,3.79-6.44,4.48c-5.34,1.4-10.58,0.95-15.59-1.4c-2.33-1.09-3.78-2.98-4.39-5.5c-0.09-0.36-0.27-0.71-0.42-1.12
	c-0.39,0.21-0.66,0.33-0.91,0.49c-2.36,1.48-4.68,3.03-6.5,5.19c-0.59,0.7-1.34,0.51-1.95,0.37c-0.35-0.08-0.63-0.76-0.79-1.22
	c-0.15-0.43-0.12-0.94-0.12-1.41c-0.01-1.53,0-3.06,0-4.63c-1.63-0.48-3.16-0.46-4.67-0.14c-5.86,1.26-10.12,4.72-13.1,9.8
	c-0.59,1-0.88,2.2-1.14,3.34c-0.52,2.26-0.08,4.35,1.39,6.19c0.63,0.79,1.27,1.56,1.9,2.35c1.45,1.84,3.39,2.94,5.57,3.64
	c1.51,0.48,3.08,0.67,4.63,0.31c0-0.64-0.03-1.17,0.01-1.7c0.04-0.49,0.2-1.04,0.81-0.91c0.27,0.06,0.62,0.55,0.65,0.87
	c0.18,2.68,1.25,5.05,2.59,7.29c2.22,3.73,5.37,6.43,9.67,7.44c6.67,1.56,13.47,1.95,20.29,1.91c1.41-0.01,2.86-0.14,4.23-0.49
	c4.58-1.18,9.17-2.37,13.68-3.78c3.29-1.03,6.26-2.77,9-4.91c5.49-4.28,7.45-11.35,4.9-17.83c-0.26-0.66-0.55-1.31-0.8-1.98
	c-0.18-0.48-0.23-1.03,0.37-1.16c0.26-0.06,0.73,0.28,0.92,0.56C155.55,90.91,155.77,91.53,156.07,92.13z M119.9,88.13
	c0.78-0.09,2.14-0.15,3.47-0.41c5.01-0.98,9.41-5.27,8.43-11.03c-0.28-1.68-0.25-1.82-1.95-1.77c-2.77,0.07-5.56,0.13-8.31,0.45
	c-4.83,0.57-9.55,1.63-13.95,3.81c-1.35,0.67-1.45,0.85-1.13,2.34c0.47,2.17,1.78,3.69,3.74,4.67
	C113.07,87.61,116.17,87.98,119.9,88.13z"/>
<path d="M121.43,115.08c-3-0.22-5.36-1.18-7.19-3.23c-1.85-2.08-2.03-4.59-0.42-6.84c2.03-2.82,4.77-4.35,8.33-4.17
	c0.41,0.02,0.83,0.09,1.24,0.05c2.87-0.25,4.83,1.21,6.4,3.4c0.89,1.24,1.12,2.62,0.67,4.05c-0.28,0.89-0.69,1.78-1.24,2.53
	C127.24,113.59,124.34,114.63,121.43,115.08z M123.09,102.88c-1.53-0.07-2.81,0.43-3.92,1.44c-3.42,3.12-3.06,5.54,1.1,7.81
	c2.42,1.33,5.36,0.19,6.61-2.29c0.31-0.63,0.65-1.24,0.97-1.86c0.99-1.93,0.24-3.85-1.83-4.5
	C125.07,103.18,124.06,103.07,123.09,102.88z M114.86,106.53c-1.1,1.79-0.66,3.59,0.98,4.53
	C115.53,109.63,115.19,108.07,114.86,106.53z"/>
<path d="M94.35,103.4c-1.76-0.03-3.14-0.35-3.99-1.84c-0.54-0.93-0.5-1.79,0.09-2.65c0.17-0.24,0.35-0.49,0.57-0.68
	c3.09-2.69,6.76-3.81,10.79-3.72c0.7,0.02,1.53,0.39,2.06,0.87c1.52,1.37,1.51,2.88,0.02,4.3c-0.76,0.72-1.67,1.32-2.6,1.82
	C99.06,102.68,96.66,103.28,94.35,103.4z"/>
<path d="M144.25,98.05c-1.71-0.25-3.18-0.41-4.62-0.69c-0.74-0.14-1.47-0.43-2.16-0.76c-0.94-0.45-1.79-1.12-1.68-2.27
	c0.12-1.17,0.8-2.12,1.94-2.54c0.71-0.26,1.51-0.49,2.24-0.43c2.22,0.19,4.45,0.44,6.64,0.86c1.36,0.26,2.47,1.04,2.98,2.49
	c0.52,1.5,0.19,2.43-1.38,2.81C146.85,97.85,145.42,97.9,144.25,98.05z"/>
</svg>
