<?xml version="1.0" encoding="utf-8"?>
<!-- Generator: Adobe Illustrator 28.2.0, SVG Export Plug-In . SVG Version: 6.00 Build 0)  -->
<svg version="1.1" id="Layer_1" xmlns="http://www.w3.org/2000/svg" xmlns:xlink="http://www.w3.org/1999/xlink" x="0px" y="0px"
	 viewBox="0 0 232.77 195" style="enable-background:new 0 0 232.77 195;" xml:space="preserve">
<path d="M191.69,112.1c-0.1-1.43-0.3-2.55-0.24-3.65c0.17-2.98,1.35-3.66,4.06-2.52c4.32,1.81,5.45,5.04,5.04,9.9
	c-0.09,1.02-0.87,1.5-1.79,1.73c-2.36,0.57-4.71,1.19-7.08,1.69c-8.53,1.79-17.2,2.66-25.84,3.62c-7.53,0.83-15.1,1.33-22.64,2.07
	c-1.3,0.13-2.53,0.85-3.82,1.17c-1.19,0.29-2.43,0.4-3.65,0.59c-0.99,0.15-1.98,0.29-2.97,0.43c-9.44,1.31-18.89,2.54-28.31,3.94
	c-4.8,0.72-9.54,1.78-14.32,2.63c-3.61,0.64-7.24,1.19-10.86,1.77c-1.29,0.21-2.29-0.22-3.08-1.29c-0.7-0.95-1.49-1.84-2.29-2.71
	c-1.62-1.78-1.76-3.84-1.03-5.98c0.87-2.56,4.06-3.55,6.5-1.99c0.97,0.62,1.73,1.57,2.77,2.54c15.36-2.65,31.25-3.48,46.7-7.12
	c0.56-2.25-0.26-4.14-1.19-6.28c-6.58-0.03-13.21-0.07-19.83-0.09c-2.78-0.01-5.57,0.06-8.35,0.01c-1.79-0.03-2.77-0.6-2.87-1.57
	c-0.14-1.38,0.91-2.05,1.92-2.48c1.57-0.65,3.21-1.27,4.88-1.55c5.25-0.89,10.52-1.72,15.8-2.39c2.93-0.37,5.9-0.4,8.85-0.58
	c-0.21-2.28-0.77-2.83-2.93-3.18c-0.74-0.12-1.53-0.37-2.12-0.8c-1.69-1.23-1.34-3.78,0.64-4.86c0.61-0.33,1.31-0.5,2.04-0.77
	c0.36-3.56,2.17-6.33,4.83-8.58c0.71-0.6,0.48-1.26,0.4-1.94c-0.21-1.72-0.14-1.87,1.52-2.42c0.67-0.22,1.36-0.45,2.05-0.56
	c0.94-0.16,1.29,0.13,1.41,1.1c0.08,0.64,0.08,1.28,0.13,2.04c4.4,0.36,7.13,2.54,7.83,7.13c1.85-1.46,3.87-1.63,5.94-1.32
	c2.17,0.32,3.28,1.71,3.16,3.8c-0.09,1.52-0.81,2.57-2.29,3.03c-0.56,0.17-1.14,0.29-1.86,0.47c0.08,0.41,0.15,0.83,0.22,1.21
	c0.23,0.03,0.35,0.08,0.44,0.06c5.73-1.72,11.51-3.25,17.42-4.22c0.93-0.15,1.89-0.21,2.83-0.17c1.67,0.07,2.18,1.02,1.39,2.51
	c-0.76,1.44-1.88,2.59-3.28,3.43c-3.51,2.1-7.07,4.1-10.94,5.47c-2.23,0.79-4.44,1.64-6.7,2.36c-1.03,0.32-1.45,0.9-1.47,1.92
	c-0.02,1.13-0.01,2.25-0.11,3.37c-0.06,0.63-0.26,1.26-0.5,1.85c-0.06,0.15-0.51,0.24-0.76,0.2c-0.16-0.02-0.39-0.34-0.38-0.52
	c0.15-2.12,0.28-4.25,0.53-6.36c0.12-0.98,0.92-1.43,1.82-1.74c2.41-0.82,4.81-1.67,7.2-2.53c3.7-1.32,7.1-3.25,10.46-5.25
	c1.18-0.71,2.15-1.63,2.81-2.99c-0.73-0.46-1.45-0.31-2.09-0.17c-4.39,0.96-8.77,1.96-13.16,2.96c-0.81,0.18-1.59,0.5-2.4,0.65
	c-1.8,0.33-3.04,1.5-4.35,2.64c-0.88,0.76-1.89,1.46-2.95,1.91c-4.68,2.01-9.52,2.75-14.58,1.71c-0.83-0.17-1.75,0.06-2.62,0.08
	c-8.44,0.16-16.72,1.69-25.01,3.1c-2.29,0.39-3.01,0.8-4.34,1.99c0.39,0.58,1.02,0.49,1.55,0.5c2.55,0.01,5.09-0.04,7.64-0.02
	c6.04,0.05,12.08,0.13,18.12,0.18c0.53,0,1.06-0.01,1.58-0.11c1.29-0.23,1.5-0.18,1.98,1.08c0.75,1.99,1.73,3.93,1.27,6.15
	c0.44,0.23,0.81,0.33,1.03,0.57c0.21,0.23,0.41,0.65,0.33,0.89c-0.08,0.24-0.51,0.44-0.81,0.49c-2.39,0.4-4.78,0.77-7.17,1.13
	c-7.67,1.15-15.33,2.31-23.01,3.44c-6.09,0.89-12.19,1.73-18.28,2.62c-1.43,0.21-1.42,0.26-2.18-1.04c-0.95-1.62-2.37-2.41-3.93-2.2
	c-1.1,0.15-1.9,0.71-2.2,1.79c-0.43,1.55-0.42,3.04,0.77,4.33c0.76,0.83,1.54,1.66,2.18,2.57c0.6,0.86,1.33,1.09,2.29,0.93
	c3.27-0.53,6.59-0.87,9.81-1.59c6.48-1.45,12.99-2.6,19.6-3.31c5-0.53,9.97-1.4,14.94-2.14c2.97-0.44,5.94-0.92,8.9-1.37
	c0.5-2.24,3.15-4.62,5.44-4.93c1.52-0.2,2.9,0.19,3.85,1.37c0.98,1.21,2.14,1.47,3.6,1.33c6.07-0.58,12.16-1,18.22-1.67
	c7.18-0.79,14.36-1.64,21.5-2.72c4.2-0.63,8.34-1.74,12.5-2.62c0.94-0.2,1.49-0.65,1.36-1.7c-0.12-0.94-0.1-1.9-0.31-2.81
	c-0.64-2.8-2.4-4.33-5.49-4.81c-0.5,0.83-0.53,1.76-0.42,2.7c0.08,0.64,0.25,1.28,0.39,1.91c0.3,1.4-0.01,1.82-1.46,1.95
	c-0.24,0.02-0.47,0.01-0.71,0.02c-4.55,0.3-9.1,0.57-13.64,0.9c-6.31,0.47-12.59,1.36-18.95,1.35c-2.99,0-5.99,0.54-8.98,0.87
	c-0.54,0.06-1.07,0.02-1.09-0.54c-0.01-0.33,0.42-0.87,0.76-0.97c0.79-0.23,1.63-0.29,2.45-0.33c5.49-0.31,11-0.51,16.48-0.92
	c5.25-0.39,10.49-1.02,15.74-1.5c1.88-0.17,3.78-0.23,5.67-0.32C190.26,112.08,190.9,112.1,191.69,112.1z M139.19,92.1
	c-3.9-0.13-7.3,0.84-10.06,3.39c-0.99,0.92-1.83,1.14-2.95,0.76c-0.75-0.25-1.47-0.19-1.99,0.33c-0.37,0.37-0.7,1.01-0.67,1.5
	c0.03,0.39,0.59,0.92,1.01,1.05c1.11,0.34,2.24,0.63,3.36-0.22c0.64-0.48,1.47-0.75,2.25-0.99c0.67-0.21,1.31-0.06,1.62,0.7
	c0.28,0.71-0.16,1.13-0.66,1.47c-0.66,0.46-1.36,0.88-2.08,1.33c0.38,1.25,0.74,2.45,2.16,2.62c1.73,0.21,3.47,0.26,5.34,0.39
	c-1.1-2.43-1.1-3.29-0.09-4.29c1.03-1.03,2.96-1.34,4.31-0.7c1.24,0.58,1.59,1.45,1.4,3.42c3.13-0.3,5.83-2.3,4.98-4.8
	c-0.78,0-1.6,0.03-2.42-0.01c-0.59-0.03-1.26-0.12-1.33-0.9c-0.07-0.76,0.57-1.02,1.14-1.14c0.86-0.18,1.77-0.41,2.62-0.3
	c1.06,0.14,1.98-0.13,2.92-0.46c1.05-0.37,1.44-0.97,1.41-1.99c-0.03-1.07-0.53-1.83-1.7-1.93c-1.27-0.11-2.56,0.1-3.84,0.23
	c-0.56,0.06-1.1,0.27-1.75,0.43c-0.59,1.26-0.59,1.25-1.95,0.68c-0.42-0.18-0.87-0.27-1.3-0.41c-0.37,0.93-0.67,1.76-1.04,2.55
	c-1.4,3.04-5.71,3.14-7.81,0.76c-0.15-0.17-0.33-0.39-0.35-0.6c-0.03-0.26,0.01-0.64,0.18-0.79c0.16-0.14,0.56-0.14,0.79-0.04
	c0.25,0.11,0.42,0.4,0.64,0.6c1.11,0.97,2.38,1.34,3.78,0.76C138.54,94.94,138.93,93.67,139.19,92.1z M138.89,103.38
	c0.64-0.51,1.25-0.91,1.72-1.44c0.12-0.13-0.12-0.84-0.37-1c-0.74-0.45-1.5-0.16-2.1,0.34c-0.31,0.26-0.68,0.89-0.57,1.14
	C137.74,102.8,138.32,102.99,138.89,103.38z"/>
</svg>
