<?xml version="1.0" encoding="utf-8"?>
<!-- Generator: Adobe Illustrator 28.2.0, SVG Export Plug-In . SVG Version: 6.00 Build 0)  -->
<svg version="1.1" id="Layer_1" xmlns="http://www.w3.org/2000/svg" xmlns:xlink="http://www.w3.org/1999/xlink" x="0px" y="0px"
	 viewBox="0 0 232.77 195" style="enable-background:new 0 0 232.77 195;" xml:space="preserve">
<path d="M123.51,79.72c-0.37-2.56-0.02-3.1,2.21-3.49c1.59-0.28,2.22,0.41,2.84,3.24c2.29,0.55,3.57,2.39,4.67,4.43
	c0.6-0.17,1.1-0.37,1.61-0.45c0.64-0.11,1.3-0.23,1.93-0.16c1.57,0.17,2.86,0.86,3.39,2.46c0.52,1.61-0.17,2.9-1.31,3.98
	c-0.85,0.81-1.78,1.54-2.73,2.35c0.88,1.18,0.39,2.36-0.02,3.67c2.38,0.3,3.89,1.85,5.42,3.41c0.9,0.92,1.9,1.75,2.85,2.61
	c0.26-0.2,0.42-0.28,0.53-0.4c2.49-2.58,4.12-2.8,7.19-0.99c2.37,1.4,4.7,0.26,4.85-2.41c0.02-0.42-0.16-0.91-0.39-1.28
	c-0.64-0.98-0.65-2.04-0.36-3.07c0.12-0.44,0.61-1.08,0.95-1.09c0.89-0.03,1.24-0.54,1.6-1.17c0.09-0.15,0.19-0.3,0.29-0.44
	c0.33-0.44,0.7-0.93,1.3-0.52c0.52,0.35,0.22,0.84-0.02,1.26c-0.23,0.41-0.45,0.81-0.5,1.49c0.3-0.14,0.7-0.19,0.86-0.42
	c0.41-0.58,0.69-1.24,1.05-1.85c0.25-0.44,0.64-0.84,1.12-0.46c0.21,0.17,0.26,0.74,0.16,1.07c-0.16,0.56-0.5,1.07-0.81,1.69
	c0.31,0.3,0.63,0.6,1.01,0.96c-0.85,2.06-2.44,3.11-4.58,3.53c-0.13,0.55-0.24,1.06-0.38,1.57c-0.75,2.7-3.65,4.03-6.22,2.83
	c-0.37-0.17-0.71-0.42-1.07-0.63c-2.15-1.3-3.79-0.83-5.12,1.46c1.91,3.55,1.87,3.7-1.37,5.18c0.17,0.91,0.33,1.83,0.5,2.76
	c0.29,1.55,0.15,3.06-0.34,4.55c-0.87,2.59-3.5,3.53-5.82,2.06c-0.44-0.28-0.83-0.64-1.26-0.99c-0.31,1.6,1.22,10.66,2.1,12.27
	c0.53-0.08,1.1-0.2,1.67-0.25c0.59-0.05,1.19-0.11,1.76-0.02c2.33,0.36,3.06,2.09,1.65,3.96c-1.45,1.93-3.26,3.43-5.55,4.28
	c-0.83,0.31-1.66,0.63-2.5,0.91c-1.31,0.44-1.92,0.22-2.25-1.13c-0.44-1.77-0.85-3.59-0.94-5.4c-0.22-4.4-1.04-8.69-2.12-12.94
	c-0.04-0.16-0.15-0.31-0.28-0.55c-0.61,0.19-1.21,0.38-1.9,0.6c0,0.45-0.01,0.85,0,1.26c0.11,5.45,0.24,10.89,0.33,16.34
	c0.03,1.89-0.12,2.11-1.93,2.62c-2.33,0.66-4.68,1.28-7.04,1.82c-0.85,0.2-1.77,0.22-2.65,0.14c-1.73-0.15-2.47-1.43-1.8-3.04
	c0.55-1.32,1.59-2.19,2.86-2.79c0.64-0.3,1.31-0.55,1.98-0.78c0.67-0.22,1.35-0.39,2.27-0.64c-0.17-1.87-0.25-3.76-0.54-5.61
	c-0.46-3.01-0.51-6.01-0.36-9.03c0.04-0.85-0.12-1.81-0.5-2.55c-0.9-1.74-1.37-3.52-1.2-5.47c0.02-0.22-0.05-0.44-0.1-0.92
	c-0.45,0.46-0.77,0.77-1.07,1.08c-1.31,1.37-2.54,2.82-3.96,4.07c-0.76,0.67-1.79,1.21-2.78,1.41c-1.77,0.37-2.86-0.82-2.52-2.61
	c0.17-0.92,0.48-1.84,0.87-2.69c0.76-1.67,1.65-3.28,2.42-4.95c0.69-1.5,1.4-3.01,1.9-4.58c0.46-1.44,1.11-2.61,2.75-3.11
	c-0.42-0.96-0.81-1.85-1.22-2.78c-0.52,0.06-0.98,0.15-1.44,0.17c-3.08,0.12-5.27-3.04-4.11-5.88c0.95-2.3,3.48-3.84,5.96-3.62
	c0.4,0.04,0.8,0.08,1.36,0.14C119.08,83.07,121.28,81.34,123.51,79.72z M111.49,114.48c1.43,0.29,2.24-0.14,2.95-0.8
	c2.5-2.36,4.88-4.82,6.68-7.78c0.31-0.52,0.66-0.88,1.28-0.55c0.58,0.31,0.52,0.75,0.34,1.35c-0.93,3.22-1.1,6.39,0.92,9.35
	c0.24,0.35,0.38,0.87,0.33,1.28c-0.35,3.08-0.35,6.13,0.09,9.21c0.3,2.05,0.44,4.12,0.59,6.19c0.12,1.57-0.04,1.62-1.52,2.02
	c-1.36,0.36-2.72,0.81-4,1.4c-0.96,0.44-1.69,1.23-1.75,2.63c3.85,0.48,7.11-1.17,10.53-2.04c0.06-0.37,0.14-0.59,0.14-0.82
	c-0.12-5.68-0.23-11.37-0.39-17.05c-0.01-0.46-0.34-0.96-0.64-1.34c-0.79-0.99-0.85-1.42-0.15-2.34c1.02-1.33,3.07-1.97,4.64-1.46
	c1.08,0.35,1.59,1.25,1.41,2.32c-0.09,0.56-0.17,1.15-0.06,1.7c0.39,1.97,0.99,3.91,1.28,5.9c0.43,3.05,0.65,6.12,1,9.18
	c0.13,1.15,0.21,2.33,0.92,3.34c3.39-0.91,6.3-2.35,8-5.61c-1.32-1.03-2.53-0.64-3.71-0.32c-1.68,0.46-1.76,0.51-2.3-1.15
	c-0.5-1.57-0.89-3.18-1.18-4.8c-0.4-2.21-0.6-4.46-1-6.67c-0.28-1.51-0.65-2.9,0.22-4.41c0.4-0.69,0.34-1.73,0.27-2.6
	c-0.14-1.99-0.91-3.78-2.09-5.4c-0.21-0.29-0.49-0.54-0.61-0.86c-0.09-0.23-0.06-0.58,0.05-0.8c0.08-0.15,0.43-0.26,0.62-0.21
	c0.67,0.18,1.43,0.3,1.95,0.7c2.07,1.63,4.56,1.86,7,2.29c0.8,0.14,1.65,0.16,2.39-0.72c-0.32-0.48-0.55-1.06-0.97-1.4
	c-3.08-2.49-5.26-6.14-9.01-7.22c-2.42,1.15-4.52,2.46-6.81,3.15c-2.8,0.84-5.71,0.77-8.55-0.31c-1.75-0.67-2.77-0.04-3.43,1.66
	c-0.77,1.98-1.65,3.92-2.52,5.86c-0.71,1.56-1.53,3.08-2.21,4.65C111.86,112.7,111.75,113.52,111.49,114.48z M126.98,98.83
	c-0.64-0.23-1.15-0.35-1.59-0.57c-0.89-0.46-1.22-1.27-0.97-2.23c0.47-1.77,2.44-3.02,4.21-2.68c2.35,0.46,3.21,1.6,2.94,3.9
	c2.38-0.68,3.72-2.16,3.67-4.8c-0.38-0.06-0.79-0.09-1.18-0.19c-0.65-0.17-1.28-0.42-1.36-1.21c-0.08-0.78,0.45-1.26,1.08-1.44
	c0.83-0.23,1.72-0.39,2.58-0.36c1.09,0.04,1.59-0.66,2.09-1.38c0.43-0.62,0.54-1.35,0.11-2.01c-0.71-1.09-1.82-1.19-2.99-1.05
	c-1.02,0.12-1.54,0.53-1.56,1.7c-0.02,1.09-0.73,1.27-1.74,0.64c-0.62-0.38-1.28-0.72-1.95-1.09c-0.4,0.74-0.66,1.27-0.96,1.77
	c-0.88,1.45-2.18,2.3-3.85,2.59c-1.45,0.25-2.55-0.26-3.28-1.54c-0.28-0.49-0.51-1-0.86-1.69c-0.7,0.63-1.26,1.13-1.82,1.63
	c-0.76,0.69-1.13,0.55-1.35-0.51c-0.03-0.16-0.04-0.33-0.05-0.47c-2.25-0.71-4.47,0.2-5.31,2.26c-0.23,0.56-0.3,1.3-0.14,1.87
	c0.63,2.25,3.22,2.8,4.86,1.09c0.79-0.83,1.65-1.54,2.83-1.7c0.74-0.1,1.46,0,1.85,0.73c0.4,0.75,0.05,1.4-0.52,1.89
	c-0.44,0.38-0.97,0.67-1.49,0.94c-0.45,0.23-0.96,0.37-1.41,0.55C119.11,98.3,122.73,99.76,126.98,98.83z M137.28,114.41
	c0.78,0.57,1.38,0.97,1.94,1.44c1.67,1.39,3.53,0.9,4.06-1.18c0.27-1.06,0.32-2.21,0.27-3.31c-0.05-1.16-0.33-2.3-0.51-3.45
	c-2.03-0.5-4.04-1-6.28-1.55C137.9,109.17,138.45,111.79,137.28,114.41z M123.13,86.69c0.52,2.31,1.55,2.81,3.4,1.84
	c1.03-0.54,1.65-1.39,2.07-2.74C126.61,85.82,124.9,86.04,123.13,86.69z M125.89,96.9c1.68,0.38,3.02,0.11,4.3-0.94
	c-0.71-1.06-1.65-1.3-2.67-1.08C126.6,95.09,126,95.7,125.89,96.9z"/>
</svg>
