<?xml version="1.0" encoding="utf-8"?>
<!-- Generator: Adobe Illustrator 28.2.0, SVG Export Plug-In . SVG Version: 6.00 Build 0)  -->
<svg version="1.1" id="Layer_1" xmlns="http://www.w3.org/2000/svg" xmlns:xlink="http://www.w3.org/1999/xlink" x="0px" y="0px"
	 viewBox="0 0 232.77 195" style="enable-background:new 0 0 232.77 195;" xml:space="preserve">
<path d="M149.8,75.47c2.79-1.15,5.62-1.69,8.52-1.91c0.59-0.05,1.18-0.09,1.77-0.06c3.15,0.17,4.65,1.38,5.35,4.44
	c0.29,1.26,0.37,2.57,0.5,3.87c0.17,1.83-0.7,3.08-2.33,3.8c-1.19,0.52-2.42,0.93-3.77,1.43c-0.23,2.85-0.05,5.9-2.29,8.38
	c0.35,0.29,0.59,0.5,0.9,0.76c1.66-2.16,3.97-3.28,6.32-4.15c3.04-1.12,6.21-1.91,9.33-2.82c0.45-0.13,0.94-0.11,1.41-0.19
	c4.66-0.83,7.56,3.9,7.37,7.15c-0.07,1.16-0.37,2.23-1.15,3.11c-0.67,0.75-1.35,1.52-2.14,2.13c-3.49,2.69-7.22,4.96-11.42,6.38
	c-0.49,0.17-1.01,0.24-1.49,0.35c0,1.64,0.01,3.23,0,4.82c-0.01,2.32-0.36,4.51-2.61,6.17c0.81,0.74,1.41,1.48,2.17,1.97
	c2.99,1.91,5.53,4.26,7.42,7.28c0.34,0.55,0.81,1.02,1.2,1.54c0.75,1,0.77,1.36-0.06,2.35c-0.95,1.13-1.96,2.2-3.14,3.5
	c0.61,0.08,0.98,0.19,1.34,0.16c2.83-0.26,5.65-0.55,8.48-0.82c0.82-0.08,1.65-0.17,2.48-0.15c1.06,0.03,1.49,0.37,1.42,1.38
	c-0.21,3.41,0.53,6.72,1.01,10.05c0.09,0.64,0.12,1.31,0.01,1.95c-0.05,0.32-0.45,0.59-0.69,0.88c-0.24-0.28-0.68-0.55-0.68-0.84
	c-0.07-3.8-1.46-7.46-1.12-11.29c0.01-0.11-0.06-0.22-0.14-0.51c-0.38-0.03-0.83-0.12-1.27-0.09c-3.77,0.33-7.54,0.71-11.32,1.03
	c-1.03,0.09-1.93,0.35-2.8,0.94c-1.38,0.94-2.9,1.57-4.58,1.83c-2.74,0.42-5.24,0.22-6.72-2.19c-1.27,0-2.33-0.01-3.38,0
	c-8.83,0.06-17.65,0.12-26.48,0.19c-0.47,0-0.94,0.06-1.42,0.07c-0.65,0.01-1.31,0-2.39,0c-0.43,0.23-1.27,0.68-2.12,1.09
	c-0.43,0.2-1.01,0.43-1.19-0.19c-0.09-0.3,0.24-0.92,0.55-1.1c2.11-1.21,4.27-2.31,6.39-3.49c2.22-1.23,4.41-2.52,6.65-3.81
	c-1.09-2.27-0.17-3.94,1.17-5.44c1.49-1.66,3.43-2.55,5.66-2.61c2.93-0.07,5.6,0.83,8.02,2.47c1.13,0.77,1.9,1.84,1.94,3.23
	c0.03,1,0.51,1.7,1.14,2.32c1.1,1.08,2.29,2.06,3.41,3.11c1.08,1.01,2.28,1.94,3.13,3.13c1.12,1.57,2.55,1.96,4.31,1.88
	c2.41-0.12,4.54-1.03,6.3-2.57c1.81-1.58,3.39-3.43,5.03-5.11c-2.28-3.8-4.93-6.92-8.61-9.07c-1.04-0.6-1.92-1.38-2.07-2.9
	c-1.4,0.54-2.61,0.99-3.8,1.47c-0.82,0.33-1.63,0.71-2.46,1.02c-0.38,0.14-0.82,0.26-1.2,0.2c-0.28-0.04-0.67-0.35-0.71-0.6
	c-0.04-0.21,0.28-0.64,0.53-0.74c2.25-0.9,4.49-1.85,6.8-2.57c1.81-0.56,2.63-1.73,2.82-3.45c0.47-4.15-0.17-8.15-1.74-12.01
	c-0.67-1.64-1.89-2.86-3.37-3.79c-1.05-0.66-2.12-1.28-3.17-1.91c-1.16,0.91-2.19,1.89-3.37,2.61c-2.56,1.57-5.43,2.33-8.36,2.83
	c-4.96,0.84-9.93,1.05-14.76-0.58c-2.23-0.75-4.32-1.91-6.43-2.97c-1.61-0.81-2.2-0.8-3.34,0.62c-2.09,2.61-3.25,5.63-3.67,8.92
	c-0.23,1.82-0.36,3.66-0.5,5.49c-0.21,2.85,0.68,4.3,3.34,5.35c0.88,0.35,1.84,0.47,2.71,0.83c1.03,0.43,2.01,0.97,2.97,1.54
	c0.18,0.11,0.28,0.72,0.15,0.91c-0.13,0.19-0.66,0.29-0.92,0.19c-2.31-0.89-4.59-1.83-6.71-2.68c-3.01,1.98-5.88,3.85-8.71,5.76
	c-0.83,0.56-1.62,1.21-2.34,1.9c-0.84,0.8-1.34,1.79-1.08,3.26c0.69-0.15,1.35-0.3,2.01-0.43c4.42-0.9,8.99,1.1,11.3,4.95
	c0.12,0.2,0.24,0.41,0.34,0.62c0.82,1.78,0.15,2.86-1.81,2.61c-1.56-0.2-3.05-0.07-4.57,0.11c-1.37,0.16-2.76,0.71-4.1-0.27
	c-0.31-0.23-0.92-0.1-1.4-0.07c-3.19,0.17-6.38,0.34-9.58,0.54c-1.68,0.1-1.93,0.36-2.03,2.02c-0.02,0.41,0.02,0.83,0.06,1.24
	c0.43,4.06,0.86,8.13,1.28,12.19c0.05,0.52,0.05,1.06-0.01,1.58c-0.02,0.18-0.29,0.46-0.44,0.46c-0.25-0.01-0.6-0.15-0.71-0.35
	c-0.17-0.29-0.21-0.67-0.24-1.02c-0.47-4.36-0.94-8.72-1.4-13.07c-0.04-0.35-0.04-0.71-0.03-1.07c0.11-2.62,0.81-3.36,3.4-3.48
	c1.95-0.09,3.91-0.09,5.86-0.19c1.95-0.1,3.89-0.29,5.98-0.46c-0.98-0.67-1.96-1.25-2.85-1.96c-0.91-0.73-1.74-1.57-2.72-2.47
	c0.03-0.24,0.16-0.66,0.1-1.04c-0.43-2.56,0.76-4.38,2.69-5.78c2.06-1.49,4.23-2.83,6.36-4.23c1.08-0.71,2.2-1.36,3.05-2.51
	c-1.6-1.73-1.71-3.75-1.4-5.87c0.09-0.58,0.11-1.18,0.14-1.77c0.22-4.21,1.18-8.2,3.5-11.69c-0.09-0.21-0.1-0.37-0.18-0.41
	c-3.88-1.77-7.76-3.6-12.03-4.16c-1.79-0.24-3.66-0.06-5.47,0.15c-1.8,0.21-3.01,1.25-3.36,3.15c-0.3,1.63-0.71,3.24-1.05,4.86
	c-0.24,1.15,0.16,2.06,1.02,2.85c1.55,1.42,3.24,2.63,5.22,3.3c2.63,0.9,5.31,1.65,7.97,2.45c0.57,0.17,1.16,0.26,1.72,0.43
	c0.56,0.16,1.31,0.29,1.08,1.09c-0.19,0.68-0.86,0.47-1.37,0.34c-1.95-0.48-3.93-0.9-5.85-1.48c-1.75-0.53-3.53-1.09-5.14-1.94
	c-1.71-0.91-3.27-2.12-4.8-3.31c-1.21-0.94-1.66-2.29-1.34-3.82c0.41-1.97,0.81-3.94,1.33-5.89c0.55-2.07,2.14-3.05,4.11-3.48
	c2.89-0.63,5.8-0.62,8.61,0.3c3.26,1.07,6.45,2.34,9.64,3.6c0.84,0.33,1.46,0.45,1.93-0.58c-1.76-1.31-2.62-3.12-2.51-5.37
	c-1.44-0.43-2.75-0.82-4.04-1.21c-4.48-1.37-5.97-6-3.04-9.71c1.93-2.45,4.42-3.91,7.66-3.75c0.34,0.02,0.69,0,1.2,0
	c0.04-2.1,1.38-3.36,2.62-4.73c2.18-2.4,4.75-4.26,7.72-5.76c-0.16-1.51-0.33-3.02-0.49-4.53c-0.12-1.17,0.08-1.64,1.21-1.73
	c2.41-0.19,4.84-0.25,7.27-0.24c0.36,0,0.91,0.57,1.03,0.98c0.25,0.84,0.28,1.75,0.39,2.63c0.09,0.7,0.17,1.41,0.28,2.3
	C144.72,67.39,147.49,71.16,149.8,75.47z M119.71,88.61c0.45-0.26,0.74-0.43,1.03-0.6c1.69-0.98,3.53-1.31,5.47-1.21
	c0.76,0.04,1.18,0.5,1.35,1.2c0.17,0.69-0.2,1.16-0.78,1.43c-0.8,0.37-1.61,0.79-2.46,0.96c-1.49,0.3-3.01,0.44-4.62,0.66
	c-0.28,1.75,0.01,3.42,1.63,4.47c2.98,1.93,6,3.82,9.43,4.88c4.58,1.42,9.22,1.32,13.89,0.53c2.82-0.48,5.57-1.18,8.04-2.67
	c1.15-0.69,2.41-1.33,2.62-2.91c0.03-0.19,0.24-0.42,0.42-0.53c1.64-0.9,2.1-2.49,2.33-4.14c0.19-1.35,0.25-2.72,0.27-4.08
	c0.02-1.66,0.07-3.34-1.41-4.57c-0.16-0.14-0.18-0.75-0.03-0.89c0.19-0.18,0.78-0.24,0.92-0.09c0.59,0.63,1.18,1.3,1.57,2.05
	c0.32,0.6,0.36,1.35,0.59,2.3c1.12-0.43,2.16-0.78,3.16-1.22c0.96-0.43,1.44-1.22,1.33-2.29c-0.11-1.12-0.18-2.25-0.41-3.34
	c-0.56-2.72-1.63-3.57-4.44-3.55c-2.56,0.02-5.07,0.42-7.51,1.21c-0.6,0.19-1.15,0.51-1.68,0.74c0.16,1.24,0.35,2.29,0.41,3.35
	c0.05,0.74,0.23,1.65-0.64,2.06c-0.78,0.37-1.3-0.32-1.86-0.72c-0.65-0.46-1.3-0.92-2.03-1.43c-1.1,2.03-2.57,3.34-4.45,4.22
	c-3.14,1.47-6.35,1.23-9.55,0.36c-2.25-0.61-3.91-1.94-4.52-4.32c-0.04-0.14-0.21-0.25-0.33-0.38c-2.25,0.61-3.86,2.06-5.27,3.77
	c-0.26,0.31-0.44,0.75-0.77,0.94C119.96,85.63,119.88,87.03,119.71,88.61z M149.33,80.2c-0.14-0.95-0.17-1.71-0.38-2.41
	c-1-3.4-3-6.17-5.65-8.45c-1.08-0.93-2.27-1.95-3.96-1.57c-0.17,0.04-0.4-0.2-0.61-0.29c-0.57-0.25-1.15-0.69-1.71-0.68
	c-1.47,0.04-2.97,0.12-4.38,0.48c-4.51,1.17-7.73,4.21-10.59,7.7c-0.38,0.46-0.75,1.29-0.59,1.78c0.41,1.25-0.12,2.26-0.44,3.34
	c-0.13,0.43-0.17,0.89-0.23,1.25c0.75,0.68,1.18,0.14,1.67-0.16c1.31-0.8,2.57-1.71,3.96-2.35c2.99-1.37,6.2-1.92,9.45-2.29
	c4.63-0.52,8.82,0.51,12.58,3.26C148.64,79.95,148.87,80,149.33,80.2z M166.15,107.01c0.79-0.32,1.27-0.54,1.78-0.71
	c3.35-1.11,6.34-2.93,9.22-4.91c1.16-0.8,2.24-1.76,3.19-2.81c0.52-0.57,0.88-1.43,1-2.2c0.4-2.66-1.99-6.6-5.8-5.9
	c-4.98,0.92-9.81,2.24-14.14,4.99c-0.56,0.36-1.01,0.89-1.67,1.49C163.93,99.1,165.45,102.75,166.15,107.01z M155.63,136.62
	c-2.45-2.33-4.57-4.35-6.95-6.6c0.17,0.01-0.06-0.04-0.29-0.02c-4.06,0.33-8.12,0.66-12.17,1.04c-0.48,0.05-0.96,0.38-1.4,0.65
	c-2.22,1.35-4.42,2.72-6.63,4.09c-0.37,0.23-0.74,0.45-1.38,0.84C136.53,136.62,145.89,136.62,155.63,136.62z M144.94,79.4
	c-1.09-0.4-1.99-0.85-2.94-1.06c-4.03-0.89-7.97-0.2-11.89,0.76c-0.84,0.21-0.95,0.78-0.71,1.5c0.48,1.41,1.58,2.21,2.9,2.64
	c2.39,0.79,4.86,1.06,7.32,0.42C141.85,83.08,143.76,81.97,144.94,79.4z M119.76,78.68c-1.42-0.51-2.58-0.32-3.7,0.05
	c-3.19,1.07-5.12,3.75-4.9,6.76c0.09,1.19,0.53,2.2,1.62,2.77c1.62,0.84,3.4,1.14,5.02,1.63c0.45-1.72,0.85-3.25,1.24-4.77
	c0.05-0.21,0.11-0.49,0.03-0.67c-0.53-1.19-0.12-2.31,0.18-3.45C119.44,80.27,119.58,79.53,119.76,78.68z M118.22,137.24
	c-1.95-4.62-7.58-6.83-11.65-4.66C109.78,135.79,113.75,136.74,118.22,137.24z M131.42,61.53c-0.09,2.78-0.07,2.93,0.52,4.14
	c2.06-0.18,4.1-0.36,6.33-0.56c-0.13-1.21-0.26-2.44-0.38-3.58C135.58,61.53,133.54,61.53,131.42,61.53z"/>
<path d="M189.42,107.93c3.03-2.4,6.28-2.72,9.82-1.41c2.92-2.23,5.94-1.59,8.94-0.07c0.67,0.34,1.29,0.85,1.82,1.39
	c1.84,1.92,1.63,4.36-0.5,5.98c-1.32,1.01-2.87,1.39-4.48,1.48c-1.47,0.08-2.95,0.02-4.54,0.02c-0.21,0.58-0.4,1.12-0.61,1.65
	c-0.52,1.32-1.47,2.12-2.88,2.34c-2.23,0.35-4.21-0.2-5.97-1.74c-1.72,0.97-3.49,1.74-5.49,1.77c-1.5,0.02-2.96-0.13-4.29-0.86
	c-2.11-1.15-2.52-3.17-1.04-5.05c0.83-1.05,1.91-1.78,3.2-2.11c0.93-0.24,1.47-0.69,1.89-1.6
	C186.16,107.87,187.31,107.44,189.42,107.93z M184.35,112.6c-1.2,0.24-2.17,0.77-2.91,1.66c-0.99,1.18-0.83,2.2,0.52,2.89
	c0.67,0.34,1.44,0.55,2.19,0.65c2,0.26,3.87-0.2,5.6-1.25c1.48-0.89,1.48-0.86,2.79,0.27c1.32,1.14,2.9,1.31,4.51,0.94
	c1.41-0.33,1.61-1.61,1.77-2.79c0.13-0.92,0.64-1.15,1.47-1.12c1.42,0.04,2.84,0.08,4.26,0.02c1.43-0.06,2.84-0.31,4.02-1.2
	c1.42-1.06,1.61-2.57,0.35-3.8c-1.95-1.9-4.34-2.57-7.02-2.08c-0.8,0.15-1.41,0.54-1.36,1.56c0.02,0.32-0.29,0.85-0.55,0.92
	c-0.26,0.07-0.75-0.23-0.96-0.51c-1.69-2.21-6.96-1.95-8.4,0.44c-0.03,0.05-0.04,0.11-0.07,0.16c-0.62,1.06-0.62,1.07-1.7,0.33
	c-0.98-0.68-1.3-0.64-2.03,0.3c-0.17,0.22-0.25,0.51-0.37,0.77c0.48,0.6,1.72,0.58,1.36,1.61c-0.11,0.3-0.94,0.35-1.58,0.55
	c-0.13,0.19-0.38,0.54-0.76,1.08C185.05,113.48,184.74,113.09,184.35,112.6z"/>
<path d="M84.45,88.98c2.01-1.28,5.1-0.93,6.82,0.76c0.72,0.71,1.06,1.58,0.92,2.58c-0.23,1.72-0.96,3.14-2.52,4.07
	c-0.53,0.31-1.02,0.79-1.35,1.3c-1.72,2.63-3.59,3.13-6.31,1.56c-0.66-0.38-1.25-0.89-2.18-1.65c-0.24,0.4-0.43,0.84-0.74,1.18
	c-1.32,1.44-3,2.03-4.93,2.04c-1.79,0.01-3.08-0.71-3.7-2.45c-0.12-0.33-0.25-0.65-0.42-1.09c-1.07,0.26-2.08,0.56-3.11,0.73
	c-1.04,0.17-2.11,0.32-3.16,0.27c-1.55-0.08-2.51-1.06-2.3-2.55c0.22-1.55,0.71-3.1,1.29-4.56c0.43-1.09,1.47-1.64,2.64-1.88
	c2.14-0.45,4.24-0.12,6.34,0.22c0.34,0.06,0.69,0.14,1.04,0.21c0.12-0.18,0.28-0.32,0.29-0.46c0.19-2.45,2.66-3.94,5.5-3.3
	C80.77,86.44,82.84,87.29,84.45,88.98z M85.16,90.65c-0.69-0.27-1.6-0.38-2.1-0.89c-1.24-1.24-2.77-1.8-4.35-2.25
	c-2.49-0.7-3.63,0.01-4.21,2.5c-0.31,1.31-0.68,1.51-2,1.24c-1.33-0.27-2.67-0.55-4.02-0.66c-3.67-0.31-4.81,0.61-5.44,4.19
	c-0.31,1.74,0.05,2.23,1.81,2.04c1.4-0.15,2.78-0.56,4.15-0.88c1.8-0.42,2.08-0.27,2.72,1.52c0.55,1.54,1.15,1.95,2.78,1.87
	c1.56-0.07,2.84-0.72,3.84-1.93c0.48-0.58,0.93-1.38,1.56-1.6c1.01-0.35,1.19,0.93,1.8,1.41c2.25,1.78,4.19,2.19,5.6-0.73
	c0.27-0.57,0.94-1.02,1.53-1.35c1.14-0.65,1.76-1.61,1.83-2.86c0.03-0.52-0.21-1.2-0.57-1.56C88.74,89.38,86.61,89.38,85.16,90.65z"
	/>
<path d="M133.09,146.11c0.12,1.87,0.22,3.52,0.33,5.16c0.03,0.41,0.13,0.84,0.06,1.23c-0.04,0.22-0.33,0.53-0.54,0.56
	c-0.22,0.03-0.6-0.17-0.7-0.38c-0.18-0.35-0.27-0.78-0.3-1.19c-0.15-1.77-0.29-3.53-0.38-5.3c-0.05-1.03,0.21-1.4,1.29-1.54
	c1.34-0.17,2.71-0.21,4.06-0.24c2.89-0.06,5.78-0.12,8.67-0.09c0.53,0,1.18,0.28,1.55,0.65c1.86,1.9,2.81,4.2,2.66,6.9
	c-0.01,0.29-0.06,0.62-0.22,0.84c-0.14,0.2-0.47,0.34-0.72,0.35c-0.15,0.01-0.42-0.26-0.46-0.44c-0.09-0.46-0.08-0.94-0.09-1.41
	c-0.03-1.72-0.62-3.25-1.7-4.56c-0.3-0.36-0.84-0.73-1.28-0.74c-3.42-0.05-6.85-0.02-10.28,0.01
	C134.49,145.92,133.91,146.03,133.09,146.11z"/>
<path d="M108.43,147.37c0.28,1.81,0.53,3.44,0.77,5.07c0.05,0.35,0.12,0.71,0.07,1.05c-0.03,0.19-0.26,0.48-0.41,0.49
	c-0.25,0.02-0.65-0.08-0.75-0.26c-0.22-0.4-0.35-0.88-0.43-1.34c-0.28-1.57-0.54-3.15-0.79-4.73c-0.2-1.25-0.05-1.49,1.1-1.78
	c3.64-0.9,7.34-1.26,11.08-1.37c2.11-0.06,3.52,0.8,4.22,2.8c0.39,1.12,0.81,2.22,1.2,3.34c0.1,0.28,0.14,0.58,0.16,0.87
	c0.03,0.53,0.09,1.16-0.65,1.23c-0.64,0.06-0.65-0.49-0.8-0.96c-0.46-1.47-0.96-2.92-1.48-4.36c-0.34-0.93-1.06-1.42-2.05-1.41
	C115.92,146.05,112.21,146.3,108.43,147.37z"/>
<path d="M158.75,146.86c0.07,1.06,0.14,2.11,0.22,3.15c0.07,0.94,0.2,1.89,0.22,2.83c0,0.28-0.31,0.55-0.49,0.83
	c-0.29-0.23-0.8-0.42-0.85-0.69c-0.23-1.22-0.35-2.46-0.46-3.7c-0.07-0.88-0.08-1.77-0.06-2.66c0.02-0.83,0.49-1.35,1.32-1.39
	c3.43-0.15,6.86-0.27,10.29-0.37c0.98-0.03,1.6,0.63,1.79,1.46c0.39,1.72,0.64,3.48,0.86,5.23c0.03,0.25-0.42,0.56-0.65,0.85
	c-0.25-0.29-0.65-0.54-0.72-0.86c-0.2-0.98-0.25-2-0.4-2.99c-0.34-2.16-0.49-2.28-2.58-2.21c-2.54,0.09-5.09,0.19-7.63,0.3
	C159.39,146.66,159.17,146.76,158.75,146.86z"/>
<path d="M85.93,75.88c1.2-3,3.86-3.11,6.24-3.69c0.23-0.06,0.74,0.23,0.8,0.45c0.06,0.23-0.19,0.72-0.42,0.82
	c-0.64,0.28-1.34,0.46-2.02,0.61c-1.75,0.38-3.06,1.1-3.26,3.16c-0.1,1.03-0.92,1.29-1.62,0.5c-2.02-2.31-4.54-2.18-7.18-1.7
	c-0.62,0.11-1.45,0.48-1.64-0.4c-0.19-0.9,0.76-0.92,1.35-1.04C80.83,74.04,83.45,73.94,85.93,75.88z"/>
<path d="M84.99,113.57c1-1.94,2.65-2.98,4.35-3.95c0.42-0.24,0.89-0.49,1.25,0.04c0.36,0.53-0.03,0.89-0.43,1.17
	c-0.53,0.37-1.11,0.68-1.64,1.05c-1.15,0.78-2.06,1.71-2.32,3.19c-0.19,1.05-0.85,1.3-1.41,0.58c-1.38-1.77-3.18-1.52-5.01-1.22
	c-0.52,0.09-1.02,0.32-1.54,0.36c-0.22,0.02-0.59-0.22-0.66-0.43c-0.07-0.2,0.07-0.59,0.25-0.75c0.25-0.22,0.61-0.35,0.95-0.44
	C80.81,112.55,82.83,112.5,84.99,113.57z"/>
<path d="M188.44,75.56c1.36-0.69,2.52-1.41,3.77-1.88c0.8-0.3,1.72-0.29,2.6-0.31c0.23,0,0.64,0.39,0.67,0.63
	c0.03,0.25-0.27,0.58-0.51,0.8c-0.15,0.14-0.45,0.25-0.66,0.21c-1.98-0.38-3.36,0.76-4.74,1.87c-1.34,1.09-1.49,1.12-2.37-0.36
	c-0.68-1.13-1.59-1.87-2.88-2.16c-0.46-0.1-0.96-0.19-1.33-0.44c-0.33-0.23-0.75-0.69-0.72-1.02c0.06-0.65,0.78-0.86,1.23-0.61
	c1.41,0.8,3.19,0.97,4.24,2.41C187.96,75,188.2,75.27,188.44,75.56z"/>
<path d="M149.33,80.2c-0.46-0.2-0.69-0.26-0.86-0.39c-3.77-2.74-7.95-3.78-12.58-3.26c-3.26,0.37-6.46,0.92-9.45,2.29
	c-1.39,0.64-2.65,1.55-3.96,2.35c-0.49,0.3-0.92,0.84-1.67,0.16c0.06-0.36,0.11-0.82,0.23-1.25c0.32-1.09,0.85-2.09,0.44-3.34
	c-0.16-0.49,0.21-1.31,0.59-1.78c2.85-3.48,6.08-6.53,10.59-7.7c1.41-0.37,2.91-0.44,4.38-0.48c0.56-0.02,1.14,0.43,1.71,0.68
	c0.21,0.09,0.44,0.33,0.61,0.29c1.68-0.38,2.88,0.64,3.96,1.57c2.65,2.28,4.65,5.05,5.65,8.45C149.16,78.5,149.19,79.26,149.33,80.2
	z"/>
<path d="M131.42,61.53c2.12,0,4.16,0,6.47,0c0.12,1.14,0.25,2.37,0.38,3.58c-2.24,0.2-4.27,0.38-6.33,0.56
	C131.36,64.46,131.33,64.31,131.42,61.53z"/>
<path d="M138.77,99.57c-1.21-0.35-2.39-0.54-3.43-1.03c-1.51-0.72-1.81-2.15-0.96-3.59c1.3-2.22,4.49-3.49,6.96-2.77
	c0.22,0.06,0.51,0.14,0.62,0.3c0.66,1.03,1.37,2.04,1.9,3.14c0.59,1.22,0.25,2.28-1,2.8C141.57,98.95,140.16,99.19,138.77,99.57z
	 M142.71,96.89c-0.6-1.89-1.76-2.93-3.3-3.24c-1.43-0.29-2.6,0.6-3.49,1.71c-0.78,0.96-0.64,1.64,0.47,2.08
	C138.49,98.25,140.51,97.89,142.71,96.89z"/>
<path d="M153.81,88.89c-1.06-0.3-2.16-0.5-3.16-0.95c-0.41-0.19-0.85-0.95-0.78-1.37c0.07-0.43,0.7-0.96,1.18-1.08
	c1.6-0.41,3.17-0.18,4.6,0.67c0.57,0.34,1.11,0.78,0.96,1.54c-0.16,0.79-0.84,0.91-1.51,0.95c-0.41,0.03-0.82,0-1.24,0
	C153.85,88.73,153.83,88.81,153.81,88.89z"/>
</svg>
