<?xml version="1.0" encoding="utf-8"?>
<!-- Generator: Adobe Illustrator 28.2.0, SVG Export Plug-In . SVG Version: 6.00 Build 0)  -->
<svg version="1.1" id="Layer_1" xmlns="http://www.w3.org/2000/svg" xmlns:xlink="http://www.w3.org/1999/xlink" x="0px" y="0px"
	 viewBox="0 0 190 195" style="enable-background:new 0 0 190 195;" xml:space="preserve">
<path d="M98.44,116.68c-0.38,0.96-0.76,2.08-1.25,3.15c-0.71,1.53-1.98,2.36-3.66,2.37c-1.66,0.01-2.81-0.9-3.45-2.37
	c-0.54-1.24-0.98-2.53-1.33-3.83c-0.18-0.67-0.43-1.09-1.12-1.14c-1-0.08-1.99-0.16-2.99-0.18c-0.47-0.01-0.94,0.14-1.41,0.15
	c-1.24,0.03-1.61-0.39-1.49-1.58c0.1-0.94,0.21-1.88,0.29-2.82c0.15-1.64,0.39-1.84,1.99-1.55c1.4,0.25,2.79,0.5,4.12-0.12
	c0.37-2.8-0.94-4.32-3.59-4.21c-0.7,0.03-1.4,0.21-2.1,0.33c-0.69,0.12-1.23-0.16-1.34-0.83c-0.15-0.87-0.22-1.76-0.17-2.64
	c0.05-0.82,0.75-1.19,1.45-1.36c1.54-0.38,3.1-0.7,4.78-1.07c0.12-0.38,0.17-0.94,0.45-1.36c0.57-0.87,1.13-1.83,1.92-2.47
	c1.22-0.98,2.7-0.78,3.88,0.26c1.23,1.08,2.08,2.41,2.52,4.1c1.31,0.15,2.61,0.25,3.89,0.45c1.69,0.27,3.37,0.63,5.05,0.94
	c1.03,0.19,1.55,0.83,1.62,1.83c0.08,1.06,0.15,2.13,0.13,3.19c-0.05,2.78-0.19,5.56-0.23,8.33c-0.01,0.92-0.48,1.23-1.28,1.36
	C102.92,115.93,100.71,116.31,98.44,116.68z M83.33,113.03c1.72,0.15,3.24,0.24,4.75,0.41c1.28,0.15,1.89,0.9,2.12,2.22
	c0.23,1.26,0.69,2.52,1.29,3.65c1,1.89,3.19,1.93,4.22,0.05c0.58-1.06,0.87-2.31,1.16-3.5c0.29-1.18,0.33-1.31,1.48-1.07
	c2.24,0.47,4.28-0.26,6.41-0.72c-0.04-3.97,0.72-7.72,0.21-11.54c-2.9-1.05-5.86-1.29-8.8-1.4c-1.53-0.06-1.57,0.14-1.81-1.41
	c-0.22-1.38-1-2.38-1.98-3.26c-0.68-0.61-1.48-0.62-2.09-0.03c-0.57,0.55-1,1.28-1.36,2c-0.2,0.4-0.16,0.92-0.2,1.39
	c-0.07,0.79-0.41,1.25-1.26,1c-1.46-0.42-2.8,0.2-4.17,0.49c-1.06,0.22-1.09,0.88-0.76,1.82c0.77-0.04,1.53-0.1,2.28-0.1
	c3.11,0,5.22,2.3,4.99,5.39c-0.07,0.94-0.51,1.59-1.39,1.84c-0.67,0.19-1.39,0.27-2.09,0.32c-0.87,0.05-1.75,0.01-2.78,0.01
	C83.48,111.36,83.41,112.17,83.33,113.03z"/>
</svg>
