<?xml version="1.0" encoding="utf-8"?>
<!-- Generator: Adobe Illustrator 28.2.0, SVG Export Plug-In . SVG Version: 6.00 Build 0)  -->
<svg version="1.1" id="Layer_1" xmlns="http://www.w3.org/2000/svg" xmlns:xlink="http://www.w3.org/1999/xlink" x="0px" y="0px"
	 viewBox="0 0 190 195" style="enable-background:new 0 0 190 195;" xml:space="preserve">
<path d="M102.4,119.58c-1.02,3.18-2.56,4.71-4.8,4.56c-2.98-0.2-3.71-2.53-4.34-5.13c-1.74,0-3.49,0-5.25,0
	c-2.95,0-3.02-0.06-3.31-3.05c-0.06-0.59-0.11-1.17-0.18-1.95c-0.7-0.03-1.39-0.05-2.07-0.1c-2.91-0.21-4.14-1.78-3.65-4.63
	c0.42-2.43,1.81-3.86,4.26-4.38c0.29-0.06,0.58-0.12,1.03-0.21c0-0.75,0-1.5,0-2.24c0-2.45,0.58-3.09,2.98-3.15
	c1.76-0.04,3.53-0.01,5.34-0.01c0.2-0.88,0.31-1.64,0.54-2.36c1.11-3.58,4.66-4.85,7.79-2.83c1.11,0.72,1.8,1.68,1.94,3.02
	c0.09,0.87,0.22,1.74,0.34,2.71c1.07,0,2.07-0.02,3.06,0.01c0.98,0.03,2.01-0.22,2.91,0.35c-0.24,2.77-0.44,5.46-0.72,8.15
	c-0.13,1.24-0.67,1.43-1.82,0.81c-0.67-0.36-1.35-0.77-2.07-0.98c-1.26-0.37-2.21,0.13-2.56,1.22c-0.37,1.15,0.07,2.05,1.44,2.38
	c1.25,0.31,2.56,0.38,3.86,0.47c1.79,0.13,2.12,0.39,1.94,2.15c-0.47,4.51-0.2,4.03-4.47,4.89
	C103.9,119.41,103.19,119.47,102.4,119.58z"/>
</svg>
