<?xml version="1.0" encoding="utf-8"?>
<!-- Generator: Adobe Illustrator 28.2.0, SVG Export Plug-In . SVG Version: 6.00 Build 0)  -->
<svg version="1.1" id="Layer_1" xmlns="http://www.w3.org/2000/svg" xmlns:xlink="http://www.w3.org/1999/xlink" x="0px" y="0px"
	 viewBox="0 0 232.77 195" style="enable-background:new 0 0 232.77 195;" xml:space="preserve">
<path d="M154.05,128.75c0.98,3.06,1.32,6.03,0.69,9.06c-0.46,2.24-1.75,4-3.3,5.57c-0.26,0.26-0.97,0.45-1.21,0.28
	c-0.59-0.41-0.23-0.92,0.18-1.33c3.92-3.88,3.77-8.41,2.13-13.19c-0.43-1.26-0.35-1.22,0.72-1.9c2.97-1.89,5.93-1.57,9-0.31
	c1.31,0.54,2.68,0.91,4.05,1.29c1.63,0.45,3.17,0.07,4.61-0.75c0.1-0.06,0.21-0.11,0.31-0.18c6.04-4.3,12.7-4.37,19.57-2.81
	c2.42,0.55,4.79,1.35,7.19,1.98c1.08,0.28,2.19,0.59,3.29,0.62c3.07,0.09,6.17,0.12,9.15-0.78c1.29-0.39,2.53-0.99,3.76-1.55
	c0.27-0.13,0.44-0.5,0.74-0.88c-1.3-0.85-2.13-1.94-2.26-3.45c-0.2-2.34-0.03-4.63,1.02-6.76c0.49-1,1.12-1.94,1.73-2.99
	c-0.63-0.46-1.37-0.33-2.01-0.2c-2.14,0.43-4.28,0.91-6.38,1.48c-1.13,0.31-2.24,0.79-3.3,1.32c-2.94,1.47-5.88,1.36-8.71-0.1
	c-1.72-0.89-3.29-2.08-4.89-3.18c-0.63-0.43-1.15-1.02-1.74-1.51c-1.52-1.27-3.28-1.64-5.17-1.14c-1.08,0.29-2.13,0.72-3.15,1.18
	c-1.18,0.54-2.31,1.21-3.48,1.78c-3.19,1.53-6.48,1.86-9.82,0.58c-4.65-1.78-9.22-3.73-13.39-6.5c-0.7-0.46-1.63-0.77-2.46-0.81
	c-3.25-0.15-6.21,0.7-8.72,2.87c-0.63,0.54-1.29,1.04-1.91,1.6c-4.12,3.69-9.02,5.53-14.44,6.24c-6.55,0.86-12.87,0.22-18.95-2.46
	c-0.32-0.14-0.68-0.28-1.01-0.27c-4.02,0.14-8.04,0.29-12.06,0.49c-1.98,0.1-3.52,1.07-5.02,2.36c-2.06,1.76-4.27,3.38-6.56,4.83
	c-2.62,1.65-5.5,1.86-8.31,0.44c-2.05-1.04-4.04-2.21-5.98-3.44c-1.55-0.98-2.91-2.26-4.47-3.21c-1.51-0.91-3.1-1.77-4.77-2.29
	c-3.56-1.12-6.53,0.08-8.85,2.89c-0.79,0.95-1.35,2.08-2.07,3.1c-1.23,1.74-2.49,3.46-3.77,5.16c-1.34,1.78-3.19,2.58-5.38,2.68
	c-2.78,0.13-5.57,0.24-8.29-0.54c-0.44-0.12-0.91-0.12-1.66-0.2c0.64,0.86,1.15,1.48,1.59,2.15c1.96,2.98,2.62,6.13,0.79,9.37
	c-0.7,1.24-1.86,2.23-2.93,3.46c0.57,0.12,1.21,0.34,1.86,0.38c2.01,0.1,4.02,0.16,6.04,0.18c3.71,0.03,7.08-1.26,10.36-2.84
	c2.72-1.32,5.49-2.5,8.47-3.15c3.86-0.85,7.43-0.51,10.92,1.61c6.8,4.13,13.82,4,20.82,0.4c2.9-1.5,5.78-3.02,9.07-3.5
	c1-0.14,1.99-0.33,2.99-0.42c0.3-0.03,0.84,0.12,0.9,0.3c0.1,0.32,0.01,0.8-0.19,1.08c-2.65,3.73-2.67,9.27-0.01,12.98
	c0.28,0.38,0.61,0.74,0.8,1.16c0.09,0.2-0.01,0.62-0.17,0.76c-0.16,0.14-0.59,0.16-0.78,0.04c-0.34-0.21-0.62-0.54-0.87-0.87
	c-1.28-1.62-2.01-3.47-2.27-5.52c-0.34-2.74-0.13-5.42,1.02-8.12c-2.13,0.05-3.98,0.62-5.76,1.41c-1.57,0.7-3.08,1.52-4.6,2.31
	c-5.07,2.64-10.42,3.12-15.88,1.77c-2.03-0.5-4.05-1.42-5.83-2.53c-3.04-1.9-6.2-2.25-9.55-1.44c-1.83,0.44-3.63,1.07-5.41,1.69
	c-0.95,0.33-1.86,0.77-2.74,1.26c-5.64,3.11-11.69,3.65-17.94,2.84c-1.14-0.15-2.23-0.71-3.34-1.1c-0.44-0.16-0.84-0.45-1.29-0.56
	c-2.03-0.5-3.13-1.93-3.57-3.81c-0.87-3.8-0.04-7.34,2.3-10.41c1.53-2.01,3.67-2.95,6.27-2.29c2.72,0.69,5.48,0.88,8.28,0.74
	c2.14-0.11,3.92-0.8,5.19-2.59c1-1.4,2.05-2.76,3.03-4.16c0.58-0.82,1.05-1.72,1.61-2.56c3.2-4.81,8.08-6.27,13.31-3.81
	c1.91,0.9,3.65,2.19,5.42,3.36c1.93,1.27,3.77,2.67,5.71,3.91c3.83,2.45,7.59,2.28,11.21-0.51c1.36-1.05,2.85-1.97,4.02-3.2
	c2.12-2.23,4.71-3.06,7.65-3.2c2.78-0.13,5.55-0.26,8.61-0.4c-0.82-1.03-1.57-1.89-2.22-2.81c-0.65-0.92-1.26-1.87-1.79-2.86
	c-0.55-1.04-1.06-2.12-1.46-3.24c-0.37-1.05-0.58-2.16-0.87-3.28c-0.95-0.2-1.88-0.35-2.79-0.6c-9.44-2.55-9.93-10.12-7.38-15.71
	c1.61-3.54,4.22-5.93,7.91-7.19c2.72-0.93,5.34-0.85,7.94,0.38c0.37,0.17,0.73,0.34,1.16,0.54c2.57-5.04,6.56-8.37,11.64-10.4
	c-0.24-1.91-0.46-3.73-0.71-5.53c-0.13-0.9,0.28-1.33,1.11-1.49c1.86-0.35,3.71-0.75,5.58-1.06c1.62-0.26,2.19,0.16,2.42,1.78
	c0.25,1.76,0.39,3.53,0.61,5.29c0.09,0.72,0.33,1.31,1.09,1.69c3.41,1.71,6.18,4.15,8.16,7.45c0.21,0.35,0.51,0.64,0.77,0.97
	c0.2-0.08,0.39-0.12,0.51-0.22c3.54-2.97,7.65-3.54,12.04-2.76c2.15,0.39,3.84,1.57,5,3.41c2.75,4.4,2.98,8.89,0.27,13.41
	c-0.67,1.13-1.62,1.87-2.95,2.06c-0.35,0.05-0.68,0.16-1.14,0.27c0.08,4.25-0.37,8.39-2.53,12.38c1.21-0.14,2.23-0.28,3.26-0.38
	c2.01-0.2,3.76,0.26,5.51,1.44c4,2.68,8.43,4.56,12.97,6.13c2.72,0.94,5.38,0.56,7.94-0.63c1.18-0.55,2.3-1.24,3.48-1.77
	c1.13-0.51,2.28-1.01,3.47-1.32c2.44-0.63,4.7-0.2,6.66,1.47c0.59,0.5,1.11,1.07,1.74,1.52c1.34,0.96,2.67,1.98,4.12,2.75
	c2.59,1.38,5.24,1.53,8,0.2c2.83-1.37,5.8-2.4,8.96-2.77c0.65-0.08,1.3-0.17,1.95-0.15c1.88,0.07,3.73,0.25,5.62-0.14
	c1.4-0.29,2.46,0.43,3.28,1.63c1.68,2.44,1.96,5.02,0.44,7.52c-3.23,5.32-7.67,9.31-13.95,10.34c-4.37,0.72-8.86,0.53-13.2-0.73
	c-2.05-0.6-4.09-1.19-6.15-1.73c-4.09-1.07-8.23-1.06-12.32-0.11c-1.58,0.37-3.04,1.25-4.53,1.96c-0.96,0.46-1.83,1.1-2.78,1.56
	c-1.93,0.92-3.93,0.73-5.9,0.12c-1.47-0.46-2.88-1.09-4.34-1.56C158.17,127.16,156.05,127.03,154.05,128.75z M111.08,83.54
	c-3.07,0.8-5.09,3.18-7.73,4.5c-0.05,0.02-0.08,0.08-0.12,0.13c-1.51,2.19-3.12,4.33-3.79,6.98c-0.09,0.35-0.05,0.73-0.07,0.98
	c2.06-0.66,3.99-1.42,6-1.86c1.04-0.23,2.21,0.01,3.29,0.21c0.42,0.08,1.04,0.63,1.06,1c0.03,0.48-0.37,1.05-0.72,1.46
	c-0.29,0.34-0.78,0.55-1.21,0.71c-1.33,0.49-2.66,0.99-4.03,1.35c-1.36,0.35-2.77,0.54-4.35,0.83c1.9,4.97,4.27,9.34,9.57,11.28
	c5.69,2.08,11.5,2.53,17.48,1.59c4.29-0.68,8.26-2.06,11.67-4.81c1.48-1.19,2.92-2.41,4.33-3.67c4.43-3.98,5.31-9.14,4.29-14.61
	c-0.79-4.26-3.84-7.23-7.13-9.85c-0.23-0.18-0.59-0.22-1.03-0.37c0.11,0.83,0.25,1.46,0.28,2.1c0.05,1.16-0.56,1.58-1.55,0.99
	c-1.17-0.69-2.3-1.46-3.36-2.3c-0.82-0.65-1.61-1.15-2.69-0.98c-0.15,0.4-0.27,0.73-0.41,1.05c-1.49,3.34-4.05,5.73-7.22,7.32
	C119.31,89.74,114.2,88,111.08,83.54z M103.9,76.88c-2.49-1.65-4.98-2.15-7.73-1.32c-4.87,1.47-7.6,4.89-8.54,9.73
	c-1.15,5.97,3.99,11.4,9.84,10.74c0.71-1.69,1.31-3.36,2.11-4.92c0.64-1.26,1.56-2.37,2.28-3.59c0.32-0.54,0.68-1.17,0.67-1.76
	C102.48,82.76,103,79.87,103.9,76.88z M136.17,75.22c0.8,1.37,1.65,2.38,3.19,2.76c0.81,0.2,1.59,0.81,2.23,1.4
	c2.48,2.23,4.58,4.78,6.05,7.81c0.2,0.41,0.41,0.82,0.6,1.18c2.14,0.03,2.66-0.25,3.54-1.88c2.08-3.86,1.76-7.62-0.52-11.27
	c-1.03-1.65-2.56-2.57-4.48-2.89c-2.2-0.36-4.37-0.23-6.5,0.39C138.73,73.17,137.31,73.87,136.17,75.22z M112.45,82.84
	c0.53,0.71,0.91,1.38,1.44,1.91c2.23,2.24,6.62,2.94,9.43,1.36c2.29-1.29,4.23-3.04,5.61-5.32c0.31-0.52,0.46-1.13,0.77-1.9
	C123.4,78.44,117.86,79.89,112.45,82.84z M222.46,114.78c-0.08-0.86-0.08-1.4-0.19-1.91c-0.29-1.26-0.87-2.42-2.18-2.76
	c-1.33-0.35-2.39,0.4-3.24,1.38c-1.09,1.26-2.01,2.66-2.29,4.33c-0.21,1.25-0.24,2.56-0.17,3.83c0.05,0.92,0.77,1.56,1.65,1.57
	c0.96,0.01,2.13-0.01,2.86-0.52C221.01,119.21,222.06,117,222.46,114.78z M26.17,124.66c-1.64,1.71-2.88,3.56-3.29,5.84
	c-0.19,1.02-0.19,2.13-0.01,3.15c0.33,1.87,1.77,3.24,3.22,3.35c1.44,0.1,2.86-1.13,3.49-3.04c0.7-2.14,0.32-4.21-0.39-6.26
	C28.69,126.28,27.81,125.23,26.17,124.66z"/>
<path d="M122.32,108.63c-1.6-0.04-3.12-0.47-4.37-1.56c-1.51-1.31-1.65-3.21-0.37-4.74c1.34-1.6,3.2-2.39,5.1-3.05
	c0.37-0.13,0.92,0.12,1.33,0.31c1.55,0.74,2.68,1.93,3.42,3.46c0.69,1.43,0.38,2.9-0.83,4.03
	C125.41,108.19,123.96,108.6,122.32,108.63z M122.37,101.71c-0.68,0.15-1.34,0.21-1.92,0.46c-1.76,0.73-2.01,3.04-0.5,4.18
	c1.39,1.04,4.07,0.77,5.21-0.53c1.17-1.33,0.86-2.91-0.77-3.58C123.75,101.98,123.04,101.89,122.37,101.71z"/>
<path d="M138.96,95.66c-0.89-0.29-2.14-0.51-3.19-1.09c-1.54-0.85-1.43-2.48,0.08-3.35c2.11-1.21,6.31-0.51,7.92,1.32
	c1.12,1.27,0.87,2.1-0.8,2.45C141.76,95.24,140.53,95.4,138.96,95.66z"/>
</svg>
