<?xml version="1.0" encoding="utf-8"?>
<!-- Generator: Adobe Illustrator 28.2.0, SVG Export Plug-In . SVG Version: 6.00 Build 0)  -->
<svg version="1.1" id="Layer_1" xmlns="http://www.w3.org/2000/svg" xmlns:xlink="http://www.w3.org/1999/xlink" x="0px" y="0px"
	 viewBox="0 0 232.77 195" style="enable-background:new 0 0 232.77 195;" xml:space="preserve">
<style type="text/css">
	.st0{fill:#FFFFFF;}
</style>
<path d="M44.79,163.57c0,0.8-0.01,1.61,0,2.41c0.11,5.92,0.22,11.85,0.33,17.77c0.01,0.47,0.05,0.97-0.09,1.41
	c-0.08,0.25-0.46,0.5-0.75,0.57c-0.14,0.03-0.45-0.32-0.55-0.55c-0.11-0.26-0.09-0.58-0.09-0.87c-0.12-7.4-0.23-14.81-0.35-22.39
	c-3.61-2.51-7.49-4.6-12.01-5.18c-2.02-0.26-3.93,0.36-5.52,1.56c-1.69,1.28-3.23,2.77-4.78,4.22c-0.95,0.89-1.77,1.91-2.69,2.84
	c-0.47,0.47-1.11,0.95-1.71,0.46c-0.37-0.31-0.54-0.99-0.6-1.53c-0.1-0.85-0.03-1.72-0.03-2.9c-0.73,0.48-1.2,0.79-1.67,1.09
	c-0.45,0.29-0.86,0.64-1.35,0.85c-0.91,0.38-1.57,0.02-1.6-0.97c-0.03-1.06-0.01-2.16,0.27-3.17c0.63-2.28,1.4-4.52,2.16-6.76
	c0.49-1.44,1.63-2.29,2.94-2.94c4.2-2.11,8.55-2.27,12.94-0.78c1.67,0.57,3.27,1.38,4.83,2.22c2.99,1.61,6.13,2.8,9.39,3.72
	c4.64,1.31,8.79,0.46,12.42-2.75c1.2-1.06,2.36-2.17,3.56-3.21c1.25-1.08,2.53-2.15,3.83-3.18c3.29-2.61,6.94-3.05,10.9-1.85
	c2.79,0.84,5.19,2.29,7.25,4.32c1.26,1.25,2.45,2.58,3.75,3.79c3.39,3.19,5.19,7.16,5.79,11.7c0.99,7.52,1.09,15-1.17,22.36
	c-0.1,0.32-0.11,0.67-0.17,0.98c1.26,0.43,24.38,0.56,26.76,0.19c1.75-6.9,2.8-13.91,3.74-20.95c1.13-8.42,1.61-16.86,1.4-25.35
	c-0.03-1.12-0.1-2.26-0.35-3.35c-0.47-2.08-1.55-2.98-3.7-3.2c-1.35-0.14-2.72-0.24-4.07-0.26c-8.94-0.12-17.89-0.38-26.83-0.27
	c-9.12,0.12-18.23,0.58-27.34,0.96c-4.43,0.19-8.86,0.55-13.29,0.84c-0.23,0.01-0.45,0.07-0.68,0.11c-0.08,0.22-0.18,0.38-0.19,0.54
	c-0.2,4.91-0.41,9.82-0.59,14.72c-0.02,0.59,0.12,1.19,0.06,1.77c-0.04,0.35-0.33,0.67-0.5,1.01c-0.31-0.29-0.74-0.53-0.89-0.89
	c-0.17-0.41-0.14-0.93-0.13-1.4c0.09-2.6,0.22-5.2,0.31-7.8c0.09-2.49,0.13-4.97,0.22-7.46c0.06-1.74,0.08-1.74,1.92-2.49
	c-1.66-1.16-3.09-2.42-4.74-3.28c-6.03-3.12-11.45-7.15-16.89-11.14c-2.07-1.52-3.83-3.35-5.21-5.53
	c-4.2-6.65-0.52-15.49,3.94-18.46c0.59-0.39,1.21-0.77,1.87-1.01c1.6-0.58,3.24-1.06,4.86-1.61c0.93-0.31,1.71-0.01,2.55,0.37
	c6.74,3.06,13.61,5.83,19.97,9.66c0.09,0.05,0.22,0.03,0.33,0.04c0.55-1.96,1.11-3.93,1.72-6.11c-0.49,0-1.04-0.01-1.59,0
	c-5.17,0.1-8.97-2.09-11.42-6.69c-1.66-3.11-2.66-6.34-2.17-9.89c0.56-4.13,2.71-7.28,6.23-9.46c2.56-1.58,5.36-1.71,8.28-0.99
	c4.7-11.2,12.51-19.1,24.29-23.06c0-0.52,0-1.1,0-1.68c-0.01-2.84-0.01-5.69-0.02-8.53c0-1.14,0.13-1.33,1.29-1.44
	c1.36-0.13,2.72-0.23,4.08-0.27c3.26-0.1,6.51-0.18,9.77-0.23c2.23-0.03,2.34,0.13,2.26,2.28c-0.03,0.83-0.03,1.66-0.01,2.49
	c0.09,3.07,0.19,6.14,0.29,9.3c6.58,3.43,10.8,9.01,13.29,15.97c0.13-0.02,0.2,0,0.23-0.03c4.52-4.19,9.86-4.24,15.34-2.78
	c4.48,1.19,7.06,4.59,8.81,8.65c0.53,1.24,0.84,2.59,1.09,3.93c0.5,2.65-0.14,5.05-1.84,7.16c-2.33,2.89-5.23,4.95-8.77,6.09
	c-0.5,0.16-0.99,0.36-1.57,0.56c0.02,3.08,0.99,6.13-0.39,9.48c0.69-0.42,1.03-0.59,1.33-0.82c2.89-2.18,5.86-4.22,9.13-5.81
	c0.65-0.32,1.18-0.66,1.36-1.48c0.25-1.11,1.15-1.76,2.12-2.26c5.61-2.94,13.09-2,17.76,2.28c2.19,2,3.6,4.41,3.35,7.5
	c-0.07,0.92-0.37,1.83-0.62,3.02c0.69-0.24,1.27-0.43,1.83-0.65c5.1-2.07,10.16-4.23,15.45-5.83c1.16-0.35,1.89-0.36,2.74,0.68
	c1.3,1.61,2.86,3,4.27,4.52c0.41,0.44,1.15,1,0.49,1.64c-0.72,0.69-1.12-0.2-1.53-0.62c-1.33-1.35-2.65-2.71-3.93-4.11
	c-0.59-0.64-1.18-0.86-2.04-0.54c-1.36,0.52-2.77,0.93-4.35,1.46c2.07,2.98,4.01,5.79,6.07,8.75c0.25-0.35,0.47-0.54,0.54-0.77
	c0.8-2.45,2.73-3.33,5.06-3.49c1.65-0.12,3.32-0.03,4.97-0.02c1.43,0,2.25,0.88,2.83,2.16c0.47-0.14,0.85-0.25,1.22-0.38
	c2.95-1.05,5.93-1.05,8.9-0.12c4.49,1.4,6.16,3.69,6.22,8.37c1.77,0.9,3.62,1.58,5.16,2.69c1.57,1.13,2.75,2.75,3.26,4.64
	c1.19,0.15,2.27,0.19,3.29,0.44c4.22,1.06,5.8,6.4,2.89,9.64c-0.27,0.3-0.55,0.63-0.7,0.99c-1.01,2.48-3.02,3.53-5.52,3.87
	c-0.68,0.1-1.38,0.14-2.11,0.5c0.32,0.18,0.64,0.36,0.97,0.53c1.46,0.77,2.99,1.45,4.38,2.33c1.97,1.24,3.45,2.91,3.57,5.44
	c1.51,0.5,2.48,1.59,3.39,2.77c1.34,1.73,2.77,3.39,4.1,5.13c1.26,1.65,1.17,2.35-0.26,3.85c-0.04,0.04-0.08,0.09-0.13,0.13
	c-6.12,4.94-11.28,11.01-17.94,15.34c-1.66,1.07-2.95,2.69-4.49,3.97c-3.08,2.56-5.79,5.6-9.77,6.95c-2.3,0.78-2.28,0.96-3.87-1.02
	c-3.01-3.73-5.99-7.5-8.98-11.25c-3.66-4.59-7.58-8.94-11.81-13.02c-1.83-1.77-3.5-3.7-5.24-5.56c-0.56-0.59-1.1-1.2-1.71-1.88
	c-0.51,1.25-0.41,2.24,0.15,3.24c0.86,1.53,1.23,3.18,1.23,4.94c-0.01,2.13-0.88,3.64-2.97,4.34c-0.33,0.11-0.64,0.28-1.07,0.47
	c0.26,3.09-0.63,5.95-1.68,8.81c-0.34,0.92-0.75,1.51-1.63,1.91c-5.56,2.51-11.1,5.05-16.63,7.62c-0.84,0.39-1.61,0.96-2.41,1.44
	c-0.35,0.21-0.71,0.43-1.09,0.59c-4.24,1.81-8.5,3.59-12.74,5.42c-2.06,0.89-4.09,1.86-6.12,2.83c-0.62,0.3-1.11,0.49-1.79,0
	c-0.42-0.3-1.11-0.28-1.68-0.28c-9.42,0.01-18.84,0.02-28.25,0.07c-4.56,0.03-9.12,0.29-13.67,0.19
	c-6.51-0.14-13.01-0.51-19.52-0.76c-2.43-0.09-4.86-0.1-7.28-0.19c-0.76-0.03-1.53-0.14-2.27-0.33c-0.24-0.06-0.39-0.5-0.57-0.77
	c0.31-0.2,0.62-0.59,0.92-0.58c3.55,0.12,7.09,0.29,10.63,0.46c3.25,0.16,6.5,0.4,9.76,0.52c2.37,0.08,4.74-0.03,7.11,0.04
	c1.07,0.03,1.69-0.39,1.99-1.35c0.4-1.3,0.8-2.6,1.14-3.92c1.09-4.24,2.14-8.49,3.22-12.74c0.62-2.43,0.97-4.88,0.5-7.38
	c-0.51-2.76-2.08-3.77-4.72-2.85c-1.1,0.38-2.18,0.95-3.12,1.64c-1.38,1.01-2.68,2.15-3.92,3.34c-2.37,2.28-5.17,3.53-8.44,3.64
	c-1.71,0.06-3.43,0.05-5.15,0.01c-2.54-0.06-4.73-0.97-6.52-2.8c-0.5-0.5-1.05-0.95-1.57-1.43
	C45.05,163.49,44.92,163.53,44.79,163.57z M102.15,74.07c-0.21,0.67-0.34,1.05-0.45,1.44c-0.72,2.5-2.09,4.5-4.49,5.67
	c-2.02,0.99-4.01,2.04-6.08,2.91c-4.9,2.08-9.86,1.77-14.71-0.1c-4.43-1.71-7.04-5.73-7.09-10.51c-0.01-0.52,0-1.03,0-1.53
	c-0.25-0.02-0.38-0.07-0.47-0.03c-3.65,1.77-6.49,4.46-8.75,7.78c-0.47,0.68-0.92,1.38-1.37,2.07c-1.05,1.63-1.55,3.41-1.43,5.35
	c0.13,0.02,0.21,0.06,0.25,0.03c0.42-0.21,0.83-0.42,1.24-0.65c2.9-1.59,5.95-1.88,9.12-1.03c2.23,0.6,2.75,2.34,1.14,3.98
	c-0.74,0.74-1.65,1.37-2.58,1.85c-2.92,1.52-6,2.43-9.46,1.7c0.06,1.99-0.74,3.54-1.56,5.13c-1.97,3.8-1.43,8.25,2.28,11.14
	c2.7,2.11,5.68,3.6,8.92,4.65c4.45,1.43,9.07,1.73,13.67,2.02c3.11,0.2,6.27,0.09,9.39-0.18c6.52-0.55,12.51-3.05,18.48-5.47
	c2.96-1.2,5.68-2.92,7.7-5.54c1.05-1.36,1.82-2.88,2.71-4.32c2.13-3.41,2.84-6.95,2.12-10.84c-0.05-0.29-0.09-0.59-0.12-0.88
	c-0.14-1.58-0.02-1.79,1.44-2.43c0.32-0.14,0.66-0.26,1.01-0.35c1.99-0.51,3.76-1.49,5.33-2.76c5.41-4.39,5.27-7.11,3.64-12.09
	c-0.06-0.17-0.1-0.34-0.18-0.5c-1.68-3.61-3.96-6.65-8.01-7.76c-2.53-0.69-5.13-0.89-7.75-0.49c-2.23,0.34-4.16,1.32-5.77,2.9
	c-0.61,0.6-1.07,1.29-0.91,2.2c0.6,3.27,0.1,6.48-0.38,9.7c-0.12,0.81-0.48,1.05-1.19,0.69c-0.58-0.29-1.1-0.69-1.64-1.06
	C104.9,75.93,103.63,75.07,102.15,74.07z M121.94,134.31c1.16-1.23,2.39-2.42,3.48-3.73c3.46-4.13,6.86-8.31,10.29-12.47
	c0.72-0.87,1.76-1.6,1.22-3.03c-0.11-0.3,0.18-0.8,0.39-1.15c0.42-0.71,0.88-1.41,1.37-2.07c1.97-2.63,4.4-4.79,6.93-6.86
	c0.47-0.38,0.92-0.78,1.58-1.35c-3.7-0.84-6.68-2.36-9.42-4.39c-2.26-1.67-3.92-3.77-4.62-6.54c-0.05-0.2-0.22-0.37-0.38-0.65
	c-3.72,1.92-7.14,4.12-10.21,6.85c-1.59,1.41-2.94,2.99-4.09,4.84c-2.7,4.36-6.89,6.91-11.57,8.71c-1.82,0.7-3.71,1.24-5.52,1.96
	c-10.36,4.15-21,3.58-31.68,1.78c-3.7-0.63-7.18-2-10.48-4c-0.34,0.5-0.65,0.92-0.94,1.35c-0.81,1.23-1.56,2.52-2.44,3.7
	c-2.58,3.42-4.3,7.22-5.19,11.39c-0.35,1.64-0.51,3.33-0.76,5.03c1.25,0,2.25,0.06,3.24-0.01c1.95-0.14,3.89-0.4,5.84-0.52
	c11.35-0.7,22.71-1.24,34.1-1.03c7.52,0.14,15.04,0.22,22.57,0.32c0.44,0.01,0.88-0.07,1.37-0.11c-0.05-0.37-0.05-0.61-0.11-0.83
	c-1.66-5.57-3.7-11-6.4-16.16c-0.11-0.21-0.3-0.41-0.32-0.63c-0.02-0.26,0.02-0.72,0.16-0.78c0.26-0.11,0.73-0.11,0.92,0.06
	c0.61,0.56,1.22,1.15,1.66,1.83c2.26,3.5,4.16,7.18,5.16,11.25c0.46,1.89,0.81,3.8,1.19,5.63
	C120.19,133.27,121.04,133.78,121.94,134.31z M17.41,163.55c0.19,0.13,0.38,0.26,0.58,0.39c0.29-0.43,0.52-0.92,0.87-1.29
	c1.35-1.41,2.7-2.82,4.13-4.15c1.35-1.26,2.94-2.18,4.7-2.8c2.55-0.89,5.03-0.44,7.48,0.38c4.73,1.59,8.92,4.09,12.47,7.62
	c1.7,1.69,3.7,2.51,6.05,2.54c1.48,0.02,2.96,0.03,4.44-0.01c2.96-0.09,5.51-1.15,7.68-3.21c1.41-1.34,2.89-2.64,4.49-3.75
	c1.14-0.79,2.48-1.43,3.82-1.8c2.94-0.8,5.26,0.6,5.82,3.6c0.33,1.78,0.47,3.68,0.2,5.45c-0.42,2.74-1.26,5.41-1.93,8.1
	c-0.94,3.79-1.89,7.58-2.83,11.37c-0.09,0.37-0.17,0.74-0.27,1.17c4.44,0,8.74,0,13.03,0c0.14-0.3,0.26-0.51,0.33-0.73
	c2.63-8.16,2.55-16.44,1.03-24.76c-0.55-3.03-1.93-5.7-4.11-7.93c-1.53-1.56-3.02-3.18-4.61-4.69c-0.94-0.89-1.96-1.73-3.06-2.41
	c-5.11-3.16-9.53-2.86-14.25,0.87c-0.37,0.29-0.74,0.59-1.09,0.91c-1.68,1.5-3.34,3.01-5.02,4.51c-4.11,3.65-8.81,4.6-14.06,3.09
	c-3.31-0.95-6.51-2.15-9.54-3.81c-1.19-0.65-2.4-1.31-3.66-1.8c-4.22-1.62-8.43-1.7-12.57,0.31c-1.09,0.53-2.06,1.21-2.45,2.43
	c-0.68,2.08-1.35,4.16-1.98,6.26c-0.18,0.6-0.19,1.25-0.33,2.22c1.01-0.66,1.71-1.19,2.46-1.6c1.16-0.64,1.99-0.25,2.17,1.05
	C17.51,161.88,17.41,162.72,17.41,163.55z M136.5,179.13c-1.18-0.91-2.13-1.52-2.93-2.3c-2.37-2.31-4.32-4.96-4.81-8.31
	c-0.86-5.95,0.62-11.3,4.73-15.78c3.94-4.3,8.88-7.1,14.38-8.81c4.23-1.31,8.33-0.79,11.96,2.01c0.45,0.34,0.93,0.64,1.46,1
	c0.34-1.32-0.01-2.23-0.78-3.09c-0.98-1.1-1.85-2.31-2.78-3.46c-3.12-3.87-6.19-7.79-9.39-11.59c-2.03-2.42-2.12-2.36-5.02-1.21
	c-5.94,2.36-11.87,4.74-17.79,7.12c-0.91,0.37-1.79,0.83-2.63,1.23c0.18,1.18,0.46,2.17,0.46,3.16c0.01,4.92,0.22,9.85-0.15,14.74
	c-0.76,10.22-1.87,20.4-4.3,30.39c-0.2,0.83-0.27,1.68-0.45,2.88C124.63,184.37,130.44,181.81,136.5,179.13z M220.19,143.44
	c-0.87,0.76-1.43,1.55-2.19,1.88c-3.62,1.59-7.16,1.23-10.5-0.85c-0.23-0.14-0.28-0.57-0.41-0.86c0.35-0.13,0.74-0.41,1.05-0.35
	c0.57,0.12,1.11,0.41,1.63,0.69c2.32,1.24,4.69,1.04,7.07,0.28c1.36-0.44,1.84-1.31,1.68-2.73c-0.12-1.05-0.55-1.97-1.37-2.61
	c-1.17-0.89-2.34-1.85-3.66-2.47c-1.97-0.93-4.08-1.57-6.11-2.39c-0.89-0.36-1.72-0.85-2.8-1.39c-1.54,0.78-3.28,0.4-4.96-0.55
	c-0.62-0.35-1.21-0.75-1.82-1.1c-0.31-0.18-0.65-0.3-0.98-0.44c0.09,0.47,0.3,0.76,0.56,0.97c2.39,1.93,4.78,3.86,7.19,5.76
	c1.81,1.43,2.4,3.44,1.55,5.52c-0.83,2.02-2.4,3.34-4.25,4.37c-0.58,0.32-1.14,0.25-1.63-0.22c-3.9-3.72-8.73-6.33-12.39-10.34
	c-0.15-0.16-0.38-0.25-0.56-0.36c-2.54,1.18-5.02,2.33-7.66,3.55c1.61,1.82,3.07,3.45,4.51,5.09c1.67,1.92,3.4,3.79,4.98,5.78
	c5.25,6.62,10.45,13.28,17.43,18.69c2.9-2.25,6.07-4.53,9.04-7.05c3.39-2.87,6.59-5.94,9.89-8.92c1.77-1.61,1.79-1.64,0.27-3.55
	c-1.29-1.62-2.58-3.24-3.91-4.83C221.32,144.41,220.72,143.94,220.19,143.44z M58,111.45c-0.63-0.54-1.28-0.96-1.77-1.54
	c-0.99-1.16-2.13-2.29-2.74-3.65c-0.56-1.23-1.33-2-2.42-2.65c-5.91-3.53-12.25-6.17-18.54-8.92c-0.15-0.07-0.33-0.06-0.73-0.14
	c4.42,3.63,5.72,8.13,4.33,13.23c-1.52,5.55-5.19,9-11.22,9.79c0.22,0.25,0.33,0.45,0.51,0.58c5.02,3.65,9.94,7.47,15.51,10.29
	c0.89,0.45,1.77,0.97,2.58,1.56c1.51,1.1,2.98,2.27,4.64,3.55c0.46-4.14,1.3-8.05,3.09-11.68C53.05,118.2,55.14,114.7,58,111.45z
	 M193.05,179.12c5.2-1.54,8.59-5.1,12.12-8.79c-1.31-1.22-2.46-2.23-3.55-3.31c-2.14-2.12-4.39-4.16-6.33-6.45
	c-5.18-6.16-10.09-12.55-15.57-18.46c-0.47-0.51-0.98-0.99-1.56-1.56c-2.73,2.45-5.57,4.59-7.83,7.35c-0.3,0.37-0.59,0.74-0.85,1.14
	c-1.03,1.56-1.01,1.77,0.33,3.15c0.33,0.34,0.65,0.69,1,1.01c5.83,5.51,11,11.58,15.84,17.97
	C188.68,173.85,190.87,176.42,193.05,179.12z M193.4,120.52c1.17-0.67,2.16-1.19,3.11-1.79c1.87-1.17,2.63-3.55,1.63-5.52
	c-0.42-0.82-0.41-1.36,0.07-2.09c0.2-0.31,0.08-0.84,0.09-1.17c-3.06-0.77-5.91-1.48-8.65-2.16c-1.12,1.33-1.65,2.65-1.63,4.1
	c0.03,2.52,0.61,4.92,1.9,7.11c0.57,0.96,1.69,1.65,1.23,3.1c-0.12,0.38,0.96,0.98,0.23,1.46c-0.37,0.24-1.09-0.06-1.66-0.1
	c-0.35-0.03-0.71-0.06-1.06-0.04c-2.78,0.2-4.05,2.59-2.71,5.01c0.17,0.31,0.27,1,0.14,1.08c-0.35,0.21-0.93,0.38-1.26,0.22
	c-0.79-0.37-1.54-0.87-2.23-1.42c-1.93-1.55-3.83-3.15-5.74-4.74c-2.21,1.08-4.43,2.07-6.56,3.23c-1.39,0.76-2.78,1.62-3.93,2.69
	c-2.52,2.33-4.89,4.82-7.31,7.26c-0.4,0.41-0.76,0.86-1.18,1.35c2.98,4.03,6.14,7.72,9.51,11.43c1.92-3.25,4.54-5.56,7.19-7.84
	c0.45-0.39,1-0.72,1.29-1.21c0.55-0.94,1.41-1.38,2.34-1.79c2.27-1.01,4.54-2.02,6.79-3.09c0.42-0.2,1-0.64,1.03-1.01
	c0.1-1.02,0.64-1.14,1.45-1.03c1.64,0.23,3.17-0.19,4.67-0.8c1.01-0.41,1.46-1.22,1.33-2.26c-0.12-0.96-0.12-2.12-0.66-2.82
	c-1.06-1.38-0.59-2.49,0.02-3.77C193.32,122.9,194.02,121.87,193.4,120.52z M156.79,136.83c2.89-2.95,5.61-5.73,8.37-8.55
	c-0.15-0.27-0.33-0.57-0.51-0.87c-2.3-3.89-5.07-7.43-7.96-10.89c-2.85-3.42-5.62-6.88-7.88-10.72c-0.17-0.29-0.44-0.51-0.73-0.84
	c-3.6,2.83-7.03,5.67-9.35,9.47C144.08,122.6,151.2,129.04,156.79,136.83z M159.44,158.68c3.03-0.17,3.98-1.11,3.78-3.83
	c-0.2-2.76-1.38-5.16-3.4-7.01c-3.34-3.05-7.33-3.82-11.58-2.48c-4.91,1.55-9.32,4.03-13.02,7.7c-4.11,4.08-5.78,9.08-5.04,14.73
	c0.49,3.7,2.28,6.82,5.91,8.5c0.35,0.16,0.68,0.44,0.95,0.73c0.79,0.85,1.28,1.04,2.28,0.6c2.12-0.91,4.22-1.85,6.32-2.81
	c0.46-0.21,0.87-0.51,1.62-0.96c-2.68-0.75-4.16-2.32-4.9-4.61c-1.62-4.99-1.67-10.01-0.11-15.01c0.72-2.32,2.27-3.98,4.46-5.04
	c4.42-2.15,9.8-0.77,12.83,3.31C161.25,154.79,161.24,156.37,159.44,158.68z M100.6,73.29c-1.17-0.53-2.18-1.03-3.21-1.44
	c-5.98-2.4-12.08-4.15-18.62-3.83c-2.3,0.11-4.4,0.77-6.45,1.75c-0.92,0.44-1.3,1.09-1.45,2.04c-0.69,4.64,1.67,8.99,6.01,10.78
	c3.12,1.29,6.4,1.71,9.75,1.25c3.66-0.51,6.8-2.33,9.99-4.01C99.18,78.48,100.2,76.21,100.6,73.29z M176.07,122.31
	c-2.13-1.56-2.79-3.62-3.26-5.8c-0.13-0.59-0.59-1.14-0.99-1.64c-3.98-4.9-8.14-9.66-11.59-15.03c-3.54,1.42-7.06,2.76-10.48,4.53
	c1.79,3.07,3.67,5.85,5.84,8.45c3.63,4.37,7.3,8.72,10.23,13.62c0.18,0.29,0.43,0.54,0.66,0.83c1.56-0.88,3.03-1.75,4.54-2.54
	C172.57,123.93,174.17,123.22,176.07,122.31z M153.82,159.1c0.44-0.25,0.8-0.52,1.2-0.66c0.72-0.26,1.49-0.39,2.21-0.65
	c2.36-0.86,2.74-2.09,1.3-4.17c-1.23-1.77-2.94-2.91-4.95-3.58c-3.65-1.22-8.76,0.44-10.06,5.12c-0.82,2.95-1.08,5.95-0.7,8.96
	c0.22,1.8,0.72,3.59,1.27,5.32c0.5,1.57,1.75,2.47,3.34,2.9c0.61,0.16,1.2,0.41,1.89,0.66c1.64-0.73,3.36-1.5,5.09-2.28
	c2.99-1.35,3-1.35,4.07-4.53c0.6-1.8,0.94-3.64,0.68-5.56C157.41,160.03,155.22,161.37,153.82,159.1z M55.2,95.06
	c0.32-3.79,0.63-7.42,0.92-11.05c0.01-0.16-0.07-0.33-0.14-0.65c-0.34,0.26-0.59,0.47-0.86,0.66c-0.8,0.56-1.44,0.48-1.65-0.39
	c-0.36-1.49-0.75-3.02-0.74-4.53c0.02-2.64,0.33-5.28,0.51-7.91c-1.46-0.72-2.95-0.87-4.65-0.47c-4.14,0.97-7.66,5.18-8.08,9.58
	c-0.38,4,1.01,7.44,3.23,10.63c1.5,2.15,3.58,3.46,6.16,3.81C51.64,94.99,53.41,94.97,55.2,95.06z M21.09,109.73
	c0.18,0.82,0.35,2.31,0.87,3.67c0.74,1.93,2.41,2.74,4.45,2.39c0.69-0.12,1.39-0.34,2.02-0.64c5.82-2.72,8.4-10.13,5.53-15.87
	c-0.85-1.7-2.11-2.97-3.86-3.77c-1.41-0.64-2.54-0.47-3.66,0.7C22.99,99.82,21.47,104.19,21.09,109.73z M199.07,118.78
	c2.31,0.87,4.51,1.69,6.71,2.54c0.43,0.17,0.9,0.36,1.22,0.67c0.19,0.19,0.28,0.71,0.15,0.93c-0.11,0.19-0.59,0.22-0.91,0.21
	c-0.21-0.01-0.41-0.22-0.63-0.3c-2.23-0.79-4.43-1.68-6.69-2.33c-1.73-0.5-2.81,0.07-3.66,1.67c-0.55,1.04-0.97,2.16-1.45,3.24
	c-0.26,0.58-0.1,1.07,0.41,1.39c2.34,1.49,4.68,3,7.07,4.41c0.84,0.49,1.82,0.41,2.74-0.01c3.04-1.39,4.91-5.47,3.85-8.65
	c0.27-0.16,0.59-0.29,0.85-0.49c0.82-0.66,1.69-1.27,2.4-2.03c0.81-0.88,0.76-1.9,0.14-2.95c-2.07-3.46-7.32-5.57-11.32-4.48
	C199.67,114.64,200.37,116.83,199.07,118.78z M143.08,88.63c-2.76-0.21-5.03,0.7-6.85,2.69c-1.2,1.31-1.24,2.74-0.09,3.98
	c3.17,3.41,7.06,5.32,11.79,5.1c2.88-0.14,5.24-2.07,6.09-4.67c0.49-1.49,0.25-2.84-0.82-3.94c-2.17-2.24-5.01-3.11-7.92-3.89
	c-0.42,1.92-0.43,1.93-1.86,2.09C143.31,89.56,143.21,89.14,143.08,88.63z M189.95,121.79c-0.18-0.37-0.24-0.61-0.38-0.77
	c-1.45-1.66-2.12-3.64-2.62-5.74c-0.28-1.19-0.82-2.34-1.36-3.44c-0.55-1.12-1.55-1.79-2.76-2.05c-1.88-0.4-3.78-0.37-5.59,0.32
	c-1.43,0.55-2.74,1.46-2.95,3.05c-0.36,2.64,0,5.2,1.89,7.3c0.67,0.75,1.31,1.54,2.06,2.2c1.71,1.51,3.47,2.96,5.38,4.58
	C184.09,123.3,186.42,121.85,189.95,121.79z M201.11,145.75c1.67-0.81,2.78-1.82,3.47-3.26c0.75-1.58,0.38-2.97-0.97-4.07
	c-2.82-2.29-5.63-4.61-8.57-7.03c-0.84,3.22-3.81,3.06-6.23,3.99C192.45,139.55,197.26,142.04,201.11,145.75z M125.51,132.66
	c0.07,0.1,0.15,0.2,0.22,0.3c6.65-1.99,12.71-5.5,19.47-7.62c-2.26-2.82-4.35-5.43-6.51-8.13c-1.71,1.63-2.86,3.56-4.21,5.32
	c-1.4,1.83-2.85,3.62-4.38,5.34C128.64,129.53,127.05,131.07,125.51,132.66z M172.41,113.17c0.64-1.03,1.1-1.93,1.71-2.7
	c1.07-1.34,1.21-2.59,0.24-3.98c-1.89-2.72-3.79-5.43-5.71-8.13c-0.36-0.51-0.83-0.95-1.28-1.47c-1.96,0.82-3.79,1.58-5.76,2.4
	C164.96,104.29,168.61,108.75,172.41,113.17z M206.39,131.48c0.95,0.15,1.52,0.34,2.08,0.31c2.05-0.13,4.16-0.09,6.14-0.56
	c2.44-0.58,3.52-3.02,2.87-5.68c-0.42-1.73-2.43-2.71-4.78-2.28c-0.69,0.13-1.39,0.35-1.99,0.7c-0.41,0.24-0.84,0.73-0.93,1.18
	C209.31,127.46,208.38,129.52,206.39,131.48z M189.3,106.24c1.07,0.21,2.17,0.4,3.26,0.65c1.89,0.43,3.77,0.93,5.67,1.35
	c0.83,0.19,1.42,0.55,1.58,1.44c0.06,0.33,0.14,0.66,0.22,1.06c1.12,0.06,2.15,0.12,3.16,0.18c0.42-2.67-0.18-4.43-2.15-5.7
	c-3.39-2.2-7.05-2.55-10.85-1.2C188.98,104.46,188.94,104.68,189.3,106.24z M176.73,107.35c0.45-0.2,0.78-0.32,1.08-0.47
	c1.52-0.77,3.15-0.95,4.82-0.82c1.45,0.12,2.56,0.8,3.31,2.06c0.26,0.44,0.52,0.88,0.82,1.39c1.01-1.92,1.07-4.52,0.26-6.21
	c-0.31-0.66-0.79-1.03-1.51-1.03c-1.59,0-3.19-0.08-4.77,0.08C177.88,102.64,176.76,104.04,176.73,107.35z M23.78,96.7
	c-3.95,2.12-6.53,10.38-4.16,14.14C19.57,105.58,20.94,100.93,23.78,96.7z M219.16,125.7c0.76-3.42-0.89-5.63-4.19-5.89
	c-1.72-0.14-2.18,0.16-2.9,1.97C215.21,121.57,218.08,121.9,219.16,125.7z M154.97,97.45c-1.72,2.76-3.97,4.09-6.77,4.56
	C151.59,102.48,154.32,100.76,154.97,97.45z M184.07,108.44c-1.16-1.09-1.93-1.2-3.82-0.56
	C181.59,108.08,182.77,108.25,184.07,108.44z M195.21,129.33c-0.11,0.07-0.22,0.14-0.33,0.2c0.13,0.21,0.25,0.42,0.4,0.6
	c0.02,0.02,0.26-0.15,0.4-0.23C195.53,129.71,195.37,129.52,195.21,129.33z"/>
<path d="M145.87,16.14c3.45,2.1,4.15,5.44,3.29,9.29c-0.69,3.12-3.05,4.66-6.19,4.17c-0.53-0.08-1.04-0.24-1.57-0.29
	c-1.31-0.13-1.76,0.3-1.59,1.62c0.1,0.76,0.37,1.49,0.56,2.23c0.22,0.83-0.03,1.45-0.89,1.62c-1.27,0.25-2.56,0.53-3.85,0.56
	c-1.67,0.05-2.81-0.87-3.28-2.46c-0.58-1.99-0.52-3.98,0.19-5.94c0.64-1.77,1.88-2.83,3.8-3.01c0.88-0.08,1.77-0.14,2.65-0.3
	c0.75-0.13,1.52-0.3,2.22-0.6c1.68-0.71,1.85-1.55,0.7-3c-0.47-0.6-1.02-1.17-1.39-1.83c-0.65-1.15-0.43-1.92,0.77-2.45
	c1.13-0.51,2.32-0.88,3.51-1.22c0.34-0.1,0.97-0.01,1.1,0.21C146.07,15.06,145.9,15.56,145.87,16.14z"/>
<path d="M50.34,43.15c-0.43-0.9-0.71-1.47-0.99-2.05c-0.52-1.09-0.34-1.52,0.78-1.8c0.97-0.25,1.94-0.48,2.92-0.71
	c1.35-0.32,2.09-0.13,2.69,1.06c0.66,1.3,1.3,2.68,1.56,4.1c0.58,3.07-1.77,5.76-4.9,5.81c-0.88,0.01-1.76-0.17-2.65-0.2
	c-1.7-0.07-2.25,0.54-2.04,2.23c0.04,0.29,0.13,0.58,0.16,0.87c0.12,1.14-0.32,1.91-1.47,2.01c-1.27,0.11-2.59,0.04-3.85-0.18
	c-1-0.17-1.63-0.97-1.66-2.04c-0.02-0.82,0.04-1.65,0.18-2.45c0.11-0.63,0.42-1.23,0.59-1.85c0.82-2.92,2.57-4.54,5.76-4.39
	C48.28,43.59,49.15,43.32,50.34,43.15z M51.02,40.79c0.2,0.6,0.39,1.04,0.5,1.5c0.33,1.38-0.02,2-1.38,2.36
	c-0.68,0.18-1.39,0.27-2.1,0.35c-3.94,0.42-4.02,0.48-5.28,4.26c-0.02,0.06-0.03,0.11-0.05,0.17c-0.93,3-0.66,4.15,3.33,3.55
	c0.05-0.01,0.09-0.07,0.24-0.2c-0.03-0.55-0.09-1.19-0.11-1.83c-0.03-1.67,0.77-2.71,2.4-2.99c0.63-0.11,1.29-0.05,1.94-0.02
	c0.53,0.02,1.06,0.16,1.59,0.16c2.53,0.03,4.21-1.98,3.72-4.46c-0.1-0.52-0.29-1.03-0.49-1.52c-0.94-2.34-0.99-2.36-3.34-1.67
	C51.72,40.53,51.45,40.64,51.02,40.79z"/>
<path d="M163.38,50.03c0.8,1.57,2.09,1.7,3.41,1.77c0.35,0.02,0.71,0.02,1.06,0.09c1.07,0.2,1.4,0.68,0.85,1.59
	c-1.09,1.82-1.2,3.8-1.17,5.82c0,0.35,0.03,0.71,0,1.06c-0.1,0.97-0.52,1.29-1.41,0.97c-2.22-0.78-4.44-1.59-6.63-2.44
	c-0.97-0.38-1.22-1.02-0.82-2c0.24-0.59,0.62-1.14,0.97-1.69c0.95-1.49,1.92-2.98,2.9-4.45C162.68,50.54,162.95,50.4,163.38,50.03z"
	/>
<path d="M13.24,87.78c0.49,1.21,0.81,1.97,1.1,2.74c0.41,1.12,0.15,2.12-0.69,2.93c-0.87,0.84-1.94,1.26-3.08,0.69
	c-1.51-0.75-2.78-0.54-4.14,0.41c-1.32,0.92-2.08,0.47-2.1-1.17c-0.01-0.83,0.05-1.66,0.12-2.48c0.15-1.67,1.06-2.48,2.78-2.52
	c0.52-0.01,1.04,0,1.46,0c0.14-0.28,0.24-0.38,0.23-0.48c-0.03-2.78,1.69-4.13,4.02-4.99c2.44-0.9,4.85,0.21,5.75,2.66
	c0.12,0.33,0.19,0.69,0.21,1.04c0.1,1.78-0.92,2.53-2.58,1.9c-0.44-0.17-0.85-0.45-1.3-0.56C14.56,87.82,14.06,87.84,13.24,87.78z
	 M5.84,93.03c1.87-1.05,3.52-1.07,5.29-0.3c1.13,0.5,2.1-0.54,1.76-1.79c-0.18-0.68-0.57-1.29-0.83-1.95
	c-0.47-1.21-0.12-2.17,1.11-2.52c0.69-0.19,1.5-0.1,2.23,0.02c0.62,0.11,1.19,0.44,1.81,0.69c0.18-1.78-1.1-3.22-2.71-3.14
	c-2.15,0.1-3.82,1.7-4.05,3.87c-0.15,1.45-0.54,1.85-1.97,1.96c-0.35,0.03-0.71,0.01-1.06-0.01c-0.87-0.05-1.33,0.41-1.45,1.21
	C5.88,91.65,5.89,92.22,5.84,93.03z"/>
<path d="M201.03,78.76c-0.6-0.15-1.63-0.41-2.66-0.65c-1.32-0.31-1.48-0.28-2.08,0.95c-0.62,1.26-1.52,2.09-2.91,2.35
	c-1.51,0.27-2.72-0.44-3.18-1.89c-0.93-2.93,0.65-4.95,3.61-5.35c0.86-0.11,1.41-0.33,1.86-1.05c0.31-0.5,0.7-0.96,1.15-1.34
	c1.37-1.14,2.94-1.12,4.38-0.08c1.44,1.05,2.53,2.33,2.78,4.16C204.23,77.61,203.24,78.74,201.03,78.76z M197.51,76.45
	c0.28,0.05,0.75,0.12,1.21,0.23c0.8,0.19,1.59,0.47,2.41,0.58c1.13,0.15,1.54-0.33,1.31-1.45c-0.34-1.65-1.46-2.81-2.94-3.29
	c-1.41-0.46-2.2,0.78-2.89,1.85c-0.06,0.1-0.14,0.19-0.21,0.29c-0.48,0.67-1.11,1.11-1.95,0.99c-1.56-0.21-2.26,0.69-2.71,1.97
	c-0.36,0.99-0.18,1.85,0.48,2.2c0.62,0.33,1.7,0.08,2.23-0.61c0.35-0.46,0.58-1.02,0.87-1.54
	C195.76,76.87,196.39,76.41,197.51,76.45z"/>
<path d="M29.52,60.78c0.62,2.79,1.23,5.3,1.72,7.83c0.23,1.17-0.41,1.7-1.54,1.37c-2.28-0.67-4.42-1.66-6.27-3.16
	c-1.31-1.06-1.35-1.87-0.02-2.83c1.42-1.03,2.97-1.9,4.5-2.78C28.29,60.97,28.79,60.96,29.52,60.78z"/>
<path d="M27.98,52.44c-0.36,0.35-0.66,0.85-1.09,1.02c-2.04,0.79-4.09,1.52-6.17,2.2c-0.94,0.31-1.46-0.22-1.03-1.08
	c1.02-2.05,0.24-3.78-0.77-5.5c-1.38-2.36-1.28-2.63,1.27-3.71c1.19-0.51,2.35-1.1,3.53-1.63c0.9-0.4,1.27-0.24,1.61,0.68
	c0.12,0.33,0.15,0.69,0.26,1.03c0.59,1.85,1.19,3.69,1.81,5.53C27.54,51.41,27.74,51.84,27.98,52.44z M21.69,53.73
	c1.64-0.58,3.05-1.08,4.38-1.55c-0.78-2.34-1.49-4.49-2.24-6.75c-1.4,0.62-2.75,1.21-4.23,1.86C20.86,49.28,21.77,51.18,21.69,53.73
	z"/>
<path d="M22.73,136.01c0.01,0.9-0.68,1.4-1.53,0.92c-2.1-1.19-4.18-2.44-6.22-3.74c-0.88-0.56-0.89-1.18-0.07-1.85
	c0.59-0.48,1.3-0.8,1.95-1.22c0.89-0.58,1.76-1.2,2.65-1.77c1.28-0.82,1.99-0.52,2.21,0.96c0.16,1.11,0.19,2.24,0.36,3.35
	C22.24,133.76,22.5,134.85,22.73,136.01z"/>
<path d="M110.27,24.63c0,1.06,0.07,2.13-0.02,3.18c-0.09,1.14-0.47,1.43-1.59,1.41c-0.94-0.01-1.89-0.02-2.83-0.1
	c-1.43-0.12-2.03-0.62-2.23-2.05c-0.2-1.4-0.31-2.82-0.33-4.23c-0.02-1.24,0.51-1.86,1.76-2.05c1.33-0.21,2.7-0.32,4.05-0.33
	c1.17-0.01,1.36,0.32,1.32,1.52c-0.03,0.88-0.01,1.77-0.01,2.65C110.35,24.63,110.31,24.63,110.27,24.63z M108.75,27.53
	c0-1.88,0-3.67,0-5.68c-1.36,0.14-2.56,0.27-3.9,0.4c-0.06,1.86-0.08,3.53,0.44,5.27C106.42,27.53,107.47,27.53,108.75,27.53z"/>
<path d="M56.67,15.93c0.37-0.56,0.59-1.25,1.07-1.56c0.88-0.56,1.89-0.97,2.89-1.29c0.31-0.1,1.09,0.26,1.12,0.47
	c0.19,1.78,1.32,3.14,1.97,4.71c1.12,2.71,1.03,3.05-1.7,4.27c-0.48,0.22-0.99,0.4-1.5,0.54c-0.79,0.21-1.52-0.05-1.78-0.78
	C58,20.23,57.38,18.14,56.67,15.93z M60.04,21.82c1.16-0.58,2.02-1.02,2.97-1.49c-0.74-1.58-1.38-2.97-2.06-4.34
	c-0.2-0.41-0.51-0.77-0.82-1.22c-0.8,0.42-1.99,0.43-1.7,1.69C58.83,18.15,59.43,19.81,60.04,21.82z"/>
<path d="M151.07,69.51c1.84,1.02,3.82,2.06,5.75,3.2c1.01,0.6,1,1.16,0.07,1.92c-1.09,0.91-2.2,1.8-3.34,2.65
	c-1.17,0.88-1.73,0.87-2.78-0.19c-1.04-1.05-2-2.18-2.94-3.32c-0.61-0.74-0.53-1.26,0.3-1.96C148.98,71.1,149.88,70.44,151.07,69.51
	z M155.63,73.69c-1.6-0.87-2.95-1.61-4.22-2.31c-0.87,0.58-1.52,1.02-2.31,1.55c1.09,1.26,2.03,2.35,3.07,3.55
	C153.34,75.52,154.37,74.7,155.63,73.69z"/>
<path class="st0" d="M195.21,129.33c0.16,0.19,0.31,0.38,0.47,0.57c-0.14,0.08-0.38,0.25-0.4,0.23c-0.16-0.18-0.28-0.4-0.4-0.6
	C194.99,129.46,195.1,129.4,195.21,129.33z"/>
<path d="M80.32,112.34c-2.89-0.16-5.25-1.49-6.81-4.01c-2.28-3.67,0-8.38,4.38-9.28c0.86-0.18,1.71-0.38,2.57-0.56
	c0.23-0.05,0.47-0.07,0.7-0.06c2.7,0.14,6.14,2.79,6.98,5.35c0.71,2.17-0.16,4.87-2.16,6.51C84.37,111.62,82.49,112.26,80.32,112.34
	z M80.2,100.08c-2.07-0.14-3.28,1.01-4.42,2.39c-1.78,2.17-1.13,5.55,1.4,6.73c1.99,0.93,4.1,1.1,6.2,0.34
	c1.5-0.54,2.46-1.59,2.68-3.22c0.28-2.06-0.73-4.22-2.59-5.17C82.47,100.65,81.3,100.43,80.2,100.08z"/>
<path d="M109.45,91.79c-1.52-0.2-3.05-0.35-4.56-0.61c-0.56-0.1-1.13-0.37-1.61-0.69c-1.02-0.7-1.25-1.83-0.44-2.76
	c0.64-0.73,1.46-1.45,2.35-1.79c1.79-0.68,3.7-0.66,5.6-0.31c2,0.37,3.02,1.98,4.21,3.32c0.6,0.68,0.25,1.63-0.65,2.04
	c-0.58,0.27-1.24,0.4-1.87,0.48c-1,0.12-2,0.14-3.01,0.21C109.46,91.72,109.46,91.76,109.45,91.79z"/>
<path d="M169.07,130.51c0.4,0.29,0.72,0.44,0.95,0.69c1.85,1.99,3.7,4,5.53,6.01c0.19,0.21,0.38,0.47,0.47,0.74
	c0.06,0.19,0.03,0.55-0.1,0.63c-0.2,0.14-0.55,0.22-0.78,0.15c-0.26-0.08-0.48-0.33-0.68-0.54c-1.77-1.91-3.54-3.82-5.29-5.75
	c-0.27-0.3-0.52-0.67-0.59-1.05C168.53,131.16,168.85,130.87,169.07,130.51z"/>
</svg>
