<?xml version="1.0" encoding="utf-8"?>
<!-- Generator: Adobe Illustrator 28.2.0, SVG Export Plug-In . SVG Version: 6.00 Build 0)  -->
<svg version="1.1" id="Layer_1" xmlns="http://www.w3.org/2000/svg" xmlns:xlink="http://www.w3.org/1999/xlink" x="0px" y="0px"
	 viewBox="0 0 190 195" style="enable-background:new 0 0 190 195;" xml:space="preserve">
<path d="M92.4,57.13c0.23,0.54,0.48,0.95,0.57,1.39c1.06,5.13,4.56,7.72,9.36,8.79c1.89,0.42,3.88,0.54,5.82,0.54
	c4.2,0.01,7.67-1.82,10.58-4.73c1.26-1.26,2.21-2.77,2.28-4.68c0.01-0.27,0.36-0.52,0.55-0.78c0.29,0.25,0.78,0.48,0.82,0.77
	c0.09,0.56,0.08,1.24-0.17,1.72c-0.78,1.44-1.48,3.03-2.61,4.17c-3.05,3.1-6.81,4.99-11.22,5.03c-2.35,0.02-4.76-0.2-7.03-0.76
	c-5.48-1.36-9.03-4.75-10.03-10.72c-0.62,0.36-1.2,0.62-1.69,1.01c-2.88,2.27-5.74,4.57-8.6,6.87c-0.42,0.33-0.79,0.72-1.2,1.06
	c-1.15,0.95-1.31,0.94-2.6-0.27c-2.62,4.02-2.61,7.91,0.26,11.86c0.23-0.18,0.54-0.42,0.85-0.66c2.32-1.77,4.94-2.78,7.84-3.05
	c0.64-0.06,1.31,0.01,1.94,0.15c1.66,0.37,2.16,1.74,1.07,3.06c-0.56,0.67-1.27,1.27-2.01,1.72c-3.08,1.85-6.35,3.17-10.03,3.04
	c-2.97,3.68-3.79,8.24-1.36,11.53c2.69,0.19,5.42,0.25,8.11,0.63c1.73,0.24,3.44,0.83,5.06,1.51c1.68,0.7,2.63,2.11,2.97,3.94
	c0.37,1.99,0.72,2.32,2.77,2.54c1.53,0.17,3.08,0.13,4.61,0.22c1.06,0.06,2.13,0.15,3.18,0.31c0.26,0.04,0.46,0.44,0.69,0.67
	c-0.28,0.23-0.54,0.53-0.86,0.67c-0.25,0.1-0.58,0-0.88-0.02c-2.89-0.17-5.78-0.34-8.86-0.52c0.14,2.83,0.28,5.7,0.43,8.72
	c1.51,0.14,2.91,0.31,4.31,0.41c3.48,0.25,6.96,0.53,10.45,0.69c5.26,0.24,10.53,0.4,15.79,0.57c1.3,0.04,2.61-0.02,3.91,0.04
	c1.68,0.07,2.7,0.86,3.08,2.43c0.56,2.33-0.04,4.4-2.23,6.09c-6.01,4.62-12.84,7.79-19.62,11.04c-3.89,1.87-7.93,3.44-11.89,5.16
	c-0.54,0.23-1.06,0.53-1.6,0.77c-0.26,0.12-0.63,0.33-0.81,0.23c-1.01-0.53-1.97,0.02-2.95,0.07c-3.55,0.19-7.09,0.46-10.64,0.59
	c-5.03,0.18-10.06,0.27-15.09,0.38c-4.68,0.11-9.36,0.26-14.03,0.27c-4.56,0.01-9.11-0.14-13.67-0.22
	c-0.35-0.01-0.71-0.06-1.06-0.11c-1.65-0.21-2.77-1.07-3.07-2.74c-0.49-2.79-1.09-5.59-1.31-8.41c-0.69-8.8-1.03-17.62-0.76-26.46
	c0.05-1.66-0.02-3.32-0.04-4.98c-0.02-2.02,0.24-2.37,2.31-2.51c4.25-0.27,8.51-0.5,12.77-0.66c4.56-0.17,9.12-0.16,13.67-0.4
	c4.36-0.23,8.72-0.69,13.33-1.06c-1.01-2.31-1.4-4.65-0.71-7.15c-1.09-0.26-2-0.48-2.92-0.68c-2.36-0.5-4.17-1.8-5.72-3.64
	c-4.34-5.17-4.88-11.09-2.66-17.06c2.25-6.05,5.7-8.05,11.51-8.44c1.35-0.09,2.71-0.01,4.1-0.01c3.05-13.87,10.84-23.7,24.34-28.87
	c0-1.78,0.03-3.61-0.01-5.43c-0.04-1.95,0.07-2.18,1.83-2.96c2.53-1.13,5.26-1.35,7.95-1.78c0.58-0.09,1.17-0.16,1.76-0.24
	c1.97-0.24,2.72,0.24,3.11,2.23c0.32,1.62,0.5,3.28,0.69,4.92c0.14,1.17,0.19,2.35,0.28,3.56c1.52,0.66,2.98,1.29,4.44,1.91
	c3.38,1.43,5.92,3.79,7.94,6.86c3.31,5.02,5.41,10.5,6.63,16.36c0.05,0.23,0.14,0.44,0.25,0.78c4.18-1.35,8.16-0.5,12.12,0.92
	c4.32,1.55,6.63,4.61,6.99,9.14c0.13,1.71,0.19,3.43,0.12,5.15c-0.17,4.09-2.12,7.33-5.07,10.03c-1.29,1.18-2.88,1.85-4.56,2.3
	c-0.56,0.15-1.13,0.29-1.83,0.47c0.18,0.92,0.35,1.77,0.53,2.62c0.7,3.34-0.08,6.24-2.59,8.59c-1.04,0.97-2.16,1.84-3.26,2.74
	c-0.45,0.37-0.94,0.68-1.38,1c1.67,1.27,3.34,2.4,4.84,3.72c3.3,2.88,5.66,6.36,6.4,10.78c0.09,0.52,0.11,1.06,0.08,1.58
	c-0.01,0.17-0.27,0.47-0.42,0.47c-0.25,0-0.61-0.11-0.74-0.31c-0.18-0.28-0.23-0.66-0.29-1.01c-0.68-4.59-3.18-8.08-6.66-10.98
	c-0.59-0.49-1.23-0.92-1.82-1.42c-1.73-1.48-3.57-1.63-5.6-0.62c-2.83,1.4-5.82,2.41-8.95,2.8c-3.88,0.48-7.78,0.71-11.68,1
	c-0.3,0.02-0.64-0.35-0.96-0.54c0.26-0.28,0.47-0.71,0.79-0.81c0.55-0.18,1.16-0.17,1.75-0.22c3.36-0.3,6.75-0.43,10.08-0.93
	c5.49-0.83,10.37-3.22,14.81-6.52c0.43-0.32,0.83-0.67,1.22-1.03c3.22-2.96,4-5.85,2.4-9.93c-0.48-1.23-0.8-2.53-1.4-3.72
	c-0.66-1.32-0.82-2.7-0.48-4.15c1.18-5.03-0.44-9.46-2.92-13.71c-0.45-0.76-1.06-1.41-2.03-1.66c-0.44,1.21-0.85,2.37-1.3,3.52
	c-0.24,0.61-0.5,1.21-0.82,1.77c-0.65,1.11-1.22,1.14-2.04,0.21c-1.8-2.04-3.63-4.05-5.42-6.1c-3.11-3.56-7.14-5.62-11.69-6.18
	c-6.7-0.83-13.38-0.45-19.69,2.4C94.28,56.17,93.35,56.66,92.4,57.13z M33.37,97.71c-0.05,0.53-0.11,0.87-0.11,1.22
	c0.12,8.41,0.19,16.82,0.42,25.23c0.12,4.38,0.36,8.76,1.38,13.06c0.52,2.22,0.83,2.58,3.09,2.67c4.02,0.16,8.05,0.29,12.07,0.27
	c6.51-0.03,13.03-0.18,19.54-0.28c2.13-0.03,4.26-0.04,6.39-0.13c3.9-0.17,7.81-0.37,11.71-0.59c1.4-0.08,2.8-0.25,4.36-0.39
	c0-0.88,0.02-1.58,0-2.28c-0.3-9.12-0.56-18.24-0.93-27.35c-0.12-2.83-0.52-5.65-0.82-8.48c-0.16-1.48-0.98-2.58-2.33-3.11
	c-1.36-0.54-2.78-1.11-4.22-1.27c-5.6-0.64-11.22-0.69-16.85-0.25c-5.07,0.4-10.16,0.64-15.25,0.86c-4.32,0.19-8.65,0.2-12.97,0.36
	C37.09,97.31,35.32,97.54,33.37,97.71z M93.36,119.32c1.16,0,2.1,0,3.03,0c4.26-0.01,8.52-0.08,12.79-0.02
	c2.48,0.03,4.96,0.24,7.44,0.42c0.7,0.05,1.46,0.2,1.69,1.05c0.21,0.78-0.17,1.44-0.75,1.87c-1.04,0.77-2.08,1.6-3.25,2.13
	c-6.51,2.97-13.05,5.86-19.58,8.79c-0.36,0.16-0.68,0.42-0.95,0.58c0,1.41,0,2.7,0,3.89c0.69,0.65,1.29,0.37,1.9,0.11
	c10.76-4.5,21.53-8.96,31.06-15.84c0.8-0.57,1.55-1.31,2.08-2.13c1.32-2.03,0.17-4.11-2.2-4.13c-1.78-0.02-3.55,0.03-5.33-0.01
	c-4.02-0.1-8.05-0.16-12.06-0.39c-5.25-0.31-10.49-0.77-15.74-1.15c-0.09-0.01-0.19,0.11-0.41,0.24
	C93.16,116.1,93.25,117.56,93.36,119.32z M77.13,58.74c-2.42-0.41-4.86-0.29-7.27,0.44c-1.75,0.53-3.08,1.59-4.35,2.91
	c-3.64,3.79-4.74,13.32-0.53,18.71c2.3,2.94,5.08,4.21,8.59,4.47c0.64-1.01,1.29-1.93,1.83-2.91c0.71-1.29,0.94-2.48,0.03-3.96
	c-0.83-1.36-1.38-3.05-1.54-4.64c-0.31-3.15,0.42-6.12,2.56-8.61c0.29-0.34,0.63-0.79,0.65-1.2C77.18,62.24,77.13,60.54,77.13,58.74
	z M143.89,80.77c5.43-0.45,9.84-4.8,10.51-10.39c0.3-2.54,0.17-5.08-0.37-7.59c-0.45-2.12-1.5-3.87-3.43-4.94
	c-3.37-1.88-6.99-2.86-10.88-2.58c-0.47,0.03-0.95,0.09-1.39,0.26c-0.79,0.3-1.45,0.8-1.64,1.67c-0.2,0.94,0.33,1.47,1.06,2.03
	c0.78,0.59,1.53,1.36,1.98,2.21c0.91,1.71,1.75,3.49,2.38,5.33c0.91,2.65,1.34,5.41,0.62,8.2
	C142.18,77.08,142.68,78.93,143.89,80.77z M93.3,120.69c0.04,4-0.1,7.73,0.43,11.58c1.56-0.62,2.95-1.11,4.29-1.7
	c3.4-1.51,6.79-3.06,10.17-4.6c2.04-0.93,4.09-1.86,6.1-2.85c0.81-0.4,1.67-0.8,2.27-1.89C108.79,120.26,101.18,121.11,93.3,120.69z
	"/>
<path d="M107.9,99.17c-1.38-0.18-2.56-0.29-3.72-0.49c-1.62-0.27-3.03-0.98-4.13-2.22c-1.5-1.71-1.92-3.69-0.96-5.76
	c1.35-2.91,3.53-4.92,6.88-5.1c3.25-0.18,6.9,2.18,8.13,5.05c0.94,2.18,0.38,4.2-1.5,5.88c-1,0.89-2.42,1.17-3.23,2.39
	C109.17,99.24,108.29,99.12,107.9,99.17z M106.76,97.3c1.72-0.12,3.55-0.72,5.06-2.08c1.43-1.29,1.65-2.82,0.68-4.47
	c-0.77-1.31-1.91-2.23-3.25-2.93c-1.3-0.68-2.73-0.26-4.09-0.51c-0.26-0.05-0.57,0.14-0.84,0.25c-2.28,0.92-3.58,3.21-3.14,5.55
	C101.6,95.38,104.03,97.31,106.76,97.3z"/>
<path d="M129.97,82.99c-1.97-0.39-3.95-0.72-5.89-1.2c-0.78-0.19-1.53-0.63-2.22-1.08c-0.71-0.47-1.23-1.12-0.94-2.1
	c0.36-1.23,1.12-2.03,2.25-1.89c2.91,0.36,5.93,0.32,8.52,2.08c0.78,0.53,1.33,1.14,1.58,2.04c0.31,1.1-0.01,1.67-1.14,1.92
	c-0.23,0.05-0.47,0.08-0.7,0.08c-0.47,0.01-0.95,0-1.42,0C129.99,82.89,129.98,82.94,129.97,82.99z"/>
<path d="M66.85,119.37c-0.18,1.07-0.25,2.02-0.51,2.92c-0.34,1.19-1.08,1.66-2.23,1.63c-1.22-0.03-2.13-0.61-2.37-1.75
	c-0.23-1.09-0.25-2.22-0.38-3.47c-0.28-0.13-0.63-0.32-1-0.46c-1.58-0.61-2.14-1.37-2.19-3.06c-0.1-3.03,2.54-5.91,5.76-6.12
	c1.1-0.07,2.26,0.06,3.33,0.35c2.29,0.61,3.66,2.52,3.7,4.85c0.04,2.41-1.04,3.94-3.4,4.83C67.34,119.18,67.12,119.27,66.85,119.37z
	 M65.37,110.5c-3.02-0.12-5.41,1.73-5.69,4.04c-0.17,1.38,0.17,1.83,1.48,2.39c0.95,0.4,1.89,0.57,2.92,0.51
	c0.64-0.04,1.3,0.02,1.93,0.12c1.45,0.24,2.55-0.3,3.16-1.62c0.86-1.87,0.07-4.1-1.83-4.92C66.59,110.71,65.76,110.6,65.37,110.5z
	 M63.16,121.07c-0.07,0.98,0.32,1.38,1.01,1.34c0.77-0.04,0.88-0.62,0.79-1.34C64.36,121.07,63.8,121.07,63.16,121.07z
	 M63.27,118.99c0.94,0.47,0.94,0.47,1.73,0C64.39,118.99,63.83,118.99,63.27,118.99z"/>
</svg>
