<?xml version="1.0" encoding="utf-8"?>
<!-- Generator: Adobe Illustrator 28.2.0, SVG Export Plug-In . SVG Version: 6.00 Build 0)  -->
<svg version="1.1" id="Layer_1" xmlns="http://www.w3.org/2000/svg" xmlns:xlink="http://www.w3.org/1999/xlink" x="0px" y="0px"
	 viewBox="0 0 232.77 195" style="enable-background:new 0 0 232.77 195;" xml:space="preserve">
<path d="M128.47,58.43c-0.05-0.78-0.12-1.53-0.13-2.29c-0.01-0.95-0.03-1.9,0.07-2.84c0.15-1.38,0.57-1.76,1.97-1.7
	c1.29,0.06,2.59,0.2,3.86,0.46c1.09,0.23,1.67,1.02,1.73,2.19c0.06,1.18,0.21,2.36,0.33,3.67c0.5,0.04,0.94,0.09,1.39,0.1
	c0.89,0.02,1.78-0.07,2.66,0.03c1.87,0.21,2.44,0.81,2.75,2.66c0.08,0.45,0.19,0.89,0.32,1.47c2.8-1.46,5.63-1.55,8.55-1.1
	c3.19,0.49,5.11,2.34,5.87,5.39c0.23,0.93,0.65,1.56,1.4,2.1c0.72,0.52,1.36,1.14,1.98,1.78c1.91,1.94,3.77,3.94,5.68,5.87
	c3.66,3.69,5.91,8.13,6.86,13.2c0.71,3.78,0.17,7.43-1.82,10.8c-0.33,0.56-0.64,1.14-0.86,1.75c-1.23,3.47-3.43,6.04-6.93,7.43
	c0,0.74,0,1.47,0,2.22c1.56-0.41,2.95-0.9,4.39-1.13c4.39-0.73,6.85,0.89,8.1,5.18c0.73,2.49,0.52,4.94-0.35,7.33
	c-0.62,1.72-1.43,3.38-2.11,5.08c-0.44,1.1-0.87,2.2-1.18,3.34c-0.37,1.38-0.01,2.67,1.18,3.48c1.01,0.68,2.13,1.38,3.29,1.61
	c4.79,0.95,9.79-3.07,10.01-7.96c0.06-1.41-0.15-2.83-0.2-4.25c-0.07-1.89-0.27-3.79-0.14-5.67c0.15-2.28,1.24-4.19,3.1-5.57
	c2.27-1.69,4.11-1.58,6.21,0.35c0.86-0.28,1.73-0.72,2.63-0.82c1.13-0.12,2.43-0.31,2.84,1.35c0.09,0.34,0.68,0.59,1.08,0.79
	c0.74,0.37,1.53,0.65,2.26,1.03c0.42,0.22,0.88,0.61,0.47,1.11c-0.17,0.21-0.75,0.27-1.07,0.17c-0.94-0.32-1.85-0.75-2.89-1.19
	c-0.42,0.57-0.79,1.07-1.31,1.78c0.98,0.33,1.79,0.6,2.61,0.87c0.48,0.16,0.98,0.39,0.74,0.96c-0.1,0.25-0.67,0.46-1,0.43
	c-0.64-0.06-1.28-0.25-1.88-0.48c-0.85-0.32-1.58-0.42-2.17,0.48c-0.43,0.66-1.02,0.54-1.53,0.11c-1.13-0.96-1.85-2.12-1.79-3.69
	c0.11-2.43-1.38-3.28-3.61-2.32c-2.21,0.96-3.03,2.78-3.25,4.9c-0.17,1.63,0.06,3.3,0.14,4.96c0.07,1.6,0.29,3.2,0.21,4.79
	c-0.27,5.85-6.19,10.47-11.91,9.3c-1.02-0.21-2.04-0.67-2.92-1.22c-2.5-1.58-3.24-3.55-2.34-6.41c0.51-1.63,1.25-3.19,1.92-4.77
	c0.84-1.96,1.69-3.92,1.85-6.09c0.15-2.07-0.3-3.99-1.4-5.77c-0.63-1.02-1.49-1.65-2.7-1.8c-1.99-0.24-3.89,0.07-5.72,0.88
	c-0.57,0.25-1,0.59-0.98,1.32c0.03,0.89-0.58,1.4-1.29,1.75c-0.96,0.47-1.92,0.92-2.92,1.29c-1.55,0.57-3.13,1.07-4.71,1.58
	c-1.33,0.44-2.69,0.8-3.78-0.45c-1.04-1.19-0.53-2.5,0.06-3.66c1.08-2.11,2.21-4.2,4.42-5.43c0.37-0.21,0.59-0.81,0.74-1.27
	c0.29-0.89,0.38-1.86,0.75-2.71c0.48-1.1,1.33-1.72,2.66-1.68c1.56,0.04,1.61-0.07,1.65-1.57c0.12-4.5-0.84-8.7-3.55-12.39
	c-1.11-1.51-2.42-2.74-4.18-3.48c-0.54-0.23-0.97-0.27-1.49,0.01c-0.52,0.28-1.11,0.42-1.63,0.69c-3.71,1.91-7.6,1.98-11.59,1.25
	c-0.06-0.01-0.12-0.06-0.17-0.05c-3.45,0.82-7.22,0.21-10.33,2.54c-1.55,1.16-1.97,1.74-1.46,3.57c0.45,1.59,1.04,3.15,1.71,4.66
	c0.55,1.23,0.97,1.4,2.26,1.16c1.86-0.34,3.7-0.79,5.56-1.16c1-0.2,1.49-0.7,1.63-1.77c0.14-1.1,0.54-2.17,0.86-3.25
	c0.08-0.28,0.24-0.54,0.42-0.78c0.36-0.49,0.8-1.04,1.45-0.61c0.63,0.42,0.14,0.89-0.13,1.36c-1.32,2.32-1.66,4.84-0.98,7.38
	c0.57,2.14,1.12,4.39,3.25,5.71c0.19,0.12,0.36,0.52,0.3,0.73c-0.06,0.22-0.39,0.46-0.63,0.5c-0.4,0.06-0.82-0.03-1.24-0.05
	c-2.14-0.07-4.28-0.14-6.29,0.77c-0.75,0.34-1.47,0.76-2.15,1.24c-0.95,0.67-1.3,1.64-1.14,2.8c0.27,1.99,1.1,3.75,2.32,5.29
	c0.32,0.41,0.98,0.68,1.52,0.76c0.87,0.12,1.78,0.11,2.65-0.02c3.15-0.49,6.29-1.05,9.44-1.58c0.58-0.1,1.18-0.21,1.76-0.18
	c0.26,0.01,0.51,0.36,0.76,0.56c-0.2,0.26-0.36,0.67-0.62,0.75c-0.79,0.24-1.62,0.33-2.43,0.51c-0.57,0.13-1.12,0.32-1.82,0.53
	c0.07,0.74,0.15,1.43,0.2,2.12c0.81,9.7,0.9,19.41,0.66,29.13c-0.05,2.13-0.39,4.25-0.6,6.37c-0.02,0.18,0.02,0.41-0.08,0.52
	c-0.28,0.31-0.62,0.58-0.93,0.86c-0.16-0.34-0.49-0.68-0.47-1.01c0.08-1.42,0.38-2.83,0.4-4.24c0.1-6.63,0.2-13.27,0.17-19.9
	c-0.02-3.43-0.31-6.86-0.52-10.29c-0.06-1.05-0.24-2.09-0.38-3.29c-1.48,0.14-2.81,0.27-4.31,0.42c-0.09,1.68-0.16,3.2-0.27,4.72
	c-0.1,1.36-0.2,2.71-0.39,4.06c-0.17,1.25-0.97,2.1-2.2,2.25c-2.93,0.36-5.88,0.65-8.82,0.86c-1.25,0.09-2.15-0.61-2.54-1.82
	c-1.11-3.44-1.25-6.98-0.87-10.54c0.14-1.3,0.93-2.16,2.31-2.31c0.82-0.09,1.65-0.18,2.47-0.25c0.69-0.06,1.37-0.09,2.19-0.14
	c-0.34-1.14-0.66-2.08-0.89-3.04c-0.62-2.65,0.08-4.27,2.41-5.7c1.76-1.08,3.69-1.58,5.73-1.71c0.45-0.03,0.9-0.08,1.37-0.12
	c-0.78-2.14-1.53-4.17-2.31-6.33c-1,0.22-2.09,0.45-3.22,0.7c-0.08,0.85-0.13,1.66-0.25,2.46c-0.14,0.86-0.51,1.61-1.42,1.87
	c-2.21,0.64-4.4,1.42-6.66,1.83c-3.2,0.58-5.38-1.17-5.81-4.4c-0.32-2.41-0.59-4.82-0.85-7.23c-0.19-1.75,0.26-2.37,2.02-2.71
	c1.16-0.22,2.34-0.33,3.63-0.51c0.99-2.48,3.44-3.26,5.74-4.38c-1.06-1.4-2.22-2.29-4.04-1.87c-0.56,0.13-1.18,0.06-1.77,0.04
	c-1.06-0.03-1.75-0.58-2.18-1.54c-1.58-3.54-1.87-7.3-1.83-11.11c0-0.33,0.02-0.71-0.12-0.99c-1.34-2.68-0.92-5.23,0.78-7.52
	c0.94-1.26,2.25-2.24,3.42-3.31c0.37-0.34,0.83-0.59,1.17-1.1c-2.21,0.22-4.42,0.5-6.64,0.66c-2.48,0.18-4.96,0.34-7.45,0.35
	c-11.79,0.03-23.57,0-35.36,0.02c-1.42,0-2.85,0.07-4.25,0.27c-2.57,0.37-4.62,2.55-4.86,5.15c-0.4,4.33,0.02,8.63,0.46,12.94
	c0.78,7.54,1.46,15.09,2.04,22.65c0.47,6.08,0.74,12.18,1.1,18.27c0.01,0.18-0.03,0.39,0.05,0.53c1.04,1.82,0.72,3.88,0.97,5.83
	c0.26,1.99,0.32,4.02,0.38,6.03c0.15,5.09,0.13,10.19,0.4,15.28c0.26,5.08,0.78,10.15,1.2,15.23c0.01,0.18,0.15,0.37,0.1,0.51
	c-0.1,0.31-0.29,0.58-0.44,0.87c-0.31-0.2-0.76-0.33-0.91-0.61c-0.23-0.46-0.32-1.02-0.36-1.54c-0.38-4.9-0.83-9.8-1.07-14.7
	c-0.32-6.74-0.44-13.5-0.71-20.24c-0.05-1.16-0.53-2.3-0.65-3.46c-0.27-2.41-0.51-4.83-0.62-7.25C70.1,105.23,69.27,93.47,68,81.75
	c-0.49-4.48-1.05-8.94-0.92-13.46c0.07-2.4,0.63-4.54,2.41-6.28c0.96-0.95,2.03-1.68,3.36-1.85c1.58-0.2,3.18-0.35,4.77-0.35
	c11.61-0.03,23.22-0.05,34.83,0.01c5.11,0.03,10.16-0.63,15.23-1.14C127.89,58.66,128.11,58.55,128.47,58.43z M163.83,102.33
	c0.53-0.27,0.77-0.33,0.94-0.48c2.19-1.96,3.75-4.28,3.91-7.31c0.09-1.65,0.05-3.31,0.04-4.97c-0.02-1.94-0.65-3.7-1.57-5.4
	c-2.14-3.95-5.53-6.75-8.72-9.74c-0.17-0.16-0.4-0.26-0.59-0.39c-0.74-0.49-1.36-0.5-2,0.25c-1.03,1.21-2.52,1.48-4,1.67
	c-0.38,0.05-0.82-0.07-1.19-0.21c-0.17-0.06-0.39-0.39-0.35-0.54c0.05-0.25,0.26-0.57,0.47-0.64c0.38-0.13,0.82-0.08,1.23-0.13
	c1.49-0.16,2.63-0.85,3.57-2.05c1.71-2.17,1.32-4.42,0.44-6.71c-0.59-1.55-1.74-2.52-3.34-2.92c-2.1-0.53-4.21-0.67-6.32-0.11
	c-0.62,0.16-1.25,0.41-1.79,0.74c-1.25,0.78-1.5,1.65-1.16,3.14c0.17,0.74,0.31,1.52,0.29,2.28c-0.04,1.13-0.59,1.37-1.64,1.04
	c-1.4-0.43-2.84-0.74-4.27-1.09c-0.71-0.17-1.17,0.08-1.66,0.66c-0.79,0.94-1.7,1.8-2.64,2.58c-0.83,0.69-1.42,1.48-1.33,2.55
	c0.09,1.17,0.29,2.34,0.55,3.49c0.33,1.5,0.37,1.49-0.91,2.45c-1.66,1.25-1.87,2.87-0.47,4.42c0.96,1.06,2.08,1.78,3.66,1.88
	c1.42,0.09,2.76,0.24,4.13-0.28c0.39-0.15,0.92,0.09,1.38,0.15c0.64,0.08,1.29,0.18,1.93,0.25c3.47,0.37,6.67-0.51,9.77-1.99
	c1.6-0.76,2.53-1.93,2.58-3.71c0.04-1.35,0.23-2.71-0.52-3.99c-0.18-0.31-0.12-1.09,0.1-1.23c0.59-0.38,1,0.16,1.2,0.66
	c0.3,0.76,0.64,1.55,0.69,2.34c0.11,1.94,0.17,3.9-1.11,5.65c3.43,1.59,5.39,4.3,6.84,7.4C163.41,95.17,163.91,98.55,163.83,102.33z
	 M138.97,120.64c-0.45-0.09-0.67-0.16-0.89-0.17c-1.69-0.04-3.31-0.21-4.46-1.71c-0.17-0.22-0.63-0.33-0.95-0.32
	c-1.36,0.03-2.72,0.06-4.07,0.21c-1.44,0.16-1.74,0.46-1.83,1.89c-0.19,2.84-0.03,5.67,0.69,8.44c0.34,1.31,0.66,1.62,1.98,1.53
	c2.53-0.18,5.05-0.48,7.57-0.77c0.86-0.1,1.39-0.64,1.45-1.53C138.65,125.71,138.81,123.19,138.97,120.64z M133.68,101.13
	c-0.33,0.05-0.66,0.1-1,0.16c-2.71,0.45-3.51,0.09-4.63-2.35c-0.58-1.28-0.98-2.65-1.46-3.98c-0.16-0.43-0.32-0.85-0.53-1.43
	c-1.38,0.21-2.69,0.4-4.08,0.61c0.03,0.76,0.03,1.28,0.08,1.8c0.23,2.11,0.46,4.23,0.72,6.33c0.29,2.3,1.7,3.51,4,3.14
	c1.79-0.29,3.53-0.88,5.28-1.41C133.92,103.44,134,103.27,133.68,101.13z M129,84.06c-0.56-2.34,0.61-3.91,2.11-5.06
	c-0.22-2.13-0.43-4.05-0.64-6.09c-2.37-0.63-4.64,0.18-7.05,0.79c0.22,2.85,0.19,5.59,1.13,8.18
	C125.57,84.68,125.67,84.69,129,84.06z M128.2,69.89c0.41,1.46,1.47,1.42,2.45,1.39c1.76-0.05,3.03-0.93,4.03-2.61
	C132.29,68.47,130.32,69.1,128.2,69.89z M137.52,59.57c1.58,1.43,2.93,2.65,4.45,4.02c-0.1-0.75-0.18-1.27-0.24-1.79
	c-0.28-2.11-0.54-2.35-2.64-2.34C138.64,59.46,138.19,59.52,137.52,59.57z M125,71.32c1.6,0.12,1.6,0.12,1.68-0.85
	C126.07,70.78,125.53,71.05,125,71.32z"/>
<path d="M93.13,68.89c0.88,4.17,0.87,8.3,0.77,12.43c-0.03,1.21-0.35,1.52-1.55,1.79c-0.52,0.11-1.05,0.14-1.58,0.19
	c-2.81,0.31-5.63,0.59-8.44,0.94c-2.6,0.33-3.89-0.48-4.1-3.11c-0.23-2.76-0.21-5.55-0.16-8.32c0.02-1.54,0.84-2.66,2.39-3.17
	C84.34,68.37,88.63,68.09,93.13,68.89z M91.7,70.28c-3.69-0.63-7.66-0.31-10.75,0.77c-1.08,0.38-1.45,1.17-1.48,2.17
	c-0.04,1.54-0.01,3.07,0.03,4.61c0.03,1.12,0.06,2.25,0.22,3.36c0.2,1.45,0.71,1.77,2.18,1.6c0.12-0.01,0.23-0.05,0.35-0.06
	c2.7-0.29,5.39-0.58,8.09-0.87c0.63-0.07,1.25-0.17,2.01-0.28C92.38,77.73,92.74,74.02,91.7,70.28z"/>
<path d="M116.84,99.04c0,1.72-0.01,3.43,0,5.15c0.01,1.29-0.55,2.14-1.79,2.54c-0.62,0.2-1.21,0.54-1.84,0.64
	c-2.51,0.42-5.02,0.88-7.54,1.12c-2.5,0.23-3-0.31-3.45-2.72c-0.36-1.92-0.84-3.81-1.19-5.73c-0.2-1.1-0.32-2.23-0.35-3.35
	c-0.07-2.59,0.4-3.25,2.87-3.94c3.26-0.91,6.58-1.51,9.99-1.31c0.63,0.04,1.26,0.24,1.87,0.41c0.93,0.26,1.31,0.92,1.31,1.86
	c0,1.77,0,3.55,0,5.32C116.76,99.04,116.8,99.04,116.84,99.04z M103.99,106.84c0.37,0.1,0.61,0.24,0.82,0.2
	c3.08-0.49,6.15-0.98,9.23-1.51c1.04-0.18,1.4-0.87,1.37-1.93c-0.09-3.01-0.09-6.02-0.17-9.03c-0.04-1.49-0.16-1.6-1.61-1.67
	c-3.4-0.17-6.71,0.43-9.95,1.37c-1.4,0.4-1.5,0.64-1.51,2.19C102.13,100.05,103.48,103.37,103.99,106.84z"/>
<path d="M115.18,68.13c0,1.08-0.04,2.07,0.01,3.05c0.07,1.3,0.18,2.6,0.32,3.89c0.21,1.94,0.56,3.87,0.67,5.82
	c0.1,1.81-0.54,2.55-2.31,2.72c-3.12,0.29-6.25,0.52-9.38,0.64c-2,0.08-2.5-0.44-2.67-2.47c-0.28-3.42-0.53-6.85-0.72-10.28
	c-0.14-2.54,0.61-3.5,3.13-3.82c1.81-0.23,3.66-0.19,5.49-0.17c1.53,0.02,3.07,0.18,4.6,0.3C114.57,67.82,114.78,67.97,115.18,68.13
	z M114.68,81.99c0-0.83,0.06-1.48-0.01-2.11c-0.17-1.47-0.44-2.92-0.59-4.39c-0.21-2.02-0.81-4.04-0.14-6.24
	c-0.52-0.07-1.03-0.2-1.53-0.21c-2.13-0.04-4.26-0.07-6.39-0.06c-0.59,0-1.19,0.06-1.76,0.19c-1.47,0.33-1.75,0.67-1.68,2.2
	c0.1,2.42,0.22,4.85,0.4,7.27c0.1,1.33,0.32,2.66,0.49,4C107.34,83.13,110.92,82.4,114.68,81.99z"/>
<path d="M86.61,91.98c1.42,0,2.84-0.07,4.25,0.02c1.19,0.08,2.17,0.62,2.51,1.89c0.26,0.97,0.61,1.94,0.68,2.93
	c0.17,2.65,0.3,5.32,0.26,7.97c-0.03,2.06-0.36,2.36-2.4,2.93c-2.05,0.58-4.09,1.21-6.18,1.59c-2.46,0.45-3.92-0.62-4.56-3.08
	c-0.13-0.51-0.21-1.04-0.28-1.57c-0.42-2.99-0.83-5.97-1.25-8.96c-0.06-0.41-0.16-0.82-0.18-1.23c-0.09-1.47,0.37-2.11,1.84-2.29
	c1.76-0.21,3.54-0.27,5.31-0.39C86.6,91.86,86.61,91.92,86.61,91.98z M91.81,93.9c-3.74-0.73-7.23-0.58-10.91-0.17
	c0.08,0.7,0.14,1.21,0.21,1.72c0.41,2.98,0.81,5.96,1.22,8.94c0.05,0.35,0.09,0.7,0.17,1.05c0.46,2.14,1.21,2.77,3.34,2.36
	c1.91-0.36,3.75-1.02,5.64-1.47c0.97-0.23,1.43-0.78,1.39-1.74c-0.11-2.77-0.21-5.53-0.41-8.29C92.4,95.5,92.04,94.73,91.81,93.9z"
	/>
<path d="M118.59,116.42c-0.07,0.88-0.19,1.76-0.19,2.64c0.02,2.6,0.1,5.21,0.14,7.81c0.02,1.17-0.65,1.95-1.71,2.22
	c-3.15,0.8-6.32,1.65-9.62,1.43c-2.18-0.15-3.56-1.27-3.92-3.45c-0.38-2.27-0.61-4.58-0.72-6.88c-0.13-2.76,1.32-4.28,4.08-4.51
	c1-0.08,2.01-0.06,3.02-0.08c2.42-0.05,4.85-0.14,7.27-0.12c0.65,0.01,1.29,0.36,1.94,0.56
	C118.78,116.16,118.68,116.29,118.59,116.42z M116.55,117.17c-3.43,0-6.72,0-10.01,0.01c-0.17,0-0.35,0.07-0.52,0.12
	c-1.53,0.45-2.09,1.08-2,2.67c0.13,2.18,0.33,4.35,0.65,6.51c0.27,1.84,1.13,2.51,3.02,2.59c2.87,0.11,5.61-0.68,8.37-1.28
	c0.65-0.14,1.01-0.54,1.02-1.25C117.14,123.47,117.27,120.4,116.55,117.17z"/>
<path d="M96.48,124.72c-0.04,0.99-0.05,1.99-0.14,2.99c-0.09,1.06-0.69,1.75-1.74,1.98c-2.14,0.45-4.27,0.92-6.42,1.29
	c-0.74,0.13-1.53,0.08-2.29,0c-1.29-0.14-2.22-0.86-2.61-2.1c-0.94-2.99-1.73-6.03-1.85-9.18c-0.09-2.32,0.73-3.36,2.97-3.98
	c2.79-0.77,5.59-1.49,8.55-1.24c1.29,0.11,2.33,0.32,2.6,1.82c0.12,0.63,0.49,1.22,0.54,1.85
	C96.27,120.34,96.35,122.52,96.48,124.72z M94.92,124.63c0.02,0,0.04,0,0.05,0c-0.11-2.06-0.17-4.13-0.34-6.19
	c-0.16-1.89-0.82-2.41-2.66-2.51c-2.35-0.12-4.56,0.54-6.78,1.12c-2.05,0.54-2.48,0.99-2.22,3.12c0.29,2.34,0.79,4.65,1.32,6.95
	c0.53,2.28,1.14,2.64,3.52,2.43c0.47-0.04,0.94-0.12,1.4-0.22c1.5-0.31,2.99-0.69,4.5-0.95c0.87-0.15,1.22-0.62,1.22-1.44
	C94.92,126.17,94.92,125.4,94.92,124.63z"/>
<path d="M122.55,143.62c-0.13,1.59-0.2,3.19-0.4,4.77c-0.18,1.49-0.64,2.01-2.12,2.16c-2.64,0.26-5.3,0.46-7.95,0.51
	c-1.87,0.03-2.92-0.79-3.28-2.63c-0.52-2.66-0.92-5.36-1.14-8.06c-0.16-2.03,0.77-2.91,2.79-3.12c0.59-0.06,1.18-0.09,1.77-0.04
	c2.53,0.22,5.06,0.43,7.58,0.73c2.05,0.24,2.6,0.92,2.63,3.02c0.01,0.89,0,1.77,0,2.66C122.47,143.62,122.51,143.62,122.55,143.62z
	 M115.35,149.39c0,0.01,0,0.02,0,0.03c1.3-0.09,2.6-0.13,3.89-0.27c1.33-0.14,1.41-0.19,1.5-1.48c0.14-2.06,0.21-4.13,0.23-6.19
	c0.02-1.87-0.06-1.92-1.99-2.15c-1.82-0.22-3.64-0.41-5.46-0.57c-0.88-0.08-1.77-0.11-2.65-0.06c-1.42,0.08-1.83,0.44-1.69,1.88
	c0.23,2.41,0.56,4.81,0.97,7.19c0.25,1.45,0.85,1.82,2.38,1.81C113.46,149.57,114.41,149.46,115.35,149.39z"/>
<path d="M99.74,145.5c0,1.06,0.03,1.77-0.01,2.48c-0.06,1.14-0.31,1.5-1.46,1.64c-2.99,0.35-5.99,0.69-8.99,0.88
	c-1.96,0.12-2.79-0.43-3.22-2.33c-0.5-2.17-0.7-4.42-0.9-6.65c-0.13-1.36,0.71-2.34,1.94-2.64c2.98-0.73,5.99-1.29,8.99-1.91
	c0.17-0.04,0.35-0.01,0.53,0c2.06,0.16,2.42,0.45,2.64,2.51C99.49,141.6,99.6,143.73,99.74,145.5z M97.74,138.76
	c-1.02-0.11-1.74-0.36-2.4-0.23c-2.44,0.46-4.86,0.97-7.26,1.58c-1.3,0.33-1.53,0.72-1.47,2.05c0.06,1.3,0.17,2.6,0.39,3.88
	c0.48,2.89,0.96,3.25,3.86,2.96c2.23-0.22,4.46-0.51,6.69-0.78c0.22-0.03,0.42-0.17,0.83-0.35
	C98.17,144.9,97.96,141.92,97.74,138.76z"/>
<path d="M135.14,138c1.24,0,2.49-0.08,3.72,0.02c1.89,0.15,2.41,0.69,2.4,2.55c-0.02,2.48-0.15,4.96-0.22,7.44
	c-0.04,1.42-0.77,2.22-2.1,2.72c-2.53,0.93-5.11,0.77-7.71,0.56c-1.01-0.08-1.62-0.74-1.77-1.71c-0.43-2.8-0.92-5.6-1.17-8.41
	c-0.18-2.08,0.38-2.65,2.44-2.93c1.46-0.19,2.94-0.19,4.42-0.28C135.13,137.97,135.13,137.99,135.14,138z M139.91,139.75
	c-3.54-0.46-6.72-0.37-10.01,0.12c-0.47,3.51,0.73,6.62,1.08,9.91c2.64,0.13,5.04,0.47,7.39-0.44c0.65-0.25,1.15-0.57,1.18-1.36
	C139.65,145.33,139.78,142.69,139.91,139.75z"/>
<path d="M138.3,74.04c1.31,0.05,2.53,0.18,3.33,1.35c0.63,0.92,0.41,1.7-0.6,2.09c-1.31,0.5-4.17-0.37-4.99-1.52
	c-0.59-0.84-0.42-1.36,0.58-1.69c0.22-0.07,0.45-0.15,0.68-0.18C137.64,74.05,138,74.06,138.3,74.04z"/>
</svg>
