<?xml version="1.0" encoding="utf-8"?>
<!-- Generator: Adobe Illustrator 28.2.0, SVG Export Plug-In . SVG Version: 6.00 Build 0)  -->
<svg version="1.1" id="Layer_1" xmlns="http://www.w3.org/2000/svg" xmlns:xlink="http://www.w3.org/1999/xlink" x="0px" y="0px"
	 viewBox="0 0 190 195" style="enable-background:new 0 0 190 195;" xml:space="preserve">
<path d="M88.34,100.5c0-1.43,0.05-2.77-0.01-4.1c-0.06-1.27,0.32-1.71,1.57-1.67c1.18,0.05,2.37,0,3.55,0.08
	c4.01,0.26,8.03,0.53,12.04,0.87c1.52,0.13,1.68,0.53,1.79,2.06c0.38,4.91-0.6,9.66-1.51,14.43c-0.08,0.41-0.18,0.81-0.27,1.21
	c-0.17,0.74-0.63,1.09-1.4,1.08c-1-0.02-2,0-3.14,0c0.12,0.55,0.19,1.05,0.34,1.53c0.38,1.27,0.12,2.44-0.46,3.6
	c-0.64,1.28-1.61,2.1-3.06,2.06c-2-0.05-4.03-0.07-5.99-0.43c-2.13-0.39-2.82-1.68-2.33-3.8c0.17-0.73,0.48-1.47,0.86-2.11
	c0.35-0.59,0.89-1.06,1.47-1.72c-1.22-0.46-2.3-0.21-3.36-0.04c-2.64,0.43-2.68,0.42-2.65-2.29c0.01-0.59,0-1.17,0-1.89
	c-0.53-0.04-0.98-0.08-1.42-0.11c-2.33-0.14-3.71-1.17-4.05-3.01c-0.38-2.04,0.6-4.22,2.5-5.02c1.06-0.45,2.28-0.54,3.44-0.72
	C86.84,100.42,87.49,100.5,88.34,100.5z"/>
</svg>
