<?xml version="1.0" encoding="utf-8"?>
<!-- Generator: Adobe Illustrator 28.2.0, SVG Export Plug-In . SVG Version: 6.00 Build 0)  -->
<svg version="1.1" id="Layer_1" xmlns="http://www.w3.org/2000/svg" xmlns:xlink="http://www.w3.org/1999/xlink" x="0px" y="0px"
	 viewBox="0 0 190 195" style="enable-background:new 0 0 190 195;" xml:space="preserve">
<path d="M104.91,114.04c0,1.04,0.17,2.08-0.05,3.03c-0.23,1.01-0.66,2.05-1.27,2.88c-1.91,2.65-5.09,2.54-6.94-0.16
	c-0.2-0.29-0.35-0.62-0.58-1.01c-1.7-0.04-3.34,0.45-4.98,0.9c-2.74,0.76-3.36,0.44-4.34-2.28c-0.3-0.83-0.57-1.67-0.86-2.53
	c-1.07,0.1-2.06,0.3-3.04,0.27c-3.52-0.09-5.59-3.11-4.46-6.43c0.47-1.38,1.4-2.31,2.76-2.81c0.49-0.18,1-0.31,1.49-0.46
	c-0.42-1.63-0.87-3.16-1.2-4.72c-0.38-1.77-0.07-2.23,1.66-2.67c1.95-0.49,3.91-0.95,5.87-1.38c1.12-0.24,1.59,0.06,2.04,1.18
	c0.24,0.6,0.38,1.25,0.66,1.84c0.49,1.02,1.22,1.35,2.33,1.15c2.04-0.38,3.01-1.72,2.76-3.82c-0.22-1.81-0.08-1.99,1.75-2.32
	c1.34-0.25,2.67-0.52,4.02-0.72c1.4-0.21,1.87,0.24,2.21,1.63c0.33,1.37,0.76,2.71,1.24,4.03c0.48,1.31,0.34,1.63-0.99,2.04
	c-0.96,0.29-1.91,0.61-2.84,1c-0.62,0.26-1.09,0.74-1.04,1.5c0.06,0.81,0.57,1.41,1.28,1.53c1.09,0.18,2.23,0.21,3.34,0.15
	c2.16-0.12,2.54,0.09,3.2,2.15c0.31,0.96,0.65,1.9,0.96,2.86c0.37,1.14,0.26,1.45-0.91,1.88
	C107.74,113.22,106.42,113.57,104.91,114.04z M88.94,118.55c2.44-0.48,4.57-0.94,6.72-1.29c1.41-0.23,1.42-0.16,2.03,1.24
	c0.97,2.23,3.31,2.51,4.77,0.55c1.01-1.36,1.31-2.87,0.93-4.54c-0.43-1.88-0.4-1.84,1.57-2.18c1.14-0.2,2.25-0.56,3.51-0.88
	c-0.49-1.51-0.9-2.78-1.34-4.16c-0.87,0.06-1.63,0.21-2.38,0.15c-1.1-0.09-2.3-0.09-3.27-0.53c-2.4-1.08-2.51-3.97-0.28-5.37
	c0.59-0.37,1.28-0.6,1.93-0.88c0.42-0.18,0.85-0.33,1.21-0.48c-0.44-1.58-0.85-3.05-1.32-4.74c-1.55,0.28-3.13,0.56-4.71,0.85
	c0,0.53,0,0.82,0,1.11c0.03,2.52-1.03,3.98-3.42,4.74c-2.2,0.69-3.87-0.08-4.72-2.2c-0.24-0.58-0.42-1.18-0.64-1.79
	c-2.34,0.53-4.49,1.02-6.89,1.57c0.56,1.86,0.95,3.52,1.56,5.1c0.83,2.14,0.9,2.13-1.31,2.26c-0.12,0.01-0.24,0-0.35,0.02
	c-1.7,0.2-2.8,1.36-2.92,3.04c-0.13,1.81,0.82,3.19,2.61,3.43c0.95,0.12,1.99-0.08,2.94-0.31c1.36-0.34,1.61-0.3,2.12,1.04
	c0.29,0.77,0.49,1.58,0.79,2.36C88.32,117.29,88.64,117.91,88.94,118.55z"/>
</svg>
