<?xml version="1.0" encoding="utf-8"?>
<!-- Generator: Adobe Illustrator 28.2.0, SVG Export Plug-In . SVG Version: 6.00 Build 0)  -->
<svg version="1.1" id="Layer_1" xmlns="http://www.w3.org/2000/svg" xmlns:xlink="http://www.w3.org/1999/xlink" x="0px" y="0px"
	 viewBox="0 0 190 195" style="enable-background:new 0 0 190 195;" xml:space="preserve">
<path d="M97.8,100.91c1.66-0.21,3.23-0.47,4.8-0.61c1.56-0.14,1.83,0.11,2.05,1.71c0.14,1.05,0.22,2.11,0.34,3.3
	c2.69,0.12,3.63,2.04,4.21,4.27c0.41,1.59-0.01,2.46-1.51,3.13c-0.91,0.41-1.84,0.76-2.88,1.18c0.11,1,0.21,1.87,0.31,2.74
	c0.12,1.12-0.03,1.36-1.15,1.56c-1.05,0.18-2.1,0.3-3.27,0.45c-0.49,2.35-2.01,3.59-4.43,3.71c-2.83,0.13-3.84-1.88-4.72-4.18
	c-1.75-0.13-3.51-0.26-5.27-0.38c-1.44-0.1-1.66-0.32-1.59-1.71c0.06-1.06,0.11-2.13,0.18-3.19c0.04-0.59,0.05-1.31,0.87-1.27
	c0.75,0.04,0.62,0.71,0.62,1.24c-0.01,1.06,0,2.12,0,3.25c2.38,0.72,4.92,0.14,7.24,0.74c0.3,0.9-0.56,1.46-0.04,2.32
	c1,1.67,3.1,2.23,4.66,1.02c0.57-0.44,0.74-0.99,0.75-1.7c0.02-1.17,0.19-1.3,1.31-1.41c1.04-0.11,2.08-0.21,3.13-0.32
	c0-0.77,0.06-1.36-0.01-1.94c-0.18-1.32,0.39-2.16,1.57-2.65c0.6-0.25,1.21-0.47,1.81-0.73c1.1-0.47,1.23-0.74,0.87-1.91
	c-0.16-0.51-0.36-1.01-0.62-1.47c-0.6-1.08-1.06-1.22-2.29-0.79c-1.03,0.36-1.43-0.02-1.41-1.18c0.02-1.39-0.07-2.79-0.11-4.27
	c-1.92-0.09-3.52,0.32-5.12,0.67c-1.76,0.38-1.98,0.26-1.96-1.56c0.01-1.62-0.56-3.01-1.43-4.31c-0.63-0.94-1.26-1.09-2.29-0.68
	c-1.84,0.73-2.75,2.64-2.18,4.59c0.26,0.87-0.09,1.28-1.09,1.21c-1-0.07-2-0.22-3-0.29c-0.57-0.04-1.15-0.01-1.83-0.01
	c0,0.81-0.02,1.45,0,2.09c0.05,1.91-0.07,2.05-1.92,2.09c-0.41,0.01-0.83,0.03-1.24,0.05c-0.86,0.04-1.24,0.55-1.35,1.36
	c-0.28,1.97,0.71,3.21,2.72,3.33c0.59,0.03,1.19-0.05,1.77,0.02c0.23,0.03,0.63,0.37,0.6,0.5c-0.06,0.29-0.27,0.68-0.52,0.79
	c-1.32,0.6-3.97,0.01-4.99-1.05c-1.08-1.13-1.44-3.58-0.73-5.01c0.4-0.81,1.09-1.23,1.96-1.36c0.7-0.11,1.4-0.19,2.14-0.28
	c0-0.82-0.01-1.58,0-2.35c0.01-1.39,0.24-1.64,1.67-1.67c1.24-0.03,2.48-0.01,3.84-0.01c0.1-0.47,0.2-0.98,0.33-1.49
	c0.47-1.84,1.54-3.18,3.31-3.91c1.66-0.68,3.09-0.33,4,1.22c0.7,1.21,1.12,2.58,1.64,3.89C97.67,100.05,97.7,100.46,97.8,100.91z"/>
</svg>
