<?xml version="1.0" encoding="utf-8"?>
<!-- Generator: Adobe Illustrator 28.2.0, SVG Export Plug-In . SVG Version: 6.00 Build 0)  -->
<svg version="1.1" id="Layer_1" xmlns="http://www.w3.org/2000/svg" xmlns:xlink="http://www.w3.org/1999/xlink" x="0px" y="0px"
	 viewBox="0 0 190 195" style="enable-background:new 0 0 190 195;" xml:space="preserve">
<path d="M98.32,100.62c1.82,0.13,3.5,0.24,5.36,0.37c0.05,0.37,0.16,0.82,0.15,1.26c-0.06,1.42-0.14,2.84-0.26,4.26
	c-0.09,1.12-0.37,1.32-1.49,1.14c-0.41-0.07-0.8-0.21-1.21-0.28c-1.26-0.19-2.07,0.16-2.39,1.01c-0.36,0.96-0.03,2.35,0.9,2.82
	c0.87,0.43,1.88,0.69,2.85,0.77c1.63,0.13,1.68,0.07,1.63,1.73c-0.1,3.18,0.61,3.33-3.38,3.63c-1.05,0.08-2.12,0.01-3.09,0.01
	c-0.67,1-1.19,1.94-1.87,2.75c-1.11,1.32-2.46,2.37-4.31,1.79c-1.86-0.58-2.3-2.23-2.47-3.95c-0.05-0.52-0.07-1.05-0.11-1.77
	c-1.34,0-2.62-0.01-3.89,0c-1.45,0.02-1.68-0.19-1.52-1.63c0.16-1.47,0.33-2.94,0.56-4.4c0.18-1.11,0.45-1.23,1.58-1.05
	c0.87,0.14,1.75,0.25,2.63,0.25c0.48,0,0.97-0.23,1.51-0.38c-0.2-1.7-1.35-2.23-2.52-2.64c-0.65-0.22-1.4-0.21-2.1-0.2
	c-1.55,0.03-1.73-0.12-1.64-1.72c0.05-0.77,0.13-1.53,0.18-2.3c0.11-1.5,0.41-1.81,1.97-1.86c1.06-0.04,2.13,0.02,3.2,0.02
	c0.52,0,1.03-0.06,1.55-0.09c0.21-1.1,0.32-2.1,0.58-3.06c0.59-2.18,2-3.22,3.97-3.03c2.09,0.2,3.56,1.7,3.71,3.86
	C98.48,98.71,98.37,99.48,98.32,100.62z M102.22,102.65c-1.64-0.3-3.1-0.51-4.53-0.84c-1.18-0.28-1.24-0.55-1.03-1.78
	c0.15-0.85,0.26-1.76,0.13-2.6c-0.18-1.12-1.15-1.8-2.29-1.88c-1.08-0.08-1.79,0.41-2.22,1.65c-0.47,1.34-0.78,2.7,0.32,4.15
	c-2.58,0.99-5.1,0.01-7.62,0.55c-0.06,0.81-0.11,1.61-0.17,2.49c0.69,0.11,1.26,0.19,1.83,0.3c1.31,0.25,2.49,0.8,3.4,1.78
	c0.76,0.81,1.23,1.78,0.79,2.92c-0.43,1.09-1.41,1.37-2.46,1.42c-1,0.04-2,0.01-3.15,0.01c-0.13,1.28-0.26,2.48-0.39,3.78
	c1.39,0,2.56,0,3.74,0c1.6,0,1.71,0.13,1.7,1.7c0,0.88-0.04,1.8,0.17,2.64c0.43,1.68,1.79,2.16,3.08,1c0.89-0.8,1.63-1.87,2.17-2.96
	c0.49-0.98,1.04-1.28,2.07-1.13c1.52,0.22,3.03,0.12,4.54-0.32c0-0.68,0-1.25,0-1.85c-0.48-0.09-0.9-0.12-1.28-0.26
	c-0.93-0.35-1.94-0.61-2.73-1.16c-1.35-0.94-1.79-2.96-1.19-4.49c0.52-1.33,1.68-1.96,3.46-1.9c0.46,0.02,0.91,0.06,1.44,0.09
	c0.09-0.94,0.18-1.75,0.25-2.57C102.27,103.16,102.23,102.93,102.22,102.65z"/>
</svg>
