<?xml version="1.0" encoding="utf-8"?>
<!-- Generator: Adobe Illustrator 28.2.0, SVG Export Plug-In . SVG Version: 6.00 Build 0)  -->
<svg version="1.1" id="Layer_1" xmlns="http://www.w3.org/2000/svg" xmlns:xlink="http://www.w3.org/1999/xlink" x="0px" y="0px"
	 viewBox="0 0 232.77 195" style="enable-background:new 0 0 232.77 195;" xml:space="preserve">
<path d="M112.13,78.22c-1.96-0.92-3.86-1.04-5.7-0.05c-2.71,1.46-4.91,3.51-6.49,6.17c-0.98,1.65-1.26,3.44-0.74,5.31
	c0.64,2.29,2.49,3.54,4.85,3.15c0.98-0.16,1.91-0.59,2.86-0.92c0.33-0.12,0.62-0.38,0.96-0.44c0.24-0.04,0.63,0.06,0.76,0.24
	c0.12,0.17,0.03,0.54-0.04,0.79c-0.04,0.15-0.22,0.28-0.37,0.37c-1.99,1.18-4.1,1.89-6.44,1.31c-2.34-0.59-3.84-2.4-4.19-4.97
	c-0.29-2.14,0.13-4.13,1.3-5.95c1.66-2.59,3.87-4.63,6.51-6.19c2.32-1.36,4.75-1.29,7.26-0.28c1.84-3.12,4.78-5.07,7.43-7.31
	c0.67-0.57,0.96-1.16,0.86-1.98c-0.16-1.35-0.31-2.71-0.5-4.05c-0.2-1.44-0.03-1.86,1.35-2.21c3.1-0.8,6.21-1.53,9.32-2.24
	c0.97-0.22,1.57,0.11,1.87,1.17c0.39,1.36,0.6,2.77,0.85,4.17c0.14,0.8,0.19,1.62,0.3,2.51c3.34,0.73,5.88,2.66,8.34,4.66
	c0.17-0.03,0.32,0,0.39-0.07c4.34-4.23,10.92-5.41,16.44-2.86c3.45,1.59,5.62,4.26,6.4,8.01c0.6,2.88-0.35,5.34-2.84,6.91
	c-1.34,0.84-2.85,1.41-4.44,2.18c1.51,4.02,1.05,7.95-1.72,11.65c1.89,0.33,3.55,0.79,5.23,0.87c1.69,0.08,3.04,0.81,4.45,1.56
	c3.6,1.93,6.38,4.75,9.15,7.74c2.47,2.67,2.49,5.52,1.81,8.55c-0.97,4.31-3.89,6.92-8.05,8.21c-0.62,0.19-1.26,0.32-2.13,0.54
	c0.51,0.23,0.83,0.41,1.17,0.51c1.65,0.48,3.3,0.95,4.96,1.4c2.64,0.72,5.23,0.67,7.87-0.14c2.31-0.71,4.67-1.4,7.06-1.71
	c2.02-0.26,4.13-0.05,6.18,0.14c0.91,0.08,1.82,0.53,2.64,0.97c1.53,0.83,2.35,2.19,2.23,3.94c-0.08,1.17-0.29,2.35-0.64,3.47
	c-0.93,3.02-2.38,5.81-4.15,8.42c-2.07,3.04-5.01,4.98-8.37,6.35c-1.54,0.63-3.12,0.6-4.71,0.18c-0.4-0.11-0.8-0.24-1.18-0.4
	c-8.07-3.43-16.66-4.89-25.17-6.69c-1.04-0.22-2.11-0.26-3.17-0.35c-0.93-0.08-1.91,0.12-2.68-0.63c-0.07-0.07-0.23-0.09-0.34-0.08
	c-1.86,0.24-3.67-0.42-5.6-0.03c-2.95,0.6-5.98,0.78-8.98,1.16c-0.46,0.06-0.92,0.18-1.34,0.37c-3.6,1.66-7.17,3.38-10.79,5.01
	c-0.79,0.36-1.71,0.46-2.58,0.6c-3.99,0.66-7.85,1.74-11.6,3.25c-4.67,1.88-9.39,3.63-14.1,5.4c-1.27,0.48-2.57,0.91-3.9,1.21
	c-2.27,0.52-4.37,0.09-6.51-0.95c-5.22-2.55-7.58-7.08-9.03-12.32c-0.72-2.61-0.05-4.92,1.62-6.98c0.75-0.92,1.58-1.76,2.37-2.65
	c0.57-0.65,1.29-0.92,2.08-0.61c3.24,1.29,6.49,2.55,9.66,3.99c0.95,0.43,1.7,0.65,2.66,0.22c3.78-1.69,7.58-3.34,11.37-5.02
	c0.26-0.11,0.5-0.27,0.72-0.71c-0.6,0-1.21,0-1.81,0c-3.54,0.02-6.78-0.97-9.7-2.97c-2.47-1.7-3.05-3.38-2.29-6.28
	c0.54-2.08,1.79-3.73,3.18-5.27c0.71-0.79,1.24-1.51,0.8-2.67c-0.14-0.38,0.13-1.04,0.42-1.43c0.89-1.18,1.87-2.3,2.81-3.43
	c0.64-0.77,1.3-1.53,1.94-2.31c2.04-2.45,4.78-3.8,7.65-4.96c0.47-0.19,0.97-0.32,1.63-0.53c-1.64-1.97-1.43-4.02-0.66-6.11
	c0.66-1.78,0.38-3.63,0.42-5.46c0.02-0.79-0.24-1.69,0.84-2.11c0.2-0.08,0.31-0.61,0.31-0.93c-0.05-3.01,0.61-5.88,1.6-8.69
	C112.11,78.79,112.09,78.6,112.13,78.22z M128.62,130.12c-0.15-0.25-0.41-0.49-0.43-0.74c-0.08-1.19-0.76-1.64-1.87-1.61
	c-0.45,0.01-0.89,0-1.61,0c0.32,0.73,0.42,1.55,0.78,1.69c0.99,0.38,1.99,1.11,3.17,0.6c0.61,0.31,1.18,0.75,1.83,0.89
	c1.38,0.31,2.79,0.53,4.2,0.64c1.03,0.08,1.77,0.4,1.95,1.46c1.02-0.21,1.88-0.39,2.89-0.6c-0.14-1.03-0.26-1.99-0.39-2.94
	c-1.56-0.13-2.96-0.25-4.45-0.38c-0.06,0.4-0.03,0.7-0.15,0.94c-0.16,0.33-0.43,0.6-0.65,0.9c-0.25-0.27-0.59-0.51-0.73-0.83
	c-0.16-0.36-0.14-0.79-0.21-1.32c-1.11-0.17-2.18-0.34-3.35-0.51c0,0.62,0.07,1.04-0.02,1.43
	C129.46,130.26,129.09,130.38,128.62,130.12z M120.26,82.99c-1.4,0.96-2.79,1.94-4.2,2.88c-1.06,0.71-1.85,1.75-3.14,2.24
	c-0.79,0.3-1.33,1.23-2.11,2.01c0.01,0.87-0.14,1.96,0.21,3.18c0.59-0.5,0.99-0.95,1.49-1.25c1.06-0.63,2.14-1.24,3.26-1.76
	c0.89-0.41,1.6,0,2.15,0.74c0.65,0.87,0.66,1.82-0.24,2.92c-1.93,2.34-4.26,3.89-7.47,3.25c-0.84,2.87-0.23,4.02,2.51,4.85
	c0.28,0.09,0.57,0.15,0.86,0.21c2.26,0.47,4.5,1.05,6.78,1.39c2.61,0.39,5.26,0.59,8.16,0.89c-0.82-1.53-1.04-2.83-0.59-4.19
	c0.99-2.95,4.33-5.05,7.41-4.61c1.8,0.25,3.07,1.23,3.65,2.96c0.55,1.67,0.12,3.15-1.08,4.42c-0.34,0.35-0.7,0.67-1.26,1.2
	c0.55-0.04,0.79-0.02,1.01-0.09c3.99-1.29,8.02-2.49,11.95-3.94c1.52-0.56,2.93-1.56,4.23-2.57c3.84-2.98,4.83-7.01,3.13-11.56
	c-0.57-1.54-0.88-3.18-1.3-4.77c-0.13-0.5-0.09-1.08,0.49-1.11c0.3-0.02,0.79,0.46,0.92,0.82c0.31,0.87,0.46,1.81,0.71,2.84
	c1.8-0.32,3.3-0.95,4.63-1.97c1.61-1.23,2.22-2.88,1.88-4.86c-0.49-2.84-1.9-5.15-4.41-6.56c-4.74-2.68-9.51-2.43-14.17,0.28
	c-0.75,0.44-1.48,0.99-1.67,2.02c0.55,0.68,1.12,1.35,1.67,2.05c1.45,1.83,2.18,3.92,2.16,6.25c-0.02,1.63-0.54,2.06-2.09,1.6
	c-1.98-0.59-3.98-1.18-5.87-2.01c-4.27-1.88-8.65-1.8-13.06-0.83c-2.42,0.53-4.76,1.39-6.64,3.15L120.26,82.99z M119.97,117.09
	c0.51,1.28,0.83,2.5,1.43,3.55c1.39,2.43,1.08,4.68-0.55,6.79c-2.08,2.68-4.97,3.92-8.26,4.35c-1.03,0.14-2.27-0.46-2.96,0.87
	c-0.05,0.1-0.34,0.06-0.51,0.11c-1.13,0.33-2.3,0.57-3.37,1.02c-4.08,1.74-8.13,3.56-12.19,5.34c-0.32,0.14-0.66,0.27-0.99,0.38
	c-1.02,0.34-1.95,0.19-2.86-0.43c-2.73-1.86-5.95-2.59-8.94-3.84c-0.59-0.25-1.11-0.19-1.57,0.39c-0.59,0.74-1.3,1.38-1.91,2.1
	c-1.48,1.74-2.03,3.74-1.37,5.96c1.38,4.65,3.33,8.9,8.13,11.05c0.05,0.02,0.11,0.05,0.15,0.09c1.69,1.12,3.53,1.32,5.45,0.87
	c0.98-0.23,1.95-0.51,2.89-0.86c2.66-0.99,5.31-2.04,7.96-3.05c6.69-2.55,13.3-5.35,20.48-6.33c1.19-0.16,2.34-0.82,3.44-1.38
	c1.58-0.79,3.11-1.69,4.67-2.55c0.4-0.22,0.8-0.45,1.2-0.67c-0.84-1.59-0.9-2.16,0.23-3.25c1.31-1.27,2.83-2.32,4.25-3.47
	c0.29-0.23,0.56-0.48,0.74-0.64c-3.27-0.76-6.48-1.55-9.7-2.25c-1.49-0.33-2.24-1.17-2.34-2.68c-0.25-3.78-0.53-7.56-0.79-11.34
	c0-0.06-0.01-0.12,0-0.18c0.02-0.54,0.02-1.2,0.74-1.14c0.27,0.02,0.56,0.62,0.71,1.01c0.12,0.31,0.05,0.7,0.07,1.06
	c0.03,0.77,0.1,1.54,0.09,2.31c0,0.84,0.39,1.33,1.17,1.56c0.5,0.15,0.99,0.31,1.58,0.5c0-2.12,0-4.1,0-6.21
	c-1-0.25-1.91-0.49-2.82-0.71c-1.02-0.26-1.27-0.8-0.63-1.64c0.42-0.56,0.96-1.06,1.54-1.45c2.64-1.8,5.31-3.56,7.98-5.33
	c0.13-0.09,0.34-0.06,0.42-0.07c1.2,1.05,2.35,2.05,3.45,3c1.17-0.51,2.13-0.98,3.13-1.31c0.27-0.09,0.68,0.26,1.02,0.4
	c-0.16,0.29-0.24,0.69-0.48,0.85c-0.57,0.37-1.21,0.62-2.07,1.05c0.86,0.51,1.45,0.86,2.08,1.23c1.21-0.73,2.36-1.41,3.81-2.28
	c-1.78-0.9-3.19-1.84-4.74-2.29c-1.1-0.32-1.7-0.61-1.47-1.71c-2.22,0.13-4.35,0.47-6.45,0.35c-5.14-0.3-10.29-0.57-15.32-1.83
	c-0.61-0.15-1.29-0.22-1.89-0.1c-1.15,0.23-2.24,0.76-3.39,0.94c-2.23,0.35-4.19,1.3-5.95,2.63c-1.75,1.32-3.38,2.79-5.05,4.2
	c-0.76,0.64-1.15,1.43-1.03,2.6C106.44,113.38,113.45,113.92,119.97,117.09z M150.33,138.75c1.35,0.27,2.62,0.54,3.89,0.79
	c8.87,1.78,17.79,3.35,26.2,6.85c2.36,0.98,4.55,0.81,6.81-0.37c6.22-3.25,8.84-8.93,10.53-15.28c0.09-0.33,0.06-0.71,0.05-1.06
	c-0.02-1.03-0.46-1.87-1.34-2.36c-0.77-0.42-1.61-0.85-2.46-0.94c-1.69-0.19-3.45-0.41-5.11-0.16c-2.5,0.37-4.97,1.02-7.4,1.74
	c-2.81,0.84-5.58,0.94-8.39,0.16c-1.2-0.33-2.38-0.73-3.59-1.01c-1.9-0.44-3.81-0.81-5.73-1.18c-1.27-0.25-2.36-0.02-3.51,0.74
	c-3.14,2.07-6.09,1.74-8.88-0.77c-0.07-0.07-0.22-0.05-0.44-0.09c-2.4,2.25-4.84,4.55-7.44,6.99
	C146.2,134.49,149.6,135,150.33,138.75z M139.45,105.44c3.01,1.75,6.07,3.52,9.13,5.32c1.62,0.95,3.3,1.86,3.36,4.09
	c2.39-0.82,2.37-0.82,3.19-2.94c0.84-2.19,2.13-4.1,3.81-5.72c0.49-0.48,1.15-0.82,1.8-1.06c0.24-0.09,0.65,0.33,0.99,0.52
	c-0.16,0.27-0.26,0.67-0.51,0.8c-2.52,1.36-3.69,3.73-4.76,6.19c-0.15,0.34-0.13,0.75-0.2,1.13c5.69,0.74,7.42,4.4,6.91,9.39
	c0.34,0.04,0.68,0.14,1.01,0.13c1.06-0.03,2.14-0.03,3.19-0.18c5.11-0.73,8.73-4.71,8.83-9.59c0.02-1.11-0.24-2.06-0.9-2.98
	c-2.33-3.21-5.19-5.82-8.49-7.99c-2.8-1.84-5.8-2.91-9.21-2.63c-0.32,0.03-0.71-0.06-0.99-0.23c-1.5-0.95-1.44-0.88-2.89-0.04
	c-1.79,1.03-3.61,2.05-5.52,2.8C145.29,103.59,142.28,104.49,139.45,105.44z M116.81,117.11c-1.19-0.28-2.09-0.53-3.01-0.7
	c-0.87-0.17-1.77-0.19-2.63-0.38c-3.52-0.8-7.02-0.54-10.57-0.09c-4.48,0.56-6.62,3.55-8.01,7.3c-0.82,2.23-0.29,3.35,1.67,4.69
	c4.12,2.82,8.65,3.18,13.52,2.29c-0.98-2.39-0.18-4.4,1.2-6.18c1.12-1.44,2.38-2.78,3.74-4
	C113.85,119.02,115.19,118.25,116.81,117.11z M118.88,120.28c-0.74-0.04-1.5-0.19-2.23-0.09c-2.91,0.37-5.81,3.01-6.47,5.85
	c-0.14,0.62-0.19,1.3-0.09,1.93c0.3,1.83,1.61,2.61,3.36,2.06c0.55-0.18,1.1-0.44,1.59-0.76c2.07-1.36,3.16-3.28,3.24-5.78
	C118.32,122.52,118.08,121.46,118.88,120.28z M157.87,115.89c-0.34,0.28-0.65,0.77-0.94,0.75c-1.57-0.06-1.83,1.13-2.08,2.18
	c-0.27,1.13-0.42,2.33-0.4,3.49c0.03,2,1.07,3.45,2.43,3.7c1.42,0.26,3.15-0.81,3.83-2.57c0.33-0.85,0.51-1.86,0.4-2.75
	C160.86,118.61,159.81,116.95,157.87,115.89z M142.71,119.1c-0.6,0.55-1.02,0.94-1.46,1.33c-0.22,0.2-0.42,0.49-0.67,0.55
	c-0.29,0.07-0.69,0.03-0.94-0.13c-0.12-0.08-0.1-0.58,0.02-0.79c0.2-0.35,0.53-0.62,0.81-0.93c0.77-0.87,1.91-1.42,2.19-2.7
	c0.04-0.18,0.32-0.38,0.52-0.43c2.14-0.53,3.2-2.45,5.04-3.65c-0.67-0.47-1.11-0.87-1.63-1.12c-0.33-0.16-0.85-0.27-1.14-0.12
	c-1.07,0.54-2.09,1.2-3.16,1.84c1.75,1.72,1.75,1.72,1.02,2.81c-0.89-0.62-1.79-1.24-2.71-1.88c-0.81,0.54-1.51,1.01-2.27,1.51
	c0.66,0.63,1.15,1.05,1.59,1.53c0.34,0.37,0.56,0.89,0.05,1.21c-0.23,0.14-0.77-0.02-1.06-0.21c-0.72-0.48-1.37-1.05-2.07-1.61
	c-0.94,0.72-1.73,1.31-2.63,2c1.32,0.79,2.45,1.55,3.83,1.62c0.75,0.04,1.06,0.34,1.16,1.03c0.09,0.61,0.23,1.21,0.36,1.87
	C142.57,121.22,143.05,120.69,142.71,119.1z M133.34,103.5c0.84-0.24,1.73-0.39,2.52-0.75c1.49-0.69,2.16-2.15,1.75-3.49
	c-0.26-0.85-2.35-2.13-3.39-1.94c-0.8,0.14-1.61,0.41-2.33,0.79c-1.57,0.83-2.41,2.27-2.09,3.37
	C130.13,102.61,131.54,103.37,133.34,103.5z M128.8,122.8c1.31,0.39,2.43,0.86,3.81,0.68c-0.17-1.3-0.29-2.46-0.49-3.61
	c-0.06-0.37-0.25-0.84-0.53-1.03c-0.91-0.6-1.89-1.09-3.15-1.79C128.57,119.21,128.68,121.01,128.8,122.8z M134.2,124.03
	c1.4,0.29,2.68,0.56,4.12,0.85c-0.15-0.93-0.2-1.63-0.41-2.29c-0.13-0.4-0.42-0.87-0.78-1.06c-1.01-0.56-2.09-0.99-3.43-1.61
	C133.89,121.46,134.04,122.71,134.2,124.03z M143.44,122.05c-1.35,1.01-2.46,1.84-3.58,2.68c0.24,1.17,0.45,2.17,0.7,3.36
	c1.04-0.97,1.88-1.79,2.77-2.56c0.51-0.44,0.68-0.92,0.51-1.56C143.7,123.47,143.62,122.95,143.44,122.05z M144.11,126.93
	c-1.1,0.9-2.2,1.8-3.38,2.77c0.07,0.6,0.12,1.37,0.27,2.11c0.15,0.73,0.79,0.92,1.28,0.4c1.08-1.15,2.12-2.34,3.12-3.45
	C144.98,128.16,144.56,127.57,144.11,126.93z M125.39,113.95c3.6,1.44,3.6,1.44,5.9-0.87c-0.78-0.52-1.54-1.02-2.39-1.58
	C127.8,112.27,126.71,113.02,125.39,113.95z M135.41,115.48c-0.77-0.46-1.34-0.84-1.96-1.14c-0.23-0.11-0.62-0.13-0.83,0
	c-0.84,0.51-1.63,1.09-2.66,1.78c1.05,0.59,1.85,1.04,2.68,1.51C133.57,116.91,134.4,116.26,135.41,115.48z M133.24,108.69
	c-0.95,0.65-1.81,1.23-2.7,1.83c2.19,1.94,2.5,2.22,4.8,0.06C134.68,110,134.03,109.41,133.24,108.69z M134.57,127.59
	c1.43,0.13,2.79,0.26,4.32,0.41c-0.11-0.73-0.19-1.22-0.25-1.64c-1.49-0.23-2.83-0.43-4.33-0.66
	C134.41,126.43,134.48,126.93,134.57,127.59z M124.64,126.01c1.07,0.13,1.96,0.23,3.02,0.36c-0.12-0.93-0.21-1.62-0.3-2.3
	c-0.96-0.32-1.79-0.6-2.72-0.9C124.64,124.12,124.64,124.93,124.64,126.01z M132.84,127.24c-0.04-0.74-0.07-1.29-0.1-1.94
	c-1.26-0.25-2.42-0.48-3.78-0.75c0.15,0.9,0.25,1.5,0.35,2.16C130.51,126.89,131.58,127.05,132.84,127.24z M147.93,123.82
	c-2.39,1.44-2.67,1.51-1.62,4.1C148.62,126.23,148.62,126.23,147.93,123.82z M153.74,125.73c-1.14-2.42-0.91-4.93-0.35-7.78
	C151.18,120.99,151.35,123.96,153.74,125.73z M147.17,119.56c-2.53,1.32-2.76,1.49-1.68,3.85
	C148.04,121.95,148.03,121.75,147.17,119.56z M134.64,113.24c0.82,0.48,1.46,0.86,2.18,1.28c0.72-0.48,1.42-0.94,2.18-1.43
	C136.91,111.51,136.91,111.51,134.64,113.24z M150.82,116.26c-0.24-0.77-0.38-1.46-0.66-2.09c-0.32-0.75-0.73-0.82-1.39-0.36
	c-0.98,0.68-1.03,1.09-0.33,2.73C149.13,116.45,149.81,116.38,150.82,116.26z M144.62,119.23c2.35-1.46,2.73-1.43,1.72-3.17
	C144.03,117.59,144,117.64,144.62,119.23z M119.4,126.55c1.64-1.55,1.84-3.25,0.56-5.03C119.77,123.21,119.58,124.88,119.4,126.55z
	 M148.74,119.12c0.12,0.01,0.25,0.03,0.37,0.04c0.07-0.31,0.14-0.62,0.21-0.92c-0.11-0.02-0.21-0.05-0.32-0.07
	C148.92,118.49,148.83,118.8,148.74,119.12z"/>
<path d="M114.58,132.47c3.38,0.25,6.29,0.96,8.9,2.62c0.54,0.34,1.03,0.8,1.46,1.27c0.14,0.16,0.16,0.69,0.04,0.77
	c-0.24,0.17-0.62,0.21-0.93,0.18c-0.2-0.02-0.38-0.26-0.57-0.4c-2.77-2.05-5.92-2.89-9.32-2.89c-0.35,0-0.73,0.09-1.05-0.01
	c-0.23-0.07-0.51-0.36-0.53-0.58c-0.02-0.22,0.22-0.6,0.42-0.66C113.61,132.59,114.26,132.53,114.58,132.47z"/>
<path d="M120.2,83.05c0.76-0.17,1.37-0.14,1.71,0.76c0.35,0.95,1.17,1.45,2.09,1.79c2.18,0.81,4.43,1.39,6.75,1.26
	c3.06-0.17,5.62-1.32,7.06-4.26c0.1-0.21,0.18-0.48,0.36-0.6c0.21-0.15,0.56-0.31,0.75-0.23c0.21,0.09,0.47,0.47,0.43,0.67
	c-0.1,0.51-0.29,1.03-0.55,1.48c-1.64,2.78-4.25,4.06-7.32,4.37c-2.94,0.3-5.77-0.37-8.47-1.51c-1.64-0.69-2.65-1.92-2.73-3.79
	C120.26,82.99,120.2,83.05,120.2,83.05z"/>
<path d="M150.36,91.4c-1.06-0.36-2.3-0.59-3.34-1.18c-1.31-0.75-1.2-2.13,0.07-2.99c1.91-1.29,5.05-1.13,6.81,0.34
	c1.2,1.01,1.13,2.29-0.3,2.94C152.66,90.95,151.58,91.08,150.36,91.4z"/>
<path d="M162.78,129.05c-0.49,0.21-0.81,0.36-1.14,0.49c-0.61,0.23-1.23,0.44-1.83,0.68c-2.81,1.12-5.56,2.35-7.8,4.47
	c-0.23,0.22-0.81,0.37-1.05,0.24c-0.55-0.31-0.34-0.85,0-1.21c0.48-0.51,1.01-1,1.59-1.41c2.48-1.76,5.22-3,8.1-3.96
	c0.33-0.11,0.7-0.2,1.03-0.15C161.91,128.22,162.1,128.5,162.78,129.05z"/>
</svg>
